M48
; DRILL file {KiCad 9.0.4} date 2025-09-13T21:55:07+0100
; FORMAT={-:-/ absolute / metric / decimal}
; #@! TF.CreationDate,2025-09-13T21:55:07+01:00
; #@! TF.GenerationSoftware,Kicad,Pcbnew,9.0.4
; #@! TF.FileFunction,MixedPlating,1,2
FMAT,2
METRIC
; #@! TA.AperFunction,Plated,PTH,ViaDrill
T1C0.300
; #@! TA.AperFunction,Plated,PTH,ViaDrill
T2C0.400
; #@! TA.AperFunction,Plated,PTH,ComponentDrill
T3C0.800
; #@! TA.AperFunction,Plated,PTH,ComponentDrill
T4C1.000
; #@! TA.AperFunction,Plated,PTH,ComponentDrill
T5C1.245
; #@! TA.AperFunction,NonPlated,NPTH,ComponentDrill
T6C1.194
%
G90
G05
T1
X53.377Y-103.033
X62.046Y-110.295
X62.261Y-136.416
X67.89Y-100.46
X68.016Y-95.06
X69.484Y-95.57
X69.718Y-123.007
X70.878Y-127.634
X81.979Y-106.739
X82.432Y-114.208
X82.494Y-138.43
X83.096Y-136.668
X85.06Y-132.303
X86.243Y-129.549
X93.95Y-122.166
X93.98Y-58.42
X97.572Y-118.11
X98.601Y-122.395
X99.202Y-125.963
X103.023Y-122.685
X105.41Y-125.047
X108.585Y-121.285
T2
X62.023Y-139.313
T3
X55.245Y-80.01
X55.245Y-87.63
X55.785Y-52.705
X55.88Y-104.14
X55.88Y-106.68
X55.88Y-109.22
X55.88Y-111.76
X55.88Y-114.3
X55.88Y-116.84
X55.88Y-119.38
X56.515Y-59.055
X56.515Y-66.675
X57.785Y-52.705
X58.44Y-99.695
X59.68Y-76.2
X59.68Y-91.44
X60.94Y-99.695
X61.595Y-59.055
X61.595Y-66.675
X62.22Y-76.2
X62.22Y-91.44
X63.5Y-104.14
X63.5Y-106.68
X63.5Y-109.22
X63.5Y-111.76
X63.5Y-114.3
X63.5Y-116.84
X63.5Y-119.38
X64.76Y-76.2
X64.76Y-91.44
X65.31Y-52.705
X66.675Y-59.055
X66.675Y-66.675
X67.3Y-76.2
X67.3Y-91.44
X67.31Y-52.705
X67.31Y-71.12
X67.31Y-86.36
X69.84Y-76.2
X69.84Y-91.44
X69.85Y-71.12
X69.85Y-86.36
X71.755Y-59.055
X71.755Y-66.675
X71.755Y-104.14
X71.755Y-106.68
X71.755Y-109.22
X71.755Y-111.76
X71.755Y-114.3
X71.755Y-116.84
X71.755Y-119.38
X72.38Y-76.2
X72.38Y-91.44
X72.39Y-71.12
X72.39Y-86.36
X74.315Y-99.695
X74.92Y-76.2
X74.92Y-91.44
X74.93Y-71.12
X74.93Y-86.36
X76.815Y-99.695
X76.835Y-59.055
X76.835Y-66.675
X77.46Y-76.2
X77.46Y-91.44
X77.47Y-71.12
X77.47Y-86.36
X79.375Y-104.14
X79.375Y-106.68
X79.375Y-109.22
X79.375Y-111.76
X79.375Y-114.3
X79.375Y-116.84
X79.375Y-119.38
X80.0Y-76.2
X80.0Y-91.44
X80.01Y-71.12
X80.01Y-86.36
X81.915Y-59.055
X81.915Y-66.675
X82.54Y-76.2
X82.54Y-91.44
X82.55Y-71.12
X82.55Y-86.36
X85.08Y-76.2
X85.08Y-91.44
X85.09Y-71.12
X85.09Y-86.36
X86.995Y-59.055
X86.995Y-66.675
X87.555Y-125.73
X87.555Y-133.35
X87.62Y-76.2
X87.62Y-91.44
X87.63Y-71.12
X87.63Y-86.36
X88.265Y-104.14
X88.265Y-106.68
X88.265Y-109.22
X88.265Y-111.76
X88.265Y-114.3
X88.265Y-116.84
X88.265Y-119.38
X90.16Y-76.2
X90.16Y-91.44
X90.17Y-71.12
X90.17Y-86.36
X90.825Y-99.695
X92.075Y-59.055
X92.075Y-66.675
X92.7Y-76.2
X92.7Y-91.44
X92.705Y-125.73
X92.705Y-133.35
X92.71Y-71.12
X92.71Y-86.36
X93.325Y-99.695
X95.24Y-76.2
X95.24Y-91.44
X95.25Y-71.12
X95.25Y-86.36
X95.885Y-104.14
X95.885Y-106.68
X95.885Y-109.22
X95.885Y-111.76
X95.885Y-114.3
X95.885Y-116.84
X95.885Y-119.38
X95.905Y-59.055
X95.905Y-66.675
X97.78Y-76.2
X97.78Y-91.44
X97.785Y-125.73
X97.785Y-133.35
X97.79Y-71.12
X97.79Y-86.36
X98.405Y-59.055
X98.405Y-66.675
X100.32Y-76.2
X100.32Y-91.44
X100.33Y-71.12
X100.33Y-86.36
X102.86Y-76.2
X102.86Y-91.44
X104.14Y-125.73
X104.14Y-133.35
X104.16Y-104.14
X104.16Y-106.68
X104.16Y-109.22
X104.16Y-111.76
X104.16Y-114.3
X104.16Y-116.84
X104.16Y-119.38
X105.4Y-76.2
X105.4Y-91.44
X106.68Y-125.73
X106.68Y-133.35
X106.72Y-99.695
X107.94Y-76.2
X107.94Y-91.44
X109.22Y-99.695
X109.22Y-125.73
X109.22Y-133.35
X111.125Y-88.9
X111.125Y-91.4
X111.78Y-104.14
X111.78Y-106.68
X111.78Y-109.22
X111.78Y-111.76
X111.78Y-114.3
X111.78Y-116.84
X111.78Y-119.38
T4
X86.355Y-54.61
X88.895Y-54.61
X91.435Y-54.61
T5
X101.845Y-57.84
X104.345Y-57.84
X106.845Y-52.84
X109.345Y-57.84
X111.845Y-57.84
T6
X101.845Y-50.34
X101.845Y-52.84
X106.845Y-57.84
X111.845Y-50.34
X111.845Y-52.84
M30
