M48
; DRILL file {KiCad 9.0.3} date 2025-08-12T20:28:34+0100
; FORMAT={-:-/ absolute / metric / decimal}
; #@! TF.CreationDate,2025-08-12T20:28:34+01:00
; #@! TF.GenerationSoftware,Kicad,Pcbnew,9.0.3
; #@! TF.FileFunction,Plated,1,2,PTH
FMAT,2
METRIC
; #@! TA.AperFunction,Plated,PTH,ViaDrill
T1C0.300
; #@! TA.AperFunction,Plated,PTH,ViaDrill
T2C0.400
; #@! TA.AperFunction,Plated,PTH,ComponentDrill
T3C0.800
; #@! TA.AperFunction,Plated,PTH,ComponentDrill
T4C1.000
; #@! TA.AperFunction,Plated,PTH,ComponentDrill
T5C1.245
%
G90
G05
T1
X53.468Y-99.903
X55.547Y-140.047
X63.653Y-123.841
X64.427Y-94.793
X65.651Y-93.559
X66.036Y-68.115
X70.176Y-140.395
X70.9Y-93.204
X74.914Y-139.863
X79.052Y-114.687
X79.052Y-118.231
X79.472Y-95.18
X81.73Y-138.707
X82.709Y-138.94
X83.283Y-138.105
X85.263Y-65.315
X87.442Y-115.617
X87.995Y-121.25
X88.442Y-107.572
X96.033Y-130.492
X98.218Y-124.333
X103.385Y-124.628
T2
X61.629Y-144.255
T3
X55.88Y-69.215
X55.88Y-76.835
X55.88Y-104.14
X55.88Y-106.68
X55.88Y-109.22
X55.88Y-111.76
X55.88Y-114.3
X55.88Y-116.84
X55.88Y-119.38
X59.06Y-71.12
X59.08Y-63.5
X59.68Y-76.2
X59.68Y-91.44
X59.71Y-99.695
X61.56Y-71.12
X61.58Y-63.5
X62.21Y-99.695
X62.22Y-76.2
X62.22Y-91.44
X64.035Y-53.975
X64.76Y-76.2
X64.76Y-91.44
X66.035Y-53.975
X66.04Y-104.14
X66.04Y-106.68
X66.04Y-109.22
X66.04Y-111.76
X66.04Y-114.3
X66.04Y-116.84
X66.04Y-119.38
X66.675Y-63.5
X66.675Y-71.12
X67.3Y-76.2
X67.3Y-91.44
X69.84Y-76.2
X69.84Y-91.44
X71.115Y-53.975
X71.12Y-104.14
X71.12Y-106.68
X71.12Y-109.22
X71.12Y-111.76
X71.12Y-114.3
X71.12Y-116.84
X71.12Y-119.38
X71.755Y-63.5
X71.755Y-71.12
X72.38Y-76.2
X72.38Y-91.44
X73.115Y-53.975
X74.92Y-76.2
X74.92Y-91.44
X74.95Y-99.695
X76.835Y-63.5
X76.835Y-71.12
X77.45Y-99.695
X77.46Y-76.2
X77.46Y-91.44
X80.0Y-76.2
X80.0Y-91.44
X81.28Y-104.14
X81.28Y-106.68
X81.28Y-109.22
X81.28Y-111.76
X81.28Y-114.3
X81.28Y-116.84
X81.28Y-119.38
X81.915Y-63.5
X81.915Y-71.12
X82.54Y-76.2
X82.54Y-91.44
X85.08Y-76.2
X85.08Y-91.44
X86.36Y-104.14
X86.36Y-106.68
X86.36Y-109.22
X86.36Y-111.76
X86.36Y-114.3
X86.36Y-116.84
X86.36Y-119.38
X86.995Y-63.5
X86.995Y-71.12
X87.555Y-125.73
X87.555Y-133.35
X87.62Y-76.2
X87.62Y-91.44
X90.16Y-76.2
X90.16Y-91.44
X90.19Y-99.695
X92.075Y-63.5
X92.075Y-71.12
X92.69Y-99.695
X92.7Y-76.2
X92.7Y-91.44
X92.705Y-125.73
X92.705Y-133.35
X95.24Y-76.2
X95.24Y-91.44
X96.52Y-104.14
X96.52Y-106.68
X96.52Y-109.22
X96.52Y-111.76
X96.52Y-114.3
X96.52Y-116.84
X96.52Y-119.38
X97.155Y-63.5
X97.155Y-71.12
X97.78Y-76.2
X97.78Y-91.44
X97.785Y-125.73
X97.785Y-133.35
X100.32Y-76.2
X100.32Y-91.44
X101.6Y-104.14
X101.6Y-106.68
X101.6Y-109.22
X101.6Y-111.76
X101.6Y-114.3
X101.6Y-116.84
X101.6Y-119.38
X102.235Y-63.5
X102.235Y-71.12
X102.86Y-76.2
X102.86Y-91.44
X104.14Y-125.73
X104.14Y-133.35
X105.4Y-76.2
X105.4Y-91.44
X105.43Y-99.695
X106.68Y-125.73
X106.68Y-133.35
X107.93Y-99.695
X107.94Y-76.2
X107.94Y-91.44
X109.22Y-125.73
X109.22Y-133.35
X111.755Y-88.9
X111.755Y-91.4
X111.76Y-104.14
X111.76Y-106.68
X111.76Y-109.22
X111.76Y-111.76
X111.76Y-114.3
X111.76Y-116.84
X111.76Y-119.38
T4
X86.355Y-54.61
X88.895Y-54.61
X91.435Y-54.61
T5
X101.845Y-57.84
X104.345Y-57.84
X106.845Y-52.84
X109.345Y-57.84
X111.845Y-57.84
M30
