%TF.GenerationSoftware,KiCad,Pcbnew,9.0.3*%
%TF.CreationDate,2025-08-16T15:22:46+01:00*%
%TF.ProjectId,JONZON-X-81,4a4f4e5a-4f4e-42d5-982d-38312e6b6963,1.1*%
%TF.SameCoordinates,Original*%
%TF.FileFunction,Soldermask,Top*%
%TF.FilePolarity,Negative*%
%FSLAX46Y46*%
G04 Gerber Fmt 4.6, Leading zero omitted, Abs format (unit mm)*
G04 Created by KiCad (PCBNEW 9.0.3) date 2025-08-16 15:22:46*
%MOMM*%
%LPD*%
G01*
G04 APERTURE LIST*
G04 Aperture macros list*
%AMRoundRect*
0 Rectangle with rounded corners*
0 $1 Rounding radius*
0 $2 $3 $4 $5 $6 $7 $8 $9 X,Y pos of 4 corners*
0 Add a 4 corners polygon primitive as box body*
4,1,4,$2,$3,$4,$5,$6,$7,$8,$9,$2,$3,0*
0 Add four circle primitives for the rounded corners*
1,1,$1+$1,$2,$3*
1,1,$1+$1,$4,$5*
1,1,$1+$1,$6,$7*
1,1,$1+$1,$8,$9*
0 Add four rect primitives between the rounded corners*
20,1,$1+$1,$2,$3,$4,$5,0*
20,1,$1+$1,$4,$5,$6,$7,0*
20,1,$1+$1,$6,$7,$8,$9,0*
20,1,$1+$1,$8,$9,$2,$3,0*%
G04 Aperture macros list end*
%ADD10C,1.600000*%
%ADD11RoundRect,0.250000X-0.550000X0.950000X-0.550000X-0.950000X0.550000X-0.950000X0.550000X0.950000X0*%
%ADD12O,1.600000X2.400000*%
%ADD13R,1.778000X7.620000*%
%ADD14RoundRect,0.250000X-0.550000X0.550000X-0.550000X-0.550000X0.550000X-0.550000X0.550000X0.550000X0*%
%ADD15R,1.700000X1.700000*%
%ADD16C,1.700000*%
%ADD17RoundRect,0.250000X-0.550000X-0.550000X0.550000X-0.550000X0.550000X0.550000X-0.550000X0.550000X0*%
%ADD18C,1.193800*%
%ADD19C,1.752600*%
%ADD20RoundRect,0.250000X-0.950000X-0.550000X0.950000X-0.550000X0.950000X0.550000X-0.950000X0.550000X0*%
%ADD21O,2.400000X1.600000*%
G04 APERTURE END LIST*
D10*
%TO.C,C5*%
X59710000Y-100965000D03*
X62210000Y-100965000D03*
%TD*%
%TO.C,R4*%
X102235000Y-71120000D03*
X102235000Y-63500000D03*
%TD*%
D11*
%TO.C,U1*%
X107940000Y-76200000D03*
D12*
X105400000Y-76200000D03*
X102860000Y-76200000D03*
X100320000Y-76200000D03*
X97780000Y-76200000D03*
X95240000Y-76200000D03*
X92700000Y-76200000D03*
X90160000Y-76200000D03*
X87620000Y-76200000D03*
X85080000Y-76200000D03*
X82540000Y-76200000D03*
X80000000Y-76200000D03*
X77460000Y-76200000D03*
X74920000Y-76200000D03*
X72380000Y-76200000D03*
X69840000Y-76200000D03*
X67300000Y-76200000D03*
X64760000Y-76200000D03*
X62220000Y-76200000D03*
X59680000Y-76200000D03*
X59680000Y-91440000D03*
X62220000Y-91440000D03*
X64760000Y-91440000D03*
X67300000Y-91440000D03*
X69840000Y-91440000D03*
X72380000Y-91440000D03*
X74920000Y-91440000D03*
X77460000Y-91440000D03*
X80000000Y-91440000D03*
X82540000Y-91440000D03*
X85080000Y-91440000D03*
X87620000Y-91440000D03*
X90160000Y-91440000D03*
X92700000Y-91440000D03*
X95240000Y-91440000D03*
X97780000Y-91440000D03*
X100320000Y-91440000D03*
X102860000Y-91440000D03*
X105400000Y-91440000D03*
X107940000Y-91440000D03*
%TD*%
D10*
%TO.C,R11*%
X66675000Y-63500000D03*
X66675000Y-71120000D03*
%TD*%
%TO.C,C3*%
X106065000Y-65405000D03*
X108565000Y-65405000D03*
%TD*%
%TO.C,R3*%
X87555000Y-125730000D03*
X87555000Y-133350000D03*
%TD*%
%TO.C,C6*%
X74950000Y-100965000D03*
X77450000Y-100965000D03*
%TD*%
D13*
%TO.C,CO1*%
X55874982Y-144780000D03*
X58414982Y-144780000D03*
X63494982Y-144780000D03*
X66034982Y-144780000D03*
X68574982Y-144780000D03*
X71114982Y-144780000D03*
X73654982Y-144780000D03*
X76194982Y-144780000D03*
X78724982Y-144780000D03*
X81274982Y-144780000D03*
X83814982Y-144780000D03*
X86354982Y-144780000D03*
X88894982Y-144780000D03*
X91434982Y-144780000D03*
X93974982Y-144780000D03*
X96514982Y-144780000D03*
X99054982Y-144780000D03*
X101594982Y-144780000D03*
X104134982Y-144780000D03*
X106674982Y-144780000D03*
X109214982Y-144780000D03*
X111754982Y-144780000D03*
%TD*%
D10*
%TO.C,R1*%
X97785000Y-125730000D03*
X97785000Y-133350000D03*
%TD*%
D14*
%TO.C,SW1*%
X109220000Y-125730000D03*
D10*
X106680000Y-125730000D03*
X104140000Y-125730000D03*
X104140000Y-133350000D03*
X106680000Y-133350000D03*
X109220000Y-133350000D03*
%TD*%
%TO.C,R8*%
X81915000Y-63500000D03*
X81915000Y-71120000D03*
%TD*%
%TO.C,R2*%
X92705000Y-125730000D03*
X92705000Y-133350000D03*
%TD*%
%TO.C,R12*%
X55245000Y-87630000D03*
X55245000Y-80010000D03*
%TD*%
D15*
%TO.C,CO3*%
X86355000Y-54610000D03*
D16*
X88895000Y-54610000D03*
X91435000Y-54610000D03*
%TD*%
D10*
%TO.C,C4*%
X106065000Y-69215000D03*
X108565000Y-69215000D03*
%TD*%
D17*
%TO.C,C2*%
X64035000Y-55880000D03*
D10*
X66035000Y-55880000D03*
%TD*%
%TO.C,R7*%
X86995000Y-63500000D03*
X86995000Y-71120000D03*
%TD*%
%TO.C,R5*%
X97155000Y-71120000D03*
X97155000Y-63500000D03*
%TD*%
D18*
%TO.C,CO2*%
X111845100Y-52840000D03*
X111845100Y-50340000D03*
X106845100Y-57840000D03*
X101845100Y-52840000D03*
X101845100Y-50340000D03*
D19*
X111845100Y-57840000D03*
X109345100Y-57840000D03*
X104345100Y-57840000D03*
X101845100Y-57840000D03*
X106845100Y-52840000D03*
%TD*%
D20*
%TO.C,U4*%
X86360000Y-104140000D03*
D21*
X86360000Y-106680000D03*
X86360000Y-109220000D03*
X86360000Y-111760000D03*
X86360000Y-114300000D03*
X86360000Y-116840000D03*
X86360000Y-119380000D03*
X96520000Y-119380000D03*
X96520000Y-116840000D03*
X96520000Y-114300000D03*
X96520000Y-111760000D03*
X96520000Y-109220000D03*
X96520000Y-106680000D03*
X96520000Y-104140000D03*
%TD*%
D20*
%TO.C,U5*%
X101600000Y-104140000D03*
D21*
X101600000Y-106680000D03*
X101600000Y-109220000D03*
X101600000Y-111760000D03*
X101600000Y-114300000D03*
X101600000Y-116840000D03*
X101600000Y-119380000D03*
X111760000Y-119380000D03*
X111760000Y-116840000D03*
X111760000Y-114300000D03*
X111760000Y-111760000D03*
X111760000Y-109220000D03*
X111760000Y-106680000D03*
X111760000Y-104140000D03*
%TD*%
D17*
%TO.C,C1*%
X71115000Y-55880000D03*
D10*
X73115000Y-55880000D03*
%TD*%
%TO.C,R6*%
X92075000Y-63500000D03*
X92075000Y-71120000D03*
%TD*%
%TO.C,C9*%
X111125000Y-88900000D03*
X111125000Y-91400000D03*
%TD*%
D20*
%TO.C,U3*%
X71120000Y-104140000D03*
D21*
X71120000Y-106680000D03*
X71120000Y-109220000D03*
X71120000Y-111760000D03*
X71120000Y-114300000D03*
X71120000Y-116840000D03*
X71120000Y-119380000D03*
X81280000Y-119380000D03*
X81280000Y-116840000D03*
X81280000Y-114300000D03*
X81280000Y-111760000D03*
X81280000Y-109220000D03*
X81280000Y-106680000D03*
X81280000Y-104140000D03*
%TD*%
D20*
%TO.C,U2*%
X55880000Y-104140000D03*
D21*
X55880000Y-106680000D03*
X55880000Y-109220000D03*
X55880000Y-111760000D03*
X55880000Y-114300000D03*
X55880000Y-116840000D03*
X55880000Y-119380000D03*
X66040000Y-119380000D03*
X66040000Y-116840000D03*
X66040000Y-114300000D03*
X66040000Y-111760000D03*
X66040000Y-109220000D03*
X66040000Y-106680000D03*
X66040000Y-104140000D03*
%TD*%
D10*
%TO.C,R10*%
X71755000Y-63500000D03*
X71755000Y-71120000D03*
%TD*%
%TO.C,C7*%
X90190000Y-100965000D03*
X92690000Y-100965000D03*
%TD*%
%TO.C,C8*%
X107930000Y-100965000D03*
X105430000Y-100965000D03*
%TD*%
%TO.C,R9*%
X76835000Y-63500000D03*
X76835000Y-71120000D03*
%TD*%
M02*
