M48
; DRILL file {KiCad 9.0.3} date 2025-08-19T20:19:18+0100
; FORMAT={-:-/ absolute / metric / decimal}
; #@! TF.CreationDate,2025-08-19T20:19:18+01:00
; #@! TF.GenerationSoftware,Kicad,Pcbnew,9.0.3
; #@! TF.FileFunction,MixedPlating,1,2
FMAT,2
METRIC
; #@! TA.AperFunction,Plated,PTH,ViaDrill
T1C0.300
; #@! TA.AperFunction,Plated,PTH,ComponentDrill
T2C0.800
; #@! TA.AperFunction,Plated,PTH,ComponentDrill
T3C1.000
; #@! TA.AperFunction,Plated,PTH,ComponentDrill
T4C1.245
; #@! TA.AperFunction,NonPlated,NPTH,ComponentDrill
T5C1.194
%
G90
G05
T1
X53.34Y-49.53
X53.34Y-50.8
X53.34Y-52.07
X53.34Y-53.34
X53.34Y-54.61
X53.34Y-55.88
X53.34Y-57.15
X53.34Y-58.42
X53.34Y-59.69
X53.34Y-60.96
X53.34Y-62.23
X53.34Y-63.5
X53.34Y-64.77
X53.34Y-66.04
X53.34Y-67.31
X53.34Y-68.58
X53.34Y-69.85
X53.34Y-71.12
X53.34Y-72.39
X53.34Y-73.66
X53.34Y-74.93
X53.34Y-76.2
X53.34Y-77.47
X53.34Y-78.74
X53.34Y-80.01
X53.34Y-87.63
X53.34Y-88.9
X53.34Y-90.17
X53.34Y-91.44
X53.34Y-92.71
X53.34Y-93.98
X53.34Y-95.25
X53.34Y-96.52
X53.34Y-97.79
X53.34Y-99.06
X53.34Y-100.33
X53.34Y-101.6
X53.34Y-102.87
X53.34Y-104.14
X53.34Y-105.41
X53.34Y-106.68
X53.34Y-107.95
X53.34Y-109.22
X53.34Y-110.49
X53.34Y-111.76
X53.34Y-113.03
X53.34Y-114.3
X53.34Y-115.57
X53.34Y-116.84
X53.34Y-118.11
X53.34Y-119.38
X53.34Y-120.65
X53.34Y-121.92
X53.34Y-123.19
X53.34Y-124.46
X53.34Y-125.73
X53.34Y-127.0
X53.34Y-128.27
X53.34Y-129.54
X53.34Y-130.81
X53.34Y-132.08
X53.34Y-133.35
X53.34Y-134.62
X53.34Y-135.89
X53.34Y-137.16
X53.34Y-138.43
X53.34Y-139.7
X53.34Y-140.97
X53.34Y-142.24
X53.34Y-143.51
X53.34Y-144.78
X53.34Y-146.05
X53.34Y-147.32
X54.61Y-49.53
X54.61Y-50.8
X54.61Y-52.07
X54.61Y-53.34
X54.61Y-54.61
X54.61Y-55.88
X54.61Y-57.15
X54.61Y-58.42
X54.61Y-59.69
X54.61Y-60.96
X54.61Y-62.23
X54.61Y-63.5
X54.61Y-64.77
X54.61Y-66.04
X54.61Y-67.31
X54.61Y-68.58
X54.61Y-69.85
X54.61Y-71.12
X54.61Y-72.39
X54.61Y-73.66
X54.61Y-74.93
X54.61Y-76.2
X54.61Y-77.47
X54.61Y-90.17
X54.61Y-91.44
X54.61Y-92.71
X54.61Y-93.98
X54.61Y-95.25
X54.61Y-96.52
X54.61Y-97.79
X54.61Y-99.06
X54.61Y-100.33
X54.61Y-101.6
X54.61Y-121.92
X54.61Y-123.19
X54.61Y-124.46
X54.61Y-125.73
X54.61Y-127.0
X54.61Y-128.27
X54.61Y-129.54
X54.61Y-130.81
X54.61Y-132.08
X54.61Y-133.35
X54.61Y-134.62
X54.61Y-135.89
X54.61Y-137.16
X54.61Y-138.43
X54.61Y-139.7
X55.88Y-49.53
X55.88Y-50.8
X55.88Y-52.07
X55.88Y-53.34
X55.88Y-54.61
X55.88Y-55.88
X55.88Y-57.15
X55.88Y-58.42
X55.88Y-59.69
X55.88Y-60.96
X55.88Y-62.23
X55.88Y-63.5
X55.88Y-64.77
X55.88Y-66.04
X55.88Y-67.31
X55.88Y-68.58
X55.88Y-69.85
X55.88Y-71.12
X55.88Y-72.39
X55.88Y-73.66
X55.88Y-74.93
X55.88Y-76.2
X55.88Y-77.47
X55.88Y-90.17
X55.88Y-91.44
X55.88Y-92.71
X55.88Y-93.98
X55.88Y-95.25
X55.88Y-96.52
X55.88Y-97.79
X55.88Y-99.06
X55.88Y-100.33
X55.88Y-101.6
X55.88Y-121.92
X55.88Y-123.19
X55.88Y-124.46
X55.88Y-125.73
X55.88Y-127.0
X57.15Y-49.53
X57.15Y-50.8
X57.15Y-52.07
X57.15Y-53.34
X57.15Y-54.61
X57.15Y-55.88
X57.15Y-57.15
X57.15Y-58.42
X57.15Y-59.69
X57.15Y-60.96
X57.15Y-62.23
X57.15Y-63.5
X57.15Y-64.77
X57.15Y-66.04
X57.15Y-67.31
X57.15Y-68.58
X57.15Y-69.85
X57.15Y-71.12
X57.15Y-72.39
X57.15Y-73.66
X57.15Y-74.93
X57.15Y-76.2
X57.15Y-77.47
X57.15Y-90.17
X57.15Y-91.44
X57.15Y-92.71
X57.15Y-93.98
X57.15Y-95.25
X57.15Y-96.52
X57.15Y-97.79
X57.15Y-99.06
X57.15Y-100.33
X57.15Y-101.6
X57.15Y-121.92
X57.15Y-123.19
X57.15Y-124.46
X57.15Y-125.73
X57.15Y-127.0
X57.15Y-132.08
X57.15Y-133.35
X57.15Y-134.62
X57.15Y-135.89
X57.15Y-137.16
X58.42Y-49.53
X58.42Y-50.8
X58.42Y-52.07
X58.42Y-53.34
X58.42Y-54.61
X58.42Y-55.88
X58.42Y-57.15
X58.42Y-58.42
X58.42Y-59.69
X58.42Y-60.96
X58.42Y-62.23
X58.42Y-63.5
X58.42Y-64.77
X58.42Y-66.04
X58.42Y-67.31
X58.42Y-68.58
X58.42Y-69.85
X58.42Y-71.12
X58.42Y-72.39
X58.42Y-73.66
X58.42Y-80.645
X58.42Y-86.995
X58.42Y-93.98
X58.42Y-95.25
X58.42Y-96.52
X58.42Y-97.79
X58.42Y-99.06
X58.42Y-121.92
X58.42Y-123.19
X58.42Y-124.46
X58.42Y-125.73
X58.42Y-127.0
X58.42Y-132.08
X58.42Y-133.35
X58.42Y-134.62
X58.42Y-135.89
X59.69Y-49.53
X59.69Y-50.8
X59.69Y-52.07
X59.69Y-53.34
X59.69Y-54.61
X59.69Y-55.88
X59.69Y-57.15
X59.69Y-58.42
X59.69Y-59.69
X59.69Y-60.96
X59.69Y-62.23
X59.69Y-63.5
X59.69Y-64.77
X59.69Y-66.04
X59.69Y-67.31
X59.69Y-68.58
X59.69Y-69.85
X59.69Y-71.12
X59.69Y-72.39
X59.69Y-73.66
X59.69Y-80.645
X59.69Y-86.995
X59.69Y-93.98
X59.69Y-95.25
X59.69Y-96.52
X59.69Y-97.79
X59.69Y-99.06
X59.69Y-121.92
X59.69Y-123.19
X59.69Y-124.46
X59.69Y-125.73
X59.69Y-132.08
X59.69Y-133.35
X59.69Y-134.62
X60.325Y-138.43
X60.325Y-139.7
X60.325Y-140.97
X60.325Y-142.24
X60.325Y-143.51
X60.325Y-144.78
X60.325Y-146.05
X60.325Y-147.32
X60.96Y-49.53
X60.96Y-50.8
X60.96Y-52.07
X60.96Y-53.34
X60.96Y-54.61
X60.96Y-55.88
X60.96Y-57.15
X60.96Y-58.42
X60.96Y-59.69
X60.96Y-60.96
X60.96Y-62.23
X60.96Y-63.5
X60.96Y-64.77
X60.96Y-66.04
X60.96Y-67.31
X60.96Y-68.58
X60.96Y-69.85
X60.96Y-71.12
X60.96Y-72.39
X60.96Y-73.66
X60.96Y-80.645
X60.96Y-86.995
X60.96Y-123.19
X60.96Y-124.46
X60.96Y-132.08
X60.96Y-133.35
X61.595Y-137.16
X61.595Y-138.43
X61.595Y-139.7
X61.595Y-140.97
X61.595Y-142.24
X61.595Y-143.51
X61.595Y-144.78
X61.595Y-146.05
X61.595Y-147.32
X62.23Y-49.53
X62.23Y-80.645
X62.23Y-86.995
X62.23Y-95.25
X62.23Y-96.52
X62.23Y-123.19
X62.23Y-132.08
X62.865Y-135.89
X62.865Y-137.16
X62.865Y-138.43
X62.865Y-139.7
X63.5Y-49.53
X63.5Y-80.645
X63.5Y-86.995
X63.5Y-93.98
X63.5Y-95.25
X63.5Y-96.52
X64.77Y-49.53
X64.77Y-80.645
X64.77Y-86.995
X64.77Y-95.25
X66.04Y-49.53
X66.04Y-80.645
X66.04Y-86.995
X67.31Y-49.53
X67.31Y-80.645
X67.31Y-86.995
X67.938Y-93.706
X68.252Y-95.379
X68.575Y-139.258
X68.58Y-49.53
X68.58Y-80.645
X68.58Y-86.995
X68.788Y-94.338
X68.811Y-116.521
X69.215Y-132.08
X69.215Y-133.35
X69.215Y-134.62
X69.215Y-135.89
X69.215Y-137.16
X69.215Y-138.43
X69.85Y-49.53
X69.85Y-80.645
X69.85Y-86.995
X69.85Y-139.7
X69.954Y-124.647
X70.485Y-132.08
X70.485Y-133.35
X70.485Y-134.62
X70.485Y-135.89
X70.485Y-137.16
X70.485Y-138.43
X71.12Y-49.53
X71.12Y-80.645
X71.12Y-86.995
X71.15Y-67.51
X71.56Y-139.439
X71.755Y-132.08
X71.755Y-133.35
X71.755Y-134.62
X71.755Y-135.89
X71.755Y-137.16
X72.39Y-49.53
X72.39Y-80.645
X72.39Y-86.995
X72.39Y-123.825
X73.025Y-132.08
X73.025Y-133.35
X73.025Y-134.62
X73.025Y-135.89
X73.66Y-49.53
X73.66Y-80.645
X73.66Y-86.995
X73.66Y-123.825
X74.295Y-132.08
X74.295Y-133.35
X74.295Y-134.62
X74.93Y-49.53
X74.93Y-80.645
X74.93Y-86.995
X74.93Y-123.825
X75.005Y-119.305
X75.883Y-110.926
X76.2Y-49.53
X76.2Y-80.645
X76.2Y-86.995
X77.47Y-49.53
X77.47Y-80.645
X77.47Y-86.995
X78.105Y-123.825
X78.105Y-129.54
X78.105Y-130.81
X78.105Y-132.08
X78.105Y-133.35
X78.105Y-134.62
X78.74Y-49.53
X78.74Y-57.785
X78.74Y-59.055
X78.74Y-60.325
X78.74Y-61.595
X78.74Y-80.645
X78.74Y-86.995
X78.74Y-97.79
X79.052Y-114.277
X79.375Y-123.825
X79.375Y-129.54
X79.375Y-130.81
X79.375Y-132.08
X79.375Y-133.35
X80.01Y-49.53
X80.01Y-56.515
X80.01Y-57.785
X80.01Y-59.055
X80.01Y-60.325
X80.01Y-61.595
X80.01Y-80.645
X80.01Y-86.995
X80.01Y-97.79
X80.645Y-123.825
X80.645Y-129.54
X80.645Y-130.81
X80.645Y-132.08
X81.28Y-49.53
X81.28Y-56.515
X81.28Y-57.785
X81.28Y-59.055
X81.28Y-60.325
X81.28Y-61.595
X81.28Y-80.645
X81.28Y-86.995
X81.28Y-97.79
X81.915Y-123.825
X81.915Y-129.54
X81.915Y-130.81
X82.55Y-49.53
X82.55Y-56.515
X82.55Y-57.785
X82.55Y-59.055
X82.55Y-60.325
X82.55Y-61.595
X82.55Y-80.645
X82.55Y-86.995
X82.55Y-97.79
X83.001Y-110.039
X83.185Y-123.825
X83.185Y-129.54
X83.82Y-49.53
X83.82Y-56.515
X83.82Y-57.785
X83.82Y-59.055
X83.82Y-60.325
X83.82Y-61.595
X83.82Y-80.645
X83.82Y-86.995
X84.53Y-131.955
X85.09Y-49.53
X85.09Y-57.785
X85.09Y-59.055
X85.09Y-60.325
X85.09Y-61.595
X85.09Y-80.645
X85.09Y-86.995
X85.18Y-131.325
X86.36Y-49.53
X86.36Y-57.785
X86.36Y-59.055
X86.36Y-60.325
X86.36Y-61.595
X86.36Y-80.645
X86.36Y-86.995
X87.63Y-49.53
X87.63Y-57.785
X87.63Y-59.055
X87.63Y-60.325
X87.63Y-80.645
X87.63Y-86.995
X87.756Y-129.572
X88.879Y-120.836
X88.9Y-49.53
X88.9Y-57.785
X88.9Y-59.055
X88.9Y-60.325
X88.9Y-80.645
X88.9Y-86.995
X90.17Y-49.53
X90.17Y-57.785
X90.17Y-59.055
X90.17Y-60.325
X90.17Y-80.645
X90.17Y-86.995
X90.805Y-97.79
X91.339Y-122.604
X91.44Y-49.53
X91.44Y-57.785
X91.44Y-59.055
X91.44Y-60.325
X91.44Y-80.645
X91.44Y-86.995
X92.075Y-97.79
X92.71Y-49.53
X92.71Y-57.785
X92.71Y-59.055
X92.71Y-60.325
X92.71Y-80.645
X92.71Y-86.995
X93.345Y-97.79
X93.98Y-49.53
X93.98Y-50.8
X93.98Y-52.07
X93.98Y-53.34
X93.98Y-54.61
X93.98Y-57.785
X93.98Y-59.055
X93.98Y-60.325
X93.98Y-80.645
X93.98Y-86.995
X94.015Y-126.607
X95.25Y-49.53
X95.25Y-50.8
X95.25Y-52.07
X95.25Y-53.34
X95.25Y-54.61
X95.25Y-57.785
X95.25Y-59.055
X95.25Y-60.325
X95.25Y-80.645
X95.25Y-86.995
X96.52Y-49.53
X96.52Y-50.8
X96.52Y-52.07
X96.52Y-53.34
X96.52Y-54.61
X96.52Y-57.785
X96.52Y-59.055
X96.52Y-60.325
X96.52Y-80.645
X96.52Y-86.995
X96.52Y-97.79
X96.52Y-99.06
X96.52Y-100.33
X96.52Y-101.6
X96.554Y-124.654
X97.79Y-49.53
X97.79Y-50.8
X97.79Y-52.07
X97.79Y-53.34
X97.79Y-54.61
X97.79Y-57.785
X97.79Y-59.055
X97.79Y-60.325
X97.79Y-80.645
X97.79Y-86.995
X97.79Y-97.79
X97.79Y-99.06
X97.79Y-100.33
X97.79Y-101.6
X98.098Y-117.622
X99.06Y-49.53
X99.06Y-50.8
X99.06Y-52.07
X99.06Y-53.34
X99.06Y-54.61
X99.06Y-57.785
X99.06Y-59.055
X99.06Y-60.325
X99.06Y-80.645
X99.06Y-86.995
X99.06Y-97.79
X99.06Y-99.06
X99.06Y-100.33
X99.06Y-101.6
X99.818Y-114.084
X100.212Y-122.604
X100.33Y-80.645
X100.33Y-86.995
X100.33Y-97.79
X100.33Y-99.06
X100.33Y-100.33
X100.33Y-124.46
X101.6Y-80.645
X101.6Y-86.995
X101.6Y-97.79
X101.6Y-99.06
X101.6Y-100.33
X101.6Y-121.92
X101.6Y-123.19
X101.6Y-124.46
X102.587Y-96.329
X102.87Y-80.645
X102.87Y-121.92
X102.87Y-123.19
X104.14Y-121.92
X104.775Y-86.995
X104.897Y-119.435
X105.41Y-93.98
X106.045Y-86.995
X106.68Y-93.98
X106.68Y-95.25
X107.95Y-93.98
X107.95Y-95.25
X107.95Y-96.52
X107.95Y-121.886
X109.22Y-93.98
X109.22Y-95.25
X109.22Y-96.52
X109.22Y-97.79
X109.22Y-121.886
X110.49Y-80.645
X110.49Y-86.995
X110.49Y-93.98
X110.49Y-95.25
X110.49Y-96.52
X110.49Y-97.79
X110.49Y-99.06
X110.49Y-121.886
X111.76Y-80.645
X111.76Y-86.995
X111.76Y-93.98
X111.76Y-95.25
X111.76Y-96.52
X111.76Y-97.79
X111.76Y-99.06
X111.76Y-100.33
X111.76Y-121.92
X113.03Y-80.645
X113.03Y-86.995
X113.03Y-121.92
X113.03Y-123.19
X113.03Y-124.46
X113.03Y-125.73
X113.03Y-127.0
X113.03Y-128.27
X113.03Y-129.54
X113.03Y-130.81
X113.03Y-132.08
X113.03Y-133.35
X113.03Y-134.62
X113.03Y-135.89
X113.03Y-137.16
X113.03Y-138.43
X113.03Y-139.7
X114.3Y-49.53
X114.3Y-50.8
X114.3Y-52.07
X114.3Y-53.34
X114.3Y-54.61
X114.3Y-55.88
X114.3Y-60.325
X114.3Y-61.595
X114.3Y-62.865
X114.3Y-64.135
X114.3Y-65.405
X114.3Y-66.675
X114.3Y-67.945
X114.3Y-69.215
X114.3Y-70.485
X114.3Y-71.755
X114.3Y-73.025
X114.3Y-74.295
X114.3Y-75.565
X114.3Y-76.835
X114.3Y-78.105
X114.3Y-79.375
X114.3Y-80.645
X114.3Y-86.995
X114.3Y-105.41
X114.3Y-106.68
X114.3Y-107.95
X114.3Y-109.22
X114.3Y-110.49
X114.3Y-111.76
X114.3Y-113.03
X114.3Y-114.3
X114.3Y-115.57
X114.3Y-116.84
X114.3Y-118.11
X114.3Y-119.38
X114.3Y-120.65
X114.3Y-121.92
X114.3Y-123.19
X114.3Y-124.46
X114.3Y-125.73
X114.3Y-127.0
X114.3Y-128.27
X114.3Y-129.54
X114.3Y-130.81
X114.3Y-132.08
X114.3Y-133.35
X114.3Y-134.62
X114.3Y-135.89
X114.3Y-137.16
X114.3Y-138.43
X114.3Y-139.7
X114.3Y-140.97
X114.3Y-142.24
X114.3Y-143.51
X114.3Y-144.78
X114.3Y-146.05
X114.3Y-147.32
T2
X55.245Y-80.01
X55.245Y-87.63
X55.88Y-104.14
X55.88Y-106.68
X55.88Y-109.22
X55.88Y-111.76
X55.88Y-114.3
X55.88Y-116.84
X55.88Y-119.38
X59.68Y-76.2
X59.68Y-91.44
X59.71Y-100.965
X62.21Y-100.965
X62.22Y-76.2
X62.22Y-91.44
X64.035Y-55.88
X64.76Y-76.2
X64.76Y-91.44
X66.035Y-55.88
X66.04Y-104.14
X66.04Y-106.68
X66.04Y-109.22
X66.04Y-111.76
X66.04Y-114.3
X66.04Y-116.84
X66.04Y-119.38
X66.675Y-63.5
X66.675Y-71.12
X67.3Y-76.2
X67.3Y-91.44
X69.84Y-76.2
X69.84Y-91.44
X71.115Y-55.88
X71.12Y-104.14
X71.12Y-106.68
X71.12Y-109.22
X71.12Y-111.76
X71.12Y-114.3
X71.12Y-116.84
X71.12Y-119.38
X71.755Y-63.5
X71.755Y-71.12
X72.38Y-76.2
X72.38Y-91.44
X73.115Y-55.88
X74.92Y-76.2
X74.92Y-91.44
X74.95Y-100.965
X76.835Y-63.5
X76.835Y-71.12
X77.45Y-100.965
X77.46Y-76.2
X77.46Y-91.44
X80.0Y-76.2
X80.0Y-91.44
X81.28Y-104.14
X81.28Y-106.68
X81.28Y-109.22
X81.28Y-111.76
X81.28Y-114.3
X81.28Y-116.84
X81.28Y-119.38
X81.915Y-63.5
X81.915Y-71.12
X82.54Y-76.2
X82.54Y-91.44
X85.08Y-76.2
X85.08Y-91.44
X86.36Y-104.14
X86.36Y-106.68
X86.36Y-109.22
X86.36Y-111.76
X86.36Y-114.3
X86.36Y-116.84
X86.36Y-119.38
X86.995Y-63.5
X86.995Y-71.12
X87.555Y-125.73
X87.555Y-133.35
X87.62Y-76.2
X87.62Y-91.44
X90.16Y-76.2
X90.16Y-91.44
X90.19Y-100.965
X92.075Y-63.5
X92.075Y-71.12
X92.69Y-100.965
X92.7Y-76.2
X92.7Y-91.44
X92.705Y-125.73
X92.705Y-133.35
X95.24Y-76.2
X95.24Y-91.44
X96.52Y-104.14
X96.52Y-106.68
X96.52Y-109.22
X96.52Y-111.76
X96.52Y-114.3
X96.52Y-116.84
X96.52Y-119.38
X97.155Y-63.5
X97.155Y-71.12
X97.78Y-76.2
X97.78Y-91.44
X97.785Y-125.73
X97.785Y-133.35
X100.32Y-76.2
X100.32Y-91.44
X101.6Y-104.14
X101.6Y-106.68
X101.6Y-109.22
X101.6Y-111.76
X101.6Y-114.3
X101.6Y-116.84
X101.6Y-119.38
X102.235Y-63.5
X102.235Y-71.12
X102.86Y-76.2
X102.86Y-91.44
X104.14Y-125.73
X104.14Y-133.35
X105.4Y-76.2
X105.4Y-91.44
X105.43Y-100.965
X106.065Y-65.405
X106.065Y-69.215
X106.68Y-125.73
X106.68Y-133.35
X107.93Y-100.965
X107.94Y-76.2
X107.94Y-91.44
X108.565Y-65.405
X108.565Y-69.215
X109.22Y-125.73
X109.22Y-133.35
X111.125Y-88.9
X111.125Y-91.4
X111.76Y-104.14
X111.76Y-106.68
X111.76Y-109.22
X111.76Y-111.76
X111.76Y-114.3
X111.76Y-116.84
X111.76Y-119.38
T3
X86.355Y-54.61
X88.895Y-54.61
X91.435Y-54.61
T4
X101.845Y-57.84
X104.345Y-57.84
X106.845Y-52.84
X109.345Y-57.84
X111.845Y-57.84
T5
X101.845Y-50.34
X101.845Y-52.84
X106.845Y-57.84
X111.845Y-50.34
X111.845Y-52.84
M30
