%TF.GenerationSoftware,KiCad,Pcbnew,9.0.3*%
%TF.CreationDate,2025-08-15T16:43:44+01:00*%
%TF.ProjectId,JONZON-X-81,4a4f4e5a-4f4e-42d5-982d-38312e6b6963,1.0*%
%TF.SameCoordinates,Original*%
%TF.FileFunction,Copper,L2,Bot*%
%TF.FilePolarity,Positive*%
%FSLAX46Y46*%
G04 Gerber Fmt 4.6, Leading zero omitted, Abs format (unit mm)*
G04 Created by KiCad (PCBNEW 9.0.3) date 2025-08-15 16:43:44*
%MOMM*%
%LPD*%
G01*
G04 APERTURE LIST*
G04 Aperture macros list*
%AMRoundRect*
0 Rectangle with rounded corners*
0 $1 Rounding radius*
0 $2 $3 $4 $5 $6 $7 $8 $9 X,Y pos of 4 corners*
0 Add a 4 corners polygon primitive as box body*
4,1,4,$2,$3,$4,$5,$6,$7,$8,$9,$2,$3,0*
0 Add four circle primitives for the rounded corners*
1,1,$1+$1,$2,$3*
1,1,$1+$1,$4,$5*
1,1,$1+$1,$6,$7*
1,1,$1+$1,$8,$9*
0 Add four rect primitives between the rounded corners*
20,1,$1+$1,$2,$3,$4,$5,0*
20,1,$1+$1,$4,$5,$6,$7,0*
20,1,$1+$1,$6,$7,$8,$9,0*
20,1,$1+$1,$8,$9,$2,$3,0*%
G04 Aperture macros list end*
%TA.AperFunction,ComponentPad*%
%ADD10C,1.600000*%
%TD*%
%TA.AperFunction,ComponentPad*%
%ADD11RoundRect,0.250000X-0.550000X0.950000X-0.550000X-0.950000X0.550000X-0.950000X0.550000X0.950000X0*%
%TD*%
%TA.AperFunction,ComponentPad*%
%ADD12O,1.600000X2.400000*%
%TD*%
%TA.AperFunction,ConnectorPad*%
%ADD13R,1.778000X7.620000*%
%TD*%
%TA.AperFunction,ComponentPad*%
%ADD14RoundRect,0.250000X-0.550000X0.550000X-0.550000X-0.550000X0.550000X-0.550000X0.550000X0.550000X0*%
%TD*%
%TA.AperFunction,ComponentPad*%
%ADD15R,1.700000X1.700000*%
%TD*%
%TA.AperFunction,ComponentPad*%
%ADD16C,1.700000*%
%TD*%
%TA.AperFunction,ComponentPad*%
%ADD17RoundRect,0.250000X-0.550000X-0.550000X0.550000X-0.550000X0.550000X0.550000X-0.550000X0.550000X0*%
%TD*%
%TA.AperFunction,ComponentPad*%
%ADD18C,1.752600*%
%TD*%
%TA.AperFunction,ComponentPad*%
%ADD19RoundRect,0.250000X-0.950000X-0.550000X0.950000X-0.550000X0.950000X0.550000X-0.950000X0.550000X0*%
%TD*%
%TA.AperFunction,ComponentPad*%
%ADD20O,2.400000X1.600000*%
%TD*%
%TA.AperFunction,ViaPad*%
%ADD21C,0.600000*%
%TD*%
%TA.AperFunction,ViaPad*%
%ADD22C,0.800000*%
%TD*%
%TA.AperFunction,Conductor*%
%ADD23C,0.200000*%
%TD*%
%TA.AperFunction,Conductor*%
%ADD24C,1.000000*%
%TD*%
G04 APERTURE END LIST*
D10*
%TO.P,C5,1*%
%TO.N,VCC*%
X59710000Y-100965000D03*
%TO.P,C5,2*%
%TO.N,GND*%
X62210000Y-100965000D03*
%TD*%
%TO.P,R4,1*%
%TO.N,/OUTA*%
X102235000Y-71120000D03*
%TO.P,R4,2*%
%TO.N,Net-(C1-Pad1)*%
X102235000Y-63500000D03*
%TD*%
D11*
%TO.P,U1,1,GND*%
%TO.N,GND*%
X107940000Y-76200000D03*
D12*
%TO.P,U1,2,NC2*%
%TO.N,unconnected-(U1-NC2-Pad2)*%
X105400000Y-76200000D03*
%TO.P,U1,3,OUTB*%
%TO.N,/OUTB*%
X102860000Y-76200000D03*
%TO.P,U1,4,OUTA*%
%TO.N,/OUTA*%
X100320000Y-76200000D03*
%TO.P,U1,5,NC5*%
%TO.N,unconnected-(U1-NC5-Pad5)*%
X97780000Y-76200000D03*
%TO.P,U1,6,IOB7*%
%TO.N,unconnected-(U1-IOB7-Pad6)*%
X95240000Y-76200000D03*
%TO.P,U1,7,IOB6*%
%TO.N,unconnected-(U1-IOB6-Pad7)*%
X92700000Y-76200000D03*
%TO.P,U1,8,IOB5*%
%TO.N,unconnected-(U1-IOB5-Pad8)*%
X90160000Y-76200000D03*
%TO.P,U1,9,IOB4*%
%TO.N,unconnected-(U1-IOB4-Pad9)*%
X87620000Y-76200000D03*
%TO.P,U1,10,IOB3*%
%TO.N,unconnected-(U1-IOB3-Pad10)*%
X85080000Y-76200000D03*
%TO.P,U1,11,IOB2*%
%TO.N,unconnected-(U1-IOB2-Pad11)*%
X82540000Y-76200000D03*
%TO.P,U1,12,IOB1*%
%TO.N,unconnected-(U1-IOB1-Pad12)*%
X80000000Y-76200000D03*
%TO.P,U1,13,IOB0*%
%TO.N,unconnected-(U1-IOB0-Pad13)*%
X77460000Y-76200000D03*
%TO.P,U1,14,IOA7*%
%TO.N,unconnected-(U1-IOA7-Pad14)*%
X74920000Y-76200000D03*
%TO.P,U1,15,IOA6*%
%TO.N,unconnected-(U1-IOA6-Pad15)*%
X72380000Y-76200000D03*
%TO.P,U1,16,IOA5*%
%TO.N,unconnected-(U1-IOA5-Pad16)*%
X69840000Y-76200000D03*
%TO.P,U1,17,IOA4*%
%TO.N,unconnected-(U1-IOA4-Pad17)*%
X67300000Y-76200000D03*
%TO.P,U1,18,IOA3*%
%TO.N,unconnected-(U1-IOA3-Pad18)*%
X64760000Y-76200000D03*
%TO.P,U1,19,IOA2*%
%TO.N,unconnected-(U1-IOA2-Pad19)*%
X62220000Y-76200000D03*
%TO.P,U1,20,IOA1*%
%TO.N,unconnected-(U1-IOA1-Pad20)*%
X59680000Y-76200000D03*
%TO.P,U1,21,IOA0*%
%TO.N,unconnected-(U1-IOA0-Pad21)*%
X59680000Y-91440000D03*
%TO.P,U1,22,CLOCK*%
%TO.N,/PSGCLK*%
X62220000Y-91440000D03*
%TO.P,U1,23,RESET*%
%TO.N,/~{RESET}*%
X64760000Y-91440000D03*
%TO.P,U1,24,A9*%
%TO.N,GND*%
X67300000Y-91440000D03*
%TO.P,U1,25,A8*%
%TO.N,VCC*%
X69840000Y-91440000D03*
%TO.P,U1,26,TEST2*%
%TO.N,unconnected-(U1-TEST2-Pad26)*%
X72380000Y-91440000D03*
%TO.P,U1,27,BDIR*%
%TO.N,/BDIR*%
X74920000Y-91440000D03*
%TO.P,U1,28,BC2*%
%TO.N,VCC*%
X77460000Y-91440000D03*
%TO.P,U1,29,BC1*%
%TO.N,/BC1*%
X80000000Y-91440000D03*
%TO.P,U1,30,D7*%
%TO.N,/D7*%
X82540000Y-91440000D03*
%TO.P,U1,31,D6*%
%TO.N,/D6*%
X85080000Y-91440000D03*
%TO.P,U1,32,D5*%
%TO.N,/D5*%
X87620000Y-91440000D03*
%TO.P,U1,33,D4*%
%TO.N,/D4*%
X90160000Y-91440000D03*
%TO.P,U1,34,D3*%
%TO.N,/D3*%
X92700000Y-91440000D03*
%TO.P,U1,35,D2*%
%TO.N,/D2*%
X95240000Y-91440000D03*
%TO.P,U1,36,D1*%
%TO.N,/D1*%
X97780000Y-91440000D03*
%TO.P,U1,37,D0*%
%TO.N,/D0*%
X100320000Y-91440000D03*
%TO.P,U1,38,OUTC*%
%TO.N,/OUTC*%
X102860000Y-91440000D03*
%TO.P,U1,39,TEST1*%
%TO.N,unconnected-(U1-TEST1-Pad39)*%
X105400000Y-91440000D03*
%TO.P,U1,40,VCC*%
%TO.N,VCC*%
X107940000Y-91440000D03*
%TD*%
D10*
%TO.P,R11,1*%
%TO.N,Net-(C2-Pad2)*%
X66675000Y-63500000D03*
%TO.P,R11,2*%
%TO.N,Net-(CO3-Pin_1)*%
X66675000Y-71120000D03*
%TD*%
%TO.P,C3,1*%
%TO.N,Net-(CO3-Pin_2)*%
X106065000Y-65405000D03*
%TO.P,C3,2*%
%TO.N,GND_AUDIO*%
X108565000Y-65405000D03*
%TD*%
%TO.P,R3,1*%
%TO.N,VCC*%
X87555000Y-125730000D03*
%TO.P,R3,2*%
%TO.N,Net-(R3-Pad2)*%
X87555000Y-133350000D03*
%TD*%
%TO.P,C6,1*%
%TO.N,VCC*%
X74950000Y-100965000D03*
%TO.P,C6,2*%
%TO.N,GND*%
X77450000Y-100965000D03*
%TD*%
D13*
%TO.P,CO1,A3,+5Vcc*%
%TO.N,VCC*%
X55874982Y-144780000D03*
%TO.P,CO1,A4,+9Vcc*%
%TO.N,unconnected-(CO1-+9Vcc-PadA4)*%
X58414982Y-144780000D03*
%TO.P,CO1,A6,GND*%
%TO.N,GND*%
X63494982Y-144780000D03*
%TO.P,CO1,A7,GND*%
X66034982Y-144780000D03*
%TO.P,CO1,A8,CLK*%
%TO.N,/CLK*%
X68574982Y-144780000D03*
%TO.P,CO1,A9,A0*%
%TO.N,/A0*%
X71114982Y-144780000D03*
%TO.P,CO1,A10,A1*%
%TO.N,/A1*%
X73654982Y-144780000D03*
%TO.P,CO1,A11,A2*%
%TO.N,/A2*%
X76194982Y-144780000D03*
%TO.P,CO1,A12,A3*%
%TO.N,/A3*%
X78734982Y-144780000D03*
%TO.P,CO1,A13,A15*%
%TO.N,unconnected-(CO1-A15-PadA13)*%
X81274982Y-144780000D03*
%TO.P,CO1,A14,A14*%
%TO.N,unconnected-(CO1-PadA14)*%
X83814982Y-144780000D03*
%TO.P,CO1,A15,A13*%
%TO.N,unconnected-(CO1-A13-PadA15)*%
X86354982Y-144780000D03*
%TO.P,CO1,A16,A12*%
%TO.N,unconnected-(CO1-A12-PadA16)*%
X88894982Y-144780000D03*
%TO.P,CO1,A17,A11*%
%TO.N,unconnected-(CO1-A11-PadA17)*%
X91434982Y-144780000D03*
%TO.P,CO1,A18,A10*%
%TO.N,unconnected-(CO1-A10-PadA18)*%
X93974982Y-144780000D03*
%TO.P,CO1,A19,A9*%
%TO.N,unconnected-(CO1-A9-PadA19)*%
X96514982Y-144780000D03*
%TO.P,CO1,A20,A8*%
%TO.N,unconnected-(CO1-A8-PadA20)*%
X99054982Y-144780000D03*
%TO.P,CO1,A21,A7*%
%TO.N,/A7*%
X101594982Y-144780000D03*
%TO.P,CO1,A22,A6*%
%TO.N,/A6*%
X104134982Y-144780000D03*
%TO.P,CO1,A23,A5*%
%TO.N,/A5*%
X106674982Y-144780000D03*
%TO.P,CO1,A24,A4*%
%TO.N,/A4*%
X109214982Y-144780000D03*
%TO.P,CO1,A25,~{ROMCS}*%
%TO.N,unconnected-(CO1-~{ROMCS}-PadA25)*%
X111754982Y-144780000D03*
%TD*%
D10*
%TO.P,R1,1*%
%TO.N,VCC*%
X97785000Y-125730000D03*
%TO.P,R1,2*%
%TO.N,Net-(R1-Pad2)*%
X97785000Y-133350000D03*
%TD*%
D14*
%TO.P,SW1,1*%
%TO.N,Net-(R3-Pad2)*%
X109220000Y-125730000D03*
D10*
%TO.P,SW1,2*%
%TO.N,Net-(R2-Pad2)*%
X106680000Y-125730000D03*
%TO.P,SW1,3*%
%TO.N,Net-(R1-Pad2)*%
X104140000Y-125730000D03*
%TO.P,SW1,4*%
%TO.N,/A6*%
X104140000Y-133350000D03*
%TO.P,SW1,5*%
%TO.N,/A5*%
X106680000Y-133350000D03*
%TO.P,SW1,6*%
%TO.N,/A4*%
X109220000Y-133350000D03*
%TD*%
%TO.P,R8,1*%
%TO.N,Net-(C1-Pad1)*%
X81915000Y-63500000D03*
%TO.P,R8,2*%
%TO.N,GND_AUDIO*%
X81915000Y-71120000D03*
%TD*%
%TO.P,R2,1*%
%TO.N,VCC*%
X92705000Y-125730000D03*
%TO.P,R2,2*%
%TO.N,Net-(R2-Pad2)*%
X92705000Y-133350000D03*
%TD*%
%TO.P,R12,1*%
%TO.N,GND*%
X55880000Y-76200000D03*
%TO.P,R12,2*%
%TO.N,GND_AUDIO*%
X55880000Y-68580000D03*
%TD*%
D15*
%TO.P,CO3,1,Pin_1*%
%TO.N,Net-(CO3-Pin_1)*%
X86355000Y-54610000D03*
D16*
%TO.P,CO3,2,Pin_2*%
%TO.N,Net-(CO3-Pin_2)*%
X88895000Y-54610000D03*
%TO.P,CO3,3,Pin_3*%
%TO.N,GND_AUDIO*%
X91435000Y-54610000D03*
%TD*%
D10*
%TO.P,C4,1*%
%TO.N,Net-(CO3-Pin_1)*%
X106065000Y-69215000D03*
%TO.P,C4,2*%
%TO.N,GND_AUDIO*%
X108565000Y-69215000D03*
%TD*%
D17*
%TO.P,C2,1*%
%TO.N,Net-(C2-Pad1)*%
X64035000Y-55880000D03*
D10*
%TO.P,C2,2*%
%TO.N,Net-(C2-Pad2)*%
X66035000Y-55880000D03*
%TD*%
%TO.P,R7,1*%
%TO.N,Net-(C1-Pad1)*%
X86995000Y-63500000D03*
%TO.P,R7,2*%
%TO.N,/OUTC*%
X86995000Y-71120000D03*
%TD*%
%TO.P,R5,1*%
%TO.N,/OUTB*%
X97155000Y-71120000D03*
%TO.P,R5,2*%
%TO.N,Net-(C2-Pad1)*%
X97155000Y-63500000D03*
%TD*%
D18*
%TO.P,CO2,1,1*%
%TO.N,unconnected-(CO2-Pad1)*%
X111845100Y-57840000D03*
%TO.P,CO2,2,2*%
%TO.N,Net-(CO3-Pin_2)*%
X109345100Y-57840000D03*
%TO.P,CO2,3,3*%
%TO.N,Net-(CO3-Pin_1)*%
X104345100Y-57840000D03*
%TO.P,CO2,4,4*%
%TO.N,unconnected-(CO2-Pad4)*%
X101845100Y-57840000D03*
%TO.P,CO2,5,5*%
%TO.N,GND_AUDIO*%
X106845100Y-52840000D03*
%TD*%
D19*
%TO.P,U4,1*%
%TO.N,/A3*%
X86360000Y-104140000D03*
D20*
%TO.P,U4,2*%
%TO.N,/A2*%
X86360000Y-106680000D03*
%TO.P,U4,3*%
%TO.N,Net-(U4-Pad12)*%
X86360000Y-109220000D03*
%TO.P,U4,4*%
%TO.N,/A0*%
X86360000Y-111760000D03*
%TO.P,U4,5*%
%TO.N,Net-(U4-Pad5)*%
X86360000Y-114300000D03*
%TO.P,U4,6*%
%TO.N,/VALID*%
X86360000Y-116840000D03*
%TO.P,U4,7,GND*%
%TO.N,GND*%
X86360000Y-119380000D03*
%TO.P,U4,8*%
%TO.N,Net-(U4-Pad5)*%
X96520000Y-119380000D03*
%TO.P,U4,9*%
%TO.N,Net-(R3-Pad2)*%
X96520000Y-116840000D03*
%TO.P,U4,10*%
%TO.N,Net-(R2-Pad2)*%
X96520000Y-114300000D03*
%TO.P,U4,11*%
%TO.N,Net-(R1-Pad2)*%
X96520000Y-111760000D03*
%TO.P,U4,12*%
%TO.N,Net-(U4-Pad12)*%
X96520000Y-109220000D03*
%TO.P,U4,13*%
%TO.N,/A1*%
X96520000Y-106680000D03*
%TO.P,U4,14,VCC*%
%TO.N,VCC*%
X96520000Y-104140000D03*
%TD*%
D19*
%TO.P,U5,1*%
%TO.N,/IOWR*%
X101600000Y-104140000D03*
D20*
%TO.P,U5,2*%
%TO.N,/~{IOREQ}*%
X101600000Y-106680000D03*
%TO.P,U5,3*%
%TO.N,/~{WR}*%
X101600000Y-109220000D03*
%TO.P,U5,4*%
%TO.N,Net-(U5-Pad11)*%
X101600000Y-111760000D03*
%TO.P,U5,5*%
%TO.N,Net-(U3-Pad6)*%
X101600000Y-114300000D03*
%TO.P,U5,6*%
%TO.N,Net-(U3-Pad11)*%
X101600000Y-116840000D03*
%TO.P,U5,7,GND*%
%TO.N,GND*%
X101600000Y-119380000D03*
%TO.P,U5,8*%
%TO.N,/~{IOREQ}*%
X111760000Y-119380000D03*
%TO.P,U5,9*%
%TO.N,/~{RD}*%
X111760000Y-116840000D03*
%TO.P,U5,10*%
%TO.N,/IORD*%
X111760000Y-114300000D03*
%TO.P,U5,11*%
%TO.N,Net-(U5-Pad11)*%
X111760000Y-111760000D03*
%TO.P,U5,12*%
X111760000Y-109220000D03*
%TO.P,U5,13*%
%TO.N,/BC1*%
X111760000Y-106680000D03*
%TO.P,U5,14,VCC*%
%TO.N,VCC*%
X111760000Y-104140000D03*
%TD*%
D17*
%TO.P,C1,1*%
%TO.N,Net-(C1-Pad1)*%
X71115000Y-55880000D03*
D10*
%TO.P,C1,2*%
%TO.N,Net-(C1-Pad2)*%
X73115000Y-55880000D03*
%TD*%
%TO.P,R6,1*%
%TO.N,Net-(C2-Pad1)*%
X92075000Y-63500000D03*
%TO.P,R6,2*%
%TO.N,/OUTC*%
X92075000Y-71120000D03*
%TD*%
%TO.P,C9,1*%
%TO.N,VCC*%
X111125000Y-88900000D03*
%TO.P,C9,2*%
%TO.N,GND*%
X111125000Y-91400000D03*
%TD*%
D19*
%TO.P,U3,1*%
%TO.N,/VALID*%
X71120000Y-104140000D03*
D20*
%TO.P,U3,2*%
%TO.N,/IOWR*%
X71120000Y-106680000D03*
%TO.P,U3,3*%
%TO.N,/BDIR*%
X71120000Y-109220000D03*
%TO.P,U3,4*%
X71120000Y-111760000D03*
%TO.P,U3,5*%
%TO.N,/A7*%
X71120000Y-114300000D03*
%TO.P,U3,6*%
%TO.N,Net-(U3-Pad6)*%
X71120000Y-116840000D03*
%TO.P,U3,7,GND*%
%TO.N,GND*%
X71120000Y-119380000D03*
%TO.P,U3,8*%
%TO.N,unconnected-(U3-Pad8)*%
X81280000Y-119380000D03*
%TO.P,U3,9*%
%TO.N,GND*%
X81280000Y-116840000D03*
%TO.P,U3,10*%
X81280000Y-114300000D03*
%TO.P,U3,11*%
%TO.N,Net-(U3-Pad11)*%
X81280000Y-111760000D03*
%TO.P,U3,12*%
%TO.N,/VALID*%
X81280000Y-109220000D03*
%TO.P,U3,13*%
%TO.N,/IORD*%
X81280000Y-106680000D03*
%TO.P,U3,14,VCC*%
%TO.N,VCC*%
X81280000Y-104140000D03*
%TD*%
D19*
%TO.P,U2,1,~{R}*%
%TO.N,VCC*%
X55880000Y-104140000D03*
D20*
%TO.P,U2,2,D*%
%TO.N,Net-(U2A-D)*%
X55880000Y-106680000D03*
%TO.P,U2,3,C*%
%TO.N,/CLK*%
X55880000Y-109220000D03*
%TO.P,U2,4,~{S}*%
%TO.N,VCC*%
X55880000Y-111760000D03*
%TO.P,U2,5,Q*%
%TO.N,/PSGCLK*%
X55880000Y-114300000D03*
%TO.P,U2,6,~{Q}*%
%TO.N,Net-(U2A-D)*%
X55880000Y-116840000D03*
%TO.P,U2,7,GND*%
%TO.N,GND*%
X55880000Y-119380000D03*
%TO.P,U2,8,~{Q}*%
%TO.N,unconnected-(U2B-~{Q}-Pad8)*%
X66040000Y-119380000D03*
%TO.P,U2,9,Q*%
%TO.N,unconnected-(U2B-Q-Pad9)*%
X66040000Y-116840000D03*
%TO.P,U2,10,~{S}*%
%TO.N,VCC*%
X66040000Y-114300000D03*
%TO.P,U2,11,C*%
X66040000Y-111760000D03*
%TO.P,U2,12,D*%
X66040000Y-109220000D03*
%TO.P,U2,13,~{R}*%
X66040000Y-106680000D03*
%TO.P,U2,14,VCC*%
X66040000Y-104140000D03*
%TD*%
D10*
%TO.P,R10,1*%
%TO.N,Net-(C1-Pad2)*%
X71755000Y-63500000D03*
%TO.P,R10,2*%
%TO.N,Net-(CO3-Pin_2)*%
X71755000Y-71120000D03*
%TD*%
%TO.P,C7,1*%
%TO.N,VCC*%
X90190000Y-100965000D03*
%TO.P,C7,2*%
%TO.N,GND*%
X92690000Y-100965000D03*
%TD*%
%TO.P,C8,1*%
%TO.N,VCC*%
X107930000Y-100965000D03*
%TO.P,C8,2*%
%TO.N,GND*%
X105430000Y-100965000D03*
%TD*%
%TO.P,R9,1*%
%TO.N,Net-(C2-Pad1)*%
X76835000Y-63500000D03*
%TO.P,R9,2*%
%TO.N,GND_AUDIO*%
X76835000Y-71120000D03*
%TD*%
D21*
%TO.N,Net-(U3-Pad6)*%
X100655400Y-121534200D03*
%TO.N,/VALID*%
X84989200Y-110688100D03*
%TO.N,/BC1*%
X104298300Y-88912400D03*
%TO.N,Net-(R2-Pad2)*%
X95029100Y-124059200D03*
%TO.N,/D1*%
X70748100Y-99201200D03*
%TO.N,/D0*%
X67697700Y-97805700D03*
%TO.N,/A0*%
X84808300Y-128666300D03*
%TO.N,/A1*%
X93605800Y-130255900D03*
%TO.N,/A2*%
X79610300Y-137184000D03*
%TO.N,/~{RD}*%
X94269500Y-139645900D03*
%TO.N,/A3*%
X84919900Y-131107400D03*
%TO.N,/A7*%
X90995300Y-139138800D03*
X90995300Y-118043500D03*
%TO.N,/~{RESET}*%
X112183700Y-87728700D03*
%TO.N,/D7*%
X62295600Y-103452100D03*
%TO.N,/D2*%
X73042300Y-96706100D03*
%TO.N,/CLK*%
X70347100Y-140159000D03*
X70347100Y-124059200D03*
D22*
%TO.N,GND*%
X69179100Y-136314200D03*
%TD*%
D23*
%TO.N,/A7*%
X88553300Y-115601500D02*
X90995300Y-118043500D01*
X88553300Y-115601500D02*
X73923200Y-115601500D01*
X72621700Y-114300000D02*
X71120000Y-114300000D01*
X73923200Y-115601500D02*
X72621700Y-114300000D01*
D24*
%TO.N,GND_AUDIO*%
X105075100Y-54610000D02*
X106845100Y-52840000D01*
X91435000Y-54610000D02*
X105075100Y-54610000D01*
X74295000Y-68580000D02*
X76835000Y-71120000D01*
X55880000Y-68580000D02*
X74295000Y-68580000D01*
X85564600Y-67470400D02*
X81915000Y-71120000D01*
X106499600Y-67470400D02*
X85564600Y-67470400D01*
X108565000Y-65405000D02*
X106499600Y-67470400D01*
D23*
%TO.N,Net-(U5-Pad11)*%
X111760000Y-111760000D02*
X101600000Y-111760000D01*
%TO.N,Net-(U4-Pad5)*%
X93819000Y-119380000D02*
X96520000Y-119380000D01*
X88739000Y-114300000D02*
X93819000Y-119380000D01*
X86360000Y-114300000D02*
X88739000Y-114300000D01*
%TO.N,Net-(U4-Pad12)*%
X86360000Y-109220000D02*
X96520000Y-109220000D01*
%TO.N,Net-(U3-Pad11)*%
X101600000Y-116840000D02*
X100098300Y-116840000D01*
X81280000Y-111760000D02*
X82781700Y-111760000D01*
X84176500Y-113154800D02*
X82781700Y-111760000D01*
X88944600Y-113154800D02*
X84176500Y-113154800D01*
X91526600Y-115736800D02*
X88944600Y-113154800D01*
X98995100Y-115736800D02*
X91526600Y-115736800D01*
X100098300Y-116840000D02*
X98995100Y-115736800D01*
%TO.N,Net-(U3-Pad6)*%
X68348300Y-118110000D02*
X69618300Y-116840000D01*
X55101000Y-118110000D02*
X68348300Y-118110000D01*
X54275500Y-118935500D02*
X55101000Y-118110000D01*
X54275500Y-119804400D02*
X54275500Y-118935500D01*
X55340500Y-120869400D02*
X54275500Y-119804400D01*
X55626000Y-120869400D02*
X55340500Y-120869400D01*
X56587600Y-121831000D02*
X55626000Y-120869400D01*
X100358600Y-121831000D02*
X56587600Y-121831000D01*
X100655400Y-121534200D02*
X100358600Y-121831000D01*
X100655400Y-121534200D02*
X100655400Y-121831000D01*
X100655400Y-121831000D02*
X100655400Y-121534200D01*
X71120000Y-116840000D02*
X69618300Y-116840000D01*
%TO.N,/IOWR*%
X79304200Y-106680000D02*
X71120000Y-106680000D01*
X80538900Y-105445300D02*
X79304200Y-106680000D01*
X100294700Y-105445300D02*
X80538900Y-105445300D01*
X101600000Y-104140000D02*
X100294700Y-105445300D01*
%TO.N,/IORD*%
X81280000Y-106680000D02*
X82781700Y-106680000D01*
X111760000Y-114300000D02*
X110258300Y-114300000D01*
X82781700Y-107618600D02*
X82781700Y-106680000D01*
X85653100Y-110490000D02*
X82781700Y-107618600D01*
X91534000Y-110490000D02*
X85653100Y-110490000D01*
X94074000Y-113030000D02*
X91534000Y-110490000D01*
X108988300Y-113030000D02*
X94074000Y-113030000D01*
X110258300Y-114300000D02*
X108988300Y-113030000D01*
%TO.N,/VALID*%
X78374500Y-107816200D02*
X79778300Y-109220000D01*
X70240800Y-107816200D02*
X78374500Y-107816200D01*
X69570200Y-107145600D02*
X70240800Y-107816200D01*
X69570200Y-105689800D02*
X69570200Y-107145600D01*
X71120000Y-104140000D02*
X69570200Y-105689800D01*
X81280000Y-109220000D02*
X79778300Y-109220000D01*
X84249800Y-110688100D02*
X82781700Y-109220000D01*
X84989200Y-110688100D02*
X84249800Y-110688100D01*
X81280000Y-109220000D02*
X82781700Y-109220000D01*
%TO.N,/BC1*%
X81025900Y-88912400D02*
X80000000Y-89938300D01*
X104298300Y-88912400D02*
X81025900Y-88912400D01*
X80000000Y-91440000D02*
X80000000Y-89938300D01*
%TO.N,/OUTC*%
X86995000Y-71120000D02*
X92075000Y-71120000D01*
%TO.N,/OUTB*%
X100733300Y-74698300D02*
X97155000Y-71120000D01*
X102860000Y-74698300D02*
X100733300Y-74698300D01*
X102860000Y-76200000D02*
X102860000Y-74698300D01*
%TO.N,Net-(R3-Pad2)*%
X96520000Y-116840000D02*
X98021700Y-116840000D01*
X109220000Y-124896600D02*
X109220000Y-125730000D01*
X102423900Y-118100500D02*
X109220000Y-124896600D01*
X99282200Y-118100500D02*
X102423900Y-118100500D01*
X98021700Y-116840000D02*
X99282200Y-118100500D01*
X88664500Y-134459500D02*
X87555000Y-133350000D01*
X98760900Y-134459500D02*
X88664500Y-134459500D01*
X105473400Y-127747000D02*
X98760900Y-134459500D01*
X107203000Y-127747000D02*
X105473400Y-127747000D01*
X109220000Y-125730000D02*
X107203000Y-127747000D01*
%TO.N,Net-(R2-Pad2)*%
X105009200Y-124059200D02*
X106680000Y-125730000D01*
X95029100Y-124059200D02*
X105009200Y-124059200D01*
%TO.N,Net-(R1-Pad2)*%
X104140000Y-126995000D02*
X97785000Y-133350000D01*
X104140000Y-125730000D02*
X104140000Y-126995000D01*
%TO.N,/D1*%
X97780000Y-91440000D02*
X97780000Y-92941700D01*
X93814700Y-96907000D02*
X97780000Y-92941700D01*
X73692200Y-96907000D02*
X93814700Y-96907000D01*
X73692200Y-96907100D02*
X73692200Y-96907000D01*
X73291500Y-97307800D02*
X73692200Y-96907100D01*
X72641500Y-97307800D02*
X73291500Y-97307800D01*
X70748100Y-99201200D02*
X72641500Y-97307800D01*
%TO.N,/D0*%
X100320000Y-91440000D02*
X100320000Y-89938300D01*
X69399800Y-96103600D02*
X67697700Y-97805700D01*
X87495100Y-96103600D02*
X69399800Y-96103600D01*
X91430000Y-92168700D02*
X87495100Y-96103600D01*
X91430000Y-90732100D02*
X91430000Y-92168700D01*
X92223800Y-89938300D02*
X91430000Y-90732100D01*
X100320000Y-89938300D02*
X92223800Y-89938300D01*
%TO.N,/A0*%
X72806300Y-140668300D02*
X84808300Y-128666300D01*
X71115000Y-140668300D02*
X72806300Y-140668300D01*
X71115000Y-144780000D02*
X71115000Y-140668300D01*
%TO.N,/A1*%
X84067400Y-130255900D02*
X93605800Y-130255900D01*
X73655000Y-140668300D02*
X84067400Y-130255900D01*
X73655000Y-144780000D02*
X73655000Y-140668300D01*
%TO.N,/A2*%
X76195000Y-140599300D02*
X79610300Y-137184000D01*
X76195000Y-144780000D02*
X76195000Y-140599300D01*
%TO.N,/A6*%
X104135000Y-133355000D02*
X104135000Y-144780000D01*
X104140000Y-133350000D02*
X104135000Y-133355000D01*
%TO.N,/~{RD}*%
X102604700Y-131310700D02*
X94269500Y-139645900D01*
X105587400Y-131310700D02*
X102604700Y-131310700D01*
X110386100Y-126512000D02*
X105587400Y-131310700D01*
X110386100Y-123869200D02*
X110386100Y-126512000D01*
X110258300Y-123741400D02*
X110386100Y-123869200D01*
X110258300Y-116840000D02*
X110258300Y-123741400D01*
X111760000Y-116840000D02*
X110258300Y-116840000D01*
%TO.N,/A3*%
X84919900Y-132978900D02*
X84919900Y-131107400D01*
X78735000Y-139163800D02*
X84919900Y-132978900D01*
X78735000Y-144780000D02*
X78735000Y-139163800D01*
%TO.N,/A4*%
X109215000Y-133355000D02*
X109215000Y-144780000D01*
X109220000Y-133350000D02*
X109215000Y-133355000D01*
%TO.N,/A7*%
X92524800Y-140668300D02*
X90995300Y-139138800D01*
X101595000Y-140668300D02*
X92524800Y-140668300D01*
X101595000Y-144780000D02*
X101595000Y-140668300D01*
%TO.N,/~{RESET}*%
X66969600Y-87728700D02*
X64760000Y-89938300D01*
X112183700Y-87728700D02*
X66969600Y-87728700D01*
X64760000Y-91440000D02*
X64760000Y-89938300D01*
%TO.N,/A5*%
X106675000Y-133355000D02*
X106680000Y-133350000D01*
X106675000Y-144780000D02*
X106675000Y-133355000D01*
%TO.N,Net-(CO3-Pin_1)*%
X86355000Y-54610000D02*
X87506700Y-54610000D01*
X103140000Y-56634900D02*
X104345100Y-57840000D01*
X89243700Y-56634900D02*
X103140000Y-56634900D01*
X87506700Y-54897900D02*
X89243700Y-56634900D01*
X87506700Y-54610000D02*
X87506700Y-54897900D01*
X68302200Y-72747200D02*
X66675000Y-71120000D01*
X92826700Y-72747200D02*
X68302200Y-72747200D01*
X96358900Y-69215000D02*
X92826700Y-72747200D01*
X106065000Y-69215000D02*
X96358900Y-69215000D01*
%TO.N,Net-(CO3-Pin_2)*%
X107670500Y-56165400D02*
X109345100Y-57840000D01*
X90450400Y-56165400D02*
X107670500Y-56165400D01*
X88895000Y-54610000D02*
X90450400Y-56165400D01*
X84595700Y-65405000D02*
X106065000Y-65405000D01*
X77677400Y-72323300D02*
X84595700Y-65405000D01*
X72958300Y-72323300D02*
X77677400Y-72323300D01*
X71755000Y-71120000D02*
X72958300Y-72323300D01*
%TO.N,/D7*%
X61058300Y-102214800D02*
X62295600Y-103452100D01*
X61058300Y-100428800D02*
X61058300Y-102214800D01*
X65980600Y-95506500D02*
X61058300Y-100428800D01*
X79975200Y-95506500D02*
X65980600Y-95506500D01*
X82540000Y-92941700D02*
X79975200Y-95506500D01*
X82540000Y-91440000D02*
X82540000Y-92941700D01*
%TO.N,/D2*%
X91676400Y-96505300D02*
X95240000Y-92941700D01*
X73243100Y-96505300D02*
X91676400Y-96505300D01*
X73042300Y-96706100D02*
X73243100Y-96505300D01*
X95240000Y-91440000D02*
X95240000Y-92941700D01*
%TO.N,/CLK*%
X55880000Y-109220000D02*
X57381700Y-109220000D01*
X69837800Y-140668300D02*
X70347100Y-140159000D01*
X68575000Y-140668300D02*
X69837800Y-140668300D01*
X68575000Y-144780000D02*
X68575000Y-140668300D01*
X57962300Y-124059200D02*
X70347100Y-124059200D01*
X53873800Y-119970700D02*
X57962300Y-124059200D01*
X53873800Y-116865000D02*
X53873800Y-119970700D01*
X55040600Y-115698200D02*
X53873800Y-116865000D01*
X56492600Y-115698200D02*
X55040600Y-115698200D01*
X57432200Y-114758600D02*
X56492600Y-115698200D01*
X57432200Y-109270500D02*
X57432200Y-114758600D01*
X57381700Y-109220000D02*
X57432200Y-109270500D01*
D24*
%TO.N,VCC*%
X59055000Y-100965000D02*
X55880000Y-104140000D01*
X59710000Y-100965000D02*
X59055000Y-100965000D01*
X108528300Y-88900000D02*
X107940000Y-89488300D01*
X111125000Y-88900000D02*
X108528300Y-88900000D01*
X107940000Y-91440000D02*
X107940000Y-89488300D01*
X55880000Y-111760000D02*
X53928300Y-111760000D01*
X111760000Y-104140000D02*
X109808300Y-104140000D01*
X97785000Y-125730000D02*
X92705000Y-125730000D01*
X55794900Y-104140000D02*
X55880000Y-104140000D01*
X53928300Y-106006600D02*
X55794900Y-104140000D01*
X53928300Y-111760000D02*
X53928300Y-106006600D01*
X63073300Y-106680000D02*
X66040000Y-106680000D01*
X60533300Y-104140000D02*
X63073300Y-106680000D01*
X55880000Y-104140000D02*
X60533300Y-104140000D01*
X87555000Y-125730000D02*
X92705000Y-125730000D01*
X107744200Y-102075800D02*
X109808300Y-104140000D01*
X107930000Y-101890000D02*
X107744200Y-102075800D01*
X107930000Y-100965000D02*
X107930000Y-101890000D01*
X100024400Y-102587300D02*
X98471700Y-104140000D01*
X107232700Y-102587300D02*
X100024400Y-102587300D01*
X107744200Y-102075800D02*
X107232700Y-102587300D01*
X96520000Y-104140000D02*
X98471700Y-104140000D01*
X70363300Y-125730000D02*
X87555000Y-125730000D01*
X55875000Y-140218300D02*
X70363300Y-125730000D01*
X55875000Y-144780000D02*
X55875000Y-140218300D01*
X92577500Y-104140000D02*
X96520000Y-104140000D01*
X90190000Y-101752500D02*
X92577500Y-104140000D01*
X81280000Y-104140000D02*
X83231700Y-104140000D01*
X90190000Y-100965000D02*
X90190000Y-101752500D01*
X85619200Y-101752500D02*
X83231700Y-104140000D01*
X90190000Y-101752500D02*
X85619200Y-101752500D01*
X77460000Y-93391700D02*
X69840000Y-93391700D01*
X77460000Y-91440000D02*
X77460000Y-93391700D01*
X69840000Y-91440000D02*
X69840000Y-93391700D01*
X77876900Y-103891900D02*
X74950000Y-100965000D01*
X81031900Y-103891900D02*
X77876900Y-103891900D01*
X81280000Y-104140000D02*
X81031900Y-103891900D01*
%TO.N,GND*%
X79001700Y-99413300D02*
X77450000Y-100965000D01*
X91138300Y-99413300D02*
X79001700Y-99413300D01*
X92690000Y-100965000D02*
X91138300Y-99413300D01*
X67616600Y-120931700D02*
X69168300Y-119380000D01*
X59383400Y-120931700D02*
X67616600Y-120931700D01*
X57831700Y-119380000D02*
X59383400Y-120931700D01*
X55880000Y-119380000D02*
X57831700Y-119380000D01*
X71120000Y-119380000D02*
X69168300Y-119380000D01*
X101600000Y-119380000D02*
X99648300Y-119380000D01*
X86360000Y-119380000D02*
X88311700Y-119380000D01*
X84408300Y-118016600D02*
X84408300Y-119380000D01*
X83231700Y-116840000D02*
X84408300Y-118016600D01*
X86360000Y-119380000D02*
X84408300Y-119380000D01*
X75854500Y-99369500D02*
X77450000Y-100965000D01*
X72067100Y-99369500D02*
X75854500Y-99369500D01*
X70471600Y-100965000D02*
X72067100Y-99369500D01*
X62210000Y-100965000D02*
X70471600Y-100965000D01*
X82255900Y-116840000D02*
X83231700Y-116840000D01*
X82255900Y-116840000D02*
X81280000Y-116840000D01*
X89894400Y-120962700D02*
X88311700Y-119380000D01*
X98065600Y-120962700D02*
X89894400Y-120962700D01*
X99648300Y-119380000D02*
X98065600Y-120962700D01*
X105430000Y-100965000D02*
X92690000Y-100965000D01*
X111125000Y-95270000D02*
X105430000Y-100965000D01*
X111125000Y-91400000D02*
X111125000Y-95270000D01*
X66035000Y-144780000D02*
X63495000Y-144780000D01*
X66035000Y-139458300D02*
X69179100Y-136314200D01*
X66035000Y-144780000D02*
X66035000Y-139458300D01*
X78941500Y-116840000D02*
X81280000Y-116840000D01*
X76401500Y-119380000D02*
X78941500Y-116840000D01*
X71120000Y-119380000D02*
X76401500Y-119380000D01*
D23*
%TO.N,Net-(C2-Pad1)*%
X97155000Y-63500000D02*
X92075000Y-63500000D01*
X68098000Y-54763000D02*
X76835000Y-63500000D01*
X65152000Y-54763000D02*
X68098000Y-54763000D01*
X64035000Y-55880000D02*
X65152000Y-54763000D01*
X90963000Y-64612000D02*
X92075000Y-63500000D01*
X77947000Y-64612000D02*
X90963000Y-64612000D01*
X76835000Y-63500000D02*
X77947000Y-64612000D01*
%TO.N,Net-(C1-Pad1)*%
X81915000Y-63500000D02*
X86995000Y-63500000D01*
X101095200Y-62360200D02*
X102235000Y-63500000D01*
X88134800Y-62360200D02*
X101095200Y-62360200D01*
X86995000Y-63500000D02*
X88134800Y-62360200D01*
X78735000Y-63500000D02*
X81915000Y-63500000D01*
X71115000Y-55880000D02*
X78735000Y-63500000D01*
%TD*%
%TA.AperFunction,Conductor*%
%TO.N,GND_AUDIO*%
G36*
X114878039Y-48914685D02*
G01*
X114923794Y-48967489D01*
X114935000Y-49019000D01*
X114935000Y-73536000D01*
X114915315Y-73603039D01*
X114862511Y-73648794D01*
X114811000Y-73660000D01*
X100595597Y-73660000D01*
X100528558Y-73640315D01*
X100507916Y-73623681D01*
X98449077Y-71564842D01*
X98415592Y-71503519D01*
X98418828Y-71438841D01*
X98423477Y-71424534D01*
X98455500Y-71222352D01*
X98455500Y-71017648D01*
X98423477Y-70815466D01*
X98360220Y-70620781D01*
X98360218Y-70620778D01*
X98360218Y-70620776D01*
X98326503Y-70554607D01*
X98267287Y-70438390D01*
X98186567Y-70327287D01*
X98146971Y-70272786D01*
X98002219Y-70128034D01*
X98002211Y-70128028D01*
X97880799Y-70039818D01*
X97838134Y-69984489D01*
X97832155Y-69914875D01*
X97864760Y-69853080D01*
X97925599Y-69818723D01*
X97953685Y-69815500D01*
X101436315Y-69815500D01*
X101503354Y-69835185D01*
X101549109Y-69887989D01*
X101559053Y-69957147D01*
X101530028Y-70020703D01*
X101509200Y-70039819D01*
X101387780Y-70128034D01*
X101243028Y-70272786D01*
X101122715Y-70438386D01*
X101029781Y-70620776D01*
X100966522Y-70815465D01*
X100934500Y-71017648D01*
X100934500Y-71222351D01*
X100966522Y-71424534D01*
X101029781Y-71619223D01*
X101082332Y-71722358D01*
X101122712Y-71801609D01*
X101122715Y-71801613D01*
X101243028Y-71967213D01*
X101387786Y-72111971D01*
X101542749Y-72224556D01*
X101553390Y-72232287D01*
X101669607Y-72291503D01*
X101735776Y-72325218D01*
X101735778Y-72325218D01*
X101735781Y-72325220D01*
X101840137Y-72359127D01*
X101930465Y-72388477D01*
X102031557Y-72404488D01*
X102132648Y-72420500D01*
X102132649Y-72420500D01*
X102337351Y-72420500D01*
X102337352Y-72420500D01*
X102539534Y-72388477D01*
X102734219Y-72325220D01*
X102916610Y-72232287D01*
X103009590Y-72164732D01*
X103082213Y-72111971D01*
X103082215Y-72111968D01*
X103082219Y-72111966D01*
X103226966Y-71967219D01*
X103226968Y-71967215D01*
X103226971Y-71967213D01*
X103279732Y-71894590D01*
X103347287Y-71801610D01*
X103440220Y-71619219D01*
X103503477Y-71424534D01*
X103535500Y-71222352D01*
X103535500Y-71017648D01*
X103503477Y-70815466D01*
X103440220Y-70620781D01*
X103440218Y-70620778D01*
X103440218Y-70620776D01*
X103406503Y-70554607D01*
X103347287Y-70438390D01*
X103266567Y-70327287D01*
X103226971Y-70272786D01*
X103082219Y-70128034D01*
X103082211Y-70128028D01*
X102960799Y-70039818D01*
X102918134Y-69984489D01*
X102912155Y-69914875D01*
X102944760Y-69853080D01*
X103005599Y-69818723D01*
X103033685Y-69815500D01*
X104835398Y-69815500D01*
X104902437Y-69835185D01*
X104945883Y-69883205D01*
X104952715Y-69896614D01*
X105073028Y-70062213D01*
X105217786Y-70206971D01*
X105372749Y-70319556D01*
X105383390Y-70327287D01*
X105499607Y-70386503D01*
X105565776Y-70420218D01*
X105565778Y-70420218D01*
X105565781Y-70420220D01*
X105621703Y-70438390D01*
X105760465Y-70483477D01*
X105861557Y-70499488D01*
X105962648Y-70515500D01*
X105962649Y-70515500D01*
X106167351Y-70515500D01*
X106167352Y-70515500D01*
X106369534Y-70483477D01*
X106564219Y-70420220D01*
X106746610Y-70327287D01*
X106839590Y-70259732D01*
X106912213Y-70206971D01*
X106912215Y-70206968D01*
X106912219Y-70206966D01*
X107056966Y-70062219D01*
X107056968Y-70062215D01*
X107056971Y-70062213D01*
X107113440Y-69984489D01*
X107177287Y-69896610D01*
X107270220Y-69714219D01*
X107333477Y-69519534D01*
X107365500Y-69317352D01*
X107365500Y-69112648D01*
X107333477Y-68910466D01*
X107270220Y-68715781D01*
X107270218Y-68715778D01*
X107270218Y-68715776D01*
X107236503Y-68649607D01*
X107177287Y-68533390D01*
X107169556Y-68522749D01*
X107056971Y-68367786D01*
X106912213Y-68223028D01*
X106746613Y-68102715D01*
X106746612Y-68102714D01*
X106746610Y-68102713D01*
X106689653Y-68073691D01*
X106564223Y-68009781D01*
X106369534Y-67946522D01*
X106194995Y-67918878D01*
X106167352Y-67914500D01*
X105962648Y-67914500D01*
X105938329Y-67918351D01*
X105760465Y-67946522D01*
X105565776Y-68009781D01*
X105383386Y-68102715D01*
X105217786Y-68223028D01*
X105073028Y-68367786D01*
X104952715Y-68533385D01*
X104945883Y-68546795D01*
X104897909Y-68597591D01*
X104835398Y-68614500D01*
X96437957Y-68614500D01*
X96279843Y-68614500D01*
X96127115Y-68655423D01*
X96127114Y-68655423D01*
X96127112Y-68655424D01*
X96127109Y-68655425D01*
X96076996Y-68684359D01*
X96076995Y-68684360D01*
X96033589Y-68709420D01*
X95990185Y-68734479D01*
X95990182Y-68734481D01*
X93587181Y-71137483D01*
X93525858Y-71170968D01*
X93456166Y-71165984D01*
X93400233Y-71124112D01*
X93375816Y-71058648D01*
X93375500Y-71049802D01*
X93375500Y-71017648D01*
X93343477Y-70815465D01*
X93280218Y-70620776D01*
X93246503Y-70554607D01*
X93187287Y-70438390D01*
X93106567Y-70327287D01*
X93066971Y-70272786D01*
X92922213Y-70128028D01*
X92756613Y-70007715D01*
X92756612Y-70007714D01*
X92756610Y-70007713D01*
X92657369Y-69957147D01*
X92574223Y-69914781D01*
X92379534Y-69851522D01*
X92204995Y-69823878D01*
X92177352Y-69819500D01*
X91972648Y-69819500D01*
X91948329Y-69823351D01*
X91770465Y-69851522D01*
X91575776Y-69914781D01*
X91393386Y-70007715D01*
X91227786Y-70128028D01*
X91083028Y-70272786D01*
X90962715Y-70438385D01*
X90955883Y-70451795D01*
X90907909Y-70502591D01*
X90845398Y-70519500D01*
X88224602Y-70519500D01*
X88157563Y-70499815D01*
X88114117Y-70451795D01*
X88107284Y-70438385D01*
X87986971Y-70272786D01*
X87842213Y-70128028D01*
X87676613Y-70007715D01*
X87676612Y-70007714D01*
X87676610Y-70007713D01*
X87577369Y-69957147D01*
X87494223Y-69914781D01*
X87299534Y-69851522D01*
X87124995Y-69823878D01*
X87097352Y-69819500D01*
X86892648Y-69819500D01*
X86868329Y-69823351D01*
X86690465Y-69851522D01*
X86495776Y-69914781D01*
X86313386Y-70007715D01*
X86147786Y-70128028D01*
X86003028Y-70272786D01*
X85882715Y-70438386D01*
X85789781Y-70620776D01*
X85726522Y-70815465D01*
X85694500Y-71017648D01*
X85694500Y-71222351D01*
X85726522Y-71424534D01*
X85789781Y-71619223D01*
X85882712Y-71801609D01*
X85990389Y-71949815D01*
X86013868Y-72015622D01*
X85998042Y-72083676D01*
X85947936Y-72132370D01*
X85890070Y-72146700D01*
X79002597Y-72146700D01*
X78935558Y-72127015D01*
X78889803Y-72074211D01*
X78879859Y-72005053D01*
X78908884Y-71941497D01*
X78914916Y-71935019D01*
X84808117Y-66041819D01*
X84869440Y-66008334D01*
X84895798Y-66005500D01*
X104835398Y-66005500D01*
X104902437Y-66025185D01*
X104945883Y-66073205D01*
X104952715Y-66086614D01*
X105073028Y-66252213D01*
X105217786Y-66396971D01*
X105372749Y-66509556D01*
X105383390Y-66517287D01*
X105499607Y-66576503D01*
X105565776Y-66610218D01*
X105565778Y-66610218D01*
X105565781Y-66610220D01*
X105670137Y-66644127D01*
X105760465Y-66673477D01*
X105861557Y-66689488D01*
X105962648Y-66705500D01*
X105962649Y-66705500D01*
X106167351Y-66705500D01*
X106167352Y-66705500D01*
X106369534Y-66673477D01*
X106564219Y-66610220D01*
X106746610Y-66517287D01*
X106839590Y-66449732D01*
X106912213Y-66396971D01*
X106912215Y-66396968D01*
X106912219Y-66396966D01*
X107056966Y-66252219D01*
X107056968Y-66252215D01*
X107056971Y-66252213D01*
X107109732Y-66179590D01*
X107177287Y-66086610D01*
X107270220Y-65904219D01*
X107333477Y-65709534D01*
X107365500Y-65507352D01*
X107365500Y-65302648D01*
X107344740Y-65171576D01*
X107333477Y-65100465D01*
X107270218Y-64905776D01*
X107236503Y-64839607D01*
X107177287Y-64723390D01*
X107096567Y-64612287D01*
X107056971Y-64557786D01*
X106912213Y-64413028D01*
X106746613Y-64292715D01*
X106746612Y-64292714D01*
X106746610Y-64292713D01*
X106689653Y-64263691D01*
X106564223Y-64199781D01*
X106369534Y-64136522D01*
X106194995Y-64108878D01*
X106167352Y-64104500D01*
X105962648Y-64104500D01*
X105938329Y-64108351D01*
X105760465Y-64136522D01*
X105565776Y-64199781D01*
X105383386Y-64292715D01*
X105217786Y-64413028D01*
X105073028Y-64557786D01*
X104952715Y-64723385D01*
X104945883Y-64736795D01*
X104897909Y-64787591D01*
X104835398Y-64804500D01*
X103033685Y-64804500D01*
X102966646Y-64784815D01*
X102920891Y-64732011D01*
X102910947Y-64662853D01*
X102939972Y-64599297D01*
X102960800Y-64580181D01*
X103082219Y-64491966D01*
X103226966Y-64347219D01*
X103226968Y-64347215D01*
X103226971Y-64347213D01*
X103279732Y-64274590D01*
X103347287Y-64181610D01*
X103440220Y-63999219D01*
X103503477Y-63804534D01*
X103535500Y-63602352D01*
X103535500Y-63397648D01*
X103503477Y-63195465D01*
X103457888Y-63055157D01*
X103440220Y-63000781D01*
X103440218Y-63000778D01*
X103440218Y-63000776D01*
X103406503Y-62934607D01*
X103347287Y-62818390D01*
X103339556Y-62807749D01*
X103226971Y-62652786D01*
X103082213Y-62508028D01*
X102916613Y-62387715D01*
X102916612Y-62387714D01*
X102916610Y-62387713D01*
X102859653Y-62358691D01*
X102734223Y-62294781D01*
X102539534Y-62231522D01*
X102364995Y-62203878D01*
X102337352Y-62199500D01*
X102132648Y-62199500D01*
X102094599Y-62205526D01*
X101930468Y-62231522D01*
X101921717Y-62234365D01*
X101916154Y-62236173D01*
X101846313Y-62238167D01*
X101790157Y-62205922D01*
X101582790Y-61998555D01*
X101582788Y-61998552D01*
X101463917Y-61879681D01*
X101463916Y-61879680D01*
X101377104Y-61829560D01*
X101377104Y-61829559D01*
X101377100Y-61829558D01*
X101326985Y-61800623D01*
X101174257Y-61759699D01*
X101016143Y-61759699D01*
X101008547Y-61759699D01*
X101008531Y-61759700D01*
X88221470Y-61759700D01*
X88221454Y-61759699D01*
X88213858Y-61759699D01*
X88055743Y-61759699D01*
X87979379Y-61780161D01*
X87903014Y-61800623D01*
X87903009Y-61800626D01*
X87766090Y-61879675D01*
X87766086Y-61879678D01*
X87439841Y-62205922D01*
X87378518Y-62239406D01*
X87313845Y-62236172D01*
X87299535Y-62231523D01*
X87137898Y-62205922D01*
X87097352Y-62199500D01*
X86892648Y-62199500D01*
X86868329Y-62203351D01*
X86690465Y-62231522D01*
X86495776Y-62294781D01*
X86313386Y-62387715D01*
X86147786Y-62508028D01*
X86003028Y-62652786D01*
X85882715Y-62818385D01*
X85875883Y-62831795D01*
X85827909Y-62882591D01*
X85765398Y-62899500D01*
X83144602Y-62899500D01*
X83077563Y-62879815D01*
X83034117Y-62831795D01*
X83027284Y-62818385D01*
X82906971Y-62652786D01*
X82762213Y-62508028D01*
X82596613Y-62387715D01*
X82596612Y-62387714D01*
X82596610Y-62387713D01*
X82539653Y-62358691D01*
X82414223Y-62294781D01*
X82219534Y-62231522D01*
X82044995Y-62203878D01*
X82017352Y-62199500D01*
X81812648Y-62199500D01*
X81788329Y-62203351D01*
X81610465Y-62231522D01*
X81415776Y-62294781D01*
X81233386Y-62387715D01*
X81067786Y-62508028D01*
X80923028Y-62652786D01*
X80802715Y-62818385D01*
X80795883Y-62831795D01*
X80747909Y-62882591D01*
X80685398Y-62899500D01*
X79035097Y-62899500D01*
X78968058Y-62879815D01*
X78947416Y-62863181D01*
X73421610Y-57337375D01*
X73388125Y-57276052D01*
X73393109Y-57206360D01*
X73434981Y-57150427D01*
X73470970Y-57131764D01*
X73614219Y-57085220D01*
X73796610Y-56992287D01*
X73889590Y-56924732D01*
X73962213Y-56871971D01*
X73962215Y-56871968D01*
X73962219Y-56871966D01*
X74106966Y-56727219D01*
X74106968Y-56727215D01*
X74106971Y-56727213D01*
X74211892Y-56582799D01*
X74227287Y-56561610D01*
X74320220Y-56379219D01*
X74383477Y-56184534D01*
X74415500Y-55982352D01*
X74415500Y-55777648D01*
X74400806Y-55684875D01*
X74383477Y-55575465D01*
X74325796Y-55397942D01*
X74320220Y-55380781D01*
X74320218Y-55380778D01*
X74320218Y-55380776D01*
X74268865Y-55279991D01*
X74227287Y-55198390D01*
X74211894Y-55177203D01*
X74106971Y-55032786D01*
X73962213Y-54888028D01*
X73796613Y-54767715D01*
X73796612Y-54767714D01*
X73796610Y-54767713D01*
X73736896Y-54737287D01*
X73614223Y-54674781D01*
X73419534Y-54611522D01*
X73244995Y-54583878D01*
X73217352Y-54579500D01*
X73012648Y-54579500D01*
X72988329Y-54583351D01*
X72810465Y-54611522D01*
X72615776Y-54674781D01*
X72433391Y-54767712D01*
X72433383Y-54767717D01*
X72363085Y-54818790D01*
X72297279Y-54842269D01*
X72229225Y-54826442D01*
X72202521Y-54806153D01*
X72133656Y-54737288D01*
X72058995Y-54691237D01*
X71984336Y-54645187D01*
X71984331Y-54645185D01*
X71982862Y-54644698D01*
X71817797Y-54590001D01*
X71817795Y-54590000D01*
X71715010Y-54579500D01*
X70514998Y-54579500D01*
X70514981Y-54579501D01*
X70412203Y-54590000D01*
X70412200Y-54590001D01*
X70245668Y-54645185D01*
X70245663Y-54645187D01*
X70096342Y-54737289D01*
X69972289Y-54861342D01*
X69880187Y-55010663D01*
X69880185Y-55010668D01*
X69852399Y-55094522D01*
X69825001Y-55177203D01*
X69825001Y-55177204D01*
X69825000Y-55177204D01*
X69814500Y-55279983D01*
X69814500Y-55330903D01*
X69794815Y-55397942D01*
X69742011Y-55443697D01*
X69672853Y-55453641D01*
X69609297Y-55424616D01*
X69602819Y-55418584D01*
X68585590Y-54401355D01*
X68585588Y-54401352D01*
X68466717Y-54282481D01*
X68466716Y-54282480D01*
X68379904Y-54232360D01*
X68379904Y-54232359D01*
X68379900Y-54232358D01*
X68329785Y-54203423D01*
X68177057Y-54162499D01*
X68018943Y-54162499D01*
X68011347Y-54162499D01*
X68011331Y-54162500D01*
X65238670Y-54162500D01*
X65238654Y-54162499D01*
X65231058Y-54162499D01*
X65072943Y-54162499D01*
X64996579Y-54182961D01*
X64920214Y-54203423D01*
X64920209Y-54203426D01*
X64783290Y-54282475D01*
X64783282Y-54282481D01*
X64522582Y-54543181D01*
X64461259Y-54576666D01*
X64434901Y-54579500D01*
X63434998Y-54579500D01*
X63434980Y-54579501D01*
X63332203Y-54590000D01*
X63332200Y-54590001D01*
X63165668Y-54645185D01*
X63165663Y-54645187D01*
X63016342Y-54737289D01*
X62892289Y-54861342D01*
X62800187Y-55010663D01*
X62800185Y-55010668D01*
X62772399Y-55094522D01*
X62745001Y-55177203D01*
X62745001Y-55177204D01*
X62745000Y-55177204D01*
X62734500Y-55279983D01*
X62734500Y-56480001D01*
X62734501Y-56480018D01*
X62745000Y-56582796D01*
X62745001Y-56582799D01*
X62800185Y-56749331D01*
X62800187Y-56749336D01*
X62819243Y-56780231D01*
X62892288Y-56898656D01*
X63016344Y-57022712D01*
X63165666Y-57114814D01*
X63332203Y-57169999D01*
X63434991Y-57180500D01*
X64635008Y-57180499D01*
X64737797Y-57169999D01*
X64904334Y-57114814D01*
X65053656Y-57022712D01*
X65122524Y-56953843D01*
X65183843Y-56920361D01*
X65253535Y-56925345D01*
X65283082Y-56941206D01*
X65353390Y-56992287D01*
X65417913Y-57025163D01*
X65535776Y-57085218D01*
X65535778Y-57085218D01*
X65535781Y-57085220D01*
X65626856Y-57114812D01*
X65730465Y-57148477D01*
X65831557Y-57164488D01*
X65932648Y-57180500D01*
X65932649Y-57180500D01*
X66137351Y-57180500D01*
X66137352Y-57180500D01*
X66339534Y-57148477D01*
X66534219Y-57085220D01*
X66716610Y-56992287D01*
X66809590Y-56924732D01*
X66882213Y-56871971D01*
X66882215Y-56871968D01*
X66882219Y-56871966D01*
X67026966Y-56727219D01*
X67026968Y-56727215D01*
X67026971Y-56727213D01*
X67131892Y-56582799D01*
X67147287Y-56561610D01*
X67240220Y-56379219D01*
X67303477Y-56184534D01*
X67335500Y-55982352D01*
X67335500Y-55777648D01*
X67303477Y-55575466D01*
X67303476Y-55575462D01*
X67303476Y-55575461D01*
X67287346Y-55525818D01*
X67285351Y-55455977D01*
X67321431Y-55396144D01*
X67384132Y-55365316D01*
X67405277Y-55363500D01*
X67797903Y-55363500D01*
X67864942Y-55383185D01*
X67885584Y-55399819D01*
X75540922Y-63055157D01*
X75574407Y-63116480D01*
X75571173Y-63181154D01*
X75569365Y-63186717D01*
X75566522Y-63195468D01*
X75534500Y-63397648D01*
X75534500Y-63602351D01*
X75566522Y-63804534D01*
X75629781Y-63999223D01*
X75636037Y-64011500D01*
X75699739Y-64136522D01*
X75722715Y-64181613D01*
X75843028Y-64347213D01*
X75987786Y-64491971D01*
X76135511Y-64599297D01*
X76153390Y-64612287D01*
X76252631Y-64662853D01*
X76335776Y-64705218D01*
X76335778Y-64705218D01*
X76335781Y-64705220D01*
X76391703Y-64723390D01*
X76530465Y-64768477D01*
X76631557Y-64784488D01*
X76732648Y-64800500D01*
X76732649Y-64800500D01*
X76937351Y-64800500D01*
X76937352Y-64800500D01*
X77139534Y-64768477D01*
X77153842Y-64763827D01*
X77223682Y-64761831D01*
X77279842Y-64794077D01*
X77462139Y-64976374D01*
X77462149Y-64976385D01*
X77466479Y-64980715D01*
X77466480Y-64980716D01*
X77578284Y-65092520D01*
X77578286Y-65092521D01*
X77578290Y-65092524D01*
X77715209Y-65171573D01*
X77715216Y-65171577D01*
X77827019Y-65201534D01*
X77867942Y-65212500D01*
X77867943Y-65212500D01*
X83639602Y-65212500D01*
X83706641Y-65232185D01*
X83752396Y-65284989D01*
X83762340Y-65354147D01*
X83733315Y-65417703D01*
X83727283Y-65424181D01*
X77464984Y-71686481D01*
X77403661Y-71719966D01*
X77377303Y-71722800D01*
X73258397Y-71722800D01*
X73228956Y-71714155D01*
X73198970Y-71707632D01*
X73193954Y-71703877D01*
X73191358Y-71703115D01*
X73170716Y-71686481D01*
X73049077Y-71564842D01*
X73015592Y-71503519D01*
X73018828Y-71438841D01*
X73023477Y-71424534D01*
X73055500Y-71222352D01*
X73055500Y-71017648D01*
X73023477Y-70815466D01*
X72960220Y-70620781D01*
X72960218Y-70620778D01*
X72960218Y-70620776D01*
X72926503Y-70554607D01*
X72867287Y-70438390D01*
X72786567Y-70327287D01*
X72746971Y-70272786D01*
X72602213Y-70128028D01*
X72436613Y-70007715D01*
X72436612Y-70007714D01*
X72436610Y-70007713D01*
X72337369Y-69957147D01*
X72254223Y-69914781D01*
X72059534Y-69851522D01*
X71884995Y-69823878D01*
X71857352Y-69819500D01*
X71652648Y-69819500D01*
X71628329Y-69823351D01*
X71450465Y-69851522D01*
X71255776Y-69914781D01*
X71073386Y-70007715D01*
X70907786Y-70128028D01*
X70763028Y-70272786D01*
X70642715Y-70438386D01*
X70549781Y-70620776D01*
X70486522Y-70815465D01*
X70454500Y-71017648D01*
X70454500Y-71222351D01*
X70486522Y-71424534D01*
X70549781Y-71619223D01*
X70642712Y-71801609D01*
X70750389Y-71949815D01*
X70773868Y-72015622D01*
X70758042Y-72083676D01*
X70707936Y-72132370D01*
X70650070Y-72146700D01*
X68602297Y-72146700D01*
X68535258Y-72127015D01*
X68514616Y-72110381D01*
X67969077Y-71564842D01*
X67935592Y-71503519D01*
X67938828Y-71438841D01*
X67943477Y-71424534D01*
X67975500Y-71222352D01*
X67975500Y-71017648D01*
X67943477Y-70815466D01*
X67880220Y-70620781D01*
X67880218Y-70620778D01*
X67880218Y-70620776D01*
X67846503Y-70554607D01*
X67787287Y-70438390D01*
X67706567Y-70327287D01*
X67666971Y-70272786D01*
X67522213Y-70128028D01*
X67356613Y-70007715D01*
X67356612Y-70007714D01*
X67356610Y-70007713D01*
X67257369Y-69957147D01*
X67174223Y-69914781D01*
X66979534Y-69851522D01*
X66804995Y-69823878D01*
X66777352Y-69819500D01*
X66572648Y-69819500D01*
X66548329Y-69823351D01*
X66370465Y-69851522D01*
X66175776Y-69914781D01*
X65993386Y-70007715D01*
X65827786Y-70128028D01*
X65683028Y-70272786D01*
X65562715Y-70438386D01*
X65469781Y-70620776D01*
X65406522Y-70815465D01*
X65374500Y-71017648D01*
X65374500Y-71222351D01*
X65406522Y-71424534D01*
X65469781Y-71619223D01*
X65522332Y-71722358D01*
X65562712Y-71801609D01*
X65562715Y-71801613D01*
X65683028Y-71967213D01*
X65827786Y-72111971D01*
X65982749Y-72224556D01*
X65993390Y-72232287D01*
X66109607Y-72291503D01*
X66175776Y-72325218D01*
X66175778Y-72325218D01*
X66175781Y-72325220D01*
X66280137Y-72359127D01*
X66370465Y-72388477D01*
X66471557Y-72404488D01*
X66572648Y-72420500D01*
X66572649Y-72420500D01*
X66777351Y-72420500D01*
X66777352Y-72420500D01*
X66979534Y-72388477D01*
X66993842Y-72383827D01*
X67063682Y-72381831D01*
X67119842Y-72414077D01*
X67817339Y-73111574D01*
X67817349Y-73111585D01*
X67821679Y-73115915D01*
X67821680Y-73115916D01*
X67933484Y-73227720D01*
X68020295Y-73277839D01*
X68020297Y-73277841D01*
X68070413Y-73306776D01*
X68070415Y-73306777D01*
X68223142Y-73347700D01*
X68223143Y-73347700D01*
X92740031Y-73347700D01*
X92740047Y-73347701D01*
X92747643Y-73347701D01*
X92905754Y-73347701D01*
X92905757Y-73347701D01*
X93058485Y-73306777D01*
X93108604Y-73277839D01*
X93195416Y-73227720D01*
X93307220Y-73115916D01*
X93307220Y-73115914D01*
X93317428Y-73105707D01*
X93317429Y-73105704D01*
X95669147Y-70753987D01*
X95730469Y-70720503D01*
X95800161Y-70725487D01*
X95856094Y-70767359D01*
X95880511Y-70832823D01*
X95879300Y-70861067D01*
X95854500Y-71017648D01*
X95854500Y-71222351D01*
X95886522Y-71424534D01*
X95949781Y-71619223D01*
X96002332Y-71722358D01*
X96042712Y-71801609D01*
X96042715Y-71801613D01*
X96163028Y-71967213D01*
X96307786Y-72111971D01*
X96462749Y-72224556D01*
X96473390Y-72232287D01*
X96589607Y-72291503D01*
X96655776Y-72325218D01*
X96655778Y-72325218D01*
X96655781Y-72325220D01*
X96760137Y-72359127D01*
X96850465Y-72388477D01*
X96951557Y-72404488D01*
X97052648Y-72420500D01*
X97052649Y-72420500D01*
X97257351Y-72420500D01*
X97257352Y-72420500D01*
X97459534Y-72388477D01*
X97473842Y-72383827D01*
X97543682Y-72381831D01*
X97599842Y-72414077D01*
X98634084Y-73448319D01*
X98667569Y-73509642D01*
X98662585Y-73579334D01*
X98620713Y-73635267D01*
X98555249Y-73659684D01*
X98546403Y-73660000D01*
X52829000Y-73660000D01*
X52761961Y-73640315D01*
X52716206Y-73587511D01*
X52705000Y-73536000D01*
X52705000Y-63397648D01*
X65374500Y-63397648D01*
X65374500Y-63602351D01*
X65406522Y-63804534D01*
X65469781Y-63999223D01*
X65476037Y-64011500D01*
X65539739Y-64136522D01*
X65562715Y-64181613D01*
X65683028Y-64347213D01*
X65827786Y-64491971D01*
X65975511Y-64599297D01*
X65993390Y-64612287D01*
X66092631Y-64662853D01*
X66175776Y-64705218D01*
X66175778Y-64705218D01*
X66175781Y-64705220D01*
X66231703Y-64723390D01*
X66370465Y-64768477D01*
X66471557Y-64784488D01*
X66572648Y-64800500D01*
X66572649Y-64800500D01*
X66777351Y-64800500D01*
X66777352Y-64800500D01*
X66979534Y-64768477D01*
X67174219Y-64705220D01*
X67174406Y-64705125D01*
X67178827Y-64702872D01*
X67356610Y-64612287D01*
X67449590Y-64544732D01*
X67522213Y-64491971D01*
X67522215Y-64491968D01*
X67522219Y-64491966D01*
X67666966Y-64347219D01*
X67666968Y-64347215D01*
X67666971Y-64347213D01*
X67719732Y-64274590D01*
X67787287Y-64181610D01*
X67880220Y-63999219D01*
X67943477Y-63804534D01*
X67975500Y-63602352D01*
X67975500Y-63397648D01*
X70454500Y-63397648D01*
X70454500Y-63602351D01*
X70486522Y-63804534D01*
X70549781Y-63999223D01*
X70556037Y-64011500D01*
X70619739Y-64136522D01*
X70642715Y-64181613D01*
X70763028Y-64347213D01*
X70907786Y-64491971D01*
X71055511Y-64599297D01*
X71073390Y-64612287D01*
X71172631Y-64662853D01*
X71255776Y-64705218D01*
X71255778Y-64705218D01*
X71255781Y-64705220D01*
X71311703Y-64723390D01*
X71450465Y-64768477D01*
X71551557Y-64784488D01*
X71652648Y-64800500D01*
X71652649Y-64800500D01*
X71857351Y-64800500D01*
X71857352Y-64800500D01*
X72059534Y-64768477D01*
X72254219Y-64705220D01*
X72254406Y-64705125D01*
X72258827Y-64702872D01*
X72436610Y-64612287D01*
X72529590Y-64544732D01*
X72602213Y-64491971D01*
X72602215Y-64491968D01*
X72602219Y-64491966D01*
X72746966Y-64347219D01*
X72746968Y-64347215D01*
X72746971Y-64347213D01*
X72799732Y-64274590D01*
X72867287Y-64181610D01*
X72960220Y-63999219D01*
X73023477Y-63804534D01*
X73055500Y-63602352D01*
X73055500Y-63397648D01*
X73023477Y-63195465D01*
X72977888Y-63055157D01*
X72960220Y-63000781D01*
X72960218Y-63000778D01*
X72960218Y-63000776D01*
X72926503Y-62934607D01*
X72867287Y-62818390D01*
X72859556Y-62807749D01*
X72746971Y-62652786D01*
X72602213Y-62508028D01*
X72436613Y-62387715D01*
X72436612Y-62387714D01*
X72436610Y-62387713D01*
X72379653Y-62358691D01*
X72254223Y-62294781D01*
X72059534Y-62231522D01*
X71884995Y-62203878D01*
X71857352Y-62199500D01*
X71652648Y-62199500D01*
X71628329Y-62203351D01*
X71450465Y-62231522D01*
X71255776Y-62294781D01*
X71073386Y-62387715D01*
X70907786Y-62508028D01*
X70763028Y-62652786D01*
X70642715Y-62818386D01*
X70549781Y-63000776D01*
X70486522Y-63195465D01*
X70454500Y-63397648D01*
X67975500Y-63397648D01*
X67943477Y-63195465D01*
X67897888Y-63055157D01*
X67880220Y-63000781D01*
X67880218Y-63000778D01*
X67880218Y-63000776D01*
X67846503Y-62934607D01*
X67787287Y-62818390D01*
X67779556Y-62807749D01*
X67666971Y-62652786D01*
X67522213Y-62508028D01*
X67356613Y-62387715D01*
X67356612Y-62387714D01*
X67356610Y-62387713D01*
X67299653Y-62358691D01*
X67174223Y-62294781D01*
X66979534Y-62231522D01*
X66804995Y-62203878D01*
X66777352Y-62199500D01*
X66572648Y-62199500D01*
X66548329Y-62203351D01*
X66370465Y-62231522D01*
X66175776Y-62294781D01*
X65993386Y-62387715D01*
X65827786Y-62508028D01*
X65683028Y-62652786D01*
X65562715Y-62818386D01*
X65469781Y-63000776D01*
X65406522Y-63195465D01*
X65374500Y-63397648D01*
X52705000Y-63397648D01*
X52705000Y-53712135D01*
X85004500Y-53712135D01*
X85004500Y-55507870D01*
X85004501Y-55507876D01*
X85010908Y-55567483D01*
X85061202Y-55702328D01*
X85061206Y-55702335D01*
X85147452Y-55817544D01*
X85147455Y-55817547D01*
X85262664Y-55903793D01*
X85262671Y-55903797D01*
X85397517Y-55954091D01*
X85397516Y-55954091D01*
X85404444Y-55954835D01*
X85457127Y-55960500D01*
X87252872Y-55960499D01*
X87312483Y-55954091D01*
X87447331Y-55903796D01*
X87484860Y-55875701D01*
X87550323Y-55851284D01*
X87618596Y-55866135D01*
X87646852Y-55887287D01*
X88758839Y-56999274D01*
X88758849Y-56999285D01*
X88763179Y-57003615D01*
X88763180Y-57003616D01*
X88874984Y-57115420D01*
X88903292Y-57131763D01*
X88961795Y-57165539D01*
X88961797Y-57165541D01*
X88989931Y-57181784D01*
X89011915Y-57194477D01*
X89164643Y-57235401D01*
X89164646Y-57235401D01*
X89330353Y-57235401D01*
X89330369Y-57235400D01*
X100423222Y-57235400D01*
X100490261Y-57255085D01*
X100536016Y-57307889D01*
X100545960Y-57377047D01*
X100541153Y-57397718D01*
X100502202Y-57517594D01*
X100502202Y-57517597D01*
X100468300Y-57731644D01*
X100468300Y-57948355D01*
X100502202Y-58162402D01*
X100502202Y-58162405D01*
X100569168Y-58368505D01*
X100635259Y-58498215D01*
X100667555Y-58561600D01*
X100794936Y-58736925D01*
X100948175Y-58890164D01*
X101123500Y-59017545D01*
X101316592Y-59115930D01*
X101316594Y-59115931D01*
X101522695Y-59182897D01*
X101522696Y-59182897D01*
X101522699Y-59182898D01*
X101736744Y-59216800D01*
X101736745Y-59216800D01*
X101953455Y-59216800D01*
X101953456Y-59216800D01*
X102167501Y-59182898D01*
X102167504Y-59182897D01*
X102167505Y-59182897D01*
X102373605Y-59115931D01*
X102373605Y-59115930D01*
X102373608Y-59115930D01*
X102566700Y-59017545D01*
X102742025Y-58890164D01*
X102895264Y-58736925D01*
X102994782Y-58599949D01*
X103050112Y-58557284D01*
X103119725Y-58551305D01*
X103181520Y-58583911D01*
X103195417Y-58599949D01*
X103294936Y-58736925D01*
X103448175Y-58890164D01*
X103623500Y-59017545D01*
X103816592Y-59115930D01*
X103816594Y-59115931D01*
X104022695Y-59182897D01*
X104022696Y-59182897D01*
X104022699Y-59182898D01*
X104236744Y-59216800D01*
X104236745Y-59216800D01*
X104453455Y-59216800D01*
X104453456Y-59216800D01*
X104667501Y-59182898D01*
X104667504Y-59182897D01*
X104667505Y-59182897D01*
X104873605Y-59115931D01*
X104873605Y-59115930D01*
X104873608Y-59115930D01*
X105066700Y-59017545D01*
X105242025Y-58890164D01*
X105395264Y-58736925D01*
X105522645Y-58561600D01*
X105621030Y-58368508D01*
X105687998Y-58162401D01*
X105721900Y-57948356D01*
X105721900Y-57731644D01*
X105687998Y-57517599D01*
X105687997Y-57517595D01*
X105687997Y-57517594D01*
X105621031Y-57311494D01*
X105582259Y-57235400D01*
X105522645Y-57118400D01*
X105409583Y-56962783D01*
X105386104Y-56896979D01*
X105401929Y-56828925D01*
X105452035Y-56780231D01*
X105509902Y-56765900D01*
X106642342Y-56765900D01*
X106709381Y-56785585D01*
X106755136Y-56838389D01*
X106765080Y-56907547D01*
X106736055Y-56971103D01*
X106677277Y-57008877D01*
X106666533Y-57011517D01*
X106597930Y-57025163D01*
X106597922Y-57025165D01*
X106443708Y-57089042D01*
X106443699Y-57089047D01*
X106304914Y-57181781D01*
X106304910Y-57181784D01*
X106186884Y-57299810D01*
X106186881Y-57299814D01*
X106094147Y-57438599D01*
X106094142Y-57438608D01*
X106030265Y-57592822D01*
X106030263Y-57592830D01*
X105997700Y-57756533D01*
X105997700Y-57923466D01*
X106030263Y-58087169D01*
X106030265Y-58087177D01*
X106094142Y-58241391D01*
X106094147Y-58241400D01*
X106186881Y-58380185D01*
X106186884Y-58380189D01*
X106304910Y-58498215D01*
X106304914Y-58498218D01*
X106443699Y-58590952D01*
X106443705Y-58590955D01*
X106443706Y-58590956D01*
X106597923Y-58654835D01*
X106761633Y-58687399D01*
X106761636Y-58687400D01*
X106761638Y-58687400D01*
X106928564Y-58687400D01*
X106928565Y-58687399D01*
X107092277Y-58654835D01*
X107246494Y-58590956D01*
X107385286Y-58498218D01*
X107503318Y-58380186D01*
X107596056Y-58241394D01*
X107659935Y-58087177D01*
X107692500Y-57923462D01*
X107692500Y-57756538D01*
X107692500Y-57756535D01*
X107692499Y-57756533D01*
X107659936Y-57592830D01*
X107659935Y-57592823D01*
X107610527Y-57473543D01*
X107596057Y-57438608D01*
X107596052Y-57438599D01*
X107503318Y-57299814D01*
X107503315Y-57299810D01*
X107385289Y-57181784D01*
X107385285Y-57181781D01*
X107246500Y-57089047D01*
X107246491Y-57089042D01*
X107092277Y-57025165D01*
X107092269Y-57025163D01*
X107023667Y-57011517D01*
X106961756Y-56979132D01*
X106927182Y-56918416D01*
X106930921Y-56848647D01*
X106971788Y-56791975D01*
X107036806Y-56766394D01*
X107047858Y-56765900D01*
X107370403Y-56765900D01*
X107437442Y-56785585D01*
X107458084Y-56802219D01*
X107990470Y-57334605D01*
X108023955Y-57395928D01*
X108020720Y-57460603D01*
X108002202Y-57517595D01*
X107968300Y-57731644D01*
X107968300Y-57948355D01*
X108002202Y-58162402D01*
X108002202Y-58162405D01*
X108069168Y-58368505D01*
X108135259Y-58498215D01*
X108167555Y-58561600D01*
X108294936Y-58736925D01*
X108448175Y-58890164D01*
X108623500Y-59017545D01*
X108816592Y-59115930D01*
X108816594Y-59115931D01*
X109022695Y-59182897D01*
X109022696Y-59182897D01*
X109022699Y-59182898D01*
X109236744Y-59216800D01*
X109236745Y-59216800D01*
X109453455Y-59216800D01*
X109453456Y-59216800D01*
X109667501Y-59182898D01*
X109667504Y-59182897D01*
X109667505Y-59182897D01*
X109873605Y-59115931D01*
X109873605Y-59115930D01*
X109873608Y-59115930D01*
X110066700Y-59017545D01*
X110242025Y-58890164D01*
X110395264Y-58736925D01*
X110494782Y-58599949D01*
X110550112Y-58557284D01*
X110619725Y-58551305D01*
X110681520Y-58583911D01*
X110695417Y-58599949D01*
X110794936Y-58736925D01*
X110948175Y-58890164D01*
X111123500Y-59017545D01*
X111316592Y-59115930D01*
X111316594Y-59115931D01*
X111522695Y-59182897D01*
X111522696Y-59182897D01*
X111522699Y-59182898D01*
X111736744Y-59216800D01*
X111736745Y-59216800D01*
X111953455Y-59216800D01*
X111953456Y-59216800D01*
X112167501Y-59182898D01*
X112167504Y-59182897D01*
X112167505Y-59182897D01*
X112373605Y-59115931D01*
X112373605Y-59115930D01*
X112373608Y-59115930D01*
X112566700Y-59017545D01*
X112742025Y-58890164D01*
X112895264Y-58736925D01*
X113022645Y-58561600D01*
X113121030Y-58368508D01*
X113187998Y-58162401D01*
X113221900Y-57948356D01*
X113221900Y-57731644D01*
X113187998Y-57517599D01*
X113187997Y-57517595D01*
X113187997Y-57517594D01*
X113121031Y-57311494D01*
X113082259Y-57235400D01*
X113022645Y-57118400D01*
X112895264Y-56943075D01*
X112742025Y-56789836D01*
X112566700Y-56662455D01*
X112373605Y-56564068D01*
X112167504Y-56497102D01*
X112006967Y-56471675D01*
X111953456Y-56463200D01*
X111736744Y-56463200D01*
X111665395Y-56474500D01*
X111522697Y-56497102D01*
X111522694Y-56497102D01*
X111316594Y-56564068D01*
X111123499Y-56662455D01*
X110948172Y-56789838D01*
X110794938Y-56943072D01*
X110794938Y-56943073D01*
X110794936Y-56943075D01*
X110735296Y-57025163D01*
X110695418Y-57080050D01*
X110640088Y-57122715D01*
X110570474Y-57128694D01*
X110508680Y-57096088D01*
X110494782Y-57080050D01*
X110395264Y-56943075D01*
X110242025Y-56789836D01*
X110066700Y-56662455D01*
X109873605Y-56564068D01*
X109667504Y-56497102D01*
X109506967Y-56471675D01*
X109453456Y-56463200D01*
X109236744Y-56463200D01*
X109193935Y-56469980D01*
X109022695Y-56497102D01*
X108965703Y-56515620D01*
X108895862Y-56517615D01*
X108839705Y-56485370D01*
X108158090Y-55803755D01*
X108158088Y-55803752D01*
X108039217Y-55684881D01*
X108039209Y-55684875D01*
X107922223Y-55617334D01*
X107922223Y-55617333D01*
X107922218Y-55617332D01*
X107915262Y-55613315D01*
X107902286Y-55605823D01*
X107864103Y-55595592D01*
X107749557Y-55564899D01*
X107591443Y-55564899D01*
X107583847Y-55564899D01*
X107583831Y-55564900D01*
X90750498Y-55564900D01*
X90683459Y-55545215D01*
X90662817Y-55528581D01*
X90228757Y-55094522D01*
X90195272Y-55033199D01*
X90198507Y-54968523D01*
X90212246Y-54926243D01*
X90245500Y-54716287D01*
X90245500Y-54503713D01*
X90212246Y-54293757D01*
X90146557Y-54091588D01*
X90050051Y-53902184D01*
X90050049Y-53902181D01*
X90050048Y-53902179D01*
X89925109Y-53730213D01*
X89774786Y-53579890D01*
X89602820Y-53454951D01*
X89413414Y-53358444D01*
X89413413Y-53358443D01*
X89413412Y-53358443D01*
X89211243Y-53292754D01*
X89211241Y-53292753D01*
X89211240Y-53292753D01*
X89049957Y-53267208D01*
X89001287Y-53259500D01*
X88788713Y-53259500D01*
X88740042Y-53267208D01*
X88578760Y-53292753D01*
X88376585Y-53358444D01*
X88187179Y-53454951D01*
X88015215Y-53579889D01*
X87901673Y-53693431D01*
X87840350Y-53726915D01*
X87770658Y-53721931D01*
X87714725Y-53680059D01*
X87697810Y-53649082D01*
X87648797Y-53517671D01*
X87648793Y-53517664D01*
X87562547Y-53402455D01*
X87562544Y-53402452D01*
X87447335Y-53316206D01*
X87447328Y-53316202D01*
X87312482Y-53265908D01*
X87312483Y-53265908D01*
X87252883Y-53259501D01*
X87252881Y-53259500D01*
X87252873Y-53259500D01*
X87252864Y-53259500D01*
X85457129Y-53259500D01*
X85457123Y-53259501D01*
X85397516Y-53265908D01*
X85262671Y-53316202D01*
X85262664Y-53316206D01*
X85147455Y-53402452D01*
X85147452Y-53402455D01*
X85061206Y-53517664D01*
X85061202Y-53517671D01*
X85010908Y-53652517D01*
X85004501Y-53712116D01*
X85004500Y-53712135D01*
X52705000Y-53712135D01*
X52705000Y-52756533D01*
X100997700Y-52756533D01*
X100997700Y-52923466D01*
X101030263Y-53087169D01*
X101030265Y-53087177D01*
X101094142Y-53241391D01*
X101094147Y-53241400D01*
X101186881Y-53380185D01*
X101186884Y-53380189D01*
X101304910Y-53498215D01*
X101304914Y-53498218D01*
X101443699Y-53590952D01*
X101443705Y-53590955D01*
X101443706Y-53590956D01*
X101597923Y-53654835D01*
X101761633Y-53687399D01*
X101761636Y-53687400D01*
X101761638Y-53687400D01*
X101928564Y-53687400D01*
X101928565Y-53687399D01*
X102092277Y-53654835D01*
X102246494Y-53590956D01*
X102385286Y-53498218D01*
X102503318Y-53380186D01*
X102596056Y-53241394D01*
X102659935Y-53087177D01*
X102692500Y-52923462D01*
X102692500Y-52756538D01*
X102692500Y-52756535D01*
X102692499Y-52756533D01*
X110997700Y-52756533D01*
X110997700Y-52923466D01*
X111030263Y-53087169D01*
X111030265Y-53087177D01*
X111094142Y-53241391D01*
X111094147Y-53241400D01*
X111186881Y-53380185D01*
X111186884Y-53380189D01*
X111304910Y-53498215D01*
X111304914Y-53498218D01*
X111443699Y-53590952D01*
X111443705Y-53590955D01*
X111443706Y-53590956D01*
X111597923Y-53654835D01*
X111761633Y-53687399D01*
X111761636Y-53687400D01*
X111761638Y-53687400D01*
X111928564Y-53687400D01*
X111928565Y-53687399D01*
X112092277Y-53654835D01*
X112246494Y-53590956D01*
X112385286Y-53498218D01*
X112503318Y-53380186D01*
X112596056Y-53241394D01*
X112659935Y-53087177D01*
X112692500Y-52923462D01*
X112692500Y-52756538D01*
X112692500Y-52756535D01*
X112692499Y-52756533D01*
X112659936Y-52592830D01*
X112659935Y-52592823D01*
X112596056Y-52438606D01*
X112596055Y-52438605D01*
X112596052Y-52438599D01*
X112503318Y-52299814D01*
X112503315Y-52299810D01*
X112385289Y-52181784D01*
X112385285Y-52181781D01*
X112246500Y-52089047D01*
X112246491Y-52089042D01*
X112092277Y-52025165D01*
X112092269Y-52025163D01*
X111928565Y-51992600D01*
X111928562Y-51992600D01*
X111761638Y-51992600D01*
X111761635Y-51992600D01*
X111597930Y-52025163D01*
X111597922Y-52025165D01*
X111443708Y-52089042D01*
X111443699Y-52089047D01*
X111304914Y-52181781D01*
X111304910Y-52181784D01*
X111186884Y-52299810D01*
X111186881Y-52299814D01*
X111094147Y-52438599D01*
X111094142Y-52438608D01*
X111030265Y-52592822D01*
X111030263Y-52592830D01*
X110997700Y-52756533D01*
X102692499Y-52756533D01*
X102659936Y-52592830D01*
X102659935Y-52592823D01*
X102596056Y-52438606D01*
X102596055Y-52438605D01*
X102596052Y-52438599D01*
X102503318Y-52299814D01*
X102503315Y-52299810D01*
X102385289Y-52181784D01*
X102385285Y-52181781D01*
X102246500Y-52089047D01*
X102246491Y-52089042D01*
X102092277Y-52025165D01*
X102092269Y-52025163D01*
X101928565Y-51992600D01*
X101928562Y-51992600D01*
X101761638Y-51992600D01*
X101761635Y-51992600D01*
X101597930Y-52025163D01*
X101597922Y-52025165D01*
X101443708Y-52089042D01*
X101443699Y-52089047D01*
X101304914Y-52181781D01*
X101304910Y-52181784D01*
X101186884Y-52299810D01*
X101186881Y-52299814D01*
X101094147Y-52438599D01*
X101094142Y-52438608D01*
X101030265Y-52592822D01*
X101030263Y-52592830D01*
X100997700Y-52756533D01*
X52705000Y-52756533D01*
X52705000Y-50256533D01*
X100997700Y-50256533D01*
X100997700Y-50423466D01*
X101030263Y-50587169D01*
X101030265Y-50587177D01*
X101094142Y-50741391D01*
X101094147Y-50741400D01*
X101186881Y-50880185D01*
X101186884Y-50880189D01*
X101304910Y-50998215D01*
X101304914Y-50998218D01*
X101443699Y-51090952D01*
X101443705Y-51090955D01*
X101443706Y-51090956D01*
X101597923Y-51154835D01*
X101761633Y-51187399D01*
X101761636Y-51187400D01*
X101761638Y-51187400D01*
X101928564Y-51187400D01*
X101928565Y-51187399D01*
X102092277Y-51154835D01*
X102246494Y-51090956D01*
X102385286Y-50998218D01*
X102503318Y-50880186D01*
X102596056Y-50741394D01*
X102659935Y-50587177D01*
X102692500Y-50423462D01*
X102692500Y-50256538D01*
X102692500Y-50256535D01*
X102692499Y-50256533D01*
X110997700Y-50256533D01*
X110997700Y-50423466D01*
X111030263Y-50587169D01*
X111030265Y-50587177D01*
X111094142Y-50741391D01*
X111094147Y-50741400D01*
X111186881Y-50880185D01*
X111186884Y-50880189D01*
X111304910Y-50998215D01*
X111304914Y-50998218D01*
X111443699Y-51090952D01*
X111443705Y-51090955D01*
X111443706Y-51090956D01*
X111597923Y-51154835D01*
X111761633Y-51187399D01*
X111761636Y-51187400D01*
X111761638Y-51187400D01*
X111928564Y-51187400D01*
X111928565Y-51187399D01*
X112092277Y-51154835D01*
X112246494Y-51090956D01*
X112385286Y-50998218D01*
X112503318Y-50880186D01*
X112596056Y-50741394D01*
X112659935Y-50587177D01*
X112692500Y-50423462D01*
X112692500Y-50256538D01*
X112692500Y-50256535D01*
X112692499Y-50256533D01*
X112659936Y-50092830D01*
X112659935Y-50092823D01*
X112596056Y-49938606D01*
X112596055Y-49938605D01*
X112596052Y-49938599D01*
X112503318Y-49799814D01*
X112503315Y-49799810D01*
X112385289Y-49681784D01*
X112385285Y-49681781D01*
X112246500Y-49589047D01*
X112246491Y-49589042D01*
X112092277Y-49525165D01*
X112092269Y-49525163D01*
X111928565Y-49492600D01*
X111928562Y-49492600D01*
X111761638Y-49492600D01*
X111761635Y-49492600D01*
X111597930Y-49525163D01*
X111597922Y-49525165D01*
X111443708Y-49589042D01*
X111443699Y-49589047D01*
X111304914Y-49681781D01*
X111304910Y-49681784D01*
X111186884Y-49799810D01*
X111186881Y-49799814D01*
X111094147Y-49938599D01*
X111094142Y-49938608D01*
X111030265Y-50092822D01*
X111030263Y-50092830D01*
X110997700Y-50256533D01*
X102692499Y-50256533D01*
X102659936Y-50092830D01*
X102659935Y-50092823D01*
X102596056Y-49938606D01*
X102596055Y-49938605D01*
X102596052Y-49938599D01*
X102503318Y-49799814D01*
X102503315Y-49799810D01*
X102385289Y-49681784D01*
X102385285Y-49681781D01*
X102246500Y-49589047D01*
X102246491Y-49589042D01*
X102092277Y-49525165D01*
X102092269Y-49525163D01*
X101928565Y-49492600D01*
X101928562Y-49492600D01*
X101761638Y-49492600D01*
X101761635Y-49492600D01*
X101597930Y-49525163D01*
X101597922Y-49525165D01*
X101443708Y-49589042D01*
X101443699Y-49589047D01*
X101304914Y-49681781D01*
X101304910Y-49681784D01*
X101186884Y-49799810D01*
X101186881Y-49799814D01*
X101094147Y-49938599D01*
X101094142Y-49938608D01*
X101030265Y-50092822D01*
X101030263Y-50092830D01*
X100997700Y-50256533D01*
X52705000Y-50256533D01*
X52705000Y-49019000D01*
X52724685Y-48951961D01*
X52777489Y-48906206D01*
X52829000Y-48895000D01*
X114811000Y-48895000D01*
X114878039Y-48914685D01*
G37*
%TD.AperFunction*%
%TD*%
%TA.AperFunction,Conductor*%
%TO.N,GND*%
G36*
X103138792Y-124679385D02*
G01*
X103184547Y-124732189D01*
X103194491Y-124801347D01*
X103165466Y-124864903D01*
X103159434Y-124871381D01*
X103148032Y-124882782D01*
X103148028Y-124882786D01*
X103027715Y-125048386D01*
X102934781Y-125230776D01*
X102871522Y-125425465D01*
X102839500Y-125627648D01*
X102839500Y-125832351D01*
X102871522Y-126034534D01*
X102934781Y-126229223D01*
X103027715Y-126411613D01*
X103148028Y-126577213D01*
X103292784Y-126721969D01*
X103332294Y-126750674D01*
X103374960Y-126806004D01*
X103380939Y-126875617D01*
X103348334Y-126937412D01*
X103347090Y-126938673D01*
X98229842Y-132055921D01*
X98168519Y-132089406D01*
X98103848Y-132086173D01*
X98089534Y-132081522D01*
X97908484Y-132052847D01*
X97887352Y-132049500D01*
X97682648Y-132049500D01*
X97661516Y-132052847D01*
X97480465Y-132081522D01*
X97285776Y-132144781D01*
X97103386Y-132237715D01*
X96937786Y-132358028D01*
X96793028Y-132502786D01*
X96672715Y-132668386D01*
X96579781Y-132850776D01*
X96516522Y-133045465D01*
X96484500Y-133247648D01*
X96484500Y-133452352D01*
X96485620Y-133459421D01*
X96516523Y-133654535D01*
X96516523Y-133654538D01*
X96530217Y-133696682D01*
X96532212Y-133766523D01*
X96496132Y-133826356D01*
X96433431Y-133857184D01*
X96412286Y-133859000D01*
X94077714Y-133859000D01*
X94010675Y-133839315D01*
X93964920Y-133786511D01*
X93954976Y-133717353D01*
X93959783Y-133696682D01*
X93973476Y-133654538D01*
X93973476Y-133654537D01*
X93973477Y-133654534D01*
X94005500Y-133452352D01*
X94005500Y-133247648D01*
X93986406Y-133127095D01*
X93973477Y-133045465D01*
X93940625Y-132944358D01*
X93910220Y-132850781D01*
X93910218Y-132850778D01*
X93910218Y-132850776D01*
X93848763Y-132730165D01*
X93817287Y-132668390D01*
X93809556Y-132657749D01*
X93696971Y-132502786D01*
X93552213Y-132358028D01*
X93386613Y-132237715D01*
X93386612Y-132237714D01*
X93386610Y-132237713D01*
X93329653Y-132208691D01*
X93204223Y-132144781D01*
X93009534Y-132081522D01*
X92828484Y-132052847D01*
X92807352Y-132049500D01*
X92602648Y-132049500D01*
X92581516Y-132052847D01*
X92400465Y-132081522D01*
X92205776Y-132144781D01*
X92023386Y-132237715D01*
X91857786Y-132358028D01*
X91713028Y-132502786D01*
X91592715Y-132668386D01*
X91499781Y-132850776D01*
X91436522Y-133045465D01*
X91404500Y-133247648D01*
X91404500Y-133452352D01*
X91405620Y-133459421D01*
X91436523Y-133654535D01*
X91436523Y-133654538D01*
X91450217Y-133696682D01*
X91452212Y-133766523D01*
X91416132Y-133826356D01*
X91353431Y-133857184D01*
X91332286Y-133859000D01*
X88964597Y-133859000D01*
X88935156Y-133850355D01*
X88905170Y-133843832D01*
X88900154Y-133840077D01*
X88897558Y-133839315D01*
X88876916Y-133822681D01*
X88849077Y-133794842D01*
X88815592Y-133733519D01*
X88818828Y-133668841D01*
X88823477Y-133654534D01*
X88855500Y-133452352D01*
X88855500Y-133247648D01*
X88836406Y-133127095D01*
X88823477Y-133045465D01*
X88790625Y-132944358D01*
X88760220Y-132850781D01*
X88760218Y-132850778D01*
X88760218Y-132850776D01*
X88698763Y-132730165D01*
X88667287Y-132668390D01*
X88659556Y-132657749D01*
X88546971Y-132502786D01*
X88402213Y-132358028D01*
X88236613Y-132237715D01*
X88236612Y-132237714D01*
X88236610Y-132237713D01*
X88179653Y-132208691D01*
X88054223Y-132144781D01*
X87859534Y-132081522D01*
X87678484Y-132052847D01*
X87657352Y-132049500D01*
X87452648Y-132049500D01*
X87431516Y-132052847D01*
X87250465Y-132081522D01*
X87055776Y-132144781D01*
X86873386Y-132237715D01*
X86707786Y-132358028D01*
X86563028Y-132502786D01*
X86442715Y-132668386D01*
X86349781Y-132850776D01*
X86286522Y-133045465D01*
X86254500Y-133247648D01*
X86254500Y-133452352D01*
X86255620Y-133459421D01*
X86286522Y-133654534D01*
X86349781Y-133849223D01*
X86442715Y-134031613D01*
X86563028Y-134197213D01*
X86707786Y-134341971D01*
X86862749Y-134454556D01*
X86873390Y-134462287D01*
X86975944Y-134514541D01*
X87055776Y-134555218D01*
X87055778Y-134555218D01*
X87055781Y-134555220D01*
X87138660Y-134582149D01*
X87250465Y-134618477D01*
X87351557Y-134634488D01*
X87452648Y-134650500D01*
X87452649Y-134650500D01*
X87657351Y-134650500D01*
X87657352Y-134650500D01*
X87859534Y-134618477D01*
X87873842Y-134613827D01*
X87943682Y-134611831D01*
X87999842Y-134644077D01*
X88179639Y-134823874D01*
X88179649Y-134823885D01*
X88183979Y-134828215D01*
X88183980Y-134828216D01*
X88295784Y-134940020D01*
X88382595Y-134990139D01*
X88382597Y-134990141D01*
X88420651Y-135012111D01*
X88432715Y-135019077D01*
X88585443Y-135060001D01*
X88585446Y-135060001D01*
X88751153Y-135060001D01*
X88751169Y-135060000D01*
X97706803Y-135060000D01*
X97773842Y-135079685D01*
X97819597Y-135132489D01*
X97829541Y-135201647D01*
X97800516Y-135265203D01*
X97794484Y-135271681D01*
X94254839Y-138811325D01*
X94193516Y-138844810D01*
X94191350Y-138845261D01*
X94036008Y-138876161D01*
X94035998Y-138876164D01*
X93890327Y-138936502D01*
X93890314Y-138936509D01*
X93759211Y-139024110D01*
X93759207Y-139024113D01*
X93647713Y-139135607D01*
X93647710Y-139135611D01*
X93560109Y-139266714D01*
X93560102Y-139266727D01*
X93499764Y-139412398D01*
X93499761Y-139412410D01*
X93469000Y-139567053D01*
X93469000Y-139724746D01*
X93499761Y-139879389D01*
X93499764Y-139879401D01*
X93506784Y-139896348D01*
X93514253Y-139965817D01*
X93482978Y-140028296D01*
X93422888Y-140063948D01*
X93392223Y-140067800D01*
X92824898Y-140067800D01*
X92757859Y-140048115D01*
X92737217Y-140031481D01*
X91829873Y-139124137D01*
X91796388Y-139062814D01*
X91795937Y-139060647D01*
X91788670Y-139024113D01*
X91765037Y-138905303D01*
X91739980Y-138844810D01*
X91704697Y-138759627D01*
X91704690Y-138759614D01*
X91617089Y-138628511D01*
X91617086Y-138628507D01*
X91505592Y-138517013D01*
X91505588Y-138517010D01*
X91374485Y-138429409D01*
X91374472Y-138429402D01*
X91228801Y-138369064D01*
X91228789Y-138369061D01*
X91074145Y-138338300D01*
X91074142Y-138338300D01*
X90916458Y-138338300D01*
X90916455Y-138338300D01*
X90761810Y-138369061D01*
X90761798Y-138369064D01*
X90616127Y-138429402D01*
X90616114Y-138429409D01*
X90485011Y-138517010D01*
X90485007Y-138517013D01*
X90373513Y-138628507D01*
X90373510Y-138628511D01*
X90285909Y-138759614D01*
X90285902Y-138759627D01*
X90225564Y-138905298D01*
X90225561Y-138905310D01*
X90194800Y-139059953D01*
X90194800Y-139217646D01*
X90225561Y-139372289D01*
X90225564Y-139372301D01*
X90285902Y-139517972D01*
X90285909Y-139517985D01*
X90373510Y-139649088D01*
X90373513Y-139649092D01*
X90485007Y-139760586D01*
X90485011Y-139760589D01*
X90616114Y-139848190D01*
X90616127Y-139848197D01*
X90732376Y-139896348D01*
X90761803Y-139908537D01*
X90826447Y-139921395D01*
X90917149Y-139939438D01*
X90979060Y-139971823D01*
X90980639Y-139973374D01*
X91265083Y-140257819D01*
X91298568Y-140319142D01*
X91293584Y-140388834D01*
X91251712Y-140444767D01*
X91186248Y-140469184D01*
X91177402Y-140469500D01*
X90498111Y-140469500D01*
X90498105Y-140469501D01*
X90438498Y-140475908D01*
X90303653Y-140526202D01*
X90303650Y-140526204D01*
X90239293Y-140574382D01*
X90173828Y-140598799D01*
X90105555Y-140583947D01*
X90090671Y-140574382D01*
X90026313Y-140526204D01*
X90026310Y-140526202D01*
X89891464Y-140475908D01*
X89891465Y-140475908D01*
X89831865Y-140469501D01*
X89831863Y-140469500D01*
X89831855Y-140469500D01*
X89831846Y-140469500D01*
X87958111Y-140469500D01*
X87958105Y-140469501D01*
X87898498Y-140475908D01*
X87763653Y-140526202D01*
X87763650Y-140526204D01*
X87699293Y-140574382D01*
X87633828Y-140598799D01*
X87565555Y-140583947D01*
X87550671Y-140574382D01*
X87486313Y-140526204D01*
X87486310Y-140526202D01*
X87351464Y-140475908D01*
X87351465Y-140475908D01*
X87291865Y-140469501D01*
X87291863Y-140469500D01*
X87291855Y-140469500D01*
X87291846Y-140469500D01*
X85418111Y-140469500D01*
X85418105Y-140469501D01*
X85358498Y-140475908D01*
X85223653Y-140526202D01*
X85223650Y-140526204D01*
X85159293Y-140574382D01*
X85093828Y-140598799D01*
X85025555Y-140583947D01*
X85010671Y-140574382D01*
X84946313Y-140526204D01*
X84946310Y-140526202D01*
X84811464Y-140475908D01*
X84811465Y-140475908D01*
X84751865Y-140469501D01*
X84751863Y-140469500D01*
X84751855Y-140469500D01*
X84751846Y-140469500D01*
X82878111Y-140469500D01*
X82878105Y-140469501D01*
X82818498Y-140475908D01*
X82683653Y-140526202D01*
X82683650Y-140526204D01*
X82619293Y-140574382D01*
X82553828Y-140598799D01*
X82485555Y-140583947D01*
X82470671Y-140574382D01*
X82406313Y-140526204D01*
X82406310Y-140526202D01*
X82271464Y-140475908D01*
X82271465Y-140475908D01*
X82211865Y-140469501D01*
X82211863Y-140469500D01*
X82211855Y-140469500D01*
X82211846Y-140469500D01*
X80338111Y-140469500D01*
X80338105Y-140469501D01*
X80278498Y-140475908D01*
X80143653Y-140526202D01*
X80143650Y-140526204D01*
X80079293Y-140574382D01*
X80013828Y-140598799D01*
X79945555Y-140583947D01*
X79930671Y-140574382D01*
X79866313Y-140526204D01*
X79866310Y-140526202D01*
X79731464Y-140475908D01*
X79731465Y-140475908D01*
X79671865Y-140469501D01*
X79671863Y-140469500D01*
X79671855Y-140469500D01*
X79671847Y-140469500D01*
X79459500Y-140469500D01*
X79392461Y-140449815D01*
X79346706Y-140397011D01*
X79335500Y-140345500D01*
X79335500Y-139463896D01*
X79355185Y-139396857D01*
X79371814Y-139376220D01*
X85278406Y-133469627D01*
X85278411Y-133469624D01*
X85288614Y-133459420D01*
X85288616Y-133459420D01*
X85400420Y-133347616D01*
X85479477Y-133210684D01*
X85509434Y-133098881D01*
X85520400Y-133057958D01*
X85520400Y-132899843D01*
X85520400Y-131687165D01*
X85540085Y-131620126D01*
X85541298Y-131618274D01*
X85629290Y-131486585D01*
X85629290Y-131486584D01*
X85629294Y-131486579D01*
X85689637Y-131340897D01*
X85720400Y-131186242D01*
X85720400Y-131028558D01*
X85719819Y-131025638D01*
X85715633Y-131004593D01*
X85721860Y-130935001D01*
X85764722Y-130879823D01*
X85830612Y-130856578D01*
X85837250Y-130856400D01*
X93026034Y-130856400D01*
X93093073Y-130876085D01*
X93094925Y-130877298D01*
X93226614Y-130965290D01*
X93226627Y-130965297D01*
X93372298Y-131025635D01*
X93372303Y-131025637D01*
X93510544Y-131053135D01*
X93526953Y-131056399D01*
X93526956Y-131056400D01*
X93526958Y-131056400D01*
X93684644Y-131056400D01*
X93684645Y-131056399D01*
X93839297Y-131025637D01*
X93984979Y-130965294D01*
X94116089Y-130877689D01*
X94227589Y-130766189D01*
X94315194Y-130635079D01*
X94375537Y-130489397D01*
X94406300Y-130334742D01*
X94406300Y-130177058D01*
X94406300Y-130177055D01*
X94406299Y-130177053D01*
X94375538Y-130022410D01*
X94375537Y-130022403D01*
X94375535Y-130022398D01*
X94315197Y-129876727D01*
X94315190Y-129876714D01*
X94227589Y-129745611D01*
X94227586Y-129745607D01*
X94116092Y-129634113D01*
X94116088Y-129634110D01*
X93984985Y-129546509D01*
X93984972Y-129546502D01*
X93839301Y-129486164D01*
X93839289Y-129486161D01*
X93684645Y-129455400D01*
X93684642Y-129455400D01*
X93526958Y-129455400D01*
X93526955Y-129455400D01*
X93372310Y-129486161D01*
X93372298Y-129486164D01*
X93226627Y-129546502D01*
X93226614Y-129546509D01*
X93094925Y-129634502D01*
X93028247Y-129655380D01*
X93026034Y-129655400D01*
X85135598Y-129655400D01*
X85068559Y-129635715D01*
X85022804Y-129582911D01*
X85012860Y-129513753D01*
X85041885Y-129450197D01*
X85088146Y-129416839D01*
X85187472Y-129375697D01*
X85187472Y-129375696D01*
X85187479Y-129375694D01*
X85318589Y-129288089D01*
X85430089Y-129176589D01*
X85517694Y-129045479D01*
X85578037Y-128899797D01*
X85608800Y-128745142D01*
X85608800Y-128587458D01*
X85608800Y-128587455D01*
X85608799Y-128587453D01*
X85595631Y-128521254D01*
X85578037Y-128432803D01*
X85572258Y-128418851D01*
X85517697Y-128287127D01*
X85517690Y-128287114D01*
X85430089Y-128156011D01*
X85430086Y-128156007D01*
X85318592Y-128044513D01*
X85318588Y-128044510D01*
X85187485Y-127956909D01*
X85187472Y-127956902D01*
X85041801Y-127896564D01*
X85041789Y-127896561D01*
X84887145Y-127865800D01*
X84887142Y-127865800D01*
X84729458Y-127865800D01*
X84729455Y-127865800D01*
X84574810Y-127896561D01*
X84574798Y-127896564D01*
X84429127Y-127956902D01*
X84429114Y-127956909D01*
X84298011Y-128044510D01*
X84298007Y-128044513D01*
X84186513Y-128156007D01*
X84186510Y-128156011D01*
X84098909Y-128287114D01*
X84098902Y-128287127D01*
X84038564Y-128432798D01*
X84038561Y-128432808D01*
X84007661Y-128588150D01*
X83975276Y-128650061D01*
X83973725Y-128651639D01*
X72593884Y-140031481D01*
X72532561Y-140064966D01*
X72506203Y-140067800D01*
X71246906Y-140067800D01*
X71179867Y-140048115D01*
X71134112Y-139995311D01*
X71125289Y-139967991D01*
X71119581Y-139939300D01*
X71116837Y-139925503D01*
X71097741Y-139879401D01*
X71056497Y-139779827D01*
X71056490Y-139779814D01*
X70968889Y-139648711D01*
X70968886Y-139648707D01*
X70857392Y-139537213D01*
X70857388Y-139537210D01*
X70726285Y-139449609D01*
X70726272Y-139449602D01*
X70580601Y-139389264D01*
X70580589Y-139389261D01*
X70425945Y-139358500D01*
X70425942Y-139358500D01*
X70268258Y-139358500D01*
X70268255Y-139358500D01*
X70113610Y-139389261D01*
X70113598Y-139389264D01*
X69967927Y-139449602D01*
X69967914Y-139449609D01*
X69836811Y-139537210D01*
X69836807Y-139537213D01*
X69725313Y-139648707D01*
X69725310Y-139648711D01*
X69637709Y-139779814D01*
X69637702Y-139779827D01*
X69577364Y-139925498D01*
X69577361Y-139925510D01*
X69568911Y-139967991D01*
X69536526Y-140029902D01*
X69475810Y-140064477D01*
X69447294Y-140067800D01*
X68495943Y-140067800D01*
X68343216Y-140108723D01*
X68343209Y-140108726D01*
X68206290Y-140187775D01*
X68206282Y-140187781D01*
X68094481Y-140299582D01*
X68094477Y-140299587D01*
X68032174Y-140407500D01*
X67981607Y-140455716D01*
X67924787Y-140469500D01*
X67638112Y-140469500D01*
X67638105Y-140469501D01*
X67578498Y-140475908D01*
X67443653Y-140526202D01*
X67443646Y-140526206D01*
X67328437Y-140612452D01*
X67328434Y-140612455D01*
X67242188Y-140727664D01*
X67242184Y-140727671D01*
X67191890Y-140862517D01*
X67185483Y-140922116D01*
X67185483Y-140922123D01*
X67185482Y-140922135D01*
X67185483Y-148466000D01*
X67165798Y-148533039D01*
X67112994Y-148578794D01*
X67061483Y-148590000D01*
X59928482Y-148590000D01*
X59861443Y-148570315D01*
X59815688Y-148517511D01*
X59804482Y-148466000D01*
X59804481Y-140922129D01*
X59804480Y-140922123D01*
X59804479Y-140922116D01*
X59798073Y-140862517D01*
X59747778Y-140727669D01*
X59747777Y-140727668D01*
X59747775Y-140727664D01*
X59661529Y-140612455D01*
X59661526Y-140612452D01*
X59546317Y-140526206D01*
X59546310Y-140526202D01*
X59411464Y-140475908D01*
X59411465Y-140475908D01*
X59351865Y-140469501D01*
X59351863Y-140469500D01*
X59351855Y-140469500D01*
X59351846Y-140469500D01*
X57478111Y-140469500D01*
X57478105Y-140469501D01*
X57418497Y-140475909D01*
X57336664Y-140506430D01*
X57266972Y-140511414D01*
X57205650Y-140477928D01*
X57172165Y-140416605D01*
X57177151Y-140346913D01*
X57205649Y-140302569D01*
X70741402Y-126766819D01*
X70802725Y-126733334D01*
X70829083Y-126730500D01*
X86679238Y-126730500D01*
X86746277Y-126750185D01*
X86752119Y-126754179D01*
X86873390Y-126842287D01*
X86954499Y-126883614D01*
X87055776Y-126935218D01*
X87055778Y-126935218D01*
X87055781Y-126935220D01*
X87160137Y-126969127D01*
X87250465Y-126998477D01*
X87351557Y-127014488D01*
X87452648Y-127030500D01*
X87452649Y-127030500D01*
X87657351Y-127030500D01*
X87657352Y-127030500D01*
X87859534Y-126998477D01*
X88054219Y-126935220D01*
X88236610Y-126842287D01*
X88357877Y-126754181D01*
X88423683Y-126730702D01*
X88430762Y-126730500D01*
X91829238Y-126730500D01*
X91896277Y-126750185D01*
X91902119Y-126754179D01*
X92023390Y-126842287D01*
X92104499Y-126883614D01*
X92205776Y-126935218D01*
X92205778Y-126935218D01*
X92205781Y-126935220D01*
X92310137Y-126969127D01*
X92400465Y-126998477D01*
X92501557Y-127014488D01*
X92602648Y-127030500D01*
X92602649Y-127030500D01*
X92807351Y-127030500D01*
X92807352Y-127030500D01*
X93009534Y-126998477D01*
X93204219Y-126935220D01*
X93386610Y-126842287D01*
X93507877Y-126754181D01*
X93573683Y-126730702D01*
X93580762Y-126730500D01*
X96909238Y-126730500D01*
X96976277Y-126750185D01*
X96982119Y-126754179D01*
X97103390Y-126842287D01*
X97184499Y-126883614D01*
X97285776Y-126935218D01*
X97285778Y-126935218D01*
X97285781Y-126935220D01*
X97390137Y-126969127D01*
X97480465Y-126998477D01*
X97581557Y-127014488D01*
X97682648Y-127030500D01*
X97682649Y-127030500D01*
X97887351Y-127030500D01*
X97887352Y-127030500D01*
X98089534Y-126998477D01*
X98284219Y-126935220D01*
X98466610Y-126842287D01*
X98602181Y-126743790D01*
X98632213Y-126721971D01*
X98632215Y-126721968D01*
X98632219Y-126721966D01*
X98776966Y-126577219D01*
X98776968Y-126577215D01*
X98776971Y-126577213D01*
X98829732Y-126504590D01*
X98897287Y-126411610D01*
X98990220Y-126229219D01*
X99053477Y-126034534D01*
X99085500Y-125832352D01*
X99085500Y-125627648D01*
X99053477Y-125425466D01*
X98990220Y-125230781D01*
X98990218Y-125230778D01*
X98990218Y-125230776D01*
X98938865Y-125129991D01*
X98897287Y-125048390D01*
X98845021Y-124976451D01*
X98776971Y-124882786D01*
X98765566Y-124871381D01*
X98732081Y-124810058D01*
X98737065Y-124740366D01*
X98778937Y-124684433D01*
X98844401Y-124660016D01*
X98853247Y-124659700D01*
X103071753Y-124659700D01*
X103138792Y-124679385D01*
G37*
%TD.AperFunction*%
%TA.AperFunction,Conductor*%
G36*
X59387541Y-74314685D02*
G01*
X59433296Y-74367489D01*
X59443240Y-74436647D01*
X59414215Y-74500203D01*
X59358821Y-74536931D01*
X59180776Y-74594781D01*
X58998386Y-74687715D01*
X58832786Y-74808028D01*
X58688028Y-74952786D01*
X58567715Y-75118386D01*
X58474781Y-75300776D01*
X58411522Y-75495465D01*
X58379500Y-75697648D01*
X58379500Y-76702351D01*
X58411522Y-76904534D01*
X58474781Y-77099223D01*
X58567715Y-77281613D01*
X58688028Y-77447213D01*
X58832786Y-77591971D01*
X58987749Y-77704556D01*
X58998390Y-77712287D01*
X59114607Y-77771503D01*
X59180776Y-77805218D01*
X59180778Y-77805218D01*
X59180781Y-77805220D01*
X59285137Y-77839127D01*
X59375465Y-77868477D01*
X59476557Y-77884488D01*
X59577648Y-77900500D01*
X59577649Y-77900500D01*
X59782351Y-77900500D01*
X59782352Y-77900500D01*
X59984534Y-77868477D01*
X60179219Y-77805220D01*
X60361610Y-77712287D01*
X60454590Y-77644732D01*
X60527213Y-77591971D01*
X60527215Y-77591968D01*
X60527219Y-77591966D01*
X60671966Y-77447219D01*
X60671968Y-77447215D01*
X60671971Y-77447213D01*
X60792284Y-77281614D01*
X60792285Y-77281613D01*
X60792287Y-77281610D01*
X60839516Y-77188917D01*
X60887489Y-77138123D01*
X60955310Y-77121328D01*
X61021445Y-77143865D01*
X61060485Y-77188919D01*
X61107715Y-77281614D01*
X61228028Y-77447213D01*
X61372786Y-77591971D01*
X61527749Y-77704556D01*
X61538390Y-77712287D01*
X61654607Y-77771503D01*
X61720776Y-77805218D01*
X61720778Y-77805218D01*
X61720781Y-77805220D01*
X61825137Y-77839127D01*
X61915465Y-77868477D01*
X62016557Y-77884488D01*
X62117648Y-77900500D01*
X62117649Y-77900500D01*
X62322351Y-77900500D01*
X62322352Y-77900500D01*
X62524534Y-77868477D01*
X62719219Y-77805220D01*
X62901610Y-77712287D01*
X62994590Y-77644732D01*
X63067213Y-77591971D01*
X63067215Y-77591968D01*
X63067219Y-77591966D01*
X63211966Y-77447219D01*
X63211968Y-77447215D01*
X63211971Y-77447213D01*
X63332284Y-77281614D01*
X63332285Y-77281613D01*
X63332287Y-77281610D01*
X63379516Y-77188917D01*
X63427489Y-77138123D01*
X63495310Y-77121328D01*
X63561445Y-77143865D01*
X63600485Y-77188919D01*
X63647715Y-77281614D01*
X63768028Y-77447213D01*
X63912786Y-77591971D01*
X64067749Y-77704556D01*
X64078390Y-77712287D01*
X64194607Y-77771503D01*
X64260776Y-77805218D01*
X64260778Y-77805218D01*
X64260781Y-77805220D01*
X64365137Y-77839127D01*
X64455465Y-77868477D01*
X64556557Y-77884488D01*
X64657648Y-77900500D01*
X64657649Y-77900500D01*
X64862351Y-77900500D01*
X64862352Y-77900500D01*
X65064534Y-77868477D01*
X65259219Y-77805220D01*
X65441610Y-77712287D01*
X65534590Y-77644732D01*
X65607213Y-77591971D01*
X65607215Y-77591968D01*
X65607219Y-77591966D01*
X65751966Y-77447219D01*
X65751968Y-77447215D01*
X65751971Y-77447213D01*
X65872284Y-77281614D01*
X65872285Y-77281613D01*
X65872287Y-77281610D01*
X65919516Y-77188917D01*
X65967489Y-77138123D01*
X66035310Y-77121328D01*
X66101445Y-77143865D01*
X66140485Y-77188919D01*
X66187715Y-77281614D01*
X66308028Y-77447213D01*
X66452786Y-77591971D01*
X66607749Y-77704556D01*
X66618390Y-77712287D01*
X66734607Y-77771503D01*
X66800776Y-77805218D01*
X66800778Y-77805218D01*
X66800781Y-77805220D01*
X66905137Y-77839127D01*
X66995465Y-77868477D01*
X67096557Y-77884488D01*
X67197648Y-77900500D01*
X67197649Y-77900500D01*
X67402351Y-77900500D01*
X67402352Y-77900500D01*
X67604534Y-77868477D01*
X67799219Y-77805220D01*
X67981610Y-77712287D01*
X68074590Y-77644732D01*
X68147213Y-77591971D01*
X68147215Y-77591968D01*
X68147219Y-77591966D01*
X68291966Y-77447219D01*
X68291968Y-77447215D01*
X68291971Y-77447213D01*
X68412284Y-77281614D01*
X68412285Y-77281613D01*
X68412287Y-77281610D01*
X68459516Y-77188917D01*
X68507489Y-77138123D01*
X68575310Y-77121328D01*
X68641445Y-77143865D01*
X68680485Y-77188919D01*
X68727715Y-77281614D01*
X68848028Y-77447213D01*
X68992786Y-77591971D01*
X69147749Y-77704556D01*
X69158390Y-77712287D01*
X69274607Y-77771503D01*
X69340776Y-77805218D01*
X69340778Y-77805218D01*
X69340781Y-77805220D01*
X69445137Y-77839127D01*
X69535465Y-77868477D01*
X69636557Y-77884488D01*
X69737648Y-77900500D01*
X69737649Y-77900500D01*
X69942351Y-77900500D01*
X69942352Y-77900500D01*
X70144534Y-77868477D01*
X70339219Y-77805220D01*
X70521610Y-77712287D01*
X70614590Y-77644732D01*
X70687213Y-77591971D01*
X70687215Y-77591968D01*
X70687219Y-77591966D01*
X70831966Y-77447219D01*
X70831968Y-77447215D01*
X70831971Y-77447213D01*
X70952284Y-77281614D01*
X70952285Y-77281613D01*
X70952287Y-77281610D01*
X70999516Y-77188917D01*
X71047489Y-77138123D01*
X71115310Y-77121328D01*
X71181445Y-77143865D01*
X71220485Y-77188919D01*
X71267715Y-77281614D01*
X71388028Y-77447213D01*
X71532786Y-77591971D01*
X71687749Y-77704556D01*
X71698390Y-77712287D01*
X71814607Y-77771503D01*
X71880776Y-77805218D01*
X71880778Y-77805218D01*
X71880781Y-77805220D01*
X71985137Y-77839127D01*
X72075465Y-77868477D01*
X72176557Y-77884488D01*
X72277648Y-77900500D01*
X72277649Y-77900500D01*
X72482351Y-77900500D01*
X72482352Y-77900500D01*
X72684534Y-77868477D01*
X72879219Y-77805220D01*
X73061610Y-77712287D01*
X73154590Y-77644732D01*
X73227213Y-77591971D01*
X73227215Y-77591968D01*
X73227219Y-77591966D01*
X73371966Y-77447219D01*
X73371968Y-77447215D01*
X73371971Y-77447213D01*
X73492284Y-77281614D01*
X73492285Y-77281613D01*
X73492287Y-77281610D01*
X73539516Y-77188917D01*
X73587489Y-77138123D01*
X73655310Y-77121328D01*
X73721445Y-77143865D01*
X73760485Y-77188919D01*
X73807715Y-77281614D01*
X73928028Y-77447213D01*
X74072786Y-77591971D01*
X74227749Y-77704556D01*
X74238390Y-77712287D01*
X74354607Y-77771503D01*
X74420776Y-77805218D01*
X74420778Y-77805218D01*
X74420781Y-77805220D01*
X74525137Y-77839127D01*
X74615465Y-77868477D01*
X74716557Y-77884488D01*
X74817648Y-77900500D01*
X74817649Y-77900500D01*
X75022351Y-77900500D01*
X75022352Y-77900500D01*
X75224534Y-77868477D01*
X75419219Y-77805220D01*
X75601610Y-77712287D01*
X75694590Y-77644732D01*
X75767213Y-77591971D01*
X75767215Y-77591968D01*
X75767219Y-77591966D01*
X75911966Y-77447219D01*
X75911968Y-77447215D01*
X75911971Y-77447213D01*
X76032284Y-77281614D01*
X76032285Y-77281613D01*
X76032287Y-77281610D01*
X76079516Y-77188917D01*
X76127489Y-77138123D01*
X76195310Y-77121328D01*
X76261445Y-77143865D01*
X76300485Y-77188919D01*
X76347715Y-77281614D01*
X76468028Y-77447213D01*
X76612786Y-77591971D01*
X76767749Y-77704556D01*
X76778390Y-77712287D01*
X76894607Y-77771503D01*
X76960776Y-77805218D01*
X76960778Y-77805218D01*
X76960781Y-77805220D01*
X77065137Y-77839127D01*
X77155465Y-77868477D01*
X77256557Y-77884488D01*
X77357648Y-77900500D01*
X77357649Y-77900500D01*
X77562351Y-77900500D01*
X77562352Y-77900500D01*
X77764534Y-77868477D01*
X77959219Y-77805220D01*
X78141610Y-77712287D01*
X78234590Y-77644732D01*
X78307213Y-77591971D01*
X78307215Y-77591968D01*
X78307219Y-77591966D01*
X78451966Y-77447219D01*
X78451968Y-77447215D01*
X78451971Y-77447213D01*
X78572284Y-77281614D01*
X78572285Y-77281613D01*
X78572287Y-77281610D01*
X78619516Y-77188917D01*
X78667489Y-77138123D01*
X78735310Y-77121328D01*
X78801445Y-77143865D01*
X78840485Y-77188919D01*
X78887715Y-77281614D01*
X79008028Y-77447213D01*
X79152786Y-77591971D01*
X79307749Y-77704556D01*
X79318390Y-77712287D01*
X79434607Y-77771503D01*
X79500776Y-77805218D01*
X79500778Y-77805218D01*
X79500781Y-77805220D01*
X79605137Y-77839127D01*
X79695465Y-77868477D01*
X79796557Y-77884488D01*
X79897648Y-77900500D01*
X79897649Y-77900500D01*
X80102351Y-77900500D01*
X80102352Y-77900500D01*
X80304534Y-77868477D01*
X80499219Y-77805220D01*
X80681610Y-77712287D01*
X80774590Y-77644732D01*
X80847213Y-77591971D01*
X80847215Y-77591968D01*
X80847219Y-77591966D01*
X80991966Y-77447219D01*
X80991968Y-77447215D01*
X80991971Y-77447213D01*
X81112284Y-77281614D01*
X81112285Y-77281613D01*
X81112287Y-77281610D01*
X81159516Y-77188917D01*
X81207489Y-77138123D01*
X81275310Y-77121328D01*
X81341445Y-77143865D01*
X81380485Y-77188919D01*
X81427715Y-77281614D01*
X81548028Y-77447213D01*
X81692786Y-77591971D01*
X81847749Y-77704556D01*
X81858390Y-77712287D01*
X81974607Y-77771503D01*
X82040776Y-77805218D01*
X82040778Y-77805218D01*
X82040781Y-77805220D01*
X82145137Y-77839127D01*
X82235465Y-77868477D01*
X82336557Y-77884488D01*
X82437648Y-77900500D01*
X82437649Y-77900500D01*
X82642351Y-77900500D01*
X82642352Y-77900500D01*
X82844534Y-77868477D01*
X83039219Y-77805220D01*
X83221610Y-77712287D01*
X83314590Y-77644732D01*
X83387213Y-77591971D01*
X83387215Y-77591968D01*
X83387219Y-77591966D01*
X83531966Y-77447219D01*
X83531968Y-77447215D01*
X83531971Y-77447213D01*
X83652284Y-77281614D01*
X83652285Y-77281613D01*
X83652287Y-77281610D01*
X83699516Y-77188917D01*
X83747489Y-77138123D01*
X83815310Y-77121328D01*
X83881445Y-77143865D01*
X83920485Y-77188919D01*
X83967715Y-77281614D01*
X84088028Y-77447213D01*
X84232786Y-77591971D01*
X84387749Y-77704556D01*
X84398390Y-77712287D01*
X84514607Y-77771503D01*
X84580776Y-77805218D01*
X84580778Y-77805218D01*
X84580781Y-77805220D01*
X84685137Y-77839127D01*
X84775465Y-77868477D01*
X84876557Y-77884488D01*
X84977648Y-77900500D01*
X84977649Y-77900500D01*
X85182351Y-77900500D01*
X85182352Y-77900500D01*
X85384534Y-77868477D01*
X85579219Y-77805220D01*
X85761610Y-77712287D01*
X85854590Y-77644732D01*
X85927213Y-77591971D01*
X85927215Y-77591968D01*
X85927219Y-77591966D01*
X86071966Y-77447219D01*
X86071968Y-77447215D01*
X86071971Y-77447213D01*
X86192284Y-77281614D01*
X86192285Y-77281613D01*
X86192287Y-77281610D01*
X86239516Y-77188917D01*
X86287489Y-77138123D01*
X86355310Y-77121328D01*
X86421445Y-77143865D01*
X86460485Y-77188919D01*
X86507715Y-77281614D01*
X86628028Y-77447213D01*
X86772786Y-77591971D01*
X86927749Y-77704556D01*
X86938390Y-77712287D01*
X87054607Y-77771503D01*
X87120776Y-77805218D01*
X87120778Y-77805218D01*
X87120781Y-77805220D01*
X87225137Y-77839127D01*
X87315465Y-77868477D01*
X87416557Y-77884488D01*
X87517648Y-77900500D01*
X87517649Y-77900500D01*
X87722351Y-77900500D01*
X87722352Y-77900500D01*
X87924534Y-77868477D01*
X88119219Y-77805220D01*
X88301610Y-77712287D01*
X88394590Y-77644732D01*
X88467213Y-77591971D01*
X88467215Y-77591968D01*
X88467219Y-77591966D01*
X88611966Y-77447219D01*
X88611968Y-77447215D01*
X88611971Y-77447213D01*
X88732284Y-77281614D01*
X88732285Y-77281613D01*
X88732287Y-77281610D01*
X88779516Y-77188917D01*
X88827489Y-77138123D01*
X88895310Y-77121328D01*
X88961445Y-77143865D01*
X89000485Y-77188919D01*
X89047715Y-77281614D01*
X89168028Y-77447213D01*
X89312786Y-77591971D01*
X89467749Y-77704556D01*
X89478390Y-77712287D01*
X89594607Y-77771503D01*
X89660776Y-77805218D01*
X89660778Y-77805218D01*
X89660781Y-77805220D01*
X89765137Y-77839127D01*
X89855465Y-77868477D01*
X89956557Y-77884488D01*
X90057648Y-77900500D01*
X90057649Y-77900500D01*
X90262351Y-77900500D01*
X90262352Y-77900500D01*
X90464534Y-77868477D01*
X90659219Y-77805220D01*
X90841610Y-77712287D01*
X90934590Y-77644732D01*
X91007213Y-77591971D01*
X91007215Y-77591968D01*
X91007219Y-77591966D01*
X91151966Y-77447219D01*
X91151968Y-77447215D01*
X91151971Y-77447213D01*
X91272284Y-77281614D01*
X91272285Y-77281613D01*
X91272287Y-77281610D01*
X91319516Y-77188917D01*
X91367489Y-77138123D01*
X91435310Y-77121328D01*
X91501445Y-77143865D01*
X91540485Y-77188919D01*
X91587715Y-77281614D01*
X91708028Y-77447213D01*
X91852786Y-77591971D01*
X92007749Y-77704556D01*
X92018390Y-77712287D01*
X92134607Y-77771503D01*
X92200776Y-77805218D01*
X92200778Y-77805218D01*
X92200781Y-77805220D01*
X92305137Y-77839127D01*
X92395465Y-77868477D01*
X92496557Y-77884488D01*
X92597648Y-77900500D01*
X92597649Y-77900500D01*
X92802351Y-77900500D01*
X92802352Y-77900500D01*
X93004534Y-77868477D01*
X93199219Y-77805220D01*
X93381610Y-77712287D01*
X93474590Y-77644732D01*
X93547213Y-77591971D01*
X93547215Y-77591968D01*
X93547219Y-77591966D01*
X93691966Y-77447219D01*
X93691968Y-77447215D01*
X93691971Y-77447213D01*
X93812284Y-77281614D01*
X93812285Y-77281613D01*
X93812287Y-77281610D01*
X93859516Y-77188917D01*
X93907489Y-77138123D01*
X93975310Y-77121328D01*
X94041445Y-77143865D01*
X94080485Y-77188919D01*
X94127715Y-77281614D01*
X94248028Y-77447213D01*
X94392786Y-77591971D01*
X94547749Y-77704556D01*
X94558390Y-77712287D01*
X94674607Y-77771503D01*
X94740776Y-77805218D01*
X94740778Y-77805218D01*
X94740781Y-77805220D01*
X94845137Y-77839127D01*
X94935465Y-77868477D01*
X95036557Y-77884488D01*
X95137648Y-77900500D01*
X95137649Y-77900500D01*
X95342351Y-77900500D01*
X95342352Y-77900500D01*
X95544534Y-77868477D01*
X95739219Y-77805220D01*
X95921610Y-77712287D01*
X96014590Y-77644732D01*
X96087213Y-77591971D01*
X96087215Y-77591968D01*
X96087219Y-77591966D01*
X96231966Y-77447219D01*
X96231968Y-77447215D01*
X96231971Y-77447213D01*
X96352284Y-77281614D01*
X96352285Y-77281613D01*
X96352287Y-77281610D01*
X96399516Y-77188917D01*
X96447489Y-77138123D01*
X96515310Y-77121328D01*
X96581445Y-77143865D01*
X96620485Y-77188919D01*
X96667715Y-77281614D01*
X96788028Y-77447213D01*
X96932786Y-77591971D01*
X97087749Y-77704556D01*
X97098390Y-77712287D01*
X97214607Y-77771503D01*
X97280776Y-77805218D01*
X97280778Y-77805218D01*
X97280781Y-77805220D01*
X97385137Y-77839127D01*
X97475465Y-77868477D01*
X97576557Y-77884488D01*
X97677648Y-77900500D01*
X97677649Y-77900500D01*
X97882351Y-77900500D01*
X97882352Y-77900500D01*
X98084534Y-77868477D01*
X98279219Y-77805220D01*
X98461610Y-77712287D01*
X98554590Y-77644732D01*
X98627213Y-77591971D01*
X98627215Y-77591968D01*
X98627219Y-77591966D01*
X98771966Y-77447219D01*
X98771968Y-77447215D01*
X98771971Y-77447213D01*
X98892284Y-77281614D01*
X98892285Y-77281613D01*
X98892287Y-77281610D01*
X98939516Y-77188917D01*
X98987489Y-77138123D01*
X99055310Y-77121328D01*
X99121445Y-77143865D01*
X99160485Y-77188919D01*
X99207715Y-77281614D01*
X99328028Y-77447213D01*
X99472786Y-77591971D01*
X99627749Y-77704556D01*
X99638390Y-77712287D01*
X99754607Y-77771503D01*
X99820776Y-77805218D01*
X99820778Y-77805218D01*
X99820781Y-77805220D01*
X99925137Y-77839127D01*
X100015465Y-77868477D01*
X100116557Y-77884488D01*
X100217648Y-77900500D01*
X100217649Y-77900500D01*
X100422351Y-77900500D01*
X100422352Y-77900500D01*
X100624534Y-77868477D01*
X100819219Y-77805220D01*
X101001610Y-77712287D01*
X101094590Y-77644732D01*
X101167213Y-77591971D01*
X101167215Y-77591968D01*
X101167219Y-77591966D01*
X101311966Y-77447219D01*
X101311968Y-77447215D01*
X101311971Y-77447213D01*
X101432284Y-77281614D01*
X101432285Y-77281613D01*
X101432287Y-77281610D01*
X101479516Y-77188917D01*
X101527489Y-77138123D01*
X101595310Y-77121328D01*
X101661445Y-77143865D01*
X101700485Y-77188919D01*
X101747715Y-77281614D01*
X101868028Y-77447213D01*
X102012786Y-77591971D01*
X102167749Y-77704556D01*
X102178390Y-77712287D01*
X102294607Y-77771503D01*
X102360776Y-77805218D01*
X102360778Y-77805218D01*
X102360781Y-77805220D01*
X102465137Y-77839127D01*
X102555465Y-77868477D01*
X102656557Y-77884488D01*
X102757648Y-77900500D01*
X102757649Y-77900500D01*
X102962351Y-77900500D01*
X102962352Y-77900500D01*
X103164534Y-77868477D01*
X103359219Y-77805220D01*
X103541610Y-77712287D01*
X103634590Y-77644732D01*
X103707213Y-77591971D01*
X103707215Y-77591968D01*
X103707219Y-77591966D01*
X103851966Y-77447219D01*
X103851968Y-77447215D01*
X103851971Y-77447213D01*
X103972284Y-77281614D01*
X103972285Y-77281613D01*
X103972287Y-77281610D01*
X104019516Y-77188917D01*
X104067489Y-77138123D01*
X104135310Y-77121328D01*
X104201445Y-77143865D01*
X104240485Y-77188919D01*
X104287715Y-77281614D01*
X104408028Y-77447213D01*
X104552786Y-77591971D01*
X104707749Y-77704556D01*
X104718390Y-77712287D01*
X104834607Y-77771503D01*
X104900776Y-77805218D01*
X104900778Y-77805218D01*
X104900781Y-77805220D01*
X105005137Y-77839127D01*
X105095465Y-77868477D01*
X105196557Y-77884488D01*
X105297648Y-77900500D01*
X105297649Y-77900500D01*
X105502351Y-77900500D01*
X105502352Y-77900500D01*
X105704534Y-77868477D01*
X105899219Y-77805220D01*
X106081610Y-77712287D01*
X106174590Y-77644732D01*
X106247213Y-77591971D01*
X106247215Y-77591968D01*
X106247219Y-77591966D01*
X106391966Y-77447219D01*
X106391968Y-77447215D01*
X106391971Y-77447213D01*
X106444732Y-77374590D01*
X106512287Y-77281610D01*
X106605220Y-77099219D01*
X106668477Y-76904534D01*
X106700500Y-76702352D01*
X106700500Y-75697648D01*
X106668477Y-75495466D01*
X106605220Y-75300781D01*
X106605218Y-75300778D01*
X106605218Y-75300776D01*
X106559515Y-75211080D01*
X106512287Y-75118390D01*
X106504556Y-75107749D01*
X106391971Y-74952786D01*
X106247213Y-74808028D01*
X106081613Y-74687715D01*
X106081612Y-74687714D01*
X106081610Y-74687713D01*
X106013166Y-74652839D01*
X105899223Y-74594781D01*
X105721179Y-74536931D01*
X105663504Y-74497493D01*
X105636306Y-74433134D01*
X105648221Y-74364288D01*
X105695465Y-74312812D01*
X105759498Y-74295000D01*
X114811000Y-74295000D01*
X114878039Y-74314685D01*
X114923794Y-74367489D01*
X114935000Y-74419000D01*
X114935000Y-148466000D01*
X114915315Y-148533039D01*
X114862511Y-148578794D01*
X114811000Y-148590000D01*
X113268482Y-148590000D01*
X113201443Y-148570315D01*
X113155688Y-148517511D01*
X113144482Y-148466000D01*
X113144481Y-140922129D01*
X113144480Y-140922123D01*
X113144479Y-140922116D01*
X113138073Y-140862517D01*
X113087778Y-140727669D01*
X113087777Y-140727668D01*
X113087775Y-140727664D01*
X113001529Y-140612455D01*
X113001526Y-140612452D01*
X112886317Y-140526206D01*
X112886310Y-140526202D01*
X112751464Y-140475908D01*
X112751465Y-140475908D01*
X112691865Y-140469501D01*
X112691863Y-140469500D01*
X112691855Y-140469500D01*
X112691846Y-140469500D01*
X110818111Y-140469500D01*
X110818105Y-140469501D01*
X110758498Y-140475908D01*
X110623653Y-140526202D01*
X110623650Y-140526204D01*
X110559293Y-140574382D01*
X110493828Y-140598799D01*
X110425555Y-140583947D01*
X110410671Y-140574382D01*
X110346313Y-140526204D01*
X110346310Y-140526202D01*
X110211464Y-140475908D01*
X110211465Y-140475908D01*
X110151865Y-140469501D01*
X110151863Y-140469500D01*
X110151855Y-140469500D01*
X110151847Y-140469500D01*
X109939500Y-140469500D01*
X109872461Y-140449815D01*
X109826706Y-140397011D01*
X109815500Y-140345500D01*
X109815500Y-134582149D01*
X109835185Y-134515110D01*
X109883205Y-134471664D01*
X109901610Y-134462287D01*
X109990066Y-134398020D01*
X110067213Y-134341971D01*
X110067215Y-134341968D01*
X110067219Y-134341966D01*
X110211966Y-134197219D01*
X110211968Y-134197215D01*
X110211971Y-134197213D01*
X110264732Y-134124590D01*
X110332287Y-134031610D01*
X110425220Y-133849219D01*
X110488477Y-133654534D01*
X110520500Y-133452352D01*
X110520500Y-133247648D01*
X110501406Y-133127095D01*
X110488477Y-133045465D01*
X110455625Y-132944358D01*
X110425220Y-132850781D01*
X110425218Y-132850778D01*
X110425218Y-132850776D01*
X110363763Y-132730165D01*
X110332287Y-132668390D01*
X110324556Y-132657749D01*
X110211971Y-132502786D01*
X110067213Y-132358028D01*
X109901613Y-132237715D01*
X109901612Y-132237714D01*
X109901610Y-132237713D01*
X109844653Y-132208691D01*
X109719223Y-132144781D01*
X109524534Y-132081522D01*
X109343484Y-132052847D01*
X109322352Y-132049500D01*
X109117648Y-132049500D01*
X109096516Y-132052847D01*
X108915465Y-132081522D01*
X108720776Y-132144781D01*
X108538386Y-132237715D01*
X108372786Y-132358028D01*
X108228028Y-132502786D01*
X108107715Y-132668386D01*
X108060485Y-132761080D01*
X108012510Y-132811876D01*
X107944689Y-132828671D01*
X107878554Y-132806134D01*
X107839515Y-132761080D01*
X107823763Y-132730165D01*
X107792287Y-132668390D01*
X107784556Y-132657749D01*
X107671971Y-132502786D01*
X107527213Y-132358028D01*
X107361613Y-132237715D01*
X107361612Y-132237714D01*
X107361610Y-132237713D01*
X107304653Y-132208691D01*
X107179223Y-132144781D01*
X106984534Y-132081522D01*
X106803484Y-132052847D01*
X106782352Y-132049500D01*
X106577648Y-132049500D01*
X106556516Y-132052847D01*
X106375465Y-132081522D01*
X106180776Y-132144781D01*
X105998386Y-132237715D01*
X105832786Y-132358028D01*
X105688028Y-132502786D01*
X105567715Y-132668386D01*
X105520485Y-132761080D01*
X105472510Y-132811876D01*
X105404689Y-132828671D01*
X105338554Y-132806134D01*
X105299515Y-132761080D01*
X105283763Y-132730165D01*
X105252287Y-132668390D01*
X105244556Y-132657749D01*
X105131971Y-132502786D01*
X104987213Y-132358028D01*
X104821614Y-132237715D01*
X104640995Y-132145685D01*
X104590199Y-132097710D01*
X104573404Y-132029889D01*
X104595941Y-131963754D01*
X104650657Y-131920303D01*
X104697290Y-131911200D01*
X105500731Y-131911200D01*
X105500747Y-131911201D01*
X105508343Y-131911201D01*
X105666454Y-131911201D01*
X105666457Y-131911201D01*
X105819185Y-131870277D01*
X105869304Y-131841339D01*
X105956116Y-131791220D01*
X106067920Y-131679416D01*
X106067920Y-131679414D01*
X106078128Y-131669207D01*
X106078129Y-131669204D01*
X110866620Y-126880716D01*
X110945677Y-126743784D01*
X110986601Y-126591057D01*
X110986601Y-126432942D01*
X110986601Y-126425347D01*
X110986600Y-126425329D01*
X110986600Y-123790145D01*
X110986600Y-123790143D01*
X110945677Y-123637416D01*
X110875412Y-123515712D01*
X110858800Y-123453713D01*
X110858800Y-120755248D01*
X110878485Y-120688209D01*
X110931289Y-120642454D01*
X111000447Y-120632510D01*
X111021119Y-120637317D01*
X111055465Y-120648477D01*
X111156557Y-120664488D01*
X111257648Y-120680500D01*
X111257649Y-120680500D01*
X112262351Y-120680500D01*
X112262352Y-120680500D01*
X112464534Y-120648477D01*
X112659219Y-120585220D01*
X112841610Y-120492287D01*
X112934590Y-120424732D01*
X113007213Y-120371971D01*
X113007215Y-120371968D01*
X113007219Y-120371966D01*
X113151966Y-120227219D01*
X113151968Y-120227215D01*
X113151971Y-120227213D01*
X113204732Y-120154590D01*
X113272287Y-120061610D01*
X113365220Y-119879219D01*
X113428477Y-119684534D01*
X113460500Y-119482352D01*
X113460500Y-119277648D01*
X113428477Y-119075466D01*
X113365220Y-118880781D01*
X113365218Y-118880778D01*
X113365218Y-118880776D01*
X113315392Y-118782989D01*
X113272287Y-118698390D01*
X113244451Y-118660077D01*
X113151971Y-118532786D01*
X113007213Y-118388028D01*
X112841614Y-118267715D01*
X112835006Y-118264348D01*
X112748917Y-118220483D01*
X112698123Y-118172511D01*
X112681328Y-118104690D01*
X112703865Y-118038555D01*
X112748917Y-117999516D01*
X112841610Y-117952287D01*
X112930831Y-117887465D01*
X113007213Y-117831971D01*
X113007215Y-117831968D01*
X113007219Y-117831966D01*
X113151966Y-117687219D01*
X113151968Y-117687215D01*
X113151971Y-117687213D01*
X113204732Y-117614590D01*
X113272287Y-117521610D01*
X113365220Y-117339219D01*
X113428477Y-117144534D01*
X113460500Y-116942352D01*
X113460500Y-116737648D01*
X113428477Y-116535466D01*
X113428476Y-116535464D01*
X113387642Y-116409789D01*
X113365220Y-116340781D01*
X113365218Y-116340778D01*
X113365218Y-116340776D01*
X113329354Y-116270391D01*
X113272287Y-116158390D01*
X113253215Y-116132139D01*
X113151971Y-115992786D01*
X113007213Y-115848028D01*
X112841614Y-115727715D01*
X112835006Y-115724348D01*
X112748917Y-115680483D01*
X112698123Y-115632511D01*
X112681328Y-115564690D01*
X112703865Y-115498555D01*
X112748917Y-115459516D01*
X112841610Y-115412287D01*
X112892718Y-115375155D01*
X113007213Y-115291971D01*
X113007215Y-115291968D01*
X113007219Y-115291966D01*
X113151966Y-115147219D01*
X113151968Y-115147215D01*
X113151971Y-115147213D01*
X113258200Y-115000999D01*
X113272287Y-114981610D01*
X113365220Y-114799219D01*
X113428477Y-114604534D01*
X113460500Y-114402352D01*
X113460500Y-114197648D01*
X113428477Y-113995466D01*
X113428476Y-113995464D01*
X113371296Y-113819481D01*
X113365220Y-113800781D01*
X113365218Y-113800778D01*
X113365218Y-113800776D01*
X113306379Y-113685300D01*
X113272287Y-113618390D01*
X113251353Y-113589576D01*
X113151971Y-113452786D01*
X113007213Y-113308028D01*
X112841614Y-113187715D01*
X112835006Y-113184348D01*
X112748917Y-113140483D01*
X112698123Y-113092511D01*
X112681328Y-113024690D01*
X112703865Y-112958555D01*
X112748917Y-112919516D01*
X112841610Y-112872287D01*
X112950531Y-112793152D01*
X113007213Y-112751971D01*
X113007215Y-112751968D01*
X113007219Y-112751966D01*
X113151966Y-112607219D01*
X113151968Y-112607215D01*
X113151971Y-112607213D01*
X113224478Y-112507414D01*
X113272287Y-112441610D01*
X113365220Y-112259219D01*
X113428477Y-112064534D01*
X113460500Y-111862352D01*
X113460500Y-111657648D01*
X113428477Y-111455466D01*
X113411365Y-111402802D01*
X113371296Y-111279481D01*
X113365220Y-111260781D01*
X113365218Y-111260778D01*
X113365218Y-111260776D01*
X113330422Y-111192486D01*
X113272287Y-111078390D01*
X113253458Y-111052474D01*
X113151971Y-110912786D01*
X113007213Y-110768028D01*
X112841614Y-110647715D01*
X112835006Y-110644348D01*
X112748917Y-110600483D01*
X112698123Y-110552511D01*
X112681328Y-110484690D01*
X112703865Y-110418555D01*
X112748917Y-110379516D01*
X112841610Y-110332287D01*
X112862770Y-110316913D01*
X113007213Y-110211971D01*
X113007215Y-110211968D01*
X113007219Y-110211966D01*
X113151966Y-110067219D01*
X113151968Y-110067215D01*
X113151971Y-110067213D01*
X113221976Y-109970858D01*
X113272287Y-109901610D01*
X113365220Y-109719219D01*
X113428477Y-109524534D01*
X113460500Y-109322352D01*
X113460500Y-109117648D01*
X113428477Y-108915466D01*
X113424031Y-108901784D01*
X113371296Y-108739481D01*
X113365220Y-108720781D01*
X113365218Y-108720778D01*
X113365218Y-108720776D01*
X113318004Y-108628115D01*
X113272287Y-108538390D01*
X113264556Y-108527749D01*
X113151971Y-108372786D01*
X113007213Y-108228028D01*
X112841614Y-108107715D01*
X112824745Y-108099120D01*
X112748917Y-108060483D01*
X112698123Y-108012511D01*
X112681328Y-107944690D01*
X112703865Y-107878555D01*
X112748917Y-107839516D01*
X112841610Y-107792287D01*
X112862770Y-107776913D01*
X113007213Y-107671971D01*
X113007215Y-107671968D01*
X113007219Y-107671966D01*
X113151966Y-107527219D01*
X113151968Y-107527215D01*
X113151971Y-107527213D01*
X113221976Y-107430858D01*
X113272287Y-107361610D01*
X113365220Y-107179219D01*
X113428477Y-106984534D01*
X113460500Y-106782352D01*
X113460500Y-106577648D01*
X113428477Y-106375466D01*
X113365220Y-106180781D01*
X113365218Y-106180778D01*
X113365218Y-106180776D01*
X113317303Y-106086739D01*
X113272287Y-105998390D01*
X113264556Y-105987749D01*
X113151971Y-105832786D01*
X113007213Y-105688028D01*
X112841614Y-105567715D01*
X112835006Y-105564348D01*
X112748917Y-105520483D01*
X112698123Y-105472511D01*
X112681328Y-105404690D01*
X112703865Y-105338555D01*
X112748917Y-105299516D01*
X112841610Y-105252287D01*
X112900805Y-105209280D01*
X113007213Y-105131971D01*
X113007215Y-105131968D01*
X113007219Y-105131966D01*
X113151966Y-104987219D01*
X113151968Y-104987215D01*
X113151971Y-104987213D01*
X113220855Y-104892400D01*
X113272287Y-104821610D01*
X113365220Y-104639219D01*
X113428477Y-104444534D01*
X113460500Y-104242352D01*
X113460500Y-104037648D01*
X113428477Y-103835466D01*
X113427114Y-103831272D01*
X113379783Y-103685601D01*
X113365220Y-103640781D01*
X113365218Y-103640778D01*
X113365218Y-103640776D01*
X113313865Y-103539991D01*
X113272287Y-103458390D01*
X113256892Y-103437200D01*
X113151971Y-103292786D01*
X113007213Y-103148028D01*
X112841613Y-103027715D01*
X112841612Y-103027714D01*
X112841610Y-103027713D01*
X112781896Y-102997287D01*
X112659223Y-102934781D01*
X112464534Y-102871522D01*
X112289995Y-102843878D01*
X112262352Y-102839500D01*
X111257648Y-102839500D01*
X111233329Y-102843351D01*
X111055465Y-102871522D01*
X110860776Y-102934781D01*
X110678386Y-103027715D01*
X110575863Y-103102201D01*
X110560201Y-103113582D01*
X110557123Y-103115818D01*
X110537078Y-103122970D01*
X110519173Y-103134477D01*
X110495146Y-103137931D01*
X110491317Y-103139298D01*
X110484238Y-103139500D01*
X110274099Y-103139500D01*
X110207060Y-103119815D01*
X110186416Y-103103179D01*
X108985719Y-101902423D01*
X108952235Y-101841099D01*
X108957221Y-101771408D01*
X108973079Y-101741865D01*
X109042287Y-101646610D01*
X109135220Y-101464219D01*
X109198477Y-101269534D01*
X109230500Y-101067352D01*
X109230500Y-100862648D01*
X109199110Y-100664462D01*
X109198477Y-100660465D01*
X109135218Y-100465776D01*
X109101503Y-100399607D01*
X109042287Y-100283390D01*
X108972882Y-100187861D01*
X108921971Y-100117786D01*
X108777213Y-99973028D01*
X108611613Y-99852715D01*
X108611612Y-99852714D01*
X108611610Y-99852713D01*
X108553268Y-99822986D01*
X108429223Y-99759781D01*
X108234534Y-99696522D01*
X108059995Y-99668878D01*
X108032352Y-99664500D01*
X107827648Y-99664500D01*
X107803329Y-99668351D01*
X107625465Y-99696522D01*
X107430776Y-99759781D01*
X107248386Y-99852715D01*
X107082786Y-99973028D01*
X106938028Y-100117786D01*
X106817715Y-100283386D01*
X106724781Y-100465776D01*
X106661522Y-100660465D01*
X106629500Y-100862648D01*
X106629500Y-101067351D01*
X106661522Y-101269534D01*
X106691838Y-101362835D01*
X106711869Y-101424483D01*
X106713864Y-101494322D01*
X106677784Y-101554155D01*
X106615083Y-101584984D01*
X106593938Y-101586800D01*
X99925856Y-101586800D01*
X99732571Y-101625247D01*
X99732563Y-101625249D01*
X99663252Y-101653959D01*
X99663251Y-101653959D01*
X99550492Y-101700664D01*
X99550479Y-101700671D01*
X99457180Y-101763013D01*
X99457179Y-101763013D01*
X99386622Y-101810157D01*
X99386614Y-101810163D01*
X98093599Y-103103181D01*
X98066671Y-103117884D01*
X98040853Y-103134477D01*
X98034652Y-103135368D01*
X98032276Y-103136666D01*
X98005918Y-103139500D01*
X97795762Y-103139500D01*
X97728723Y-103119815D01*
X97722877Y-103115818D01*
X97719799Y-103113582D01*
X97601610Y-103027713D01*
X97541896Y-102997287D01*
X97419223Y-102934781D01*
X97224534Y-102871522D01*
X97049995Y-102843878D01*
X97022352Y-102839500D01*
X96017648Y-102839500D01*
X95993329Y-102843351D01*
X95815465Y-102871522D01*
X95620776Y-102934781D01*
X95438386Y-103027715D01*
X95335863Y-103102201D01*
X95320201Y-103113582D01*
X95317123Y-103115818D01*
X95251317Y-103139298D01*
X95244238Y-103139500D01*
X93043282Y-103139500D01*
X92976243Y-103119815D01*
X92955601Y-103103181D01*
X91429680Y-101577260D01*
X91396195Y-101515937D01*
X91399429Y-101451262D01*
X91458477Y-101269534D01*
X91490500Y-101067352D01*
X91490500Y-100862648D01*
X91459110Y-100664462D01*
X91458477Y-100660465D01*
X91395218Y-100465776D01*
X91361503Y-100399607D01*
X91302287Y-100283390D01*
X91232882Y-100187861D01*
X91181971Y-100117786D01*
X91037213Y-99973028D01*
X90871613Y-99852715D01*
X90871612Y-99852714D01*
X90871610Y-99852713D01*
X90813268Y-99822986D01*
X90689223Y-99759781D01*
X90494534Y-99696522D01*
X90319995Y-99668878D01*
X90292352Y-99664500D01*
X90087648Y-99664500D01*
X90063329Y-99668351D01*
X89885465Y-99696522D01*
X89690776Y-99759781D01*
X89508386Y-99852715D01*
X89342786Y-99973028D01*
X89198028Y-100117786D01*
X89077715Y-100283386D01*
X88984781Y-100465778D01*
X88984780Y-100465780D01*
X88984780Y-100465781D01*
X88921524Y-100660465D01*
X88920018Y-100665099D01*
X88918060Y-100664462D01*
X88887553Y-100717562D01*
X88825518Y-100749709D01*
X88801794Y-100752000D01*
X85520655Y-100752000D01*
X85424012Y-100771224D01*
X85327367Y-100790447D01*
X85327361Y-100790449D01*
X85274034Y-100812537D01*
X85274034Y-100812538D01*
X85228515Y-100831392D01*
X85145289Y-100865866D01*
X85145279Y-100865871D01*
X84981419Y-100975359D01*
X84911740Y-101045038D01*
X84842061Y-101114718D01*
X84842058Y-101114721D01*
X83834249Y-102122531D01*
X82853599Y-103103181D01*
X82826671Y-103117884D01*
X82800853Y-103134477D01*
X82794652Y-103135368D01*
X82792276Y-103136666D01*
X82765918Y-103139500D01*
X82555762Y-103139500D01*
X82488723Y-103119815D01*
X82482877Y-103115818D01*
X82479799Y-103113582D01*
X82361610Y-103027713D01*
X82301896Y-102997287D01*
X82179223Y-102934781D01*
X81984534Y-102871522D01*
X81809995Y-102843878D01*
X81782352Y-102839500D01*
X80777648Y-102839500D01*
X80730779Y-102846923D01*
X80575469Y-102871522D01*
X80575468Y-102871522D01*
X80547737Y-102880532D01*
X80532968Y-102885331D01*
X80494652Y-102891400D01*
X78342683Y-102891400D01*
X78275644Y-102871715D01*
X78255002Y-102855081D01*
X76276717Y-100876797D01*
X76243232Y-100815474D01*
X76241925Y-100808513D01*
X76232611Y-100749709D01*
X76218477Y-100660466D01*
X76212222Y-100641216D01*
X76155218Y-100465776D01*
X76121503Y-100399607D01*
X76062287Y-100283390D01*
X75992882Y-100187861D01*
X75941971Y-100117786D01*
X75797213Y-99973028D01*
X75631613Y-99852715D01*
X75631612Y-99852714D01*
X75631610Y-99852713D01*
X75573268Y-99822986D01*
X75449223Y-99759781D01*
X75254534Y-99696522D01*
X75079995Y-99668878D01*
X75052352Y-99664500D01*
X74847648Y-99664500D01*
X74823329Y-99668351D01*
X74645465Y-99696522D01*
X74450776Y-99759781D01*
X74268386Y-99852715D01*
X74102786Y-99973028D01*
X73958028Y-100117786D01*
X73837715Y-100283386D01*
X73744781Y-100465776D01*
X73681522Y-100660465D01*
X73649500Y-100862648D01*
X73649500Y-101067351D01*
X73681522Y-101269534D01*
X73744781Y-101464223D01*
X73837715Y-101646613D01*
X73958028Y-101812213D01*
X74102786Y-101956971D01*
X74202199Y-102029197D01*
X74268390Y-102077287D01*
X74382496Y-102135427D01*
X74450776Y-102170218D01*
X74450778Y-102170218D01*
X74450781Y-102170220D01*
X74553785Y-102203688D01*
X74645465Y-102233477D01*
X74722966Y-102245751D01*
X74793513Y-102256925D01*
X74856648Y-102286854D01*
X74861797Y-102291717D01*
X77239115Y-104669037D01*
X77239119Y-104669040D01*
X77402979Y-104778528D01*
X77402985Y-104778531D01*
X77402986Y-104778532D01*
X77585065Y-104853952D01*
X77744792Y-104885723D01*
X77767170Y-104890174D01*
X77778358Y-104892400D01*
X77778359Y-104892400D01*
X77778360Y-104892400D01*
X77975441Y-104892400D01*
X79755963Y-104892400D01*
X79756199Y-104892469D01*
X79756436Y-104892401D01*
X79789767Y-104902326D01*
X79823002Y-104912085D01*
X79823242Y-104912294D01*
X79823400Y-104912341D01*
X79824552Y-104913433D01*
X79849985Y-104935555D01*
X79853296Y-104939406D01*
X79888034Y-104987219D01*
X79933513Y-105032698D01*
X79936550Y-105036230D01*
X79949097Y-105063984D01*
X79963694Y-105090717D01*
X79963350Y-105095513D01*
X79965332Y-105099896D01*
X79960882Y-105130024D01*
X79958710Y-105160409D01*
X79955705Y-105165083D01*
X79955125Y-105169016D01*
X79947751Y-105177460D01*
X79930209Y-105204756D01*
X79091784Y-106043181D01*
X79030461Y-106076666D01*
X79004103Y-106079500D01*
X72749602Y-106079500D01*
X72682563Y-106059815D01*
X72639117Y-106011795D01*
X72632284Y-105998385D01*
X72511971Y-105832786D01*
X72367219Y-105688034D01*
X72355195Y-105679298D01*
X72273547Y-105619978D01*
X72230882Y-105564649D01*
X72224903Y-105495036D01*
X72257508Y-105433240D01*
X72307426Y-105401955D01*
X72389334Y-105374814D01*
X72538656Y-105282712D01*
X72662712Y-105158656D01*
X72754814Y-105009334D01*
X72809999Y-104842797D01*
X72820500Y-104740009D01*
X72820499Y-103539992D01*
X72818065Y-103516169D01*
X72809999Y-103437203D01*
X72809998Y-103437200D01*
X72754814Y-103270666D01*
X72662712Y-103121344D01*
X72538656Y-102997288D01*
X72389334Y-102905186D01*
X72222797Y-102850001D01*
X72222795Y-102850000D01*
X72120010Y-102839500D01*
X70119998Y-102839500D01*
X70119981Y-102839501D01*
X70017203Y-102850000D01*
X70017200Y-102850001D01*
X69850668Y-102905185D01*
X69850663Y-102905187D01*
X69701342Y-102997289D01*
X69577289Y-103121342D01*
X69485187Y-103270663D01*
X69485186Y-103270666D01*
X69430001Y-103437203D01*
X69430001Y-103437204D01*
X69430000Y-103437204D01*
X69419500Y-103539983D01*
X69419500Y-104740001D01*
X69419501Y-104740018D01*
X69430000Y-104842795D01*
X69440282Y-104873824D01*
X69442682Y-104943652D01*
X69410256Y-105000507D01*
X69201486Y-105209278D01*
X69089681Y-105321082D01*
X69089679Y-105321084D01*
X69065974Y-105362144D01*
X69055954Y-105379500D01*
X69010623Y-105458015D01*
X68969699Y-105610743D01*
X68969699Y-105610745D01*
X68969699Y-105778846D01*
X68969700Y-105778859D01*
X68969700Y-107058930D01*
X68969699Y-107058948D01*
X68969699Y-107224654D01*
X68969698Y-107224654D01*
X69010623Y-107377385D01*
X69039558Y-107427500D01*
X69039559Y-107427504D01*
X69039560Y-107427504D01*
X69056669Y-107457139D01*
X69089679Y-107514314D01*
X69089681Y-107514317D01*
X69208549Y-107633185D01*
X69208555Y-107633190D01*
X69750407Y-108175043D01*
X69783892Y-108236366D01*
X69778908Y-108306058D01*
X69750411Y-108350402D01*
X69728033Y-108372781D01*
X69607715Y-108538386D01*
X69514781Y-108720776D01*
X69451522Y-108915465D01*
X69419500Y-109117648D01*
X69419500Y-109322351D01*
X69451522Y-109524534D01*
X69514781Y-109719223D01*
X69607715Y-109901613D01*
X69728028Y-110067213D01*
X69872786Y-110211971D01*
X70027749Y-110324556D01*
X70038390Y-110332287D01*
X70129840Y-110378883D01*
X70131080Y-110379515D01*
X70181876Y-110427490D01*
X70198671Y-110495311D01*
X70176134Y-110561446D01*
X70131080Y-110600485D01*
X70038386Y-110647715D01*
X69872786Y-110768028D01*
X69728028Y-110912786D01*
X69607715Y-111078386D01*
X69514781Y-111260776D01*
X69451522Y-111455465D01*
X69419500Y-111657648D01*
X69419500Y-111862351D01*
X69451522Y-112064534D01*
X69514781Y-112259223D01*
X69574645Y-112376710D01*
X69585381Y-112397782D01*
X69607715Y-112441613D01*
X69728028Y-112607213D01*
X69872786Y-112751971D01*
X70027749Y-112864556D01*
X70038390Y-112872287D01*
X70129840Y-112918883D01*
X70131080Y-112919515D01*
X70181876Y-112967490D01*
X70198671Y-113035311D01*
X70176134Y-113101446D01*
X70131080Y-113140485D01*
X70038386Y-113187715D01*
X69872786Y-113308028D01*
X69728028Y-113452786D01*
X69607715Y-113618386D01*
X69514781Y-113800776D01*
X69451522Y-113995465D01*
X69419500Y-114197648D01*
X69419500Y-114402351D01*
X69451522Y-114604534D01*
X69514781Y-114799223D01*
X69560716Y-114889373D01*
X69607711Y-114981607D01*
X69607715Y-114981613D01*
X69728028Y-115147213D01*
X69872786Y-115291971D01*
X70027749Y-115404556D01*
X70038390Y-115412287D01*
X70129840Y-115458883D01*
X70131080Y-115459515D01*
X70181876Y-115507490D01*
X70198671Y-115575311D01*
X70176134Y-115641446D01*
X70131080Y-115680485D01*
X70038386Y-115727715D01*
X69872786Y-115848028D01*
X69728028Y-115992786D01*
X69607714Y-116158386D01*
X69595738Y-116181890D01*
X69547761Y-116232684D01*
X69517349Y-116245366D01*
X69386515Y-116280423D01*
X69354857Y-116298701D01*
X69354856Y-116298700D01*
X69249587Y-116359477D01*
X69249582Y-116359481D01*
X69137778Y-116471286D01*
X68135884Y-117473181D01*
X68074561Y-117506666D01*
X68048203Y-117509500D01*
X67760266Y-117509500D01*
X67693227Y-117489815D01*
X67647472Y-117437011D01*
X67637528Y-117367853D01*
X67644080Y-117343970D01*
X67643714Y-117343852D01*
X67645218Y-117339222D01*
X67645220Y-117339219D01*
X67708477Y-117144534D01*
X67740500Y-116942352D01*
X67740500Y-116737648D01*
X67708477Y-116535466D01*
X67708476Y-116535464D01*
X67667642Y-116409789D01*
X67645220Y-116340781D01*
X67645218Y-116340778D01*
X67645218Y-116340776D01*
X67609354Y-116270391D01*
X67552287Y-116158390D01*
X67533215Y-116132139D01*
X67431971Y-115992786D01*
X67287213Y-115848028D01*
X67121614Y-115727715D01*
X67115006Y-115724348D01*
X67028917Y-115680483D01*
X66978123Y-115632511D01*
X66961328Y-115564690D01*
X66983865Y-115498555D01*
X67028917Y-115459516D01*
X67121610Y-115412287D01*
X67172718Y-115375155D01*
X67287213Y-115291971D01*
X67287215Y-115291968D01*
X67287219Y-115291966D01*
X67431966Y-115147219D01*
X67431968Y-115147215D01*
X67431971Y-115147213D01*
X67538200Y-115000999D01*
X67552287Y-114981610D01*
X67645220Y-114799219D01*
X67708477Y-114604534D01*
X67740500Y-114402352D01*
X67740500Y-114197648D01*
X67708477Y-113995466D01*
X67708476Y-113995464D01*
X67651296Y-113819481D01*
X67645220Y-113800781D01*
X67645218Y-113800778D01*
X67645218Y-113800776D01*
X67586379Y-113685300D01*
X67552287Y-113618390D01*
X67531353Y-113589576D01*
X67431971Y-113452786D01*
X67287213Y-113308028D01*
X67121614Y-113187715D01*
X67115006Y-113184348D01*
X67028917Y-113140483D01*
X66978123Y-113092511D01*
X66961328Y-113024690D01*
X66983865Y-112958555D01*
X67028917Y-112919516D01*
X67121610Y-112872287D01*
X67230531Y-112793152D01*
X67287213Y-112751971D01*
X67287215Y-112751968D01*
X67287219Y-112751966D01*
X67431966Y-112607219D01*
X67431968Y-112607215D01*
X67431971Y-112607213D01*
X67504478Y-112507414D01*
X67552287Y-112441610D01*
X67645220Y-112259219D01*
X67708477Y-112064534D01*
X67740500Y-111862352D01*
X67740500Y-111657648D01*
X67708477Y-111455466D01*
X67691365Y-111402802D01*
X67651296Y-111279481D01*
X67645220Y-111260781D01*
X67645218Y-111260778D01*
X67645218Y-111260776D01*
X67610422Y-111192486D01*
X67552287Y-111078390D01*
X67533458Y-111052474D01*
X67431971Y-110912786D01*
X67287213Y-110768028D01*
X67121614Y-110647715D01*
X67115006Y-110644348D01*
X67028917Y-110600483D01*
X66978123Y-110552511D01*
X66961328Y-110484690D01*
X66983865Y-110418555D01*
X67028917Y-110379516D01*
X67121610Y-110332287D01*
X67142770Y-110316913D01*
X67287213Y-110211971D01*
X67287215Y-110211968D01*
X67287219Y-110211966D01*
X67431966Y-110067219D01*
X67431968Y-110067215D01*
X67431971Y-110067213D01*
X67501976Y-109970858D01*
X67552287Y-109901610D01*
X67645220Y-109719219D01*
X67708477Y-109524534D01*
X67740500Y-109322352D01*
X67740500Y-109117648D01*
X67708477Y-108915466D01*
X67704031Y-108901784D01*
X67651296Y-108739481D01*
X67645220Y-108720781D01*
X67645218Y-108720778D01*
X67645218Y-108720776D01*
X67598004Y-108628115D01*
X67552287Y-108538390D01*
X67544556Y-108527749D01*
X67431971Y-108372786D01*
X67287213Y-108228028D01*
X67121614Y-108107715D01*
X67104745Y-108099120D01*
X67028917Y-108060483D01*
X66978123Y-108012511D01*
X66961328Y-107944690D01*
X66983865Y-107878555D01*
X67028917Y-107839516D01*
X67121610Y-107792287D01*
X67142770Y-107776913D01*
X67287213Y-107671971D01*
X67287215Y-107671968D01*
X67287219Y-107671966D01*
X67431966Y-107527219D01*
X67431968Y-107527215D01*
X67431971Y-107527213D01*
X67501976Y-107430858D01*
X67552287Y-107361610D01*
X67645220Y-107179219D01*
X67708477Y-106984534D01*
X67740500Y-106782352D01*
X67740500Y-106577648D01*
X67708477Y-106375466D01*
X67645220Y-106180781D01*
X67645218Y-106180778D01*
X67645218Y-106180776D01*
X67597303Y-106086739D01*
X67552287Y-105998390D01*
X67544556Y-105987749D01*
X67431971Y-105832786D01*
X67287213Y-105688028D01*
X67121614Y-105567715D01*
X67115006Y-105564348D01*
X67028917Y-105520483D01*
X66978123Y-105472511D01*
X66961328Y-105404690D01*
X66983865Y-105338555D01*
X67028917Y-105299516D01*
X67121610Y-105252287D01*
X67180805Y-105209280D01*
X67287213Y-105131971D01*
X67287215Y-105131968D01*
X67287219Y-105131966D01*
X67431966Y-104987219D01*
X67431968Y-104987215D01*
X67431971Y-104987213D01*
X67500855Y-104892400D01*
X67552287Y-104821610D01*
X67645220Y-104639219D01*
X67708477Y-104444534D01*
X67740500Y-104242352D01*
X67740500Y-104037648D01*
X67708477Y-103835466D01*
X67707114Y-103831272D01*
X67659783Y-103685601D01*
X67645220Y-103640781D01*
X67645218Y-103640778D01*
X67645218Y-103640776D01*
X67593865Y-103539991D01*
X67552287Y-103458390D01*
X67536892Y-103437200D01*
X67431971Y-103292786D01*
X67287213Y-103148028D01*
X67121613Y-103027715D01*
X67121612Y-103027714D01*
X67121610Y-103027713D01*
X67061896Y-102997287D01*
X66939223Y-102934781D01*
X66744534Y-102871522D01*
X66569995Y-102843878D01*
X66542352Y-102839500D01*
X65537648Y-102839500D01*
X65513329Y-102843351D01*
X65335465Y-102871522D01*
X65140776Y-102934781D01*
X64958386Y-103027715D01*
X64792786Y-103148028D01*
X64648028Y-103292786D01*
X64527715Y-103458386D01*
X64434781Y-103640776D01*
X64371522Y-103835465D01*
X64339500Y-104037648D01*
X64339500Y-104242351D01*
X64371522Y-104444534D01*
X64434781Y-104639223D01*
X64486135Y-104740009D01*
X64505381Y-104777782D01*
X64527715Y-104821613D01*
X64648028Y-104987213D01*
X64792786Y-105131971D01*
X64899195Y-105209280D01*
X64958390Y-105252287D01*
X65049840Y-105298883D01*
X65051080Y-105299515D01*
X65101876Y-105347490D01*
X65118671Y-105415311D01*
X65096134Y-105481446D01*
X65051080Y-105520485D01*
X64958386Y-105567715D01*
X64837123Y-105655818D01*
X64771317Y-105679298D01*
X64764238Y-105679500D01*
X63539083Y-105679500D01*
X63472044Y-105659815D01*
X63451402Y-105643181D01*
X62872202Y-105063981D01*
X62272500Y-104464280D01*
X62239016Y-104402958D01*
X62244000Y-104333266D01*
X62285872Y-104277333D01*
X62351336Y-104252916D01*
X62360182Y-104252600D01*
X62374444Y-104252600D01*
X62374445Y-104252599D01*
X62529097Y-104221837D01*
X62674779Y-104161494D01*
X62805889Y-104073889D01*
X62917389Y-103962389D01*
X63004994Y-103831279D01*
X63065337Y-103685597D01*
X63096100Y-103530942D01*
X63096100Y-103373258D01*
X63096100Y-103373255D01*
X63096099Y-103373253D01*
X63065338Y-103218610D01*
X63065337Y-103218603D01*
X63045004Y-103169515D01*
X63004997Y-103072927D01*
X63004990Y-103072914D01*
X62917389Y-102941811D01*
X62917386Y-102941807D01*
X62805892Y-102830313D01*
X62805888Y-102830310D01*
X62674785Y-102742709D01*
X62674772Y-102742702D01*
X62529101Y-102682364D01*
X62529091Y-102682361D01*
X62373749Y-102651461D01*
X62311838Y-102619076D01*
X62310260Y-102617525D01*
X61695119Y-102002384D01*
X61661634Y-101941061D01*
X61658800Y-101914703D01*
X61658800Y-100728897D01*
X61678485Y-100661858D01*
X61695119Y-100641216D01*
X66193016Y-96143319D01*
X66254339Y-96109834D01*
X66280697Y-96107000D01*
X68247803Y-96107000D01*
X68314842Y-96126685D01*
X68360597Y-96179489D01*
X68370541Y-96248647D01*
X68341516Y-96312203D01*
X68335484Y-96318681D01*
X67683039Y-96971125D01*
X67621716Y-97004610D01*
X67619550Y-97005061D01*
X67464208Y-97035961D01*
X67464198Y-97035964D01*
X67318527Y-97096302D01*
X67318514Y-97096309D01*
X67187411Y-97183910D01*
X67187407Y-97183913D01*
X67075913Y-97295407D01*
X67075910Y-97295411D01*
X66988309Y-97426514D01*
X66988302Y-97426527D01*
X66927964Y-97572198D01*
X66927961Y-97572210D01*
X66897200Y-97726853D01*
X66897200Y-97884546D01*
X66927961Y-98039189D01*
X66927964Y-98039201D01*
X66988302Y-98184872D01*
X66988309Y-98184885D01*
X67075910Y-98315988D01*
X67075913Y-98315992D01*
X67187407Y-98427486D01*
X67187411Y-98427489D01*
X67318514Y-98515090D01*
X67318527Y-98515097D01*
X67464198Y-98575435D01*
X67464203Y-98575437D01*
X67618853Y-98606199D01*
X67618856Y-98606200D01*
X67618858Y-98606200D01*
X67776544Y-98606200D01*
X67776545Y-98606199D01*
X67931197Y-98575437D01*
X68076879Y-98515094D01*
X68207989Y-98427489D01*
X68319489Y-98315989D01*
X68407094Y-98184879D01*
X68467437Y-98039197D01*
X68486813Y-97941785D01*
X68498338Y-97883850D01*
X68530723Y-97821939D01*
X68532218Y-97820416D01*
X69612216Y-96740419D01*
X69673539Y-96706934D01*
X69699897Y-96704100D01*
X72096601Y-96704100D01*
X72117844Y-96710337D01*
X72139932Y-96711917D01*
X72150717Y-96719990D01*
X72163640Y-96723785D01*
X72178136Y-96740514D01*
X72195867Y-96753787D01*
X72200575Y-96766411D01*
X72209395Y-96776589D01*
X72212545Y-96798502D01*
X72220285Y-96819251D01*
X72217421Y-96832413D01*
X72219339Y-96845747D01*
X72210140Y-96865889D01*
X72205434Y-96887525D01*
X72192164Y-96905251D01*
X72190314Y-96909303D01*
X72184284Y-96915779D01*
X72160980Y-96939084D01*
X72160979Y-96939084D01*
X72160978Y-96939086D01*
X70733439Y-98366625D01*
X70672116Y-98400110D01*
X70669950Y-98400561D01*
X70514608Y-98431461D01*
X70514598Y-98431464D01*
X70368927Y-98491802D01*
X70368914Y-98491809D01*
X70237811Y-98579410D01*
X70237807Y-98579413D01*
X70126313Y-98690907D01*
X70126310Y-98690911D01*
X70038709Y-98822014D01*
X70038702Y-98822027D01*
X69978364Y-98967698D01*
X69978361Y-98967710D01*
X69947600Y-99122353D01*
X69947600Y-99280046D01*
X69978361Y-99434689D01*
X69978364Y-99434701D01*
X70038702Y-99580372D01*
X70038709Y-99580385D01*
X70126310Y-99711488D01*
X70126313Y-99711492D01*
X70237807Y-99822986D01*
X70237811Y-99822989D01*
X70368914Y-99910590D01*
X70368927Y-99910597D01*
X70478703Y-99956067D01*
X70514603Y-99970937D01*
X70669253Y-100001699D01*
X70669256Y-100001700D01*
X70669258Y-100001700D01*
X70826944Y-100001700D01*
X70826945Y-100001699D01*
X70981597Y-99970937D01*
X71127279Y-99910594D01*
X71258389Y-99822989D01*
X71369889Y-99711489D01*
X71457494Y-99580379D01*
X71517837Y-99434697D01*
X71537213Y-99337285D01*
X71548738Y-99279350D01*
X71581123Y-99217439D01*
X71582618Y-99215916D01*
X72853916Y-97944619D01*
X72915239Y-97911134D01*
X72941597Y-97908300D01*
X73204831Y-97908300D01*
X73204847Y-97908301D01*
X73212443Y-97908301D01*
X73370554Y-97908301D01*
X73370557Y-97908301D01*
X73523285Y-97867377D01*
X73573404Y-97838439D01*
X73660216Y-97788320D01*
X73772020Y-97676516D01*
X73772021Y-97676513D01*
X73904717Y-97543818D01*
X73966041Y-97510334D01*
X73992398Y-97507500D01*
X93728031Y-97507500D01*
X93728047Y-97507501D01*
X93735643Y-97507501D01*
X93893754Y-97507501D01*
X93893757Y-97507501D01*
X94046485Y-97466577D01*
X94097741Y-97436984D01*
X94183416Y-97387520D01*
X94295220Y-97275716D01*
X94295220Y-97275714D01*
X94305424Y-97265511D01*
X94305428Y-97265506D01*
X98148713Y-93422221D01*
X98148716Y-93422220D01*
X98260520Y-93310416D01*
X98310639Y-93223604D01*
X98339577Y-93173485D01*
X98376012Y-93037507D01*
X98377823Y-93032510D01*
X98395470Y-93008464D01*
X98410999Y-92982989D01*
X98417426Y-92978548D01*
X98419163Y-92976183D01*
X98422962Y-92974724D01*
X98438111Y-92964259D01*
X98461610Y-92952287D01*
X98564830Y-92877294D01*
X98627213Y-92831971D01*
X98627215Y-92831968D01*
X98627219Y-92831966D01*
X98771966Y-92687219D01*
X98771968Y-92687215D01*
X98771971Y-92687213D01*
X98892284Y-92521614D01*
X98892285Y-92521613D01*
X98892287Y-92521610D01*
X98939516Y-92428917D01*
X98987489Y-92378123D01*
X99055310Y-92361328D01*
X99121445Y-92383865D01*
X99160485Y-92428919D01*
X99207715Y-92521614D01*
X99328028Y-92687213D01*
X99472786Y-92831971D01*
X99606555Y-92929158D01*
X99638390Y-92952287D01*
X99719499Y-92993614D01*
X99820776Y-93045218D01*
X99820778Y-93045218D01*
X99820781Y-93045220D01*
X99925137Y-93079127D01*
X100015465Y-93108477D01*
X100116557Y-93124488D01*
X100217648Y-93140500D01*
X100217649Y-93140500D01*
X100422351Y-93140500D01*
X100422352Y-93140500D01*
X100624534Y-93108477D01*
X100819219Y-93045220D01*
X101001610Y-92952287D01*
X101104830Y-92877294D01*
X101167213Y-92831971D01*
X101167215Y-92831968D01*
X101167219Y-92831966D01*
X101311966Y-92687219D01*
X101311968Y-92687215D01*
X101311971Y-92687213D01*
X101432284Y-92521614D01*
X101432285Y-92521613D01*
X101432287Y-92521610D01*
X101479516Y-92428917D01*
X101527489Y-92378123D01*
X101595310Y-92361328D01*
X101661445Y-92383865D01*
X101700485Y-92428919D01*
X101747715Y-92521614D01*
X101868028Y-92687213D01*
X102012786Y-92831971D01*
X102146555Y-92929158D01*
X102178390Y-92952287D01*
X102259499Y-92993614D01*
X102360776Y-93045218D01*
X102360778Y-93045218D01*
X102360781Y-93045220D01*
X102465137Y-93079127D01*
X102555465Y-93108477D01*
X102656557Y-93124488D01*
X102757648Y-93140500D01*
X102757649Y-93140500D01*
X102962351Y-93140500D01*
X102962352Y-93140500D01*
X103164534Y-93108477D01*
X103359219Y-93045220D01*
X103541610Y-92952287D01*
X103644830Y-92877294D01*
X103707213Y-92831971D01*
X103707215Y-92831968D01*
X103707219Y-92831966D01*
X103851966Y-92687219D01*
X103851968Y-92687215D01*
X103851971Y-92687213D01*
X103972284Y-92521614D01*
X103972285Y-92521613D01*
X103972287Y-92521610D01*
X104019516Y-92428917D01*
X104067489Y-92378123D01*
X104135310Y-92361328D01*
X104201445Y-92383865D01*
X104240485Y-92428919D01*
X104287715Y-92521614D01*
X104408028Y-92687213D01*
X104552786Y-92831971D01*
X104686555Y-92929158D01*
X104718390Y-92952287D01*
X104799499Y-92993614D01*
X104900776Y-93045218D01*
X104900778Y-93045218D01*
X104900781Y-93045220D01*
X105005137Y-93079127D01*
X105095465Y-93108477D01*
X105196557Y-93124488D01*
X105297648Y-93140500D01*
X105297649Y-93140500D01*
X105502351Y-93140500D01*
X105502352Y-93140500D01*
X105704534Y-93108477D01*
X105899219Y-93045220D01*
X106081610Y-92952287D01*
X106184830Y-92877294D01*
X106247213Y-92831971D01*
X106247215Y-92831968D01*
X106247219Y-92831966D01*
X106391966Y-92687219D01*
X106391968Y-92687215D01*
X106391971Y-92687213D01*
X106512284Y-92521614D01*
X106512285Y-92521613D01*
X106512287Y-92521610D01*
X106559516Y-92428917D01*
X106607489Y-92378123D01*
X106675310Y-92361328D01*
X106741445Y-92383865D01*
X106780485Y-92428919D01*
X106827715Y-92521614D01*
X106948028Y-92687213D01*
X107092786Y-92831971D01*
X107226555Y-92929158D01*
X107258390Y-92952287D01*
X107339499Y-92993614D01*
X107440776Y-93045218D01*
X107440778Y-93045218D01*
X107440781Y-93045220D01*
X107545137Y-93079127D01*
X107635465Y-93108477D01*
X107736557Y-93124488D01*
X107837648Y-93140500D01*
X107837649Y-93140500D01*
X108042351Y-93140500D01*
X108042352Y-93140500D01*
X108244534Y-93108477D01*
X108439219Y-93045220D01*
X108621610Y-92952287D01*
X108724830Y-92877294D01*
X108787213Y-92831971D01*
X108787215Y-92831968D01*
X108787219Y-92831966D01*
X108931966Y-92687219D01*
X108931968Y-92687215D01*
X108931971Y-92687213D01*
X108984732Y-92614590D01*
X109052287Y-92521610D01*
X109145220Y-92339219D01*
X109208477Y-92144534D01*
X109240500Y-91942352D01*
X109240500Y-90937648D01*
X109208477Y-90735466D01*
X109145220Y-90540781D01*
X109145218Y-90540778D01*
X109145218Y-90540776D01*
X109099515Y-90451080D01*
X109052287Y-90358390D01*
X109039654Y-90341003D01*
X108964182Y-90237122D01*
X108957029Y-90217077D01*
X108945523Y-90199172D01*
X108942068Y-90175145D01*
X108940702Y-90171316D01*
X108940500Y-90164237D01*
X108940500Y-90024500D01*
X108960185Y-89957461D01*
X109012989Y-89911706D01*
X109064500Y-89900500D01*
X110249238Y-89900500D01*
X110316277Y-89920185D01*
X110322119Y-89924179D01*
X110443390Y-90012287D01*
X110559607Y-90071503D01*
X110625776Y-90105218D01*
X110625778Y-90105218D01*
X110625781Y-90105220D01*
X110730137Y-90139127D01*
X110820465Y-90168477D01*
X110921557Y-90184488D01*
X111022648Y-90200500D01*
X111022649Y-90200500D01*
X111227351Y-90200500D01*
X111227352Y-90200500D01*
X111429534Y-90168477D01*
X111624219Y-90105220D01*
X111806610Y-90012287D01*
X111899590Y-89944732D01*
X111972213Y-89891971D01*
X111972215Y-89891968D01*
X111972219Y-89891966D01*
X112116966Y-89747219D01*
X112116968Y-89747215D01*
X112116971Y-89747213D01*
X112170604Y-89673392D01*
X112237287Y-89581610D01*
X112330220Y-89399219D01*
X112393477Y-89204534D01*
X112425500Y-89002352D01*
X112425500Y-88797648D01*
X112395807Y-88610178D01*
X112404761Y-88540888D01*
X112449757Y-88487436D01*
X112470819Y-88476225D01*
X112562879Y-88438094D01*
X112693989Y-88350489D01*
X112805489Y-88238989D01*
X112893094Y-88107879D01*
X112953437Y-87962197D01*
X112984200Y-87807542D01*
X112984200Y-87649858D01*
X112984200Y-87649855D01*
X112984199Y-87649853D01*
X112953438Y-87495210D01*
X112953437Y-87495203D01*
X112897428Y-87359984D01*
X112893097Y-87349527D01*
X112893090Y-87349514D01*
X112805489Y-87218411D01*
X112805486Y-87218407D01*
X112693992Y-87106913D01*
X112693988Y-87106910D01*
X112562885Y-87019309D01*
X112562872Y-87019302D01*
X112417201Y-86958964D01*
X112417189Y-86958961D01*
X112262545Y-86928200D01*
X112262542Y-86928200D01*
X112104858Y-86928200D01*
X112104855Y-86928200D01*
X111950210Y-86958961D01*
X111950198Y-86958964D01*
X111804527Y-87019302D01*
X111804514Y-87019309D01*
X111672825Y-87107302D01*
X111606147Y-87128180D01*
X111603934Y-87128200D01*
X67048657Y-87128200D01*
X66890542Y-87128200D01*
X66737815Y-87169123D01*
X66737814Y-87169123D01*
X66737812Y-87169124D01*
X66737809Y-87169125D01*
X66687696Y-87198059D01*
X66687695Y-87198060D01*
X66652453Y-87218407D01*
X66600885Y-87248179D01*
X66600882Y-87248181D01*
X64279479Y-89569584D01*
X64270355Y-89585389D01*
X64249337Y-89621794D01*
X64241638Y-89635129D01*
X64200422Y-89706515D01*
X64165364Y-89837351D01*
X64128999Y-89897011D01*
X64101887Y-89915739D01*
X64078392Y-89927710D01*
X64078389Y-89927712D01*
X63912786Y-90048028D01*
X63768028Y-90192786D01*
X63647715Y-90358386D01*
X63600485Y-90451080D01*
X63552510Y-90501876D01*
X63484689Y-90518671D01*
X63418554Y-90496134D01*
X63379515Y-90451080D01*
X63378883Y-90449840D01*
X63332287Y-90358390D01*
X63324556Y-90347749D01*
X63211971Y-90192786D01*
X63067213Y-90048028D01*
X62901613Y-89927715D01*
X62901612Y-89927714D01*
X62901610Y-89927713D01*
X62835527Y-89894042D01*
X62719223Y-89834781D01*
X62524534Y-89771522D01*
X62349995Y-89743878D01*
X62322352Y-89739500D01*
X62117648Y-89739500D01*
X62093329Y-89743351D01*
X61915465Y-89771522D01*
X61720776Y-89834781D01*
X61538386Y-89927715D01*
X61372786Y-90048028D01*
X61228028Y-90192786D01*
X61107715Y-90358386D01*
X61060485Y-90451080D01*
X61012510Y-90501876D01*
X60944689Y-90518671D01*
X60878554Y-90496134D01*
X60839515Y-90451080D01*
X60838883Y-90449840D01*
X60792287Y-90358390D01*
X60784556Y-90347749D01*
X60671971Y-90192786D01*
X60527213Y-90048028D01*
X60361613Y-89927715D01*
X60361612Y-89927714D01*
X60361610Y-89927713D01*
X60295527Y-89894042D01*
X60179223Y-89834781D01*
X59984534Y-89771522D01*
X59809995Y-89743878D01*
X59782352Y-89739500D01*
X59577648Y-89739500D01*
X59553329Y-89743351D01*
X59375465Y-89771522D01*
X59180776Y-89834781D01*
X58998386Y-89927715D01*
X58832786Y-90048028D01*
X58688028Y-90192786D01*
X58567715Y-90358386D01*
X58474781Y-90540776D01*
X58411522Y-90735465D01*
X58379500Y-90937648D01*
X58379500Y-91942351D01*
X58411522Y-92144534D01*
X58474781Y-92339223D01*
X58567715Y-92521613D01*
X58688028Y-92687213D01*
X58832786Y-92831971D01*
X58966555Y-92929158D01*
X58998390Y-92952287D01*
X59079499Y-92993614D01*
X59180776Y-93045218D01*
X59180778Y-93045218D01*
X59180781Y-93045220D01*
X59285137Y-93079127D01*
X59375465Y-93108477D01*
X59476557Y-93124488D01*
X59577648Y-93140500D01*
X59577649Y-93140500D01*
X59782351Y-93140500D01*
X59782352Y-93140500D01*
X59984534Y-93108477D01*
X60179219Y-93045220D01*
X60361610Y-92952287D01*
X60464830Y-92877294D01*
X60527213Y-92831971D01*
X60527215Y-92831968D01*
X60527219Y-92831966D01*
X60671966Y-92687219D01*
X60671968Y-92687215D01*
X60671971Y-92687213D01*
X60792284Y-92521614D01*
X60792285Y-92521613D01*
X60792287Y-92521610D01*
X60839516Y-92428917D01*
X60887489Y-92378123D01*
X60955310Y-92361328D01*
X61021445Y-92383865D01*
X61060485Y-92428919D01*
X61107715Y-92521614D01*
X61228028Y-92687213D01*
X61372786Y-92831971D01*
X61506555Y-92929158D01*
X61538390Y-92952287D01*
X61619499Y-92993614D01*
X61720776Y-93045218D01*
X61720778Y-93045218D01*
X61720781Y-93045220D01*
X61825137Y-93079127D01*
X61915465Y-93108477D01*
X62016557Y-93124488D01*
X62117648Y-93140500D01*
X62117649Y-93140500D01*
X62322351Y-93140500D01*
X62322352Y-93140500D01*
X62524534Y-93108477D01*
X62719219Y-93045220D01*
X62901610Y-92952287D01*
X63004830Y-92877294D01*
X63067213Y-92831971D01*
X63067215Y-92831968D01*
X63067219Y-92831966D01*
X63211966Y-92687219D01*
X63211968Y-92687215D01*
X63211971Y-92687213D01*
X63332284Y-92521614D01*
X63332285Y-92521613D01*
X63332287Y-92521610D01*
X63379516Y-92428917D01*
X63427489Y-92378123D01*
X63495310Y-92361328D01*
X63561445Y-92383865D01*
X63600485Y-92428919D01*
X63647715Y-92521614D01*
X63768028Y-92687213D01*
X63912786Y-92831971D01*
X64046555Y-92929158D01*
X64078390Y-92952287D01*
X64159499Y-92993614D01*
X64260776Y-93045218D01*
X64260778Y-93045218D01*
X64260781Y-93045220D01*
X64365137Y-93079127D01*
X64455465Y-93108477D01*
X64556557Y-93124488D01*
X64657648Y-93140500D01*
X64657649Y-93140500D01*
X64862351Y-93140500D01*
X64862352Y-93140500D01*
X65064534Y-93108477D01*
X65259219Y-93045220D01*
X65441610Y-92952287D01*
X65544830Y-92877294D01*
X65607213Y-92831971D01*
X65607215Y-92831968D01*
X65607219Y-92831966D01*
X65751966Y-92687219D01*
X65751968Y-92687215D01*
X65751971Y-92687213D01*
X65804732Y-92614590D01*
X65872287Y-92521610D01*
X65965220Y-92339219D01*
X66028477Y-92144534D01*
X66060500Y-91942352D01*
X66060500Y-90937648D01*
X66028477Y-90735466D01*
X65965220Y-90540781D01*
X65965218Y-90540778D01*
X65965218Y-90540776D01*
X65919515Y-90451080D01*
X65872287Y-90358390D01*
X65864556Y-90347749D01*
X65751971Y-90192786D01*
X65641040Y-90081855D01*
X65607555Y-90020532D01*
X65612539Y-89950840D01*
X65641038Y-89906495D01*
X67182016Y-88365519D01*
X67243339Y-88332034D01*
X67269697Y-88329200D01*
X80460502Y-88329200D01*
X80527541Y-88348885D01*
X80573296Y-88401689D01*
X80583240Y-88470847D01*
X80554215Y-88534403D01*
X80548183Y-88540881D01*
X79519481Y-89569582D01*
X79519479Y-89569584D01*
X79510355Y-89585389D01*
X79489337Y-89621794D01*
X79481638Y-89635129D01*
X79440422Y-89706515D01*
X79405364Y-89837351D01*
X79368999Y-89897011D01*
X79341887Y-89915739D01*
X79318392Y-89927710D01*
X79318389Y-89927712D01*
X79152786Y-90048028D01*
X79008028Y-90192786D01*
X78887715Y-90358386D01*
X78840485Y-90451080D01*
X78792510Y-90501876D01*
X78724689Y-90518671D01*
X78658554Y-90496134D01*
X78619515Y-90451080D01*
X78618883Y-90449840D01*
X78572287Y-90358390D01*
X78564556Y-90347749D01*
X78451971Y-90192786D01*
X78307213Y-90048028D01*
X78141613Y-89927715D01*
X78141612Y-89927714D01*
X78141610Y-89927713D01*
X78075527Y-89894042D01*
X77959223Y-89834781D01*
X77764534Y-89771522D01*
X77589995Y-89743878D01*
X77562352Y-89739500D01*
X77357648Y-89739500D01*
X77333329Y-89743351D01*
X77155465Y-89771522D01*
X76960776Y-89834781D01*
X76778386Y-89927715D01*
X76612786Y-90048028D01*
X76468028Y-90192786D01*
X76347715Y-90358386D01*
X76300485Y-90451080D01*
X76252510Y-90501876D01*
X76184689Y-90518671D01*
X76118554Y-90496134D01*
X76079515Y-90451080D01*
X76078883Y-90449840D01*
X76032287Y-90358390D01*
X76024556Y-90347749D01*
X75911971Y-90192786D01*
X75767213Y-90048028D01*
X75601613Y-89927715D01*
X75601612Y-89927714D01*
X75601610Y-89927713D01*
X75535527Y-89894042D01*
X75419223Y-89834781D01*
X75224534Y-89771522D01*
X75049995Y-89743878D01*
X75022352Y-89739500D01*
X74817648Y-89739500D01*
X74793329Y-89743351D01*
X74615465Y-89771522D01*
X74420776Y-89834781D01*
X74238386Y-89927715D01*
X74072786Y-90048028D01*
X73928028Y-90192786D01*
X73807715Y-90358386D01*
X73760485Y-90451080D01*
X73712510Y-90501876D01*
X73644689Y-90518671D01*
X73578554Y-90496134D01*
X73539515Y-90451080D01*
X73538883Y-90449840D01*
X73492287Y-90358390D01*
X73484556Y-90347749D01*
X73371971Y-90192786D01*
X73227213Y-90048028D01*
X73061613Y-89927715D01*
X73061612Y-89927714D01*
X73061610Y-89927713D01*
X72995527Y-89894042D01*
X72879223Y-89834781D01*
X72684534Y-89771522D01*
X72509995Y-89743878D01*
X72482352Y-89739500D01*
X72277648Y-89739500D01*
X72253329Y-89743351D01*
X72075465Y-89771522D01*
X71880776Y-89834781D01*
X71698386Y-89927715D01*
X71532786Y-90048028D01*
X71388028Y-90192786D01*
X71267715Y-90358386D01*
X71220485Y-90451080D01*
X71172510Y-90501876D01*
X71104689Y-90518671D01*
X71038554Y-90496134D01*
X70999515Y-90451080D01*
X70998883Y-90449840D01*
X70952287Y-90358390D01*
X70944556Y-90347749D01*
X70831971Y-90192786D01*
X70687213Y-90048028D01*
X70521613Y-89927715D01*
X70521612Y-89927714D01*
X70521610Y-89927713D01*
X70455527Y-89894042D01*
X70339223Y-89834781D01*
X70144534Y-89771522D01*
X69969995Y-89743878D01*
X69942352Y-89739500D01*
X69737648Y-89739500D01*
X69713329Y-89743351D01*
X69535465Y-89771522D01*
X69340776Y-89834781D01*
X69158386Y-89927715D01*
X68992786Y-90048028D01*
X68848028Y-90192786D01*
X68727715Y-90358386D01*
X68634781Y-90540776D01*
X68571522Y-90735465D01*
X68539500Y-90937648D01*
X68539500Y-91942351D01*
X68571522Y-92144534D01*
X68634781Y-92339223D01*
X68727713Y-92521610D01*
X68815819Y-92642877D01*
X68839298Y-92708681D01*
X68839500Y-92715761D01*
X68839500Y-93490241D01*
X68839500Y-93490243D01*
X68839499Y-93490243D01*
X68877947Y-93683529D01*
X68877950Y-93683539D01*
X68953364Y-93865607D01*
X68953371Y-93865620D01*
X69062860Y-94029481D01*
X69062863Y-94029485D01*
X69202214Y-94168836D01*
X69202218Y-94168839D01*
X69366079Y-94278328D01*
X69366092Y-94278335D01*
X69548160Y-94353749D01*
X69548165Y-94353751D01*
X69548169Y-94353751D01*
X69548170Y-94353752D01*
X69741456Y-94392200D01*
X69741459Y-94392200D01*
X77558543Y-94392200D01*
X77688582Y-94366332D01*
X77751835Y-94353751D01*
X77933914Y-94278332D01*
X78097782Y-94168839D01*
X78237139Y-94029482D01*
X78346632Y-93865614D01*
X78422051Y-93683535D01*
X78460500Y-93490241D01*
X78460500Y-92715761D01*
X78480185Y-92648722D01*
X78484165Y-92642899D01*
X78572287Y-92521610D01*
X78619516Y-92428917D01*
X78667489Y-92378123D01*
X78735310Y-92361328D01*
X78801445Y-92383865D01*
X78840485Y-92428919D01*
X78887715Y-92521614D01*
X79008028Y-92687213D01*
X79152786Y-92831971D01*
X79286555Y-92929158D01*
X79318390Y-92952287D01*
X79399499Y-92993614D01*
X79500776Y-93045218D01*
X79500778Y-93045218D01*
X79500781Y-93045220D01*
X79605137Y-93079127D01*
X79695465Y-93108477D01*
X79796557Y-93124488D01*
X79897648Y-93140500D01*
X79897649Y-93140500D01*
X80102351Y-93140500D01*
X80102352Y-93140500D01*
X80304534Y-93108477D01*
X80499219Y-93045220D01*
X80681610Y-92952287D01*
X80784830Y-92877294D01*
X80847213Y-92831971D01*
X80847215Y-92831968D01*
X80847219Y-92831966D01*
X80991966Y-92687219D01*
X80991968Y-92687215D01*
X80991971Y-92687213D01*
X81112284Y-92521614D01*
X81112285Y-92521613D01*
X81112287Y-92521610D01*
X81159516Y-92428917D01*
X81207489Y-92378123D01*
X81275310Y-92361328D01*
X81341445Y-92383865D01*
X81380485Y-92428919D01*
X81427715Y-92521614D01*
X81548028Y-92687213D01*
X81658958Y-92798143D01*
X81692443Y-92859466D01*
X81687459Y-92929158D01*
X81658958Y-92973505D01*
X79762784Y-94869681D01*
X79701461Y-94903166D01*
X79675103Y-94906000D01*
X65901540Y-94906000D01*
X65860619Y-94916964D01*
X65860619Y-94916965D01*
X65823351Y-94926951D01*
X65748814Y-94946923D01*
X65748809Y-94946926D01*
X65611890Y-95025975D01*
X65611882Y-95025981D01*
X65500078Y-95137786D01*
X60694433Y-99943430D01*
X60633110Y-99976915D01*
X60563418Y-99971931D01*
X60533867Y-99956067D01*
X60391613Y-99852715D01*
X60391612Y-99852714D01*
X60391610Y-99852713D01*
X60333268Y-99822986D01*
X60209223Y-99759781D01*
X60014534Y-99696522D01*
X59839995Y-99668878D01*
X59812352Y-99664500D01*
X59607648Y-99664500D01*
X59583329Y-99668351D01*
X59405465Y-99696522D01*
X59210776Y-99759781D01*
X59028386Y-99852715D01*
X58865650Y-99970949D01*
X58816957Y-99992248D01*
X58763165Y-100002948D01*
X58763158Y-100002950D01*
X58709834Y-100025037D01*
X58709834Y-100025038D01*
X58664315Y-100043892D01*
X58581089Y-100078366D01*
X58581079Y-100078371D01*
X58417219Y-100187859D01*
X58347540Y-100257538D01*
X58277861Y-100327218D01*
X58277858Y-100327221D01*
X55801897Y-102803181D01*
X55740574Y-102836666D01*
X55714216Y-102839500D01*
X54879998Y-102839500D01*
X54879980Y-102839501D01*
X54777203Y-102850000D01*
X54777200Y-102850001D01*
X54610668Y-102905185D01*
X54610663Y-102905187D01*
X54461342Y-102997289D01*
X54337289Y-103121342D01*
X54245187Y-103270663D01*
X54245186Y-103270666D01*
X54190001Y-103437203D01*
X54190001Y-103437204D01*
X54190000Y-103437204D01*
X54179500Y-103539983D01*
X54179500Y-104289117D01*
X54159815Y-104356156D01*
X54143181Y-104376798D01*
X53290521Y-105229458D01*
X53290518Y-105229461D01*
X53237269Y-105282710D01*
X53151159Y-105368819D01*
X53041671Y-105532679D01*
X53041664Y-105532692D01*
X53010968Y-105606800D01*
X53010962Y-105606815D01*
X53009336Y-105610743D01*
X52966249Y-105714764D01*
X52955489Y-105768857D01*
X52953943Y-105776626D01*
X52953943Y-105776628D01*
X52950617Y-105793350D01*
X52918231Y-105855261D01*
X52857515Y-105889835D01*
X52787746Y-105886094D01*
X52731074Y-105845227D01*
X52705493Y-105780209D01*
X52705000Y-105769158D01*
X52705000Y-74419000D01*
X52724685Y-74351961D01*
X52777489Y-74306206D01*
X52829000Y-74295000D01*
X59320502Y-74295000D01*
X59387541Y-74314685D01*
G37*
%TD.AperFunction*%
%TA.AperFunction,Conductor*%
G36*
X72609159Y-115152540D02*
G01*
X72653506Y-115181041D01*
X73438339Y-115965874D01*
X73438349Y-115965885D01*
X73442679Y-115970215D01*
X73442680Y-115970216D01*
X73554484Y-116082020D01*
X73641295Y-116132139D01*
X73641297Y-116132141D01*
X73679351Y-116154111D01*
X73691415Y-116161077D01*
X73844143Y-116202001D01*
X73844146Y-116202001D01*
X74009853Y-116202001D01*
X74009869Y-116202000D01*
X84629202Y-116202000D01*
X84696241Y-116221685D01*
X84741996Y-116274489D01*
X84751940Y-116343647D01*
X84747135Y-116364308D01*
X84732358Y-116409789D01*
X84691522Y-116535465D01*
X84659500Y-116737648D01*
X84659500Y-116942351D01*
X84691522Y-117144534D01*
X84754781Y-117339223D01*
X84806385Y-117440500D01*
X84835595Y-117497828D01*
X84847715Y-117521613D01*
X84968028Y-117687213D01*
X85112786Y-117831971D01*
X85267749Y-117944556D01*
X85278390Y-117952287D01*
X85371080Y-117999515D01*
X85460776Y-118045218D01*
X85460778Y-118045218D01*
X85460781Y-118045220D01*
X85565137Y-118079127D01*
X85655465Y-118108477D01*
X85674697Y-118111523D01*
X85857648Y-118140500D01*
X85857649Y-118140500D01*
X86862351Y-118140500D01*
X86862352Y-118140500D01*
X87064534Y-118108477D01*
X87259219Y-118045220D01*
X87441610Y-117952287D01*
X87534590Y-117884732D01*
X87607213Y-117831971D01*
X87607215Y-117831968D01*
X87607219Y-117831966D01*
X87751966Y-117687219D01*
X87751968Y-117687215D01*
X87751971Y-117687213D01*
X87804732Y-117614590D01*
X87872287Y-117521610D01*
X87965220Y-117339219D01*
X88028477Y-117144534D01*
X88060500Y-116942352D01*
X88060500Y-116737648D01*
X88028477Y-116535466D01*
X88028476Y-116535464D01*
X88007625Y-116471290D01*
X87972866Y-116364315D01*
X87972063Y-116336197D01*
X87968060Y-116308353D01*
X87971079Y-116301741D01*
X87970872Y-116294478D01*
X87985396Y-116270391D01*
X87997085Y-116244797D01*
X88003199Y-116240867D01*
X88006952Y-116234645D01*
X88032195Y-116222232D01*
X88055863Y-116207023D01*
X88066132Y-116205546D01*
X88069652Y-116203816D01*
X88090798Y-116202000D01*
X88253203Y-116202000D01*
X88320242Y-116221685D01*
X88340884Y-116238319D01*
X90160725Y-118058160D01*
X90194210Y-118119483D01*
X90194661Y-118121649D01*
X90225561Y-118276991D01*
X90225564Y-118277001D01*
X90285902Y-118422672D01*
X90285909Y-118422685D01*
X90373510Y-118553788D01*
X90373513Y-118553792D01*
X90485007Y-118665286D01*
X90485011Y-118665289D01*
X90616114Y-118752890D01*
X90616127Y-118752897D01*
X90688777Y-118782989D01*
X90761803Y-118813237D01*
X90916453Y-118843999D01*
X90916456Y-118844000D01*
X90916458Y-118844000D01*
X91074144Y-118844000D01*
X91074145Y-118843999D01*
X91228797Y-118813237D01*
X91374479Y-118752894D01*
X91505589Y-118665289D01*
X91617089Y-118553789D01*
X91704694Y-118422679D01*
X91723814Y-118376518D01*
X91767651Y-118322117D01*
X91833945Y-118300050D01*
X91901644Y-118317327D01*
X91926055Y-118336290D01*
X93334139Y-119744374D01*
X93334149Y-119744385D01*
X93338479Y-119748715D01*
X93338480Y-119748716D01*
X93450284Y-119860520D01*
X93504192Y-119891643D01*
X93537095Y-119910639D01*
X93537097Y-119910641D01*
X93575151Y-119932611D01*
X93587215Y-119939577D01*
X93739943Y-119980501D01*
X93739946Y-119980501D01*
X93905653Y-119980501D01*
X93905669Y-119980500D01*
X94890398Y-119980500D01*
X94957437Y-120000185D01*
X95000883Y-120048205D01*
X95007715Y-120061614D01*
X95128028Y-120227213D01*
X95272786Y-120371971D01*
X95427749Y-120484556D01*
X95438390Y-120492287D01*
X95554607Y-120551503D01*
X95620776Y-120585218D01*
X95620778Y-120585218D01*
X95620781Y-120585220D01*
X95725137Y-120619127D01*
X95815465Y-120648477D01*
X95916557Y-120664488D01*
X96017648Y-120680500D01*
X96017649Y-120680500D01*
X97022351Y-120680500D01*
X97022352Y-120680500D01*
X97224534Y-120648477D01*
X97419219Y-120585220D01*
X97601610Y-120492287D01*
X97694590Y-120424732D01*
X97767213Y-120371971D01*
X97767215Y-120371968D01*
X97767219Y-120371966D01*
X97911966Y-120227219D01*
X97911968Y-120227215D01*
X97911971Y-120227213D01*
X97964732Y-120154590D01*
X98032287Y-120061610D01*
X98125220Y-119879219D01*
X98188477Y-119684534D01*
X98220500Y-119482352D01*
X98220500Y-119277648D01*
X98188477Y-119075466D01*
X98125220Y-118880781D01*
X98125218Y-118880778D01*
X98125218Y-118880776D01*
X98075392Y-118782989D01*
X98032287Y-118698390D01*
X98004451Y-118660077D01*
X97911971Y-118532786D01*
X97767213Y-118388028D01*
X97601614Y-118267715D01*
X97595006Y-118264348D01*
X97508917Y-118220483D01*
X97458123Y-118172511D01*
X97441328Y-118104690D01*
X97463865Y-118038555D01*
X97508917Y-117999516D01*
X97601610Y-117952287D01*
X97690831Y-117887465D01*
X97767213Y-117831971D01*
X97767215Y-117831968D01*
X97767219Y-117831966D01*
X97878144Y-117721041D01*
X97939467Y-117687556D01*
X98009159Y-117692540D01*
X98053506Y-117721041D01*
X98797339Y-118464874D01*
X98797349Y-118464885D01*
X98801679Y-118469215D01*
X98801680Y-118469216D01*
X98913484Y-118581020D01*
X98980939Y-118619964D01*
X99000295Y-118631139D01*
X99000297Y-118631141D01*
X99050413Y-118660076D01*
X99050415Y-118660077D01*
X99203142Y-118701000D01*
X99203143Y-118701000D01*
X102123803Y-118701000D01*
X102190842Y-118720685D01*
X102211484Y-118737319D01*
X108049245Y-124575080D01*
X108082730Y-124636403D01*
X108077746Y-124706095D01*
X108067106Y-124727851D01*
X108041976Y-124768594D01*
X107985187Y-124860663D01*
X107985186Y-124860666D01*
X107958045Y-124942571D01*
X107918271Y-125000016D01*
X107853755Y-125026838D01*
X107784979Y-125014522D01*
X107740021Y-124976452D01*
X107671966Y-124882781D01*
X107527219Y-124738034D01*
X107527213Y-124738028D01*
X107361613Y-124617715D01*
X107361612Y-124617714D01*
X107361610Y-124617713D01*
X107301896Y-124587287D01*
X107179223Y-124524781D01*
X106984534Y-124461522D01*
X106809995Y-124433878D01*
X106782352Y-124429500D01*
X106577648Y-124429500D01*
X106539599Y-124435526D01*
X106375468Y-124461522D01*
X106366717Y-124464365D01*
X106361154Y-124466173D01*
X106291313Y-124468167D01*
X106235157Y-124435922D01*
X105496790Y-123697555D01*
X105496788Y-123697552D01*
X105377917Y-123578681D01*
X105377909Y-123578675D01*
X105258292Y-123509615D01*
X105258289Y-123509614D01*
X105240985Y-123499623D01*
X105215014Y-123492664D01*
X105088257Y-123458699D01*
X104930143Y-123458699D01*
X104922547Y-123458699D01*
X104922531Y-123458700D01*
X95608866Y-123458700D01*
X95541827Y-123439015D01*
X95539975Y-123437802D01*
X95408285Y-123349809D01*
X95408272Y-123349802D01*
X95262601Y-123289464D01*
X95262589Y-123289461D01*
X95107945Y-123258700D01*
X95107942Y-123258700D01*
X94950258Y-123258700D01*
X94950255Y-123258700D01*
X94795610Y-123289461D01*
X94795598Y-123289464D01*
X94649927Y-123349802D01*
X94649914Y-123349809D01*
X94518811Y-123437410D01*
X94518807Y-123437413D01*
X94407313Y-123548907D01*
X94407310Y-123548911D01*
X94319709Y-123680014D01*
X94319702Y-123680027D01*
X94259364Y-123825698D01*
X94259361Y-123825710D01*
X94228600Y-123980353D01*
X94228600Y-124138046D01*
X94259361Y-124292689D01*
X94259364Y-124292701D01*
X94319702Y-124438372D01*
X94319709Y-124438385D01*
X94385341Y-124536609D01*
X94406219Y-124603286D01*
X94387735Y-124670667D01*
X94335756Y-124717357D01*
X94282239Y-124729500D01*
X93580762Y-124729500D01*
X93513723Y-124709815D01*
X93507877Y-124705818D01*
X93386613Y-124617715D01*
X93386612Y-124617714D01*
X93386610Y-124617713D01*
X93326896Y-124587287D01*
X93204223Y-124524781D01*
X93009534Y-124461522D01*
X92834995Y-124433878D01*
X92807352Y-124429500D01*
X92602648Y-124429500D01*
X92578329Y-124433351D01*
X92400465Y-124461522D01*
X92205776Y-124524781D01*
X92023386Y-124617715D01*
X91902123Y-124705818D01*
X91836317Y-124729298D01*
X91829238Y-124729500D01*
X88430762Y-124729500D01*
X88363723Y-124709815D01*
X88357877Y-124705818D01*
X88236613Y-124617715D01*
X88236612Y-124617714D01*
X88236610Y-124617713D01*
X88176896Y-124587287D01*
X88054223Y-124524781D01*
X87859534Y-124461522D01*
X87684995Y-124433878D01*
X87657352Y-124429500D01*
X87452648Y-124429500D01*
X87428329Y-124433351D01*
X87250465Y-124461522D01*
X87055776Y-124524781D01*
X86873386Y-124617715D01*
X86752123Y-124705818D01*
X86686317Y-124729298D01*
X86679238Y-124729500D01*
X71093961Y-124729500D01*
X71026922Y-124709815D01*
X70981167Y-124657011D01*
X70971223Y-124587853D01*
X70990859Y-124536609D01*
X71056490Y-124438385D01*
X71056490Y-124438384D01*
X71056494Y-124438379D01*
X71116837Y-124292697D01*
X71147600Y-124138042D01*
X71147600Y-123980358D01*
X71147600Y-123980355D01*
X71147599Y-123980353D01*
X71116838Y-123825710D01*
X71116837Y-123825703D01*
X71060828Y-123690484D01*
X71056497Y-123680027D01*
X71056490Y-123680014D01*
X70968889Y-123548911D01*
X70968886Y-123548907D01*
X70857392Y-123437413D01*
X70857388Y-123437410D01*
X70726285Y-123349809D01*
X70726272Y-123349802D01*
X70580601Y-123289464D01*
X70580589Y-123289461D01*
X70425945Y-123258700D01*
X70425942Y-123258700D01*
X70268258Y-123258700D01*
X70268255Y-123258700D01*
X70113610Y-123289461D01*
X70113598Y-123289464D01*
X69967927Y-123349802D01*
X69967914Y-123349809D01*
X69836225Y-123437802D01*
X69769547Y-123458680D01*
X69767334Y-123458700D01*
X58262397Y-123458700D01*
X58195358Y-123439015D01*
X58174716Y-123422381D01*
X57395516Y-122643181D01*
X57362031Y-122581858D01*
X57367015Y-122512166D01*
X57408887Y-122456233D01*
X57474351Y-122431816D01*
X57483197Y-122431500D01*
X100279539Y-122431500D01*
X100279543Y-122431501D01*
X100437657Y-122431501D01*
X100487014Y-122418274D01*
X100499520Y-122417519D01*
X100516978Y-122421519D01*
X100539095Y-122421519D01*
X100576343Y-122431500D01*
X100576344Y-122431500D01*
X100734455Y-122431500D01*
X100734457Y-122431500D01*
X100887184Y-122390577D01*
X101024116Y-122311520D01*
X101135920Y-122199716D01*
X101146821Y-122180834D01*
X101166527Y-122155150D01*
X101277189Y-122044489D01*
X101364794Y-121913379D01*
X101425137Y-121767697D01*
X101455900Y-121613042D01*
X101455900Y-121455358D01*
X101455900Y-121455355D01*
X101455899Y-121455353D01*
X101425138Y-121300710D01*
X101425137Y-121300703D01*
X101396058Y-121230500D01*
X101364797Y-121155027D01*
X101364790Y-121155014D01*
X101277189Y-121023911D01*
X101277186Y-121023907D01*
X101165692Y-120912413D01*
X101165688Y-120912410D01*
X101034585Y-120824809D01*
X101034572Y-120824802D01*
X100888901Y-120764464D01*
X100888889Y-120764461D01*
X100734245Y-120733700D01*
X100734242Y-120733700D01*
X100576558Y-120733700D01*
X100576555Y-120733700D01*
X100421910Y-120764461D01*
X100421898Y-120764464D01*
X100276227Y-120824802D01*
X100276214Y-120824809D01*
X100145111Y-120912410D01*
X100145107Y-120912413D01*
X100033613Y-121023907D01*
X100033610Y-121023911D01*
X99946007Y-121155017D01*
X99943138Y-121160387D01*
X99941826Y-121159686D01*
X99902616Y-121208351D01*
X99836323Y-121230421D01*
X99831888Y-121230500D01*
X56887698Y-121230500D01*
X56820659Y-121210815D01*
X56800017Y-121194181D01*
X56113590Y-120507755D01*
X56113588Y-120507752D01*
X55994717Y-120388881D01*
X55994716Y-120388880D01*
X55907904Y-120338760D01*
X55907904Y-120338759D01*
X55907900Y-120338758D01*
X55857785Y-120309823D01*
X55705057Y-120268899D01*
X55705054Y-120268899D01*
X55640596Y-120268899D01*
X55573557Y-120249214D01*
X55552915Y-120232580D01*
X54912319Y-119591984D01*
X54878834Y-119530661D01*
X54876000Y-119504303D01*
X54876000Y-119235597D01*
X54895685Y-119168558D01*
X54912319Y-119147916D01*
X55313416Y-118746819D01*
X55374739Y-118713334D01*
X55401097Y-118710500D01*
X64319734Y-118710500D01*
X64386773Y-118730185D01*
X64432528Y-118782989D01*
X64442472Y-118852147D01*
X64435919Y-118876029D01*
X64436286Y-118876148D01*
X64434781Y-118880777D01*
X64434780Y-118880781D01*
X64415040Y-118941534D01*
X64371522Y-119075465D01*
X64339500Y-119277648D01*
X64339500Y-119482351D01*
X64371522Y-119684534D01*
X64434781Y-119879223D01*
X64527715Y-120061613D01*
X64648028Y-120227213D01*
X64792786Y-120371971D01*
X64947749Y-120484556D01*
X64958390Y-120492287D01*
X65074607Y-120551503D01*
X65140776Y-120585218D01*
X65140778Y-120585218D01*
X65140781Y-120585220D01*
X65245137Y-120619127D01*
X65335465Y-120648477D01*
X65436557Y-120664488D01*
X65537648Y-120680500D01*
X65537649Y-120680500D01*
X66542351Y-120680500D01*
X66542352Y-120680500D01*
X66744534Y-120648477D01*
X66939219Y-120585220D01*
X67121610Y-120492287D01*
X67214590Y-120424732D01*
X67287213Y-120371971D01*
X67287215Y-120371968D01*
X67287219Y-120371966D01*
X67431966Y-120227219D01*
X67431968Y-120227215D01*
X67431971Y-120227213D01*
X67484732Y-120154590D01*
X67552287Y-120061610D01*
X67645220Y-119879219D01*
X67708477Y-119684534D01*
X67740500Y-119482352D01*
X67740500Y-119277648D01*
X79579500Y-119277648D01*
X79579500Y-119482351D01*
X79611522Y-119684534D01*
X79674781Y-119879223D01*
X79767715Y-120061613D01*
X79888028Y-120227213D01*
X80032786Y-120371971D01*
X80187749Y-120484556D01*
X80198390Y-120492287D01*
X80314607Y-120551503D01*
X80380776Y-120585218D01*
X80380778Y-120585218D01*
X80380781Y-120585220D01*
X80485137Y-120619127D01*
X80575465Y-120648477D01*
X80676557Y-120664488D01*
X80777648Y-120680500D01*
X80777649Y-120680500D01*
X81782351Y-120680500D01*
X81782352Y-120680500D01*
X81984534Y-120648477D01*
X82179219Y-120585220D01*
X82361610Y-120492287D01*
X82454590Y-120424732D01*
X82527213Y-120371971D01*
X82527215Y-120371968D01*
X82527219Y-120371966D01*
X82671966Y-120227219D01*
X82671968Y-120227215D01*
X82671971Y-120227213D01*
X82724732Y-120154590D01*
X82792287Y-120061610D01*
X82885220Y-119879219D01*
X82948477Y-119684534D01*
X82980500Y-119482352D01*
X82980500Y-119277648D01*
X82948477Y-119075466D01*
X82885220Y-118880781D01*
X82885218Y-118880778D01*
X82885218Y-118880776D01*
X82835392Y-118782989D01*
X82792287Y-118698390D01*
X82764451Y-118660077D01*
X82671971Y-118532786D01*
X82527213Y-118388028D01*
X82361613Y-118267715D01*
X82361612Y-118267714D01*
X82361610Y-118267713D01*
X82304653Y-118238691D01*
X82179223Y-118174781D01*
X81984534Y-118111522D01*
X81809995Y-118083878D01*
X81782352Y-118079500D01*
X80777648Y-118079500D01*
X80753329Y-118083351D01*
X80575465Y-118111522D01*
X80380776Y-118174781D01*
X80198386Y-118267715D01*
X80032786Y-118388028D01*
X79888028Y-118532786D01*
X79767715Y-118698386D01*
X79674781Y-118880776D01*
X79611522Y-119075465D01*
X79579500Y-119277648D01*
X67740500Y-119277648D01*
X67708477Y-119075466D01*
X67645220Y-118880781D01*
X67645218Y-118880777D01*
X67643714Y-118876148D01*
X67645035Y-118875718D01*
X67638236Y-118812486D01*
X67669509Y-118750006D01*
X67729597Y-118714352D01*
X67760266Y-118710500D01*
X68261631Y-118710500D01*
X68261647Y-118710501D01*
X68269243Y-118710501D01*
X68427354Y-118710501D01*
X68427357Y-118710501D01*
X68580085Y-118669577D01*
X68666015Y-118619965D01*
X68717016Y-118590520D01*
X68828820Y-118478716D01*
X68828820Y-118478714D01*
X68839024Y-118468511D01*
X68839028Y-118468506D01*
X69586495Y-117721038D01*
X69647816Y-117687555D01*
X69717508Y-117692539D01*
X69761855Y-117721040D01*
X69872786Y-117831971D01*
X70027749Y-117944556D01*
X70038390Y-117952287D01*
X70131080Y-117999515D01*
X70220776Y-118045218D01*
X70220778Y-118045218D01*
X70220781Y-118045220D01*
X70325137Y-118079127D01*
X70415465Y-118108477D01*
X70434697Y-118111523D01*
X70617648Y-118140500D01*
X70617649Y-118140500D01*
X71622351Y-118140500D01*
X71622352Y-118140500D01*
X71824534Y-118108477D01*
X72019219Y-118045220D01*
X72201610Y-117952287D01*
X72294590Y-117884732D01*
X72367213Y-117831971D01*
X72367215Y-117831968D01*
X72367219Y-117831966D01*
X72511966Y-117687219D01*
X72511968Y-117687215D01*
X72511971Y-117687213D01*
X72564732Y-117614590D01*
X72632287Y-117521610D01*
X72725220Y-117339219D01*
X72788477Y-117144534D01*
X72820500Y-116942352D01*
X72820500Y-116737648D01*
X72788477Y-116535466D01*
X72788476Y-116535464D01*
X72747642Y-116409789D01*
X72725220Y-116340781D01*
X72725218Y-116340778D01*
X72725218Y-116340776D01*
X72689354Y-116270391D01*
X72632287Y-116158390D01*
X72613215Y-116132139D01*
X72511971Y-115992786D01*
X72367213Y-115848028D01*
X72201614Y-115727715D01*
X72195006Y-115724348D01*
X72108917Y-115680483D01*
X72058123Y-115632511D01*
X72041328Y-115564690D01*
X72063865Y-115498555D01*
X72108917Y-115459516D01*
X72201610Y-115412287D01*
X72252718Y-115375155D01*
X72367213Y-115291971D01*
X72367215Y-115291968D01*
X72367219Y-115291966D01*
X72478144Y-115181041D01*
X72539467Y-115147556D01*
X72609159Y-115152540D01*
G37*
%TD.AperFunction*%
%TA.AperFunction,Conductor*%
G36*
X78141442Y-108436385D02*
G01*
X78162084Y-108453019D01*
X79293439Y-109584374D01*
X79293449Y-109584385D01*
X79297779Y-109588715D01*
X79297780Y-109588716D01*
X79409584Y-109700520D01*
X79496395Y-109750639D01*
X79546515Y-109779577D01*
X79682494Y-109816013D01*
X79687488Y-109817822D01*
X79711536Y-109835471D01*
X79737010Y-109850999D01*
X79741450Y-109857426D01*
X79743816Y-109859163D01*
X79745274Y-109862962D01*
X79755740Y-109878113D01*
X79767713Y-109901611D01*
X79888028Y-110067213D01*
X80032786Y-110211971D01*
X80187749Y-110324556D01*
X80198390Y-110332287D01*
X80289840Y-110378883D01*
X80291080Y-110379515D01*
X80341876Y-110427490D01*
X80358671Y-110495311D01*
X80336134Y-110561446D01*
X80291080Y-110600485D01*
X80198386Y-110647715D01*
X80032786Y-110768028D01*
X79888028Y-110912786D01*
X79767715Y-111078386D01*
X79674781Y-111260776D01*
X79611522Y-111455465D01*
X79579500Y-111657648D01*
X79579500Y-111862351D01*
X79611522Y-112064534D01*
X79674781Y-112259223D01*
X79734645Y-112376710D01*
X79745381Y-112397782D01*
X79767715Y-112441613D01*
X79888028Y-112607213D01*
X80032786Y-112751971D01*
X80187749Y-112864556D01*
X80198390Y-112872287D01*
X80291080Y-112919515D01*
X80380776Y-112965218D01*
X80380778Y-112965218D01*
X80380781Y-112965220D01*
X80485137Y-112999127D01*
X80575465Y-113028477D01*
X80594697Y-113031523D01*
X80777648Y-113060500D01*
X80777649Y-113060500D01*
X81782351Y-113060500D01*
X81782352Y-113060500D01*
X81984534Y-113028477D01*
X82179219Y-112965220D01*
X82361610Y-112872287D01*
X82470531Y-112793152D01*
X82527213Y-112751971D01*
X82527215Y-112751968D01*
X82527219Y-112751966D01*
X82638144Y-112641041D01*
X82699467Y-112607556D01*
X82769159Y-112612540D01*
X82813506Y-112641041D01*
X83691639Y-113519174D01*
X83691649Y-113519185D01*
X83695979Y-113523515D01*
X83695980Y-113523516D01*
X83807784Y-113635320D01*
X83867864Y-113670006D01*
X83894595Y-113685439D01*
X83894597Y-113685441D01*
X83921988Y-113701255D01*
X83944715Y-113714377D01*
X84097443Y-113755300D01*
X84598886Y-113755300D01*
X84665925Y-113774985D01*
X84711680Y-113827789D01*
X84721624Y-113896947D01*
X84716817Y-113917618D01*
X84691523Y-113995461D01*
X84691523Y-113995464D01*
X84659500Y-114197648D01*
X84659500Y-114402351D01*
X84691522Y-114604534D01*
X84754782Y-114799225D01*
X84765727Y-114820704D01*
X84778624Y-114889373D01*
X84752349Y-114954113D01*
X84695243Y-114994371D01*
X84655243Y-115001000D01*
X74223297Y-115001000D01*
X74156258Y-114981315D01*
X74135616Y-114964681D01*
X73109290Y-113938355D01*
X73109288Y-113938352D01*
X72990417Y-113819481D01*
X72990416Y-113819480D01*
X72908432Y-113772147D01*
X72890088Y-113761556D01*
X72890087Y-113761555D01*
X72879252Y-113755300D01*
X72853485Y-113740423D01*
X72719015Y-113704391D01*
X72715444Y-113703198D01*
X72689732Y-113685300D01*
X72662989Y-113668999D01*
X72659909Y-113664541D01*
X72658099Y-113663281D01*
X72656703Y-113659899D01*
X72644258Y-113641884D01*
X72632286Y-113618388D01*
X72511971Y-113452786D01*
X72367213Y-113308028D01*
X72201614Y-113187715D01*
X72195006Y-113184348D01*
X72108917Y-113140483D01*
X72058123Y-113092511D01*
X72041328Y-113024690D01*
X72063865Y-112958555D01*
X72108917Y-112919516D01*
X72201610Y-112872287D01*
X72310531Y-112793152D01*
X72367213Y-112751971D01*
X72367215Y-112751968D01*
X72367219Y-112751966D01*
X72511966Y-112607219D01*
X72511968Y-112607215D01*
X72511971Y-112607213D01*
X72584478Y-112507414D01*
X72632287Y-112441610D01*
X72725220Y-112259219D01*
X72788477Y-112064534D01*
X72820500Y-111862352D01*
X72820500Y-111657648D01*
X72788477Y-111455466D01*
X72771365Y-111402802D01*
X72731296Y-111279481D01*
X72725220Y-111260781D01*
X72725218Y-111260778D01*
X72725218Y-111260776D01*
X72690422Y-111192486D01*
X72632287Y-111078390D01*
X72613458Y-111052474D01*
X72511971Y-110912786D01*
X72367213Y-110768028D01*
X72201614Y-110647715D01*
X72195006Y-110644348D01*
X72108917Y-110600483D01*
X72058123Y-110552511D01*
X72041328Y-110484690D01*
X72063865Y-110418555D01*
X72108917Y-110379516D01*
X72201610Y-110332287D01*
X72222770Y-110316913D01*
X72367213Y-110211971D01*
X72367215Y-110211968D01*
X72367219Y-110211966D01*
X72511966Y-110067219D01*
X72511968Y-110067215D01*
X72511971Y-110067213D01*
X72581976Y-109970858D01*
X72632287Y-109901610D01*
X72725220Y-109719219D01*
X72788477Y-109524534D01*
X72820500Y-109322352D01*
X72820500Y-109117648D01*
X72788477Y-108915466D01*
X72784031Y-108901784D01*
X72731296Y-108739481D01*
X72725220Y-108720781D01*
X72725218Y-108720778D01*
X72725218Y-108720776D01*
X72662148Y-108596995D01*
X72649252Y-108528326D01*
X72675528Y-108463585D01*
X72732635Y-108423328D01*
X72772633Y-108416700D01*
X78074403Y-108416700D01*
X78141442Y-108436385D01*
G37*
%TD.AperFunction*%
%TD*%
M02*
