M48
; DRILL file {KiCad 9.0.3} date 2025-08-25T15:01:50+0100
; FORMAT={-:-/ absolute / metric / decimal}
; #@! TF.CreationDate,2025-08-25T15:01:50+01:00
; #@! TF.GenerationSoftware,Kicad,Pcbnew,9.0.3
; #@! TF.FileFunction,MixedPlating,1,2
FMAT,2
METRIC
; #@! TA.AperFunction,Plated,PTH,ViaDrill
T1C0.300
; #@! TA.AperFunction,Plated,PTH,ViaDrill
T2C0.400
; #@! TA.AperFunction,Plated,PTH,ComponentDrill
T3C0.800
; #@! TA.AperFunction,Plated,PTH,ComponentDrill
T4C1.000
; #@! TA.AperFunction,Plated,PTH,ComponentDrill
T5C1.245
; #@! TA.AperFunction,NonPlated,NPTH,ComponentDrill
T6C1.194
%
G90
G05
T1
X53.34Y-49.53
X53.34Y-50.8
X53.34Y-52.07
X53.34Y-53.34
X53.34Y-54.61
X53.34Y-55.88
X53.34Y-57.15
X53.34Y-58.42
X53.34Y-59.69
X53.34Y-60.96
X53.34Y-62.23
X53.34Y-63.5
X53.34Y-64.77
X53.34Y-66.04
X53.34Y-67.31
X53.34Y-68.58
X53.34Y-69.85
X53.34Y-71.12
X53.34Y-72.39
X53.34Y-73.66
X53.34Y-74.93
X53.34Y-76.2
X53.34Y-77.47
X53.34Y-78.74
X53.34Y-80.01
X53.34Y-81.28
X53.34Y-86.36
X53.34Y-87.63
X53.34Y-88.9
X53.34Y-90.17
X53.34Y-91.44
X53.34Y-92.71
X53.34Y-93.98
X53.34Y-95.25
X53.34Y-96.52
X53.34Y-97.79
X53.34Y-99.06
X53.34Y-100.33
X53.34Y-101.6
X53.34Y-102.87
X53.34Y-104.14
X53.34Y-105.41
X53.34Y-106.68
X53.34Y-107.95
X53.34Y-109.22
X53.34Y-110.49
X53.34Y-111.76
X53.34Y-113.03
X53.34Y-114.3
X53.34Y-115.57
X53.34Y-116.84
X53.34Y-118.11
X53.34Y-119.38
X53.34Y-120.65
X53.34Y-121.92
X53.34Y-123.19
X53.34Y-124.46
X53.34Y-125.73
X53.34Y-127.0
X53.34Y-128.27
X53.34Y-129.54
X53.34Y-130.81
X53.34Y-132.08
X53.34Y-133.35
X53.34Y-134.62
X53.34Y-135.89
X53.34Y-137.16
X53.34Y-138.43
X53.34Y-139.7
X53.34Y-140.97
X53.34Y-142.24
X53.34Y-143.51
X53.34Y-144.78
X53.34Y-146.05
X53.34Y-147.32
X54.61Y-49.53
X54.61Y-50.8
X54.61Y-52.07
X54.61Y-53.34
X54.61Y-54.61
X54.61Y-55.88
X54.61Y-57.15
X54.61Y-58.42
X54.61Y-59.69
X54.61Y-60.96
X54.61Y-62.23
X54.61Y-63.5
X54.61Y-64.77
X54.61Y-66.04
X54.61Y-67.31
X54.61Y-68.58
X54.61Y-69.85
X54.61Y-71.12
X54.61Y-72.39
X55.88Y-49.53
X55.88Y-50.8
X55.88Y-52.07
X55.88Y-53.34
X55.88Y-54.61
X55.88Y-55.88
X55.88Y-57.15
X55.88Y-58.42
X55.88Y-59.69
X55.88Y-60.96
X55.88Y-62.23
X55.88Y-63.5
X55.88Y-64.77
X55.88Y-66.04
X55.88Y-67.31
X55.88Y-68.58
X55.88Y-69.85
X55.88Y-71.12
X55.88Y-72.39
X57.15Y-49.53
X57.15Y-50.8
X57.15Y-52.07
X57.15Y-53.34
X57.15Y-54.61
X57.15Y-55.88
X57.15Y-57.15
X57.15Y-58.42
X57.15Y-59.69
X57.15Y-60.96
X57.15Y-62.23
X57.15Y-63.5
X57.15Y-64.77
X57.15Y-66.04
X57.15Y-67.31
X57.15Y-68.58
X57.15Y-69.85
X57.15Y-71.12
X57.15Y-72.39
X57.15Y-81.28
X57.15Y-86.36
X58.42Y-49.53
X58.42Y-50.8
X58.42Y-52.07
X58.42Y-53.34
X58.42Y-54.61
X58.42Y-55.88
X58.42Y-57.15
X58.42Y-58.42
X58.42Y-59.69
X58.42Y-60.96
X58.42Y-62.23
X58.42Y-63.5
X58.42Y-64.77
X58.42Y-66.04
X58.42Y-67.31
X58.42Y-68.58
X58.42Y-69.85
X58.42Y-71.12
X58.42Y-72.39
X58.42Y-81.28
X58.42Y-86.36
X59.69Y-49.53
X59.69Y-50.8
X59.69Y-52.07
X59.69Y-53.34
X59.69Y-54.61
X59.69Y-55.88
X59.69Y-57.15
X59.69Y-58.42
X59.69Y-59.69
X59.69Y-60.96
X59.69Y-62.23
X59.69Y-63.5
X59.69Y-64.77
X59.69Y-66.04
X59.69Y-67.31
X59.69Y-68.58
X59.69Y-69.85
X59.69Y-71.12
X59.69Y-72.39
X59.69Y-81.28
X59.69Y-86.36
X60.96Y-49.53
X60.96Y-50.8
X60.96Y-52.07
X60.96Y-53.34
X60.96Y-54.61
X60.96Y-55.88
X60.96Y-57.15
X60.96Y-58.42
X60.96Y-59.69
X60.96Y-60.96
X60.96Y-62.23
X60.96Y-63.5
X60.96Y-64.77
X60.96Y-66.04
X60.96Y-67.31
X60.96Y-68.58
X60.96Y-69.85
X60.96Y-71.12
X60.96Y-72.39
X60.96Y-81.28
X60.96Y-86.36
X62.23Y-49.53
X62.23Y-81.28
X62.23Y-86.36
X63.5Y-49.53
X63.5Y-81.28
X63.5Y-86.36
X64.77Y-49.53
X64.77Y-81.28
X64.77Y-86.36
X65.46Y-116.765
X66.04Y-49.53
X66.04Y-81.28
X66.04Y-86.36
X67.31Y-49.53
X67.31Y-81.28
X67.31Y-86.36
X67.692Y-140.46
X68.082Y-94.299
X68.569Y-93.16
X68.58Y-49.53
X68.58Y-81.28
X68.58Y-86.36
X69.441Y-107.95
X69.85Y-49.53
X69.85Y-81.28
X69.85Y-86.36
X70.11Y-137.078
X70.786Y-96.329
X71.12Y-49.53
X71.12Y-81.28
X71.12Y-86.36
X72.39Y-49.53
X72.39Y-81.28
X72.39Y-86.36
X73.66Y-49.53
X73.66Y-81.28
X73.66Y-86.36
X73.972Y-134.946
X74.845Y-115.447
X74.93Y-49.53
X74.93Y-81.28
X74.93Y-86.36
X76.2Y-49.53
X76.2Y-81.28
X76.2Y-86.36
X77.47Y-49.53
X77.47Y-81.28
X77.47Y-86.36
X78.74Y-49.53
X78.74Y-81.28
X78.74Y-86.36
X79.605Y-140.443
X80.01Y-49.53
X80.01Y-81.28
X80.01Y-86.36
X80.51Y-93.756
X81.28Y-49.53
X81.28Y-81.28
X81.28Y-86.36
X82.55Y-49.53
X82.55Y-81.28
X82.55Y-86.36
X83.82Y-49.53
X83.82Y-81.28
X83.82Y-86.36
X85.09Y-49.53
X85.09Y-81.28
X85.09Y-86.36
X85.487Y-139.816
X86.149Y-137.287
X86.36Y-49.53
X86.36Y-81.28
X86.36Y-86.36
X87.63Y-49.53
X87.63Y-81.28
X87.63Y-86.36
X88.322Y-65.193
X88.9Y-49.53
X88.9Y-81.28
X88.9Y-86.36
X90.17Y-49.53
X90.17Y-81.28
X90.17Y-86.36
X90.471Y-140.136
X91.44Y-49.53
X91.44Y-81.28
X91.44Y-86.36
X92.71Y-49.53
X92.71Y-81.28
X92.71Y-86.36
X93.98Y-49.53
X93.98Y-81.28
X93.98Y-86.36
X94.103Y-128.454
X94.694Y-115.602
X95.25Y-49.53
X95.25Y-81.28
X95.25Y-86.36
X95.883Y-124.647
X96.469Y-122.5
X96.52Y-49.53
X96.52Y-81.28
X96.52Y-86.36
X96.845Y-94.685
X97.79Y-49.53
X97.79Y-81.28
X97.79Y-86.36
X99.06Y-49.53
X99.06Y-81.28
X99.06Y-86.36
X100.33Y-49.53
X100.33Y-81.28
X100.33Y-86.36
X102.87Y-49.53
X102.87Y-86.36
X103.922Y-134.946
X104.14Y-49.53
X104.14Y-86.36
X105.41Y-49.53
X105.41Y-86.36
X106.68Y-49.53
X106.68Y-86.36
X106.787Y-90.184
X107.95Y-49.53
X109.22Y-49.53
X109.22Y-86.36
X110.49Y-49.53
X110.49Y-81.28
X110.49Y-86.36
X111.76Y-81.28
X111.76Y-86.36
X113.03Y-49.53
X113.03Y-81.28
X113.03Y-86.36
X114.3Y-49.53
X114.3Y-50.8
X114.3Y-52.07
X114.3Y-53.34
X114.3Y-54.61
X114.3Y-55.88
X114.3Y-60.96
X114.3Y-62.23
X114.3Y-63.5
X114.3Y-64.77
X114.3Y-66.04
X114.3Y-67.31
X114.3Y-68.58
X114.3Y-69.85
X114.3Y-71.12
X114.3Y-72.39
X114.3Y-73.66
X114.3Y-74.93
X114.3Y-76.2
X114.3Y-77.47
X114.3Y-78.74
X114.3Y-80.01
X114.3Y-81.28
X114.3Y-86.36
X114.3Y-87.63
X114.3Y-88.9
X114.3Y-90.17
X114.3Y-91.44
X114.3Y-92.71
X114.3Y-93.98
X114.3Y-95.25
X114.3Y-96.52
X114.3Y-97.79
X114.3Y-99.06
X114.3Y-100.33
X114.3Y-101.6
X114.3Y-102.87
X114.3Y-104.14
X114.3Y-105.41
X114.3Y-106.68
X114.3Y-107.95
X114.3Y-109.22
X114.3Y-110.49
X114.3Y-111.76
X114.3Y-113.03
X114.3Y-114.3
X114.3Y-115.57
X114.3Y-116.84
X114.3Y-118.11
X114.3Y-119.38
X114.3Y-120.65
X114.3Y-121.92
X114.3Y-123.19
X114.3Y-124.46
X114.3Y-125.73
X114.3Y-127.0
X114.3Y-128.27
X114.3Y-129.54
X114.3Y-130.81
X114.3Y-132.08
X114.3Y-133.35
X114.3Y-134.62
X114.3Y-135.89
X114.3Y-137.16
X114.3Y-138.43
X114.3Y-139.7
X114.3Y-140.97
X114.3Y-142.24
X114.3Y-143.51
X114.3Y-144.78
X114.3Y-146.05
X114.3Y-147.32
T2
X73.915Y-102.587
T3
X55.245Y-80.01
X55.245Y-87.63
X55.88Y-104.14
X55.88Y-106.68
X55.88Y-109.22
X55.88Y-111.76
X55.88Y-114.3
X55.88Y-116.84
X55.88Y-119.38
X58.44Y-99.695
X59.68Y-76.2
X59.68Y-91.44
X60.94Y-99.695
X62.22Y-76.2
X62.22Y-91.44
X63.5Y-104.14
X63.5Y-106.68
X63.5Y-109.22
X63.5Y-111.76
X63.5Y-114.3
X63.5Y-116.84
X63.5Y-119.38
X64.035Y-55.88
X64.76Y-76.2
X64.76Y-91.44
X66.035Y-55.88
X66.675Y-63.5
X66.675Y-71.12
X67.3Y-76.2
X67.3Y-91.44
X69.84Y-76.2
X69.84Y-91.44
X71.115Y-55.88
X71.755Y-63.5
X71.755Y-71.12
X71.755Y-104.14
X71.755Y-106.68
X71.755Y-109.22
X71.755Y-111.76
X71.755Y-114.3
X71.755Y-116.84
X71.755Y-119.38
X72.38Y-76.2
X72.38Y-91.44
X73.115Y-55.88
X74.315Y-99.695
X74.92Y-76.2
X74.92Y-91.44
X76.815Y-99.695
X76.835Y-63.5
X76.835Y-71.12
X77.46Y-76.2
X77.46Y-91.44
X79.375Y-104.14
X79.375Y-106.68
X79.375Y-109.22
X79.375Y-111.76
X79.375Y-114.3
X79.375Y-116.84
X79.375Y-119.38
X80.0Y-76.2
X80.0Y-91.44
X81.915Y-63.5
X81.915Y-71.12
X82.54Y-76.2
X82.54Y-91.44
X85.08Y-76.2
X85.08Y-91.44
X86.995Y-63.5
X86.995Y-71.12
X87.555Y-125.73
X87.555Y-133.35
X87.62Y-76.2
X87.62Y-91.44
X88.265Y-104.14
X88.265Y-106.68
X88.265Y-109.22
X88.265Y-111.76
X88.265Y-114.3
X88.265Y-116.84
X88.265Y-119.38
X90.16Y-76.2
X90.16Y-91.44
X90.825Y-99.695
X92.075Y-63.5
X92.075Y-71.12
X92.7Y-76.2
X92.7Y-91.44
X92.705Y-125.73
X92.705Y-133.35
X93.325Y-99.695
X95.24Y-76.2
X95.24Y-91.44
X95.885Y-104.14
X95.885Y-106.68
X95.885Y-109.22
X95.885Y-111.76
X95.885Y-114.3
X95.885Y-116.84
X95.885Y-119.38
X97.155Y-63.5
X97.155Y-71.12
X97.78Y-76.2
X97.78Y-91.44
X97.785Y-125.73
X97.785Y-133.35
X100.32Y-76.2
X100.32Y-91.44
X102.235Y-63.5
X102.235Y-71.12
X102.86Y-76.2
X102.86Y-91.44
X104.14Y-125.73
X104.14Y-133.35
X104.16Y-104.14
X104.16Y-106.68
X104.16Y-109.22
X104.16Y-111.76
X104.16Y-114.3
X104.16Y-116.84
X104.16Y-119.38
X105.4Y-76.2
X105.4Y-91.44
X106.065Y-65.405
X106.065Y-69.215
X106.68Y-125.73
X106.68Y-133.35
X106.72Y-99.695
X107.94Y-76.2
X107.94Y-91.44
X108.565Y-65.405
X108.565Y-69.215
X109.22Y-99.695
X109.22Y-125.73
X109.22Y-133.35
X111.125Y-88.9
X111.125Y-91.4
X111.78Y-104.14
X111.78Y-106.68
X111.78Y-109.22
X111.78Y-111.76
X111.78Y-114.3
X111.78Y-116.84
X111.78Y-119.38
T4
X86.355Y-54.61
X88.895Y-54.61
X91.435Y-54.61
T5
X101.845Y-57.84
X104.345Y-57.84
X106.845Y-52.84
X109.345Y-57.84
X111.845Y-57.84
T6
X101.845Y-50.34
X101.845Y-52.84
X106.845Y-57.84
X111.845Y-50.34
X111.845Y-52.84
M30
