%TF.GenerationSoftware,KiCad,Pcbnew,9.0.4*%
%TF.CreationDate,2025-09-13T21:55:09+01:00*%
%TF.ProjectId,JONZON-X-81,4a4f4e5a-4f4e-42d5-982d-38312e6b6963,1.4*%
%TF.SameCoordinates,Original*%
%TF.FileFunction,Copper,L2,Bot*%
%TF.FilePolarity,Positive*%
%FSLAX46Y46*%
G04 Gerber Fmt 4.6, Leading zero omitted, Abs format (unit mm)*
G04 Created by KiCad (PCBNEW 9.0.4) date 2025-09-13 21:55:09*
%MOMM*%
%LPD*%
G01*
G04 APERTURE LIST*
G04 Aperture macros list*
%AMRoundRect*
0 Rectangle with rounded corners*
0 $1 Rounding radius*
0 $2 $3 $4 $5 $6 $7 $8 $9 X,Y pos of 4 corners*
0 Add a 4 corners polygon primitive as box body*
4,1,4,$2,$3,$4,$5,$6,$7,$8,$9,$2,$3,0*
0 Add four circle primitives for the rounded corners*
1,1,$1+$1,$2,$3*
1,1,$1+$1,$4,$5*
1,1,$1+$1,$6,$7*
1,1,$1+$1,$8,$9*
0 Add four rect primitives between the rounded corners*
20,1,$1+$1,$2,$3,$4,$5,0*
20,1,$1+$1,$4,$5,$6,$7,0*
20,1,$1+$1,$6,$7,$8,$9,0*
20,1,$1+$1,$8,$9,$2,$3,0*%
G04 Aperture macros list end*
%TA.AperFunction,ComponentPad*%
%ADD10RoundRect,0.250000X-0.550000X0.950000X-0.550000X-0.950000X0.550000X-0.950000X0.550000X0.950000X0*%
%TD*%
%TA.AperFunction,ComponentPad*%
%ADD11O,1.600000X2.400000*%
%TD*%
%TA.AperFunction,ComponentPad*%
%ADD12C,1.600000*%
%TD*%
%TA.AperFunction,ConnectorPad*%
%ADD13R,1.778000X7.620000*%
%TD*%
%TA.AperFunction,ComponentPad*%
%ADD14RoundRect,0.250000X-0.550000X0.550000X-0.550000X-0.550000X0.550000X-0.550000X0.550000X0.550000X0*%
%TD*%
%TA.AperFunction,ComponentPad*%
%ADD15R,1.700000X1.700000*%
%TD*%
%TA.AperFunction,ComponentPad*%
%ADD16C,1.700000*%
%TD*%
%TA.AperFunction,ComponentPad*%
%ADD17RoundRect,0.250000X-0.550000X-0.550000X0.550000X-0.550000X0.550000X0.550000X-0.550000X0.550000X0*%
%TD*%
%TA.AperFunction,ComponentPad*%
%ADD18C,1.752600*%
%TD*%
%TA.AperFunction,ComponentPad*%
%ADD19RoundRect,0.250000X-0.950000X-0.550000X0.950000X-0.550000X0.950000X0.550000X-0.950000X0.550000X0*%
%TD*%
%TA.AperFunction,ComponentPad*%
%ADD20O,2.400000X1.600000*%
%TD*%
%TA.AperFunction,ViaPad*%
%ADD21C,0.600000*%
%TD*%
%TA.AperFunction,ViaPad*%
%ADD22C,0.800000*%
%TD*%
%TA.AperFunction,Conductor*%
%ADD23C,0.200000*%
%TD*%
%TA.AperFunction,Conductor*%
%ADD24C,1.000000*%
%TD*%
G04 APERTURE END LIST*
D10*
%TO.P,U1A,1,CH_C*%
%TO.N,/OUTC*%
X100330000Y-71120000D03*
D11*
%TO.P,U1A,2,TEST1*%
%TO.N,unconnected-(U1A1-TEST1-Pad2)*%
X97790000Y-71120000D03*
%TO.P,U1A,3,VCC*%
%TO.N,VCC*%
X95250000Y-71120000D03*
%TO.P,U1A,4,CH_B*%
%TO.N,/OUTB*%
X92710000Y-71120000D03*
%TO.P,U1A,5,CH_A*%
%TO.N,/OUTA*%
X90170000Y-71120000D03*
%TO.P,U1A,6,GND*%
%TO.N,GND*%
X87630000Y-71120000D03*
%TO.P,U1A,7,IOA7*%
%TO.N,unconnected-(U1A1-IOA7-Pad7)*%
X85090000Y-71120000D03*
%TO.P,U1A,8,IOA6*%
%TO.N,unconnected-(U1A1-IOA6-Pad8)*%
X82550000Y-71120000D03*
%TO.P,U1A,9,IOA5*%
%TO.N,unconnected-(U1A1-IOA5-Pad9)*%
X80010000Y-71120000D03*
%TO.P,U1A,10,IOA4*%
%TO.N,unconnected-(U1A1-IOA4-Pad10)*%
X77470000Y-71120000D03*
%TO.P,U1A,11,IOA3*%
%TO.N,unconnected-(U1A1-IOA3-Pad11)*%
X74930000Y-71120000D03*
%TO.P,U1A,12,IOA2*%
%TO.N,unconnected-(U1A1-IOA2-Pad12)*%
X72390000Y-71120000D03*
%TO.P,U1A,13,IOA1*%
%TO.N,unconnected-(U1A1-IOA1-Pad13)*%
X69850000Y-71120000D03*
%TO.P,U1A,14,IOA0*%
%TO.N,unconnected-(U1A1-IOA0-Pad14)*%
X67310000Y-71120000D03*
%TO.P,U1A,15,CLOCK*%
%TO.N,/PSGCLK*%
X67310000Y-86360000D03*
%TO.P,U1A,16,~{RESET}*%
%TO.N,/~{RESET}*%
X69850000Y-86360000D03*
%TO.P,U1A,17,A8*%
%TO.N,VCC*%
X72390000Y-86360000D03*
%TO.P,U1A,18,BDIR*%
%TO.N,/BDIR*%
X74930000Y-86360000D03*
%TO.P,U1A,19,BC2*%
%TO.N,VCC*%
X77470000Y-86360000D03*
%TO.P,U1A,20,BC1*%
%TO.N,/BC1*%
X80010000Y-86360000D03*
%TO.P,U1A,21,DA7*%
%TO.N,/D7*%
X82550000Y-86360000D03*
%TO.P,U1A,22,DA6*%
%TO.N,/D6*%
X85090000Y-86360000D03*
%TO.P,U1A,23,DA5*%
%TO.N,/D5*%
X87630000Y-86360000D03*
%TO.P,U1A,24,DA4*%
%TO.N,/D4*%
X90170000Y-86360000D03*
%TO.P,U1A,25,DA3*%
%TO.N,/D3*%
X92710000Y-86360000D03*
%TO.P,U1A,26,DA2*%
%TO.N,/D2*%
X95250000Y-86360000D03*
%TO.P,U1A,27,DA1*%
%TO.N,/D1*%
X97790000Y-86360000D03*
%TO.P,U1A,28,DA0*%
%TO.N,/D0*%
X100330000Y-86360000D03*
%TD*%
D12*
%TO.P,C5,1*%
%TO.N,VCC*%
X58440000Y-99695000D03*
%TO.P,C5,2*%
%TO.N,GND*%
X60940000Y-99695000D03*
%TD*%
%TO.P,R4,1*%
%TO.N,/OUTC*%
X92075000Y-66675000D03*
%TO.P,R4,2*%
%TO.N,Net-(C1-Pad1)*%
X92075000Y-59055000D03*
%TD*%
D10*
%TO.P,U1,1,GND*%
%TO.N,GND*%
X107940000Y-76200000D03*
D11*
%TO.P,U1,2,NC2*%
%TO.N,unconnected-(U1-NC2-Pad2)*%
X105400000Y-76200000D03*
%TO.P,U1,3,OUTB*%
%TO.N,/OUTB*%
X102860000Y-76200000D03*
%TO.P,U1,4,OUTA*%
%TO.N,/OUTA*%
X100320000Y-76200000D03*
%TO.P,U1,5,NC5*%
%TO.N,unconnected-(U1-NC5-Pad5)*%
X97780000Y-76200000D03*
%TO.P,U1,6,IOB7*%
%TO.N,unconnected-(U1-IOB7-Pad6)*%
X95240000Y-76200000D03*
%TO.P,U1,7,IOB6*%
%TO.N,unconnected-(U1-IOB6-Pad7)*%
X92700000Y-76200000D03*
%TO.P,U1,8,IOB5*%
%TO.N,unconnected-(U1-IOB5-Pad8)*%
X90160000Y-76200000D03*
%TO.P,U1,9,IOB4*%
%TO.N,unconnected-(U1-IOB4-Pad9)*%
X87620000Y-76200000D03*
%TO.P,U1,10,IOB3*%
%TO.N,unconnected-(U1-IOB3-Pad10)*%
X85080000Y-76200000D03*
%TO.P,U1,11,IOB2*%
%TO.N,unconnected-(U1-IOB2-Pad11)*%
X82540000Y-76200000D03*
%TO.P,U1,12,IOB1*%
%TO.N,unconnected-(U1-IOB1-Pad12)*%
X80000000Y-76200000D03*
%TO.P,U1,13,IOB0*%
%TO.N,unconnected-(U1-IOB0-Pad13)*%
X77460000Y-76200000D03*
%TO.P,U1,14,IOA7*%
%TO.N,unconnected-(U1-IOA7-Pad14)*%
X74920000Y-76200000D03*
%TO.P,U1,15,IOA6*%
%TO.N,unconnected-(U1-IOA6-Pad15)*%
X72380000Y-76200000D03*
%TO.P,U1,16,IOA5*%
%TO.N,unconnected-(U1-IOA5-Pad16)*%
X69840000Y-76200000D03*
%TO.P,U1,17,IOA4*%
%TO.N,unconnected-(U1-IOA4-Pad17)*%
X67300000Y-76200000D03*
%TO.P,U1,18,IOA3*%
%TO.N,unconnected-(U1-IOA3-Pad18)*%
X64760000Y-76200000D03*
%TO.P,U1,19,IOA2*%
%TO.N,unconnected-(U1-IOA2-Pad19)*%
X62220000Y-76200000D03*
%TO.P,U1,20,IOA1*%
%TO.N,unconnected-(U1-IOA1-Pad20)*%
X59680000Y-76200000D03*
%TO.P,U1,21,IOA0*%
%TO.N,unconnected-(U1-IOA0-Pad21)*%
X59680000Y-91440000D03*
%TO.P,U1,22,CLOCK*%
%TO.N,/PSGCLK*%
X62220000Y-91440000D03*
%TO.P,U1,23,RESET*%
%TO.N,/~{RESET}*%
X64760000Y-91440000D03*
%TO.P,U1,24,A9*%
%TO.N,GND*%
X67300000Y-91440000D03*
%TO.P,U1,25,A8*%
%TO.N,VCC*%
X69840000Y-91440000D03*
%TO.P,U1,26,TEST2*%
%TO.N,unconnected-(U1-TEST2-Pad26)*%
X72380000Y-91440000D03*
%TO.P,U1,27,BDIR*%
%TO.N,/BDIR*%
X74920000Y-91440000D03*
%TO.P,U1,28,BC2*%
%TO.N,VCC*%
X77460000Y-91440000D03*
%TO.P,U1,29,BC1*%
%TO.N,/BC1*%
X80000000Y-91440000D03*
%TO.P,U1,30,D7*%
%TO.N,/D7*%
X82540000Y-91440000D03*
%TO.P,U1,31,D6*%
%TO.N,/D6*%
X85080000Y-91440000D03*
%TO.P,U1,32,D5*%
%TO.N,/D5*%
X87620000Y-91440000D03*
%TO.P,U1,33,D4*%
%TO.N,/D4*%
X90160000Y-91440000D03*
%TO.P,U1,34,D3*%
%TO.N,/D3*%
X92700000Y-91440000D03*
%TO.P,U1,35,D2*%
%TO.N,/D2*%
X95240000Y-91440000D03*
%TO.P,U1,36,D1*%
%TO.N,/D1*%
X97780000Y-91440000D03*
%TO.P,U1,37,D0*%
%TO.N,/D0*%
X100320000Y-91440000D03*
%TO.P,U1,38,OUTC*%
%TO.N,/OUTC*%
X102860000Y-91440000D03*
%TO.P,U1,39,TEST1*%
%TO.N,unconnected-(U1-TEST1-Pad39)*%
X105400000Y-91440000D03*
%TO.P,U1,40,VCC*%
%TO.N,VCC*%
X107940000Y-91440000D03*
%TD*%
D12*
%TO.P,R11,1*%
%TO.N,Net-(C2-Pad2)*%
X56515000Y-59055000D03*
%TO.P,R11,2*%
%TO.N,Net-(CO3-Pin_1)*%
X56515000Y-66675000D03*
%TD*%
%TO.P,C3,1*%
%TO.N,Net-(CO3-Pin_2)*%
X95905000Y-59055000D03*
%TO.P,C3,2*%
%TO.N,GND_AUDIO*%
X98405000Y-59055000D03*
%TD*%
%TO.P,R3,1*%
%TO.N,VCC*%
X87555000Y-125730000D03*
%TO.P,R3,2*%
%TO.N,Net-(R3-Pad2)*%
X87555000Y-133350000D03*
%TD*%
%TO.P,C6,1*%
%TO.N,VCC*%
X74315000Y-99695000D03*
%TO.P,C6,2*%
%TO.N,GND*%
X76815000Y-99695000D03*
%TD*%
D13*
%TO.P,CO1,A3,+5Vcc*%
%TO.N,VCC*%
X55874982Y-144780000D03*
%TO.P,CO1,A4,+9Vcc*%
%TO.N,unconnected-(CO1-+9Vcc-PadA4)*%
X58414982Y-144780000D03*
%TO.P,CO1,A6,GND*%
%TO.N,GND*%
X63494982Y-144780000D03*
%TO.P,CO1,A7,GND*%
X66034982Y-144780000D03*
%TO.P,CO1,A8,CLK*%
%TO.N,/CLK*%
X68574982Y-144780000D03*
%TO.P,CO1,A9,A0*%
%TO.N,/A0*%
X71114982Y-144780000D03*
%TO.P,CO1,A10,A1*%
%TO.N,/A1*%
X73654982Y-144780000D03*
%TO.P,CO1,A11,A2*%
%TO.N,/A2*%
X76194982Y-144780000D03*
%TO.P,CO1,A12,A3*%
%TO.N,/A3*%
X78734982Y-144780000D03*
%TO.P,CO1,A13,A15*%
%TO.N,unconnected-(CO1-A15-PadA13)*%
X81274982Y-144780000D03*
%TO.P,CO1,A14,A14*%
%TO.N,unconnected-(CO1-PadA14)*%
X83814982Y-144780000D03*
%TO.P,CO1,A15,A13*%
%TO.N,unconnected-(CO1-A13-PadA15)*%
X86354982Y-144780000D03*
%TO.P,CO1,A16,A12*%
%TO.N,unconnected-(CO1-A12-PadA16)*%
X88894982Y-144780000D03*
%TO.P,CO1,A17,A11*%
%TO.N,unconnected-(CO1-A11-PadA17)*%
X91434982Y-144780000D03*
%TO.P,CO1,A18,A10*%
%TO.N,unconnected-(CO1-A10-PadA18)*%
X93974982Y-144780000D03*
%TO.P,CO1,A19,A9*%
%TO.N,unconnected-(CO1-A9-PadA19)*%
X96514982Y-144780000D03*
%TO.P,CO1,A20,A8*%
%TO.N,unconnected-(CO1-A8-PadA20)*%
X99054982Y-144780000D03*
%TO.P,CO1,A21,A7*%
%TO.N,/A7*%
X101594982Y-144780000D03*
%TO.P,CO1,A22,A6*%
%TO.N,/A6*%
X104134982Y-144780000D03*
%TO.P,CO1,A23,A5*%
%TO.N,/A5*%
X106674982Y-144780000D03*
%TO.P,CO1,A24,A4*%
%TO.N,/A4*%
X109214982Y-144780000D03*
%TO.P,CO1,A25,~{ROMCS}*%
%TO.N,unconnected-(CO1-~{ROMCS}-PadA25)*%
X111754982Y-144780000D03*
%TD*%
D12*
%TO.P,R1,1*%
%TO.N,VCC*%
X97785000Y-125730000D03*
%TO.P,R1,2*%
%TO.N,Net-(R1-Pad2)*%
X97785000Y-133350000D03*
%TD*%
D14*
%TO.P,SW1,1*%
%TO.N,Net-(R3-Pad2)*%
X109220000Y-125730000D03*
D12*
%TO.P,SW1,2*%
%TO.N,Net-(R2-Pad2)*%
X106680000Y-125730000D03*
%TO.P,SW1,3*%
%TO.N,Net-(R1-Pad2)*%
X104140000Y-125730000D03*
%TO.P,SW1,4*%
%TO.N,/A6*%
X104140000Y-133350000D03*
%TO.P,SW1,5*%
%TO.N,/A5*%
X106680000Y-133350000D03*
%TO.P,SW1,6*%
%TO.N,/A4*%
X109220000Y-133350000D03*
%TD*%
%TO.P,R8,1*%
%TO.N,Net-(C1-Pad1)*%
X71755000Y-59055000D03*
%TO.P,R8,2*%
%TO.N,GND_AUDIO*%
X71755000Y-66675000D03*
%TD*%
%TO.P,R2,1*%
%TO.N,VCC*%
X92705000Y-125730000D03*
%TO.P,R2,2*%
%TO.N,Net-(R2-Pad2)*%
X92705000Y-133350000D03*
%TD*%
%TO.P,FB1,1*%
%TO.N,GND*%
X55245000Y-87630000D03*
%TO.P,FB1,2*%
%TO.N,GND_AUDIO*%
X55245000Y-80010000D03*
%TD*%
D15*
%TO.P,CO3,1,Pin_1*%
%TO.N,Net-(CO3-Pin_1)*%
X86355000Y-54610000D03*
D16*
%TO.P,CO3,2,Pin_2*%
%TO.N,Net-(CO3-Pin_2)*%
X88895000Y-54610000D03*
%TO.P,CO3,3,Pin_3*%
%TO.N,GND_AUDIO*%
X91435000Y-54610000D03*
%TD*%
D12*
%TO.P,C4,1*%
%TO.N,Net-(CO3-Pin_1)*%
X95905000Y-66675000D03*
%TO.P,C4,2*%
%TO.N,GND_AUDIO*%
X98405000Y-66675000D03*
%TD*%
D17*
%TO.P,C2,1*%
%TO.N,Net-(C2-Pad1)*%
X55785000Y-52705000D03*
D12*
%TO.P,C2,2*%
%TO.N,Net-(C2-Pad2)*%
X57785000Y-52705000D03*
%TD*%
%TO.P,R7,1*%
%TO.N,Net-(C1-Pad1)*%
X76835000Y-59055000D03*
%TO.P,R7,2*%
%TO.N,/OUTB*%
X76835000Y-66675000D03*
%TD*%
%TO.P,R5,1*%
%TO.N,/OUTA*%
X86995000Y-66675000D03*
%TO.P,R5,2*%
%TO.N,Net-(C2-Pad1)*%
X86995000Y-59055000D03*
%TD*%
D18*
%TO.P,CO2,1,1*%
%TO.N,Net-(CO3-Pin_2)*%
X111845100Y-57840000D03*
%TO.P,CO2,2,2*%
%TO.N,unconnected-(CO2-Pad2)*%
X109345100Y-57840000D03*
%TO.P,CO2,3,3*%
%TO.N,unconnected-(CO2-Pad3)*%
X104345100Y-57840000D03*
%TO.P,CO2,4,4*%
%TO.N,Net-(CO3-Pin_1)*%
X101845100Y-57840000D03*
%TO.P,CO2,5,5*%
%TO.N,GND_AUDIO*%
X106845100Y-52840000D03*
%TD*%
D19*
%TO.P,U4,1*%
%TO.N,/A3*%
X88265000Y-104140000D03*
D20*
%TO.P,U4,2*%
%TO.N,/A2*%
X88265000Y-106680000D03*
%TO.P,U4,3*%
%TO.N,Net-(U4-Pad12)*%
X88265000Y-109220000D03*
%TO.P,U4,4*%
%TO.N,/A0*%
X88265000Y-111760000D03*
%TO.P,U4,5*%
%TO.N,Net-(U4-Pad5)*%
X88265000Y-114300000D03*
%TO.P,U4,6*%
%TO.N,/VALID*%
X88265000Y-116840000D03*
%TO.P,U4,7,GND*%
%TO.N,GND*%
X88265000Y-119380000D03*
%TO.P,U4,8*%
%TO.N,Net-(U4-Pad5)*%
X95885000Y-119380000D03*
%TO.P,U4,9*%
%TO.N,Net-(R3-Pad2)*%
X95885000Y-116840000D03*
%TO.P,U4,10*%
%TO.N,Net-(R2-Pad2)*%
X95885000Y-114300000D03*
%TO.P,U4,11*%
%TO.N,Net-(R1-Pad2)*%
X95885000Y-111760000D03*
%TO.P,U4,12*%
%TO.N,Net-(U4-Pad12)*%
X95885000Y-109220000D03*
%TO.P,U4,13*%
%TO.N,/A1*%
X95885000Y-106680000D03*
%TO.P,U4,14,VCC*%
%TO.N,VCC*%
X95885000Y-104140000D03*
%TD*%
D19*
%TO.P,U5,1*%
%TO.N,/IOWR*%
X104160000Y-104140000D03*
D20*
%TO.P,U5,2*%
%TO.N,/~{IOREQ}*%
X104160000Y-106680000D03*
%TO.P,U5,3*%
%TO.N,/~{WR}*%
X104160000Y-109220000D03*
%TO.P,U5,4*%
%TO.N,Net-(U5-Pad11)*%
X104160000Y-111760000D03*
%TO.P,U5,5*%
%TO.N,Net-(U3-Pad6)*%
X104160000Y-114300000D03*
%TO.P,U5,6*%
%TO.N,Net-(U3-Pad11)*%
X104160000Y-116840000D03*
%TO.P,U5,7,GND*%
%TO.N,GND*%
X104160000Y-119380000D03*
%TO.P,U5,8*%
%TO.N,/~{IOREQ}*%
X111780000Y-119380000D03*
%TO.P,U5,9*%
%TO.N,/~{RD}*%
X111780000Y-116840000D03*
%TO.P,U5,10*%
%TO.N,/IORD*%
X111780000Y-114300000D03*
%TO.P,U5,11*%
%TO.N,Net-(U5-Pad11)*%
X111780000Y-111760000D03*
%TO.P,U5,12*%
X111780000Y-109220000D03*
%TO.P,U5,13*%
%TO.N,/BC1*%
X111780000Y-106680000D03*
%TO.P,U5,14,VCC*%
%TO.N,VCC*%
X111780000Y-104140000D03*
%TD*%
D17*
%TO.P,C1,1*%
%TO.N,Net-(C1-Pad1)*%
X65310000Y-52705000D03*
D12*
%TO.P,C1,2*%
%TO.N,Net-(C1-Pad2)*%
X67310000Y-52705000D03*
%TD*%
%TO.P,R6,1*%
%TO.N,Net-(C2-Pad1)*%
X81915000Y-59055000D03*
%TO.P,R6,2*%
%TO.N,/OUTB*%
X81915000Y-66675000D03*
%TD*%
%TO.P,C9,1*%
%TO.N,VCC*%
X111125000Y-88900000D03*
%TO.P,C9,2*%
%TO.N,GND*%
X111125000Y-91400000D03*
%TD*%
D19*
%TO.P,U3,1*%
%TO.N,/VALID*%
X71755000Y-104140000D03*
D20*
%TO.P,U3,2*%
%TO.N,/IOWR*%
X71755000Y-106680000D03*
%TO.P,U3,3*%
%TO.N,/BDIR*%
X71755000Y-109220000D03*
%TO.P,U3,4*%
X71755000Y-111760000D03*
%TO.P,U3,5*%
%TO.N,/A7*%
X71755000Y-114300000D03*
%TO.P,U3,6*%
%TO.N,Net-(U3-Pad6)*%
X71755000Y-116840000D03*
%TO.P,U3,7,GND*%
%TO.N,GND*%
X71755000Y-119380000D03*
%TO.P,U3,8*%
%TO.N,unconnected-(U3-Pad8)*%
X79375000Y-119380000D03*
%TO.P,U3,9*%
%TO.N,GND*%
X79375000Y-116840000D03*
%TO.P,U3,10*%
X79375000Y-114300000D03*
%TO.P,U3,11*%
%TO.N,Net-(U3-Pad11)*%
X79375000Y-111760000D03*
%TO.P,U3,12*%
%TO.N,/VALID*%
X79375000Y-109220000D03*
%TO.P,U3,13*%
%TO.N,/IORD*%
X79375000Y-106680000D03*
%TO.P,U3,14,VCC*%
%TO.N,VCC*%
X79375000Y-104140000D03*
%TD*%
D19*
%TO.P,U2,1,~{R}*%
%TO.N,VCC*%
X55880000Y-104140000D03*
D20*
%TO.P,U2,2,D*%
%TO.N,Net-(U2A-D)*%
X55880000Y-106680000D03*
%TO.P,U2,3,C*%
%TO.N,/CLK*%
X55880000Y-109220000D03*
%TO.P,U2,4,~{S}*%
%TO.N,VCC*%
X55880000Y-111760000D03*
%TO.P,U2,5,Q*%
%TO.N,/PSGCLK*%
X55880000Y-114300000D03*
%TO.P,U2,6,~{Q}*%
%TO.N,Net-(U2A-D)*%
X55880000Y-116840000D03*
%TO.P,U2,7,GND*%
%TO.N,GND*%
X55880000Y-119380000D03*
%TO.P,U2,8,~{Q}*%
%TO.N,unconnected-(U2B-~{Q}-Pad8)*%
X63500000Y-119380000D03*
%TO.P,U2,9,Q*%
%TO.N,unconnected-(U2B-Q-Pad9)*%
X63500000Y-116840000D03*
%TO.P,U2,10,~{S}*%
%TO.N,VCC*%
X63500000Y-114300000D03*
%TO.P,U2,11,C*%
X63500000Y-111760000D03*
%TO.P,U2,12,D*%
X63500000Y-109220000D03*
%TO.P,U2,13,~{R}*%
X63500000Y-106680000D03*
%TO.P,U2,14,VCC*%
X63500000Y-104140000D03*
%TD*%
D12*
%TO.P,R10,1*%
%TO.N,Net-(C1-Pad2)*%
X61595000Y-59055000D03*
%TO.P,R10,2*%
%TO.N,Net-(CO3-Pin_2)*%
X61595000Y-66675000D03*
%TD*%
%TO.P,C7,1*%
%TO.N,VCC*%
X90825000Y-99695000D03*
%TO.P,C7,2*%
%TO.N,GND*%
X93325000Y-99695000D03*
%TD*%
%TO.P,C8,1*%
%TO.N,VCC*%
X109220000Y-99695000D03*
%TO.P,C8,2*%
%TO.N,GND*%
X106720000Y-99695000D03*
%TD*%
%TO.P,R9,1*%
%TO.N,Net-(C2-Pad1)*%
X66675000Y-59055000D03*
%TO.P,R9,2*%
%TO.N,GND_AUDIO*%
X66675000Y-66675000D03*
%TD*%
D21*
%TO.N,Net-(U3-Pad6)*%
X103023100Y-122685000D03*
%TO.N,/VALID*%
X82432100Y-114208200D03*
%TO.N,/BC1*%
X81978700Y-106738600D03*
%TO.N,Net-(R3-Pad2)*%
X98600700Y-122394600D03*
%TO.N,Net-(R1-Pad2)*%
X99202400Y-125962700D03*
%TO.N,/D1*%
X67890300Y-100460100D03*
%TO.N,/D0*%
X68016200Y-95060400D03*
%TO.N,/A0*%
X86242600Y-129549400D03*
%TO.N,/A1*%
X83096300Y-136668100D03*
%TO.N,/~{IOREQ}*%
X108585000Y-121285000D03*
X93949800Y-122166300D03*
%TO.N,/A2*%
X85059600Y-132303500D03*
%TO.N,/~{RD}*%
X97571900Y-118110000D03*
%TO.N,/A3*%
X82494200Y-138430000D03*
%TO.N,/A7*%
X70878200Y-127633800D03*
%TO.N,/~{RESET}*%
X105410100Y-125047100D03*
X69718400Y-123006700D03*
%TO.N,Net-(CO3-Pin_1)*%
X93980000Y-58420000D03*
%TO.N,/D7*%
X53377100Y-103033000D03*
%TO.N,/D2*%
X69483600Y-95570300D03*
%TO.N,/CLK*%
X62261200Y-136416300D03*
X62045700Y-110294600D03*
D22*
%TO.N,GND*%
X62023300Y-139313200D03*
%TD*%
D23*
%TO.N,/OUTB*%
X91124700Y-69534700D02*
X92710000Y-71120000D01*
X86434200Y-69534700D02*
X91124700Y-69534700D01*
%TO.N,/~{IOREQ}*%
X94323200Y-121792900D02*
X93949800Y-122166300D01*
X102496400Y-121792900D02*
X94323200Y-121792900D01*
X103004300Y-121285000D02*
X102496400Y-121792900D01*
X108585000Y-121285000D02*
X103004300Y-121285000D01*
%TO.N,/OUTB*%
X86434200Y-73734200D02*
X86995000Y-74295000D01*
X86995000Y-74295000D02*
X100955000Y-74295000D01*
X86434200Y-69534700D02*
X86434200Y-73734200D01*
X100955000Y-74295000D02*
X102860000Y-76200000D01*
%TO.N,Net-(CO3-Pin_1)*%
X93980000Y-59690000D02*
X93980000Y-58420000D01*
X92929400Y-60740600D02*
X93980000Y-59690000D01*
X56515000Y-66675000D02*
X62449400Y-60740600D01*
X62449400Y-60740600D02*
X92929400Y-60740600D01*
X88105200Y-56360200D02*
X86355000Y-54610000D01*
X92176333Y-56360200D02*
X88105200Y-56360200D01*
X93980000Y-58163867D02*
X92176333Y-56360200D01*
X93980000Y-58420000D02*
X93980000Y-58163867D01*
%TO.N,Net-(C2-Pad1)*%
X58500200Y-57230200D02*
X55785000Y-54515000D01*
X65762600Y-58142600D02*
X64850200Y-57230200D01*
X64850200Y-57230200D02*
X58500200Y-57230200D01*
X55785000Y-54515000D02*
X55785000Y-52705000D01*
%TO.N,Net-(C1-Pad1)*%
X68737500Y-57942500D02*
X65310000Y-54515000D01*
X65310000Y-54515000D02*
X65310000Y-52705000D01*
X71755000Y-59055000D02*
X70642500Y-57942500D01*
X70642500Y-57942500D02*
X68737500Y-57942500D01*
%TO.N,/A3*%
X78735000Y-140668300D02*
X78735000Y-144780000D01*
X80973300Y-138430000D02*
X78735000Y-140668300D01*
X82494200Y-138430000D02*
X80973300Y-138430000D01*
%TO.N,/A7*%
X101595000Y-139070000D02*
X101595000Y-144780000D01*
X101600000Y-139065000D02*
X101595000Y-139070000D01*
X101600000Y-137160000D02*
X101600000Y-139065000D01*
X88265000Y-135890000D02*
X100330000Y-135890000D01*
X86423800Y-130281500D02*
X86423800Y-134048800D01*
X86867300Y-129838000D02*
X86423800Y-130281500D01*
X86867300Y-129320100D02*
X86867300Y-129838000D01*
X86423800Y-134048800D02*
X88265000Y-135890000D01*
X85181000Y-127633800D02*
X86867300Y-129320100D01*
X100330000Y-135890000D02*
X101600000Y-137160000D01*
X70878200Y-127633800D02*
X85181000Y-127633800D01*
D24*
%TO.N,GND_AUDIO*%
X98097500Y-54610000D02*
X98806700Y-55319200D01*
X91435000Y-54610000D02*
X98097500Y-54610000D01*
X66545600Y-66675000D02*
X66675000Y-66675000D01*
X55245000Y-77975600D02*
X66545600Y-66675000D01*
X55245000Y-80010000D02*
X55245000Y-77975600D01*
X71755000Y-66675000D02*
X66675000Y-66675000D01*
X96844800Y-65114800D02*
X98405000Y-66675000D01*
X73315200Y-65114800D02*
X96844800Y-65114800D01*
X71755000Y-66675000D02*
X73315200Y-65114800D01*
X98806700Y-58653300D02*
X98806700Y-55319200D01*
X98405000Y-59055000D02*
X98806700Y-58653300D01*
X104365900Y-55319200D02*
X106845100Y-52840000D01*
X98806700Y-55319200D02*
X104365900Y-55319200D01*
D23*
%TO.N,Net-(U5-Pad11)*%
X111780000Y-111760000D02*
X104160000Y-111760000D01*
%TO.N,Net-(U4-Pad5)*%
X94383300Y-118916600D02*
X94383300Y-119380000D01*
X89766700Y-114300000D02*
X94383300Y-118916600D01*
X88265000Y-114300000D02*
X89766700Y-114300000D01*
X95885000Y-119380000D02*
X94383300Y-119380000D01*
%TO.N,Net-(U4-Pad12)*%
X88265000Y-109220000D02*
X95885000Y-109220000D01*
%TO.N,Net-(U3-Pad11)*%
X82056700Y-112940000D02*
X80876700Y-111760000D01*
X98758300Y-112940000D02*
X82056700Y-112940000D01*
X102658300Y-116840000D02*
X98758300Y-112940000D01*
X104160000Y-116840000D02*
X102658300Y-116840000D01*
X79375000Y-111760000D02*
X80876700Y-111760000D01*
%TO.N,Net-(U3-Pad6)*%
X103023100Y-122685000D02*
X103023100Y-122996300D01*
X103023100Y-122996300D02*
X103023100Y-122685000D01*
X71755000Y-116840000D02*
X73256700Y-116840000D01*
X79413000Y-122996300D02*
X73256700Y-116840000D01*
X102711800Y-122996300D02*
X79413000Y-122996300D01*
X103023100Y-122685000D02*
X102711800Y-122996300D01*
%TO.N,/IOWR*%
X74491400Y-105445300D02*
X73256700Y-106680000D01*
X102854700Y-105445300D02*
X74491400Y-105445300D01*
X104160000Y-104140000D02*
X102854700Y-105445300D01*
X71755000Y-106680000D02*
X73256700Y-106680000D01*
%TO.N,/IORD*%
X113281700Y-111280800D02*
X113281700Y-114300000D01*
X112632400Y-110631500D02*
X113281700Y-111280800D01*
X84828200Y-110631500D02*
X112632400Y-110631500D01*
X80876700Y-106680000D02*
X84828200Y-110631500D01*
X79375000Y-106680000D02*
X80876700Y-106680000D01*
X111780000Y-114300000D02*
X113281700Y-114300000D01*
%TO.N,/VALID*%
X70234200Y-105660800D02*
X71755000Y-104140000D01*
X70234200Y-107157000D02*
X70234200Y-105660800D01*
X71027200Y-107950000D02*
X70234200Y-107157000D01*
X76603300Y-107950000D02*
X71027200Y-107950000D01*
X77873300Y-109220000D02*
X76603300Y-107950000D01*
X79375000Y-109220000D02*
X77873300Y-109220000D01*
X85063900Y-116840000D02*
X88265000Y-116840000D01*
X82432100Y-114208200D02*
X85063900Y-116840000D01*
%TO.N,/BC1*%
X111780000Y-106680000D02*
X110278300Y-106680000D01*
X83038600Y-107798500D02*
X81978700Y-106738600D01*
X109159800Y-107798500D02*
X83038600Y-107798500D01*
X110278300Y-106680000D02*
X109159800Y-107798500D01*
%TO.N,/OUTC*%
X93950500Y-68550500D02*
X92075000Y-66675000D01*
X97760500Y-68550500D02*
X93950500Y-68550500D01*
X100330000Y-71120000D02*
X97760500Y-68550500D01*
%TO.N,/OUTB*%
X81915000Y-66675000D02*
X76835000Y-66675000D01*
X83574500Y-66675000D02*
X81915000Y-66675000D01*
X86434200Y-69534700D02*
X83574500Y-66675000D01*
%TO.N,Net-(R3-Pad2)*%
X100443400Y-134506600D02*
X109220000Y-125730000D01*
X88711600Y-134506600D02*
X100443400Y-134506600D01*
X87555000Y-133350000D02*
X88711600Y-134506600D01*
X102462700Y-122394600D02*
X98600700Y-122394600D01*
X102774000Y-122083300D02*
X102462700Y-122394600D01*
X105573300Y-122083300D02*
X102774000Y-122083300D01*
X109220000Y-125730000D02*
X105573300Y-122083300D01*
X98600700Y-122394600D02*
X98600700Y-122393000D01*
X98600700Y-122393000D02*
X98600700Y-122394600D01*
%TO.N,Net-(R2-Pad2)*%
X94120100Y-131934900D02*
X92705000Y-133350000D01*
X100475100Y-131934900D02*
X94120100Y-131934900D01*
X106680000Y-125730000D02*
X100475100Y-131934900D01*
%TO.N,Net-(R1-Pad2)*%
X103907300Y-125962700D02*
X104140000Y-125730000D01*
X99886800Y-125962700D02*
X103907300Y-125962700D01*
X99886800Y-125962700D02*
X99202400Y-125962700D01*
%TO.N,/D1*%
X92178400Y-98543300D02*
X97780000Y-92941700D01*
X69807100Y-98543300D02*
X92178400Y-98543300D01*
X67890300Y-100460100D02*
X69807100Y-98543300D01*
X97780000Y-91440000D02*
X97780000Y-92941700D01*
%TO.N,/D0*%
X84615800Y-89938300D02*
X100320000Y-89938300D01*
X83810000Y-90744100D02*
X84615800Y-89938300D01*
X83810000Y-92279700D02*
X83810000Y-90744100D01*
X82299000Y-93790700D02*
X83810000Y-92279700D01*
X69285900Y-93790700D02*
X82299000Y-93790700D01*
X68016200Y-95060400D02*
X69285900Y-93790700D01*
X100320000Y-91440000D02*
X100320000Y-89938300D01*
%TO.N,/A0*%
X82233900Y-129549400D02*
X86242600Y-129549400D01*
X71115000Y-140668300D02*
X82233900Y-129549400D01*
X71115000Y-144780000D02*
X71115000Y-140668300D01*
%TO.N,/A1*%
X77655200Y-136668100D02*
X73655000Y-140668300D01*
X83097900Y-136668100D02*
X77655200Y-136668100D01*
X73655000Y-144780000D02*
X73655000Y-140668300D01*
X83097900Y-136668100D02*
X83096300Y-136668100D01*
X83096300Y-136668100D02*
X83095900Y-136668500D01*
X83095900Y-136668500D02*
X83096300Y-136668100D01*
%TO.N,/A2*%
X85059600Y-135567400D02*
X85059600Y-132303500D01*
X83276100Y-137350900D02*
X85059600Y-135567400D01*
X79512400Y-137350900D02*
X83276100Y-137350900D01*
X76195000Y-140668300D02*
X79512400Y-137350900D01*
X76195000Y-144780000D02*
X76195000Y-140668300D01*
%TO.N,/A6*%
X104140000Y-140663300D02*
X104140000Y-133350000D01*
X104135000Y-140668300D02*
X104140000Y-140663300D01*
X104135000Y-144780000D02*
X104135000Y-140668300D01*
%TO.N,/~{RD}*%
X111780000Y-116840000D02*
X110278300Y-116840000D01*
X109008300Y-118110000D02*
X110278300Y-116840000D01*
X97571900Y-118110000D02*
X109008300Y-118110000D01*
X97571900Y-118110000D02*
X97570300Y-118110000D01*
X97570300Y-118110000D02*
X97571900Y-118110000D01*
%TO.N,/A4*%
X109215000Y-133355000D02*
X109220000Y-133350000D01*
X109215000Y-144780000D02*
X109215000Y-133355000D01*
%TO.N,/~{RESET}*%
X104572100Y-124209100D02*
X105410100Y-125047100D01*
X70920800Y-124209100D02*
X104572100Y-124209100D01*
X69718400Y-123006700D02*
X70920800Y-124209100D01*
%TO.N,/A5*%
X106675000Y-133355000D02*
X106680000Y-133350000D01*
X106675000Y-144780000D02*
X106675000Y-133355000D01*
%TO.N,Net-(CO3-Pin_2)*%
X109471000Y-60214100D02*
X111845100Y-57840000D01*
X97064100Y-60214100D02*
X109471000Y-60214100D01*
X95905000Y-59055000D02*
X97064100Y-60214100D01*
X93467900Y-61492100D02*
X95905000Y-59055000D01*
X93467900Y-61492200D02*
X93467900Y-61492100D01*
X66777800Y-61492200D02*
X93467900Y-61492200D01*
X61595000Y-66675000D02*
X66777800Y-61492200D01*
%TO.N,/D7*%
X82540000Y-91440000D02*
X82540000Y-92941700D01*
X63162400Y-93247700D02*
X53377100Y-103033000D01*
X82234000Y-93247700D02*
X63162400Y-93247700D01*
X82540000Y-92941700D02*
X82234000Y-93247700D01*
%TO.N,/D2*%
X95240000Y-91440000D02*
X95240000Y-92941700D01*
X92611400Y-95570300D02*
X69483600Y-95570300D01*
X95240000Y-92941700D02*
X92611400Y-95570300D01*
%TO.N,/CLK*%
X64323000Y-136416300D02*
X62261200Y-136416300D01*
X68575000Y-140668300D02*
X64323000Y-136416300D01*
X55880000Y-109220000D02*
X57381700Y-109220000D01*
X60971100Y-109220000D02*
X62045700Y-110294600D01*
X57381700Y-109220000D02*
X60971100Y-109220000D01*
X68575000Y-144780000D02*
X68575000Y-140668300D01*
D24*
%TO.N,VCC*%
X55880000Y-104140000D02*
X63500000Y-104140000D01*
X110536700Y-89488300D02*
X111125000Y-88900000D01*
X107940000Y-89488300D02*
X110536700Y-89488300D01*
X107940000Y-91440000D02*
X107940000Y-89488300D01*
X55880000Y-111760000D02*
X63500000Y-111760000D01*
X76283400Y-88311700D02*
X77460000Y-89488300D01*
X72390000Y-88311700D02*
X76283400Y-88311700D01*
X72390000Y-86360000D02*
X72390000Y-88311700D01*
X77460000Y-91440000D02*
X77460000Y-89488300D01*
X87555000Y-125730000D02*
X92705000Y-125730000D01*
X70363300Y-125730000D02*
X87555000Y-125730000D01*
X55875000Y-140218300D02*
X70363300Y-125730000D01*
X55875000Y-144780000D02*
X55875000Y-140218300D01*
X97785000Y-125730000D02*
X92705000Y-125730000D01*
X100651800Y-101324900D02*
X97836700Y-104140000D01*
X107590100Y-101324900D02*
X100651800Y-101324900D01*
X109220000Y-99695000D02*
X107590100Y-101324900D01*
X95885000Y-104140000D02*
X97836700Y-104140000D01*
X78399200Y-104140000D02*
X77423300Y-104140000D01*
X78399200Y-104140000D02*
X79375000Y-104140000D01*
X92380600Y-102587300D02*
X93933300Y-104140000D01*
X82879400Y-102587300D02*
X92380600Y-102587300D01*
X81326700Y-104140000D02*
X82879400Y-102587300D01*
X79375000Y-104140000D02*
X81326700Y-104140000D01*
X95885000Y-104140000D02*
X93933300Y-104140000D01*
X75022000Y-101738700D02*
X77423300Y-104140000D01*
X74315000Y-101738700D02*
X75022000Y-101738700D01*
X74315000Y-99695000D02*
X74315000Y-101738700D01*
X66140700Y-106680000D02*
X63500000Y-106680000D01*
X71082000Y-101738700D02*
X66140700Y-106680000D01*
X74315000Y-101738700D02*
X71082000Y-101738700D01*
%TO.N,GND*%
X104160000Y-119380000D02*
X102208300Y-119380000D01*
X88265000Y-119380000D02*
X90216700Y-119380000D01*
X65441700Y-87630000D02*
X67300000Y-89488300D01*
X55245000Y-87630000D02*
X65441700Y-87630000D01*
X67300000Y-91440000D02*
X67300000Y-89488300D01*
X91740500Y-101279500D02*
X93325000Y-99695000D01*
X78399500Y-101279500D02*
X91740500Y-101279500D01*
X76815000Y-99695000D02*
X78399500Y-101279500D01*
X93325000Y-99695000D02*
X106720000Y-99695000D01*
X106720000Y-95805000D02*
X111125000Y-91400000D01*
X106720000Y-99695000D02*
X106720000Y-95805000D01*
X84926700Y-119380000D02*
X88265000Y-119380000D01*
X82386700Y-116840000D02*
X84926700Y-119380000D01*
X79375000Y-116840000D02*
X82386700Y-116840000D01*
X87630000Y-71120000D02*
X87630000Y-73071700D01*
X63495000Y-144780000D02*
X66035000Y-144780000D01*
X62928400Y-140218300D02*
X62023300Y-139313200D01*
X63495000Y-140218300D02*
X62928400Y-140218300D01*
X63495000Y-144780000D02*
X63495000Y-140218300D01*
X87717400Y-73159100D02*
X87630000Y-73071700D01*
X104994300Y-73159100D02*
X87717400Y-73159100D01*
X107940000Y-76104800D02*
X104994300Y-73159100D01*
X107940000Y-76200000D02*
X107940000Y-76104800D01*
X68212100Y-120971200D02*
X69803300Y-119380000D01*
X59422900Y-120971200D02*
X68212100Y-120971200D01*
X57831700Y-119380000D02*
X59422900Y-120971200D01*
X55880000Y-119380000D02*
X57831700Y-119380000D01*
X71755000Y-119380000D02*
X69803300Y-119380000D01*
X91776300Y-120939600D02*
X90216700Y-119380000D01*
X100648700Y-120939600D02*
X91776300Y-120939600D01*
X102208300Y-119380000D02*
X100648700Y-120939600D01*
D23*
%TO.N,Net-(C2-Pad1)*%
X86995000Y-59055000D02*
X81915000Y-59055000D01*
X65762600Y-58142600D02*
X66675000Y-59055000D01*
X80769800Y-60200200D02*
X81915000Y-59055000D01*
X68995500Y-60200200D02*
X80769800Y-60200200D01*
X67702500Y-58907200D02*
X68995500Y-60200200D01*
X66527200Y-58907200D02*
X67702500Y-58907200D01*
X65762600Y-58142600D02*
X66527200Y-58907200D01*
%TO.N,Net-(C1-Pad1)*%
X71755000Y-59055000D02*
X74295000Y-59055000D01*
X74295000Y-59055000D02*
X76835000Y-59055000D01*
X90937100Y-57917100D02*
X92075000Y-59055000D01*
X81494900Y-57917100D02*
X90937100Y-57917100D01*
X80905000Y-58507000D02*
X81494900Y-57917100D01*
X77131500Y-58507000D02*
X80905000Y-58507000D01*
X76583500Y-59055000D02*
X77131500Y-58507000D01*
X74295000Y-59055000D02*
X76583500Y-59055000D01*
%TD*%
M02*
