%TF.GenerationSoftware,KiCad,Pcbnew,9.0.3*%
%TF.CreationDate,2025-08-12T14:11:43+01:00*%
%TF.ProjectId,MyZON-X,4d795a4f-4e2d-4582-9e6b-696361645f70,1.0*%
%TF.SameCoordinates,Original*%
%TF.FileFunction,Copper,L2,Bot*%
%TF.FilePolarity,Positive*%
%FSLAX46Y46*%
G04 Gerber Fmt 4.6, Leading zero omitted, Abs format (unit mm)*
G04 Created by KiCad (PCBNEW 9.0.3) date 2025-08-12 14:11:43*
%MOMM*%
%LPD*%
G01*
G04 APERTURE LIST*
G04 Aperture macros list*
%AMRoundRect*
0 Rectangle with rounded corners*
0 $1 Rounding radius*
0 $2 $3 $4 $5 $6 $7 $8 $9 X,Y pos of 4 corners*
0 Add a 4 corners polygon primitive as box body*
4,1,4,$2,$3,$4,$5,$6,$7,$8,$9,$2,$3,0*
0 Add four circle primitives for the rounded corners*
1,1,$1+$1,$2,$3*
1,1,$1+$1,$4,$5*
1,1,$1+$1,$6,$7*
1,1,$1+$1,$8,$9*
0 Add four rect primitives between the rounded corners*
20,1,$1+$1,$2,$3,$4,$5,0*
20,1,$1+$1,$4,$5,$6,$7,0*
20,1,$1+$1,$6,$7,$8,$9,0*
20,1,$1+$1,$8,$9,$2,$3,0*%
G04 Aperture macros list end*
%TA.AperFunction,ComponentPad*%
%ADD10C,1.600000*%
%TD*%
%TA.AperFunction,ComponentPad*%
%ADD11RoundRect,0.250000X-0.550000X0.950000X-0.550000X-0.950000X0.550000X-0.950000X0.550000X0.950000X0*%
%TD*%
%TA.AperFunction,ComponentPad*%
%ADD12O,1.600000X2.400000*%
%TD*%
%TA.AperFunction,ConnectorPad*%
%ADD13R,1.778000X7.620000*%
%TD*%
%TA.AperFunction,ComponentPad*%
%ADD14RoundRect,0.250000X-0.550000X0.550000X-0.550000X-0.550000X0.550000X-0.550000X0.550000X0.550000X0*%
%TD*%
%TA.AperFunction,ComponentPad*%
%ADD15R,1.700000X1.700000*%
%TD*%
%TA.AperFunction,ComponentPad*%
%ADD16C,1.700000*%
%TD*%
%TA.AperFunction,ComponentPad*%
%ADD17RoundRect,0.250000X-0.550000X-0.550000X0.550000X-0.550000X0.550000X0.550000X-0.550000X0.550000X0*%
%TD*%
%TA.AperFunction,ComponentPad*%
%ADD18C,1.752600*%
%TD*%
%TA.AperFunction,ComponentPad*%
%ADD19RoundRect,0.250000X-0.950000X-0.550000X0.950000X-0.550000X0.950000X0.550000X-0.950000X0.550000X0*%
%TD*%
%TA.AperFunction,ComponentPad*%
%ADD20O,2.400000X1.600000*%
%TD*%
%TA.AperFunction,ViaPad*%
%ADD21C,0.600000*%
%TD*%
%TA.AperFunction,ViaPad*%
%ADD22C,0.800000*%
%TD*%
%TA.AperFunction,Conductor*%
%ADD23C,1.000000*%
%TD*%
%TA.AperFunction,Conductor*%
%ADD24C,0.200000*%
%TD*%
G04 APERTURE END LIST*
D10*
%TO.P,R12,1*%
%TO.N,GND*%
X57150000Y-59055000D03*
%TO.P,R12,2*%
%TO.N,GND_AUDIO*%
X57150000Y-51435000D03*
%TD*%
%TO.P,C5,1*%
%TO.N,VCC*%
X59710000Y-99695000D03*
%TO.P,C5,2*%
%TO.N,GND*%
X62210000Y-99695000D03*
%TD*%
%TO.P,R4,1*%
%TO.N,/OUTA*%
X102235000Y-71120000D03*
%TO.P,R4,2*%
%TO.N,Net-(C1-Pad1)*%
X102235000Y-63500000D03*
%TD*%
D11*
%TO.P,U1,1,GND*%
%TO.N,GND*%
X107940000Y-76200000D03*
D12*
%TO.P,U1,2,NC2*%
%TO.N,unconnected-(U1-NC2-Pad2)*%
X105400000Y-76200000D03*
%TO.P,U1,3,OUTB*%
%TO.N,/OUTB*%
X102860000Y-76200000D03*
%TO.P,U1,4,OUTA*%
%TO.N,/OUTA*%
X100320000Y-76200000D03*
%TO.P,U1,5,NC5*%
%TO.N,unconnected-(U1-NC5-Pad5)*%
X97780000Y-76200000D03*
%TO.P,U1,6,IOB7*%
%TO.N,unconnected-(U1-IOB7-Pad6)*%
X95240000Y-76200000D03*
%TO.P,U1,7,IOB6*%
%TO.N,unconnected-(U1-IOB6-Pad7)*%
X92700000Y-76200000D03*
%TO.P,U1,8,IOB5*%
%TO.N,unconnected-(U1-IOB5-Pad8)*%
X90160000Y-76200000D03*
%TO.P,U1,9,IOB4*%
%TO.N,unconnected-(U1-IOB4-Pad9)*%
X87620000Y-76200000D03*
%TO.P,U1,10,IOB3*%
%TO.N,unconnected-(U1-IOB3-Pad10)*%
X85080000Y-76200000D03*
%TO.P,U1,11,IOB2*%
%TO.N,unconnected-(U1-IOB2-Pad11)*%
X82540000Y-76200000D03*
%TO.P,U1,12,IOB1*%
%TO.N,unconnected-(U1-IOB1-Pad12)*%
X80000000Y-76200000D03*
%TO.P,U1,13,IOB0*%
%TO.N,unconnected-(U1-IOB0-Pad13)*%
X77460000Y-76200000D03*
%TO.P,U1,14,IOA7*%
%TO.N,unconnected-(U1-IOA7-Pad14)*%
X74920000Y-76200000D03*
%TO.P,U1,15,IOA6*%
%TO.N,unconnected-(U1-IOA6-Pad15)*%
X72380000Y-76200000D03*
%TO.P,U1,16,IOA5*%
%TO.N,unconnected-(U1-IOA5-Pad16)*%
X69840000Y-76200000D03*
%TO.P,U1,17,IOA4*%
%TO.N,unconnected-(U1-IOA4-Pad17)*%
X67300000Y-76200000D03*
%TO.P,U1,18,IOA3*%
%TO.N,unconnected-(U1-IOA3-Pad18)*%
X64760000Y-76200000D03*
%TO.P,U1,19,IOA2*%
%TO.N,unconnected-(U1-IOA2-Pad19)*%
X62220000Y-76200000D03*
%TO.P,U1,20,IOA1*%
%TO.N,unconnected-(U1-IOA1-Pad20)*%
X59680000Y-76200000D03*
%TO.P,U1,21,IOA0*%
%TO.N,unconnected-(U1-IOA0-Pad21)*%
X59680000Y-91440000D03*
%TO.P,U1,22,CLOCK*%
%TO.N,/PSGCLK*%
X62220000Y-91440000D03*
%TO.P,U1,23,RESET*%
%TO.N,/~{RESET}*%
X64760000Y-91440000D03*
%TO.P,U1,24,A9*%
%TO.N,VCC*%
X67300000Y-91440000D03*
%TO.P,U1,25,A8*%
X69840000Y-91440000D03*
%TO.P,U1,26,TEST2*%
%TO.N,unconnected-(U1-TEST2-Pad26)*%
X72380000Y-91440000D03*
%TO.P,U1,27,BDIR*%
%TO.N,/BDIR*%
X74920000Y-91440000D03*
%TO.P,U1,28,BC2*%
%TO.N,VCC*%
X77460000Y-91440000D03*
%TO.P,U1,29,BC1*%
%TO.N,/BC1*%
X80000000Y-91440000D03*
%TO.P,U1,30,D7*%
%TO.N,/D7*%
X82540000Y-91440000D03*
%TO.P,U1,31,D6*%
%TO.N,/D6*%
X85080000Y-91440000D03*
%TO.P,U1,32,D5*%
%TO.N,/D5*%
X87620000Y-91440000D03*
%TO.P,U1,33,D4*%
%TO.N,/D4*%
X90160000Y-91440000D03*
%TO.P,U1,34,D3*%
%TO.N,/D3*%
X92700000Y-91440000D03*
%TO.P,U1,35,D2*%
%TO.N,/D2*%
X95240000Y-91440000D03*
%TO.P,U1,36,D1*%
%TO.N,/D1*%
X97780000Y-91440000D03*
%TO.P,U1,37,D0*%
%TO.N,/D0*%
X100320000Y-91440000D03*
%TO.P,U1,38,OUTC*%
%TO.N,/OUTC*%
X102860000Y-91440000D03*
%TO.P,U1,39,TEST1*%
%TO.N,unconnected-(U1-TEST1-Pad39)*%
X105400000Y-91440000D03*
%TO.P,U1,40,VCC*%
%TO.N,VCC*%
X107940000Y-91440000D03*
%TD*%
D10*
%TO.P,R11,1*%
%TO.N,Net-(C2-Pad2)*%
X66675000Y-71120000D03*
%TO.P,R11,2*%
%TO.N,Net-(CO3-Pin_1)*%
X66675000Y-63500000D03*
%TD*%
%TO.P,C3,1*%
%TO.N,Net-(CO3-Pin_2)*%
X59080000Y-63500000D03*
%TO.P,C3,2*%
%TO.N,GND_AUDIO*%
X61580000Y-63500000D03*
%TD*%
%TO.P,R3,1*%
%TO.N,VCC*%
X87555000Y-125730000D03*
%TO.P,R3,2*%
%TO.N,Net-(R3-Pad2)*%
X87555000Y-133350000D03*
%TD*%
%TO.P,C6,1*%
%TO.N,VCC*%
X74950000Y-99695000D03*
%TO.P,C6,2*%
%TO.N,GND*%
X77450000Y-99695000D03*
%TD*%
D13*
%TO.P,CO1,A3,+5Vcc*%
%TO.N,VCC*%
X55874982Y-144780000D03*
%TO.P,CO1,A4,+9Vcc*%
%TO.N,unconnected-(CO1-+9Vcc-PadA4)*%
X58414982Y-144780000D03*
%TO.P,CO1,A6,GND*%
%TO.N,GND*%
X63494982Y-144780000D03*
%TO.P,CO1,A7,GND*%
X66034982Y-144780000D03*
%TO.P,CO1,A8,CLK*%
%TO.N,/CLK*%
X68574982Y-144780000D03*
%TO.P,CO1,A9,A0*%
%TO.N,/A0*%
X71114982Y-144780000D03*
%TO.P,CO1,A10,A1*%
%TO.N,/A1*%
X73654982Y-144780000D03*
%TO.P,CO1,A11,A2*%
%TO.N,/A2*%
X76194982Y-144780000D03*
%TO.P,CO1,A12,A3*%
%TO.N,/A3*%
X78734982Y-144780000D03*
%TO.P,CO1,A13,A15*%
%TO.N,unconnected-(CO1-A15-PadA13)*%
X81274982Y-144780000D03*
%TO.P,CO1,A14,A14*%
%TO.N,unconnected-(CO1-PadA14)*%
X83814982Y-144780000D03*
%TO.P,CO1,A15,A13*%
%TO.N,unconnected-(CO1-A13-PadA15)*%
X86354982Y-144780000D03*
%TO.P,CO1,A16,A12*%
%TO.N,unconnected-(CO1-A12-PadA16)*%
X88894982Y-144780000D03*
%TO.P,CO1,A17,A11*%
%TO.N,unconnected-(CO1-A11-PadA17)*%
X91434982Y-144780000D03*
%TO.P,CO1,A18,A10*%
%TO.N,unconnected-(CO1-A10-PadA18)*%
X93974982Y-144780000D03*
%TO.P,CO1,A19,A9*%
%TO.N,unconnected-(CO1-A9-PadA19)*%
X96514982Y-144780000D03*
%TO.P,CO1,A20,A8*%
%TO.N,unconnected-(CO1-A8-PadA20)*%
X99054982Y-144780000D03*
%TO.P,CO1,A21,A7*%
%TO.N,/A7*%
X101594982Y-144780000D03*
%TO.P,CO1,A22,A6*%
%TO.N,/A6*%
X104134982Y-144780000D03*
%TO.P,CO1,A23,A5*%
%TO.N,/A5*%
X106674982Y-144780000D03*
%TO.P,CO1,A24,A4*%
%TO.N,/A4*%
X109214982Y-144780000D03*
%TO.P,CO1,A25,~{ROMCS}*%
%TO.N,unconnected-(CO1-~{ROMCS}-PadA25)*%
X111754982Y-144780000D03*
%TD*%
D10*
%TO.P,R1,1*%
%TO.N,VCC*%
X97785000Y-125730000D03*
%TO.P,R1,2*%
%TO.N,Net-(R1-Pad2)*%
X97785000Y-133350000D03*
%TD*%
D14*
%TO.P,SW1,1*%
%TO.N,Net-(R3-Pad2)*%
X109220000Y-125730000D03*
D10*
%TO.P,SW1,2*%
%TO.N,Net-(R2-Pad2)*%
X106680000Y-125730000D03*
%TO.P,SW1,3*%
%TO.N,Net-(R1-Pad2)*%
X104140000Y-125730000D03*
%TO.P,SW1,4*%
%TO.N,/A6*%
X104140000Y-133350000D03*
%TO.P,SW1,5*%
%TO.N,/A5*%
X106680000Y-133350000D03*
%TO.P,SW1,6*%
%TO.N,/A4*%
X109220000Y-133350000D03*
%TD*%
%TO.P,R8,1*%
%TO.N,Net-(C1-Pad1)*%
X81915000Y-63500000D03*
%TO.P,R8,2*%
%TO.N,GND_AUDIO*%
X81915000Y-71120000D03*
%TD*%
%TO.P,R2,1*%
%TO.N,VCC*%
X92705000Y-125730000D03*
%TO.P,R2,2*%
%TO.N,Net-(R2-Pad2)*%
X92705000Y-133350000D03*
%TD*%
D15*
%TO.P,CO3,1,Pin_1*%
%TO.N,Net-(CO3-Pin_1)*%
X86355000Y-54610000D03*
D16*
%TO.P,CO3,2,Pin_2*%
%TO.N,Net-(CO3-Pin_2)*%
X88895000Y-54610000D03*
%TO.P,CO3,3,Pin_3*%
%TO.N,GND_AUDIO*%
X91435000Y-54610000D03*
%TD*%
D10*
%TO.P,C4,1*%
%TO.N,Net-(CO3-Pin_1)*%
X59060000Y-71120000D03*
%TO.P,C4,2*%
%TO.N,GND_AUDIO*%
X61560000Y-71120000D03*
%TD*%
D17*
%TO.P,C2,1*%
%TO.N,Net-(C2-Pad1)*%
X64035000Y-53975000D03*
D10*
%TO.P,C2,2*%
%TO.N,Net-(C2-Pad2)*%
X66035000Y-53975000D03*
%TD*%
%TO.P,R7,1*%
%TO.N,Net-(C1-Pad1)*%
X86995000Y-63500000D03*
%TO.P,R7,2*%
%TO.N,/OUTC*%
X86995000Y-71120000D03*
%TD*%
%TO.P,R5,1*%
%TO.N,/OUTB*%
X97155000Y-71120000D03*
%TO.P,R5,2*%
%TO.N,Net-(C2-Pad1)*%
X97155000Y-63500000D03*
%TD*%
D18*
%TO.P,CO2,1,1*%
%TO.N,unconnected-(CO2-Pad1)*%
X111845100Y-57840000D03*
%TO.P,CO2,2,2*%
%TO.N,Net-(CO3-Pin_2)*%
X109345100Y-57840000D03*
%TO.P,CO2,3,3*%
%TO.N,Net-(CO3-Pin_1)*%
X104345100Y-57840000D03*
%TO.P,CO2,4,4*%
%TO.N,unconnected-(CO2-Pad4)*%
X101845100Y-57840000D03*
%TO.P,CO2,5,5*%
%TO.N,GND_AUDIO*%
X106845100Y-52840000D03*
%TD*%
D19*
%TO.P,U4,1*%
%TO.N,/A3*%
X86360000Y-104140000D03*
D20*
%TO.P,U4,2*%
%TO.N,/A2*%
X86360000Y-106680000D03*
%TO.P,U4,3*%
%TO.N,Net-(U4-Pad12)*%
X86360000Y-109220000D03*
%TO.P,U4,4*%
%TO.N,/A0*%
X86360000Y-111760000D03*
%TO.P,U4,5*%
%TO.N,Net-(U4-Pad5)*%
X86360000Y-114300000D03*
%TO.P,U4,6*%
%TO.N,/VALID*%
X86360000Y-116840000D03*
%TO.P,U4,7,GND*%
%TO.N,GND*%
X86360000Y-119380000D03*
%TO.P,U4,8*%
%TO.N,Net-(U4-Pad5)*%
X96520000Y-119380000D03*
%TO.P,U4,9*%
%TO.N,Net-(R3-Pad2)*%
X96520000Y-116840000D03*
%TO.P,U4,10*%
%TO.N,Net-(R2-Pad2)*%
X96520000Y-114300000D03*
%TO.P,U4,11*%
%TO.N,Net-(R1-Pad2)*%
X96520000Y-111760000D03*
%TO.P,U4,12*%
%TO.N,Net-(U4-Pad12)*%
X96520000Y-109220000D03*
%TO.P,U4,13*%
%TO.N,/A1*%
X96520000Y-106680000D03*
%TO.P,U4,14,VCC*%
%TO.N,VCC*%
X96520000Y-104140000D03*
%TD*%
D19*
%TO.P,U5,1*%
%TO.N,/IOWR*%
X101600000Y-104140000D03*
D20*
%TO.P,U5,2*%
%TO.N,/~{IOREQ}*%
X101600000Y-106680000D03*
%TO.P,U5,3*%
%TO.N,/~{WR}*%
X101600000Y-109220000D03*
%TO.P,U5,4*%
%TO.N,Net-(U5-Pad11)*%
X101600000Y-111760000D03*
%TO.P,U5,5*%
%TO.N,Net-(U3-Pad6)*%
X101600000Y-114300000D03*
%TO.P,U5,6*%
%TO.N,Net-(U3-Pad11)*%
X101600000Y-116840000D03*
%TO.P,U5,7,GND*%
%TO.N,GND*%
X101600000Y-119380000D03*
%TO.P,U5,8*%
%TO.N,/~{IOREQ}*%
X111760000Y-119380000D03*
%TO.P,U5,9*%
%TO.N,/~{RD}*%
X111760000Y-116840000D03*
%TO.P,U5,10*%
%TO.N,/IORD*%
X111760000Y-114300000D03*
%TO.P,U5,11*%
%TO.N,Net-(U5-Pad11)*%
X111760000Y-111760000D03*
%TO.P,U5,12*%
X111760000Y-109220000D03*
%TO.P,U5,13*%
%TO.N,/BC1*%
X111760000Y-106680000D03*
%TO.P,U5,14,VCC*%
%TO.N,VCC*%
X111760000Y-104140000D03*
%TD*%
D17*
%TO.P,C1,1*%
%TO.N,Net-(C1-Pad1)*%
X71115000Y-53975000D03*
D10*
%TO.P,C1,2*%
%TO.N,Net-(C1-Pad2)*%
X73115000Y-53975000D03*
%TD*%
%TO.P,R6,1*%
%TO.N,Net-(C2-Pad1)*%
X92075000Y-63500000D03*
%TO.P,R6,2*%
%TO.N,/OUTC*%
X92075000Y-71120000D03*
%TD*%
%TO.P,C9,1*%
%TO.N,VCC*%
X111755000Y-88900000D03*
%TO.P,C9,2*%
%TO.N,GND*%
X111755000Y-91400000D03*
%TD*%
D19*
%TO.P,U3,1*%
%TO.N,/VALID*%
X71120000Y-104140000D03*
D20*
%TO.P,U3,2*%
%TO.N,/IOWR*%
X71120000Y-106680000D03*
%TO.P,U3,3*%
%TO.N,/BDIR*%
X71120000Y-109220000D03*
%TO.P,U3,4*%
X71120000Y-111760000D03*
%TO.P,U3,5*%
%TO.N,/A7*%
X71120000Y-114300000D03*
%TO.P,U3,6*%
%TO.N,Net-(U3-Pad6)*%
X71120000Y-116840000D03*
%TO.P,U3,7,GND*%
%TO.N,GND*%
X71120000Y-119380000D03*
%TO.P,U3,8*%
%TO.N,unconnected-(U3-Pad8)*%
X81280000Y-119380000D03*
%TO.P,U3,9*%
%TO.N,GND*%
X81280000Y-116840000D03*
%TO.P,U3,10*%
X81280000Y-114300000D03*
%TO.P,U3,11*%
%TO.N,Net-(U3-Pad11)*%
X81280000Y-111760000D03*
%TO.P,U3,12*%
%TO.N,/VALID*%
X81280000Y-109220000D03*
%TO.P,U3,13*%
%TO.N,/IORD*%
X81280000Y-106680000D03*
%TO.P,U3,14,VCC*%
%TO.N,VCC*%
X81280000Y-104140000D03*
%TD*%
D19*
%TO.P,U2,1,~{R}*%
%TO.N,VCC*%
X55880000Y-104140000D03*
D20*
%TO.P,U2,2,D*%
%TO.N,Net-(U2A-D)*%
X55880000Y-106680000D03*
%TO.P,U2,3,C*%
%TO.N,/CLK*%
X55880000Y-109220000D03*
%TO.P,U2,4,~{S}*%
%TO.N,VCC*%
X55880000Y-111760000D03*
%TO.P,U2,5,Q*%
%TO.N,/PSGCLK*%
X55880000Y-114300000D03*
%TO.P,U2,6,~{Q}*%
%TO.N,Net-(U2A-D)*%
X55880000Y-116840000D03*
%TO.P,U2,7,GND*%
%TO.N,GND*%
X55880000Y-119380000D03*
%TO.P,U2,8,~{Q}*%
%TO.N,unconnected-(U2B-~{Q}-Pad8)*%
X66040000Y-119380000D03*
%TO.P,U2,9,Q*%
%TO.N,unconnected-(U2B-Q-Pad9)*%
X66040000Y-116840000D03*
%TO.P,U2,10,~{S}*%
%TO.N,VCC*%
X66040000Y-114300000D03*
%TO.P,U2,11,C*%
X66040000Y-111760000D03*
%TO.P,U2,12,D*%
X66040000Y-109220000D03*
%TO.P,U2,13,~{R}*%
X66040000Y-106680000D03*
%TO.P,U2,14,VCC*%
X66040000Y-104140000D03*
%TD*%
D10*
%TO.P,R10,1*%
%TO.N,Net-(C1-Pad2)*%
X71755000Y-63500000D03*
%TO.P,R10,2*%
%TO.N,Net-(CO3-Pin_2)*%
X71755000Y-71120000D03*
%TD*%
%TO.P,C7,1*%
%TO.N,VCC*%
X90190000Y-99695000D03*
%TO.P,C7,2*%
%TO.N,GND*%
X92690000Y-99695000D03*
%TD*%
%TO.P,C8,1*%
%TO.N,VCC*%
X107930000Y-99695000D03*
%TO.P,C8,2*%
%TO.N,GND*%
X105430000Y-99695000D03*
%TD*%
%TO.P,R9,1*%
%TO.N,Net-(C2-Pad1)*%
X76835000Y-63500000D03*
%TO.P,R9,2*%
%TO.N,GND_AUDIO*%
X76835000Y-71120000D03*
%TD*%
D21*
%TO.N,/VALID*%
X87995500Y-121250400D03*
X79052300Y-118231000D03*
%TO.N,/BC1*%
X79472300Y-95180200D03*
%TO.N,Net-(R1-Pad2)*%
X98217900Y-124333200D03*
%TO.N,/D1*%
X65651300Y-93559200D03*
%TO.N,/D0*%
X64427300Y-94792800D03*
%TO.N,/A0*%
X81730200Y-138707300D03*
%TO.N,/A1*%
X74914500Y-139862900D03*
X79052300Y-114686800D03*
X87442200Y-115616900D03*
X88441600Y-107572400D03*
%TO.N,/A2*%
X82708500Y-138939800D03*
%TO.N,/~{RD}*%
X96033400Y-130492500D03*
%TO.N,/A3*%
X83282700Y-138105000D03*
%TO.N,/A7*%
X70176500Y-140394800D03*
%TO.N,/~{RESET}*%
X103384700Y-124628300D03*
X63653100Y-123841300D03*
%TO.N,Net-(CO3-Pin_1)*%
X66036000Y-68115500D03*
%TO.N,Net-(CO3-Pin_2)*%
X85263300Y-65315300D03*
%TO.N,/D7*%
X53467800Y-99902800D03*
%TO.N,/D2*%
X70900400Y-93204300D03*
%TO.N,/CLK*%
X55547300Y-140047300D03*
D22*
%TO.N,GND*%
X61628800Y-144254800D03*
%TD*%
D23*
%TO.N,GND_AUDIO*%
X81915000Y-71120000D02*
X76835000Y-71120000D01*
X63118400Y-72678400D02*
X61560000Y-71120000D01*
X75276600Y-72678400D02*
X63118400Y-72678400D01*
X76835000Y-71120000D02*
X75276600Y-72678400D01*
X105237900Y-54447200D02*
X93082300Y-54447200D01*
X106845100Y-52840000D02*
X105237900Y-54447200D01*
X92919500Y-54610000D02*
X93082300Y-54447200D01*
X91435000Y-54610000D02*
X92919500Y-54610000D01*
X90601900Y-51435000D02*
X57150000Y-51435000D01*
X93082300Y-53915400D02*
X90601900Y-51435000D01*
X93082300Y-54447200D02*
X93082300Y-53915400D01*
D24*
%TO.N,Net-(U5-Pad11)*%
X101600000Y-111760000D02*
X111760000Y-111760000D01*
%TO.N,Net-(U4-Pad5)*%
X92941700Y-119380000D02*
X96520000Y-119380000D01*
X87861700Y-114300000D02*
X92941700Y-119380000D01*
X86360000Y-114300000D02*
X87861700Y-114300000D01*
%TO.N,Net-(U4-Pad12)*%
X96520000Y-109220000D02*
X86360000Y-109220000D01*
%TO.N,Net-(U3-Pad11)*%
X84051700Y-113030000D02*
X82781700Y-111760000D01*
X97226900Y-113030000D02*
X84051700Y-113030000D01*
X100098300Y-115901400D02*
X97226900Y-113030000D01*
X100098300Y-116840000D02*
X100098300Y-115901400D01*
X101600000Y-116840000D02*
X100098300Y-116840000D01*
X81280000Y-111760000D02*
X82781700Y-111760000D01*
%TO.N,Net-(U3-Pad6)*%
X78804400Y-110657300D02*
X72621700Y-116840000D01*
X97394200Y-110657300D02*
X78804400Y-110657300D01*
X100098300Y-113361400D02*
X97394200Y-110657300D01*
X100098300Y-114300000D02*
X100098300Y-113361400D01*
X101600000Y-114300000D02*
X100098300Y-114300000D01*
X71120000Y-116840000D02*
X72621700Y-116840000D01*
%TO.N,Net-(U2A-D)*%
X54304800Y-106753500D02*
X54378300Y-106680000D01*
X54304800Y-116766500D02*
X54304800Y-106753500D01*
X54378300Y-116840000D02*
X54304800Y-116766500D01*
X55880000Y-116840000D02*
X54378300Y-116840000D01*
X55880000Y-106680000D02*
X54378300Y-106680000D01*
%TO.N,/IOWR*%
X73856400Y-105445300D02*
X72621700Y-106680000D01*
X100294700Y-105445300D02*
X73856400Y-105445300D01*
X101600000Y-104140000D02*
X100294700Y-105445300D01*
X71120000Y-106680000D02*
X72621700Y-106680000D01*
%TO.N,/IORD*%
X81280000Y-106680000D02*
X82781700Y-106680000D01*
X111760000Y-114300000D02*
X110258300Y-114300000D01*
X108988300Y-113030000D02*
X110258300Y-114300000D01*
X100832300Y-113030000D02*
X108988300Y-113030000D01*
X98903500Y-111101200D02*
X100832300Y-113030000D01*
X98903500Y-109621200D02*
X98903500Y-111101200D01*
X97400400Y-108118100D02*
X98903500Y-109621200D01*
X95649900Y-108118100D02*
X97400400Y-108118100D01*
X95593900Y-108174100D02*
X95649900Y-108118100D01*
X88192500Y-108174100D02*
X95593900Y-108174100D01*
X87968400Y-107950000D02*
X88192500Y-108174100D01*
X84051700Y-107950000D02*
X87968400Y-107950000D01*
X82781700Y-106680000D02*
X84051700Y-107950000D01*
%TO.N,/VALID*%
X81280000Y-109220000D02*
X79778300Y-109220000D01*
X78508300Y-107950000D02*
X79778300Y-109220000D01*
X70373600Y-107950000D02*
X78508300Y-107950000D01*
X69595300Y-107171700D02*
X70373600Y-107950000D01*
X69595300Y-105664700D02*
X69595300Y-107171700D01*
X71120000Y-104140000D02*
X69595300Y-105664700D01*
X82109300Y-118231000D02*
X79052300Y-118231000D01*
X83526700Y-119648400D02*
X82109300Y-118231000D01*
X83526700Y-119773700D02*
X83526700Y-119648400D01*
X85003400Y-121250400D02*
X83526700Y-119773700D01*
X87995500Y-121250400D02*
X85003400Y-121250400D01*
X79052300Y-118231000D02*
X79372200Y-117911100D01*
X79372200Y-117911100D02*
X79052300Y-118231000D01*
%TO.N,/BC1*%
X113330900Y-106610800D02*
X113261700Y-106680000D01*
X113330900Y-103389200D02*
X113330900Y-106610800D01*
X105121900Y-95180200D02*
X113330900Y-103389200D01*
X79472300Y-95180200D02*
X105121900Y-95180200D01*
X111760000Y-106680000D02*
X113261700Y-106680000D01*
%TO.N,/OUTC*%
X86995000Y-71120000D02*
X92075000Y-71120000D01*
%TO.N,/OUTB*%
X99281700Y-71120000D02*
X102860000Y-74698300D01*
X97155000Y-71120000D02*
X99281700Y-71120000D01*
X102860000Y-76200000D02*
X102860000Y-74698300D01*
%TO.N,Net-(R3-Pad2)*%
X96520000Y-116840000D02*
X98021700Y-116840000D01*
X106892000Y-122568600D02*
X106892000Y-123920600D01*
X102398000Y-118074600D02*
X106892000Y-122568600D01*
X99256300Y-118074600D02*
X102398000Y-118074600D01*
X98021700Y-116840000D02*
X99256300Y-118074600D01*
X107410600Y-123920600D02*
X106892000Y-123920600D01*
X109220000Y-125730000D02*
X107410600Y-123920600D01*
X93414500Y-127490500D02*
X87555000Y-133350000D01*
X103961200Y-127490500D02*
X93414500Y-127490500D01*
X105241700Y-126210000D02*
X103961200Y-127490500D01*
X105241700Y-125570900D02*
X105241700Y-126210000D01*
X106892000Y-123920600D02*
X105241700Y-125570900D01*
%TO.N,Net-(R2-Pad2)*%
X92705000Y-132970100D02*
X92705000Y-133350000D01*
X97408600Y-128266500D02*
X92705000Y-132970100D01*
X104143600Y-128266500D02*
X97408600Y-128266500D01*
X104143600Y-128266400D02*
X104143600Y-128266500D01*
X106680000Y-125730000D02*
X104143600Y-128266400D01*
%TO.N,Net-(R1-Pad2)*%
X99614700Y-125730000D02*
X98217900Y-124333200D01*
X104140000Y-125730000D02*
X99614700Y-125730000D01*
%TO.N,/D1*%
X97780000Y-91440000D02*
X97780000Y-92941700D01*
X78519100Y-93876700D02*
X78283700Y-94112100D01*
X96845000Y-93876700D02*
X78519100Y-93876700D01*
X97780000Y-92941700D02*
X96845000Y-93876700D01*
X78283700Y-94112100D02*
X78118900Y-94276900D01*
X78283700Y-94112100D02*
X78118900Y-94276900D01*
X66369000Y-94276900D02*
X65651300Y-93559200D01*
X78118900Y-94276900D02*
X66369000Y-94276900D01*
%TO.N,/D0*%
X78371200Y-94792800D02*
X64427300Y-94792800D01*
X78885600Y-94278400D02*
X78371200Y-94792800D01*
X98983300Y-94278400D02*
X78885600Y-94278400D01*
X100320000Y-92941700D02*
X98983300Y-94278400D01*
X100320000Y-91440000D02*
X100320000Y-92941700D01*
%TO.N,/A0*%
X73076000Y-138707300D02*
X71115000Y-140668300D01*
X81730200Y-138707300D02*
X73076000Y-138707300D01*
X71115000Y-144780000D02*
X71115000Y-140668300D01*
%TO.N,/A1*%
X74460400Y-139862900D02*
X73655000Y-140668300D01*
X74914500Y-139862900D02*
X74460400Y-139862900D01*
X73655000Y-144780000D02*
X73655000Y-140668300D01*
X79982400Y-115616900D02*
X87442200Y-115616900D01*
X79052300Y-114686800D02*
X79982400Y-115616900D01*
X89334000Y-106680000D02*
X96520000Y-106680000D01*
X88441600Y-107572400D02*
X89334000Y-106680000D01*
X87442200Y-115616900D02*
X87880300Y-115178800D01*
X87880300Y-115178800D02*
X87442200Y-115616900D01*
X79052300Y-114686800D02*
X77968600Y-115770500D01*
X77968600Y-115770500D02*
X79052300Y-114686800D01*
%TO.N,/~{IOREQ}*%
X106911700Y-110490000D02*
X103101700Y-106680000D01*
X112462100Y-110490000D02*
X106911700Y-110490000D01*
X113261700Y-111289600D02*
X112462100Y-110490000D01*
X113261700Y-119380000D02*
X113261700Y-111289600D01*
X111760000Y-119380000D02*
X113261700Y-119380000D01*
X101600000Y-106680000D02*
X103101700Y-106680000D01*
%TO.N,/A2*%
X76195000Y-144780000D02*
X76195000Y-140668300D01*
X82706900Y-138941400D02*
X82708500Y-138939800D01*
X82346900Y-138941400D02*
X82706900Y-138941400D01*
X82346900Y-138941500D02*
X82346900Y-138941400D01*
X81979400Y-139309000D02*
X82346900Y-138941500D01*
X77554300Y-139309000D02*
X81979400Y-139309000D01*
X76195000Y-140668300D02*
X77554300Y-139309000D01*
%TO.N,/A6*%
X104135000Y-133355000D02*
X104140000Y-133350000D01*
X104135000Y-144780000D02*
X104135000Y-133355000D01*
%TO.N,/~{RD}*%
X106347900Y-130492500D02*
X96033400Y-130492500D01*
X110334000Y-126506400D02*
X106347900Y-130492500D01*
X110334000Y-123829500D02*
X110334000Y-126506400D01*
X110258300Y-123753800D02*
X110334000Y-123829500D01*
X110258300Y-116840000D02*
X110258300Y-123753800D01*
X111760000Y-116840000D02*
X110258300Y-116840000D01*
%TO.N,/A3*%
X78735000Y-144780000D02*
X78735000Y-140668300D01*
X81851000Y-140668300D02*
X78735000Y-140668300D01*
X83334400Y-139184900D02*
X81851000Y-140668300D01*
X83334400Y-138156700D02*
X83334400Y-139184900D01*
X83282700Y-138105000D02*
X83334400Y-138156700D01*
%TO.N,/A4*%
X109215000Y-133355000D02*
X109215000Y-144780000D01*
X109220000Y-133350000D02*
X109215000Y-133355000D01*
%TO.N,/A7*%
X101595000Y-144780000D02*
X101595000Y-140668300D01*
X73068000Y-137503300D02*
X70176500Y-140394800D01*
X98430000Y-137503300D02*
X73068000Y-137503300D01*
X101595000Y-140668300D02*
X98430000Y-137503300D01*
%TO.N,/~{RESET}*%
X102313600Y-123557200D02*
X103384700Y-124628300D01*
X63937200Y-123557200D02*
X102313600Y-123557200D01*
X63937200Y-123557200D02*
X63653100Y-123841300D01*
%TO.N,/A5*%
X106675000Y-133355000D02*
X106675000Y-144780000D01*
X106680000Y-133350000D02*
X106675000Y-133355000D01*
%TO.N,Net-(CO3-Pin_1)*%
X87506700Y-54873200D02*
X87506700Y-54610000D01*
X89404800Y-56771300D02*
X87506700Y-54873200D01*
X100648400Y-56771300D02*
X89404800Y-56771300D01*
X100768700Y-56651000D02*
X100648400Y-56771300D01*
X103156100Y-56651000D02*
X100768700Y-56651000D01*
X104345100Y-57840000D02*
X103156100Y-56651000D01*
X86355000Y-54610000D02*
X87506700Y-54610000D01*
X62064500Y-68115500D02*
X59060000Y-71120000D01*
X66036000Y-68115500D02*
X62064500Y-68115500D01*
X83459600Y-52866300D02*
X85203300Y-54610000D01*
X63246000Y-52866300D02*
X83459600Y-52866300D01*
X62900800Y-53211500D02*
X63246000Y-52866300D01*
X62900800Y-59725800D02*
X62900800Y-53211500D01*
X66675000Y-63500000D02*
X62900800Y-59725800D01*
X86355000Y-54610000D02*
X85203300Y-54610000D01*
%TO.N,Net-(CO3-Pin_2)*%
X90634400Y-56349400D02*
X88895000Y-54610000D01*
X100302100Y-56349400D02*
X90634400Y-56349400D01*
X100466900Y-56184600D02*
X100302100Y-56349400D01*
X107689700Y-56184600D02*
X100466900Y-56184600D01*
X109345100Y-57840000D02*
X107689700Y-56184600D01*
X62854700Y-67274700D02*
X59080000Y-63500000D01*
X71755000Y-67274700D02*
X62854700Y-67274700D01*
X71755000Y-71120000D02*
X71755000Y-67274700D01*
X83303900Y-67274700D02*
X71755000Y-67274700D01*
X85263300Y-65315300D02*
X83303900Y-67274700D01*
%TO.N,/D7*%
X82451300Y-89849600D02*
X82540000Y-89938300D01*
X59262400Y-89849600D02*
X82451300Y-89849600D01*
X53467800Y-95644200D02*
X59262400Y-89849600D01*
X53467800Y-99902800D02*
X53467800Y-95644200D01*
X82540000Y-91440000D02*
X82540000Y-89938300D01*
%TO.N,/D2*%
X94977400Y-93204300D02*
X95240000Y-92941700D01*
X70900400Y-93204300D02*
X94977400Y-93204300D01*
X95240000Y-91440000D02*
X95240000Y-92941700D01*
%TO.N,/CLK*%
X68575000Y-144780000D02*
X68575000Y-140668300D01*
X67648000Y-139741300D02*
X68575000Y-140668300D01*
X55853300Y-139741300D02*
X67648000Y-139741300D01*
X55547300Y-140047300D02*
X55853300Y-139741300D01*
D23*
%TO.N,VCC*%
X94568300Y-104073300D02*
X94568300Y-104140000D01*
X90190000Y-99695000D02*
X94568300Y-104073300D01*
X96520000Y-104140000D02*
X94568300Y-104140000D01*
X111760000Y-104140000D02*
X109808300Y-104140000D01*
X87676700Y-99695000D02*
X83231700Y-104140000D01*
X90190000Y-99695000D02*
X87676700Y-99695000D01*
X82255900Y-104140000D02*
X83231700Y-104140000D01*
X82255900Y-104140000D02*
X81280000Y-104140000D01*
X81280000Y-104140000D02*
X79328300Y-104140000D01*
X55880000Y-111760000D02*
X66040000Y-111760000D01*
X92705000Y-125730000D02*
X97785000Y-125730000D01*
X67300000Y-91440000D02*
X67300000Y-93391700D01*
X69840000Y-91440000D02*
X69840000Y-93391700D01*
X68371600Y-125730000D02*
X87555000Y-125730000D01*
X54459100Y-139642500D02*
X68371600Y-125730000D01*
X54459100Y-143364100D02*
X54459100Y-139642500D01*
X55875000Y-144780000D02*
X54459100Y-143364100D01*
X111166700Y-89488300D02*
X111755000Y-88900000D01*
X107940000Y-89488300D02*
X111166700Y-89488300D01*
X107940000Y-91440000D02*
X107940000Y-89488300D01*
X96520000Y-104140000D02*
X98471700Y-104140000D01*
X107930000Y-102554600D02*
X107930000Y-99695000D01*
X108222900Y-102554600D02*
X107930000Y-102554600D01*
X109808300Y-104140000D02*
X108222900Y-102554600D01*
X100057100Y-102554600D02*
X98471700Y-104140000D01*
X107930000Y-102554600D02*
X100057100Y-102554600D01*
X59710000Y-99695000D02*
X59710000Y-104140000D01*
X55880000Y-104140000D02*
X59710000Y-104140000D01*
X59710000Y-104140000D02*
X66040000Y-104140000D01*
X77271100Y-102082800D02*
X74950000Y-102082800D01*
X79328300Y-104140000D02*
X77271100Y-102082800D01*
X66040000Y-104140000D02*
X67991700Y-104140000D01*
X74950000Y-102082800D02*
X74950000Y-99695000D01*
X70048900Y-102082800D02*
X67991700Y-104140000D01*
X74950000Y-102082800D02*
X70048900Y-102082800D01*
X87555000Y-125730000D02*
X92705000Y-125730000D01*
X69840000Y-93391700D02*
X67300000Y-93391700D01*
%TO.N,GND*%
X89873000Y-120941300D02*
X88311700Y-119380000D01*
X98087000Y-120941300D02*
X89873000Y-120941300D01*
X99648300Y-119380000D02*
X98087000Y-120941300D01*
X101600000Y-119380000D02*
X99648300Y-119380000D01*
X86360000Y-119380000D02*
X88311700Y-119380000D01*
X63761700Y-98143300D02*
X77450000Y-98143300D01*
X62210000Y-99695000D02*
X63761700Y-98143300D01*
X77450000Y-98143300D02*
X77450000Y-99695000D01*
X91138300Y-98143300D02*
X92690000Y-99695000D01*
X77450000Y-98143300D02*
X91138300Y-98143300D01*
X66035000Y-144780000D02*
X63495000Y-144780000D01*
X71120000Y-119380000D02*
X73071700Y-119380000D01*
X55880000Y-119380000D02*
X57831700Y-119380000D01*
X71120000Y-119380000D02*
X69168300Y-119380000D01*
X105430000Y-99695000D02*
X92690000Y-99695000D01*
X75611700Y-116840000D02*
X81280000Y-116840000D01*
X73071700Y-119380000D02*
X75611700Y-116840000D01*
X81280000Y-116840000D02*
X83231700Y-116840000D01*
X86360000Y-119380000D02*
X84408300Y-119380000D01*
X62969800Y-144254800D02*
X63495000Y-144780000D01*
X61628800Y-144254800D02*
X62969800Y-144254800D01*
X59414300Y-120962600D02*
X57831700Y-119380000D01*
X67585700Y-120962600D02*
X59414300Y-120962600D01*
X69168300Y-119380000D02*
X67585700Y-120962600D01*
X84408300Y-118016600D02*
X83231700Y-116840000D01*
X84408300Y-119380000D02*
X84408300Y-118016600D01*
D24*
%TO.N,Net-(C2-Pad1)*%
X90943900Y-64631100D02*
X92075000Y-63500000D01*
X77966100Y-64631100D02*
X90943900Y-64631100D01*
X76835000Y-63500000D02*
X77966100Y-64631100D01*
X97155000Y-63500000D02*
X92075000Y-63500000D01*
X73560000Y-63500000D02*
X76835000Y-63500000D01*
X64035000Y-53975000D02*
X73560000Y-63500000D01*
%TO.N,Net-(C1-Pad1)*%
X86995000Y-63500000D02*
X81915000Y-63500000D01*
X101090700Y-62355700D02*
X86995000Y-62355700D01*
X102235000Y-63500000D02*
X101090700Y-62355700D01*
X86995000Y-62355700D02*
X86995000Y-63500000D01*
X79495700Y-62355700D02*
X71115000Y-53975000D01*
X86995000Y-62355700D02*
X79495700Y-62355700D01*
%TD*%
M02*
