M48
; DRILL file {KiCad 9.0.3} date 2025-08-11T16:39:59+0100
; FORMAT={-:-/ absolute / metric / decimal}
; #@! TF.CreationDate,2025-08-11T16:39:59+01:00
; #@! TF.GenerationSoftware,Kicad,Pcbnew,9.0.3
; #@! TF.FileFunction,Plated,1,2,PTH
FMAT,2
METRIC
; #@! TA.AperFunction,Plated,PTH,ViaDrill
T1C0.300
; #@! TA.AperFunction,Plated,PTH,ViaDrill
T2C0.400
; #@! TA.AperFunction,Plated,PTH,ComponentDrill
T3C0.800
; #@! TA.AperFunction,Plated,PTH,ComponentDrill
T4C1.000
; #@! TA.AperFunction,Plated,PTH,ComponentDrill
T5C1.245
%
G90
G05
T1
X58.685Y-97.496
X65.902Y-93.644
X66.167Y-95.157
X67.858Y-138.341
X67.903Y-94.401
X68.882Y-113.651
X73.615Y-92.992
X73.854Y-65.805
X77.066Y-140.395
X77.351Y-123.256
X79.472Y-97.131
X83.371Y-140.395
X83.556Y-106.967
X85.72Y-137.95
X91.822Y-123.223
X93.522Y-128.651
X94.641Y-127.236
X99.208Y-129.41
X99.217Y-135.226
X104.921Y-130.482
X106.108Y-120.073
X108.978Y-93.08
T2
X93.95Y-96.249
T3
X54.615Y-71.12
X54.635Y-63.5
X55.88Y-104.14
X55.88Y-106.68
X55.88Y-109.22
X55.88Y-111.76
X55.88Y-114.3
X55.88Y-116.84
X55.88Y-119.38
X57.115Y-71.12
X57.135Y-63.5
X59.68Y-76.2
X59.68Y-91.44
X59.71Y-99.695
X62.21Y-99.695
X62.22Y-76.2
X62.22Y-91.44
X62.23Y-63.5
X62.23Y-71.12
X64.035Y-53.975
X64.76Y-76.2
X64.76Y-91.44
X66.035Y-53.975
X66.04Y-104.14
X66.04Y-106.68
X66.04Y-109.22
X66.04Y-111.76
X66.04Y-114.3
X66.04Y-116.84
X66.04Y-119.38
X67.3Y-76.2
X67.3Y-91.44
X67.31Y-63.5
X67.31Y-71.12
X69.84Y-76.2
X69.84Y-91.44
X71.115Y-53.975
X71.12Y-104.14
X71.12Y-106.68
X71.12Y-109.22
X71.12Y-111.76
X71.12Y-114.3
X71.12Y-116.84
X71.12Y-119.38
X72.38Y-76.2
X72.38Y-91.44
X72.39Y-63.5
X72.39Y-71.12
X73.115Y-53.975
X74.92Y-76.2
X74.92Y-91.44
X74.95Y-99.695
X77.45Y-99.695
X77.46Y-76.2
X77.46Y-91.44
X77.47Y-63.5
X77.47Y-71.12
X80.0Y-76.2
X80.0Y-91.44
X81.28Y-104.14
X81.28Y-106.68
X81.28Y-109.22
X81.28Y-111.76
X81.28Y-114.3
X81.28Y-116.84
X81.28Y-119.38
X82.54Y-76.2
X82.54Y-91.44
X82.55Y-63.5
X82.55Y-71.12
X85.08Y-76.2
X85.08Y-91.44
X86.36Y-104.14
X86.36Y-106.68
X86.36Y-109.22
X86.36Y-111.76
X86.36Y-114.3
X86.36Y-116.84
X86.36Y-119.38
X87.555Y-125.73
X87.555Y-133.35
X87.62Y-76.2
X87.62Y-91.44
X87.63Y-63.5
X87.63Y-71.12
X90.16Y-76.2
X90.16Y-91.44
X90.19Y-99.695
X92.69Y-99.695
X92.7Y-76.2
X92.7Y-91.44
X92.705Y-125.73
X92.705Y-133.35
X92.71Y-63.5
X92.71Y-71.12
X95.24Y-76.2
X95.24Y-91.44
X96.52Y-104.14
X96.52Y-106.68
X96.52Y-109.22
X96.52Y-111.76
X96.52Y-114.3
X96.52Y-116.84
X96.52Y-119.38
X97.78Y-76.2
X97.78Y-91.44
X97.785Y-125.73
X97.785Y-133.35
X97.79Y-63.5
X97.79Y-71.12
X100.32Y-76.2
X100.32Y-91.44
X101.6Y-104.14
X101.6Y-106.68
X101.6Y-109.22
X101.6Y-111.76
X101.6Y-114.3
X101.6Y-116.84
X101.6Y-119.38
X102.86Y-76.2
X102.86Y-91.44
X104.14Y-125.73
X104.14Y-133.35
X105.4Y-76.2
X105.4Y-91.44
X105.43Y-99.695
X106.68Y-125.73
X106.68Y-133.35
X107.93Y-99.695
X107.94Y-76.2
X107.94Y-91.44
X109.22Y-125.73
X109.22Y-133.35
X111.755Y-88.9
X111.755Y-91.4
X111.76Y-104.14
X111.76Y-106.68
X111.76Y-109.22
X111.76Y-111.76
X111.76Y-114.3
X111.76Y-116.84
X111.76Y-119.38
T4
X86.355Y-54.61
X88.895Y-54.61
X91.435Y-54.61
T5
X101.845Y-57.84
X104.345Y-57.84
X106.845Y-52.84
X109.345Y-57.84
X111.845Y-57.84
M30
