%TF.GenerationSoftware,KiCad,Pcbnew,9.0.3*%
%TF.CreationDate,2025-08-11T16:40:01+01:00*%
%TF.ProjectId,MyZON-X,4d795a4f-4e2d-4582-9e6b-696361645f70,1.0*%
%TF.SameCoordinates,Original*%
%TF.FileFunction,Legend,Bot*%
%TF.FilePolarity,Positive*%
%FSLAX46Y46*%
G04 Gerber Fmt 4.6, Leading zero omitted, Abs format (unit mm)*
G04 Created by KiCad (PCBNEW 9.0.3) date 2025-08-11 16:40:01*
%MOMM*%
%LPD*%
G01*
G04 APERTURE LIST*
%ADD10C,0.100000*%
%ADD11C,0.508000*%
G04 APERTURE END LIST*
D10*
X108803327Y-140713734D02*
X108803327Y-140237544D01*
X108517612Y-140808972D02*
X109517612Y-140475639D01*
X109517612Y-140475639D02*
X108517612Y-140142306D01*
X109184279Y-139380401D02*
X108517612Y-139380401D01*
X109565232Y-139618496D02*
X108850946Y-139856591D01*
X108850946Y-139856591D02*
X108850946Y-139237544D01*
X68197419Y-140094687D02*
X68149800Y-140142306D01*
X68149800Y-140142306D02*
X68102180Y-140285163D01*
X68102180Y-140285163D02*
X68102180Y-140380401D01*
X68102180Y-140380401D02*
X68149800Y-140523258D01*
X68149800Y-140523258D02*
X68245038Y-140618496D01*
X68245038Y-140618496D02*
X68340276Y-140666115D01*
X68340276Y-140666115D02*
X68530752Y-140713734D01*
X68530752Y-140713734D02*
X68673609Y-140713734D01*
X68673609Y-140713734D02*
X68864085Y-140666115D01*
X68864085Y-140666115D02*
X68959323Y-140618496D01*
X68959323Y-140618496D02*
X69054561Y-140523258D01*
X69054561Y-140523258D02*
X69102180Y-140380401D01*
X69102180Y-140380401D02*
X69102180Y-140285163D01*
X69102180Y-140285163D02*
X69054561Y-140142306D01*
X69054561Y-140142306D02*
X69006942Y-140094687D01*
X68102180Y-139189925D02*
X68102180Y-139666115D01*
X68102180Y-139666115D02*
X69102180Y-139666115D01*
X68102180Y-138856591D02*
X69102180Y-138856591D01*
X68102180Y-138285163D02*
X68673609Y-138713734D01*
X69102180Y-138285163D02*
X68530752Y-138856591D01*
X91263277Y-140713734D02*
X91263277Y-140237544D01*
X90977562Y-140808972D02*
X91977562Y-140475639D01*
X91977562Y-140475639D02*
X90977562Y-140142306D01*
X90977562Y-139285163D02*
X90977562Y-139856591D01*
X90977562Y-139570877D02*
X91977562Y-139570877D01*
X91977562Y-139570877D02*
X91834705Y-139666115D01*
X91834705Y-139666115D02*
X91739467Y-139761353D01*
X91739467Y-139761353D02*
X91691848Y-139856591D01*
X90977562Y-138332782D02*
X90977562Y-138904210D01*
X90977562Y-138618496D02*
X91977562Y-138618496D01*
X91977562Y-138618496D02*
X91834705Y-138713734D01*
X91834705Y-138713734D02*
X91739467Y-138808972D01*
X91739467Y-138808972D02*
X91691848Y-138904210D01*
X80987895Y-140713734D02*
X80987895Y-140237544D01*
X80702180Y-140808972D02*
X81702180Y-140475639D01*
X81702180Y-140475639D02*
X80702180Y-140142306D01*
X80702180Y-139285163D02*
X80702180Y-139856591D01*
X80702180Y-139570877D02*
X81702180Y-139570877D01*
X81702180Y-139570877D02*
X81559323Y-139666115D01*
X81559323Y-139666115D02*
X81464085Y-139761353D01*
X81464085Y-139761353D02*
X81416466Y-139856591D01*
X81702180Y-138380401D02*
X81702180Y-138856591D01*
X81702180Y-138856591D02*
X81225990Y-138904210D01*
X81225990Y-138904210D02*
X81273609Y-138856591D01*
X81273609Y-138856591D02*
X81321228Y-138761353D01*
X81321228Y-138761353D02*
X81321228Y-138523258D01*
X81321228Y-138523258D02*
X81273609Y-138428020D01*
X81273609Y-138428020D02*
X81225990Y-138380401D01*
X81225990Y-138380401D02*
X81130752Y-138332782D01*
X81130752Y-138332782D02*
X80892657Y-138332782D01*
X80892657Y-138332782D02*
X80797419Y-138380401D01*
X80797419Y-138380401D02*
X80749800Y-138428020D01*
X80749800Y-138428020D02*
X80702180Y-138523258D01*
X80702180Y-138523258D02*
X80702180Y-138761353D01*
X80702180Y-138761353D02*
X80749800Y-138856591D01*
X80749800Y-138856591D02*
X80797419Y-138904210D01*
X66504561Y-140142306D02*
X66552180Y-140237544D01*
X66552180Y-140237544D02*
X66552180Y-140380401D01*
X66552180Y-140380401D02*
X66504561Y-140523258D01*
X66504561Y-140523258D02*
X66409323Y-140618496D01*
X66409323Y-140618496D02*
X66314085Y-140666115D01*
X66314085Y-140666115D02*
X66123609Y-140713734D01*
X66123609Y-140713734D02*
X65980752Y-140713734D01*
X65980752Y-140713734D02*
X65790276Y-140666115D01*
X65790276Y-140666115D02*
X65695038Y-140618496D01*
X65695038Y-140618496D02*
X65599800Y-140523258D01*
X65599800Y-140523258D02*
X65552180Y-140380401D01*
X65552180Y-140380401D02*
X65552180Y-140285163D01*
X65552180Y-140285163D02*
X65599800Y-140142306D01*
X65599800Y-140142306D02*
X65647419Y-140094687D01*
X65647419Y-140094687D02*
X65980752Y-140094687D01*
X65980752Y-140094687D02*
X65980752Y-140285163D01*
X65552180Y-139666115D02*
X66552180Y-139666115D01*
X66552180Y-139666115D02*
X65552180Y-139094687D01*
X65552180Y-139094687D02*
X66552180Y-139094687D01*
X65552180Y-138618496D02*
X66552180Y-138618496D01*
X66552180Y-138618496D02*
X66552180Y-138380401D01*
X66552180Y-138380401D02*
X66504561Y-138237544D01*
X66504561Y-138237544D02*
X66409323Y-138142306D01*
X66409323Y-138142306D02*
X66314085Y-138094687D01*
X66314085Y-138094687D02*
X66123609Y-138047068D01*
X66123609Y-138047068D02*
X65980752Y-138047068D01*
X65980752Y-138047068D02*
X65790276Y-138094687D01*
X65790276Y-138094687D02*
X65695038Y-138142306D01*
X65695038Y-138142306D02*
X65599800Y-138237544D01*
X65599800Y-138237544D02*
X65552180Y-138380401D01*
X65552180Y-138380401D02*
X65552180Y-138618496D01*
X101423277Y-140713734D02*
X101423277Y-140237544D01*
X101137562Y-140808972D02*
X102137562Y-140475639D01*
X102137562Y-140475639D02*
X101137562Y-140142306D01*
X102137562Y-139904210D02*
X102137562Y-139237544D01*
X102137562Y-139237544D02*
X101137562Y-139666115D01*
X55633133Y-140666115D02*
X55633133Y-139904211D01*
X55252180Y-140285163D02*
X56014085Y-140285163D01*
X56252180Y-138951830D02*
X56252180Y-139428020D01*
X56252180Y-139428020D02*
X55775990Y-139475639D01*
X55775990Y-139475639D02*
X55823609Y-139428020D01*
X55823609Y-139428020D02*
X55871228Y-139332782D01*
X55871228Y-139332782D02*
X55871228Y-139094687D01*
X55871228Y-139094687D02*
X55823609Y-138999449D01*
X55823609Y-138999449D02*
X55775990Y-138951830D01*
X55775990Y-138951830D02*
X55680752Y-138904211D01*
X55680752Y-138904211D02*
X55442657Y-138904211D01*
X55442657Y-138904211D02*
X55347419Y-138951830D01*
X55347419Y-138951830D02*
X55299800Y-138999449D01*
X55299800Y-138999449D02*
X55252180Y-139094687D01*
X55252180Y-139094687D02*
X55252180Y-139332782D01*
X55252180Y-139332782D02*
X55299800Y-139428020D01*
X55299800Y-139428020D02*
X55347419Y-139475639D01*
X56252180Y-138618496D02*
X55252180Y-138285163D01*
X55252180Y-138285163D02*
X56252180Y-137951830D01*
X106310117Y-140713734D02*
X106310117Y-140237544D01*
X106024402Y-140808972D02*
X107024402Y-140475639D01*
X107024402Y-140475639D02*
X106024402Y-140142306D01*
X107024402Y-139332782D02*
X107024402Y-139808972D01*
X107024402Y-139808972D02*
X106548212Y-139856591D01*
X106548212Y-139856591D02*
X106595831Y-139808972D01*
X106595831Y-139808972D02*
X106643450Y-139713734D01*
X106643450Y-139713734D02*
X106643450Y-139475639D01*
X106643450Y-139475639D02*
X106595831Y-139380401D01*
X106595831Y-139380401D02*
X106548212Y-139332782D01*
X106548212Y-139332782D02*
X106452974Y-139285163D01*
X106452974Y-139285163D02*
X106214879Y-139285163D01*
X106214879Y-139285163D02*
X106119641Y-139332782D01*
X106119641Y-139332782D02*
X106072022Y-139380401D01*
X106072022Y-139380401D02*
X106024402Y-139475639D01*
X106024402Y-139475639D02*
X106024402Y-139713734D01*
X106024402Y-139713734D02*
X106072022Y-139808972D01*
X106072022Y-139808972D02*
X106119641Y-139856591D01*
X83687895Y-140713734D02*
X83687895Y-140237544D01*
X83402180Y-140808972D02*
X84402180Y-140475639D01*
X84402180Y-140475639D02*
X83402180Y-140142306D01*
X83402180Y-139285163D02*
X83402180Y-139856591D01*
X83402180Y-139570877D02*
X84402180Y-139570877D01*
X84402180Y-139570877D02*
X84259323Y-139666115D01*
X84259323Y-139666115D02*
X84164085Y-139761353D01*
X84164085Y-139761353D02*
X84116466Y-139856591D01*
X84068847Y-138428020D02*
X83402180Y-138428020D01*
X84449800Y-138666115D02*
X83735514Y-138904210D01*
X83735514Y-138904210D02*
X83735514Y-138285163D01*
X111297562Y-140094687D02*
X111773753Y-140428020D01*
X111297562Y-140666115D02*
X112297562Y-140666115D01*
X112297562Y-140666115D02*
X112297562Y-140285163D01*
X112297562Y-140285163D02*
X112249943Y-140189925D01*
X112249943Y-140189925D02*
X112202324Y-140142306D01*
X112202324Y-140142306D02*
X112107086Y-140094687D01*
X112107086Y-140094687D02*
X111964229Y-140094687D01*
X111964229Y-140094687D02*
X111868991Y-140142306D01*
X111868991Y-140142306D02*
X111821372Y-140189925D01*
X111821372Y-140189925D02*
X111773753Y-140285163D01*
X111773753Y-140285163D02*
X111773753Y-140666115D01*
X112297562Y-139475639D02*
X112297562Y-139285163D01*
X112297562Y-139285163D02*
X112249943Y-139189925D01*
X112249943Y-139189925D02*
X112154705Y-139094687D01*
X112154705Y-139094687D02*
X111964229Y-139047068D01*
X111964229Y-139047068D02*
X111630896Y-139047068D01*
X111630896Y-139047068D02*
X111440420Y-139094687D01*
X111440420Y-139094687D02*
X111345182Y-139189925D01*
X111345182Y-139189925D02*
X111297562Y-139285163D01*
X111297562Y-139285163D02*
X111297562Y-139475639D01*
X111297562Y-139475639D02*
X111345182Y-139570877D01*
X111345182Y-139570877D02*
X111440420Y-139666115D01*
X111440420Y-139666115D02*
X111630896Y-139713734D01*
X111630896Y-139713734D02*
X111964229Y-139713734D01*
X111964229Y-139713734D02*
X112154705Y-139666115D01*
X112154705Y-139666115D02*
X112249943Y-139570877D01*
X112249943Y-139570877D02*
X112297562Y-139475639D01*
X111297562Y-138618496D02*
X112297562Y-138618496D01*
X112297562Y-138618496D02*
X111583277Y-138285163D01*
X111583277Y-138285163D02*
X112297562Y-137951830D01*
X112297562Y-137951830D02*
X111297562Y-137951830D01*
X111392801Y-136904211D02*
X111345182Y-136951830D01*
X111345182Y-136951830D02*
X111297562Y-137094687D01*
X111297562Y-137094687D02*
X111297562Y-137189925D01*
X111297562Y-137189925D02*
X111345182Y-137332782D01*
X111345182Y-137332782D02*
X111440420Y-137428020D01*
X111440420Y-137428020D02*
X111535658Y-137475639D01*
X111535658Y-137475639D02*
X111726134Y-137523258D01*
X111726134Y-137523258D02*
X111868991Y-137523258D01*
X111868991Y-137523258D02*
X112059467Y-137475639D01*
X112059467Y-137475639D02*
X112154705Y-137428020D01*
X112154705Y-137428020D02*
X112249943Y-137332782D01*
X112249943Y-137332782D02*
X112297562Y-137189925D01*
X112297562Y-137189925D02*
X112297562Y-137094687D01*
X112297562Y-137094687D02*
X112249943Y-136951830D01*
X112249943Y-136951830D02*
X112202324Y-136904211D01*
X111345182Y-136523258D02*
X111297562Y-136380401D01*
X111297562Y-136380401D02*
X111297562Y-136142306D01*
X111297562Y-136142306D02*
X111345182Y-136047068D01*
X111345182Y-136047068D02*
X111392801Y-135999449D01*
X111392801Y-135999449D02*
X111488039Y-135951830D01*
X111488039Y-135951830D02*
X111583277Y-135951830D01*
X111583277Y-135951830D02*
X111678515Y-135999449D01*
X111678515Y-135999449D02*
X111726134Y-136047068D01*
X111726134Y-136047068D02*
X111773753Y-136142306D01*
X111773753Y-136142306D02*
X111821372Y-136332782D01*
X111821372Y-136332782D02*
X111868991Y-136428020D01*
X111868991Y-136428020D02*
X111916610Y-136475639D01*
X111916610Y-136475639D02*
X112011848Y-136523258D01*
X112011848Y-136523258D02*
X112107086Y-136523258D01*
X112107086Y-136523258D02*
X112202324Y-136475639D01*
X112202324Y-136475639D02*
X112249943Y-136428020D01*
X112249943Y-136428020D02*
X112297562Y-136332782D01*
X112297562Y-136332782D02*
X112297562Y-136094687D01*
X112297562Y-136094687D02*
X112249943Y-135951830D01*
X112575182Y-140804211D02*
X112575182Y-135861354D01*
X63989943Y-140142306D02*
X64037562Y-140237544D01*
X64037562Y-140237544D02*
X64037562Y-140380401D01*
X64037562Y-140380401D02*
X63989943Y-140523258D01*
X63989943Y-140523258D02*
X63894705Y-140618496D01*
X63894705Y-140618496D02*
X63799467Y-140666115D01*
X63799467Y-140666115D02*
X63608991Y-140713734D01*
X63608991Y-140713734D02*
X63466134Y-140713734D01*
X63466134Y-140713734D02*
X63275658Y-140666115D01*
X63275658Y-140666115D02*
X63180420Y-140618496D01*
X63180420Y-140618496D02*
X63085182Y-140523258D01*
X63085182Y-140523258D02*
X63037562Y-140380401D01*
X63037562Y-140380401D02*
X63037562Y-140285163D01*
X63037562Y-140285163D02*
X63085182Y-140142306D01*
X63085182Y-140142306D02*
X63132801Y-140094687D01*
X63132801Y-140094687D02*
X63466134Y-140094687D01*
X63466134Y-140094687D02*
X63466134Y-140285163D01*
X63037562Y-139666115D02*
X64037562Y-139666115D01*
X64037562Y-139666115D02*
X63037562Y-139094687D01*
X63037562Y-139094687D02*
X64037562Y-139094687D01*
X63037562Y-138618496D02*
X64037562Y-138618496D01*
X64037562Y-138618496D02*
X64037562Y-138380401D01*
X64037562Y-138380401D02*
X63989943Y-138237544D01*
X63989943Y-138237544D02*
X63894705Y-138142306D01*
X63894705Y-138142306D02*
X63799467Y-138094687D01*
X63799467Y-138094687D02*
X63608991Y-138047068D01*
X63608991Y-138047068D02*
X63466134Y-138047068D01*
X63466134Y-138047068D02*
X63275658Y-138094687D01*
X63275658Y-138094687D02*
X63180420Y-138142306D01*
X63180420Y-138142306D02*
X63085182Y-138237544D01*
X63085182Y-138237544D02*
X63037562Y-138380401D01*
X63037562Y-138380401D02*
X63037562Y-138618496D01*
X88723277Y-140713734D02*
X88723277Y-140237544D01*
X88437562Y-140808972D02*
X89437562Y-140475639D01*
X89437562Y-140475639D02*
X88437562Y-140142306D01*
X88437562Y-139285163D02*
X88437562Y-139856591D01*
X88437562Y-139570877D02*
X89437562Y-139570877D01*
X89437562Y-139570877D02*
X89294705Y-139666115D01*
X89294705Y-139666115D02*
X89199467Y-139761353D01*
X89199467Y-139761353D02*
X89151848Y-139856591D01*
X89342324Y-138904210D02*
X89389943Y-138856591D01*
X89389943Y-138856591D02*
X89437562Y-138761353D01*
X89437562Y-138761353D02*
X89437562Y-138523258D01*
X89437562Y-138523258D02*
X89389943Y-138428020D01*
X89389943Y-138428020D02*
X89342324Y-138380401D01*
X89342324Y-138380401D02*
X89247086Y-138332782D01*
X89247086Y-138332782D02*
X89151848Y-138332782D01*
X89151848Y-138332782D02*
X89008991Y-138380401D01*
X89008991Y-138380401D02*
X88437562Y-138951829D01*
X88437562Y-138951829D02*
X88437562Y-138332782D01*
X93825549Y-140713734D02*
X93825549Y-140237544D01*
X93539834Y-140808972D02*
X94539834Y-140475639D01*
X94539834Y-140475639D02*
X93539834Y-140142306D01*
X93539834Y-139285163D02*
X93539834Y-139856591D01*
X93539834Y-139570877D02*
X94539834Y-139570877D01*
X94539834Y-139570877D02*
X94396977Y-139666115D01*
X94396977Y-139666115D02*
X94301739Y-139761353D01*
X94301739Y-139761353D02*
X94254120Y-139856591D01*
X94539834Y-138666115D02*
X94539834Y-138570877D01*
X94539834Y-138570877D02*
X94492215Y-138475639D01*
X94492215Y-138475639D02*
X94444596Y-138428020D01*
X94444596Y-138428020D02*
X94349358Y-138380401D01*
X94349358Y-138380401D02*
X94158882Y-138332782D01*
X94158882Y-138332782D02*
X93920787Y-138332782D01*
X93920787Y-138332782D02*
X93730311Y-138380401D01*
X93730311Y-138380401D02*
X93635073Y-138428020D01*
X93635073Y-138428020D02*
X93587454Y-138475639D01*
X93587454Y-138475639D02*
X93539834Y-138570877D01*
X93539834Y-138570877D02*
X93539834Y-138666115D01*
X93539834Y-138666115D02*
X93587454Y-138761353D01*
X93587454Y-138761353D02*
X93635073Y-138808972D01*
X93635073Y-138808972D02*
X93730311Y-138856591D01*
X93730311Y-138856591D02*
X93920787Y-138904210D01*
X93920787Y-138904210D02*
X94158882Y-138904210D01*
X94158882Y-138904210D02*
X94349358Y-138856591D01*
X94349358Y-138856591D02*
X94444596Y-138808972D01*
X94444596Y-138808972D02*
X94492215Y-138761353D01*
X94492215Y-138761353D02*
X94539834Y-138666115D01*
X70887895Y-140713734D02*
X70887895Y-140237544D01*
X70602180Y-140808972D02*
X71602180Y-140475639D01*
X71602180Y-140475639D02*
X70602180Y-140142306D01*
X71602180Y-139618496D02*
X71602180Y-139523258D01*
X71602180Y-139523258D02*
X71554561Y-139428020D01*
X71554561Y-139428020D02*
X71506942Y-139380401D01*
X71506942Y-139380401D02*
X71411704Y-139332782D01*
X71411704Y-139332782D02*
X71221228Y-139285163D01*
X71221228Y-139285163D02*
X70983133Y-139285163D01*
X70983133Y-139285163D02*
X70792657Y-139332782D01*
X70792657Y-139332782D02*
X70697419Y-139380401D01*
X70697419Y-139380401D02*
X70649800Y-139428020D01*
X70649800Y-139428020D02*
X70602180Y-139523258D01*
X70602180Y-139523258D02*
X70602180Y-139618496D01*
X70602180Y-139618496D02*
X70649800Y-139713734D01*
X70649800Y-139713734D02*
X70697419Y-139761353D01*
X70697419Y-139761353D02*
X70792657Y-139808972D01*
X70792657Y-139808972D02*
X70983133Y-139856591D01*
X70983133Y-139856591D02*
X71221228Y-139856591D01*
X71221228Y-139856591D02*
X71411704Y-139808972D01*
X71411704Y-139808972D02*
X71506942Y-139761353D01*
X71506942Y-139761353D02*
X71554561Y-139713734D01*
X71554561Y-139713734D02*
X71602180Y-139618496D01*
X75937895Y-140713734D02*
X75937895Y-140237544D01*
X75652180Y-140808972D02*
X76652180Y-140475639D01*
X76652180Y-140475639D02*
X75652180Y-140142306D01*
X76556942Y-139856591D02*
X76604561Y-139808972D01*
X76604561Y-139808972D02*
X76652180Y-139713734D01*
X76652180Y-139713734D02*
X76652180Y-139475639D01*
X76652180Y-139475639D02*
X76604561Y-139380401D01*
X76604561Y-139380401D02*
X76556942Y-139332782D01*
X76556942Y-139332782D02*
X76461704Y-139285163D01*
X76461704Y-139285163D02*
X76366466Y-139285163D01*
X76366466Y-139285163D02*
X76223609Y-139332782D01*
X76223609Y-139332782D02*
X75652180Y-139904210D01*
X75652180Y-139904210D02*
X75652180Y-139285163D01*
X73487895Y-140713734D02*
X73487895Y-140237544D01*
X73202180Y-140808972D02*
X74202180Y-140475639D01*
X74202180Y-140475639D02*
X73202180Y-140142306D01*
X73202180Y-139285163D02*
X73202180Y-139856591D01*
X73202180Y-139570877D02*
X74202180Y-139570877D01*
X74202180Y-139570877D02*
X74059323Y-139666115D01*
X74059323Y-139666115D02*
X73964085Y-139761353D01*
X73964085Y-139761353D02*
X73916466Y-139856591D01*
X98883277Y-140713734D02*
X98883277Y-140237544D01*
X98597562Y-140808972D02*
X99597562Y-140475639D01*
X99597562Y-140475639D02*
X98597562Y-140142306D01*
X99168991Y-139666115D02*
X99216610Y-139761353D01*
X99216610Y-139761353D02*
X99264229Y-139808972D01*
X99264229Y-139808972D02*
X99359467Y-139856591D01*
X99359467Y-139856591D02*
X99407086Y-139856591D01*
X99407086Y-139856591D02*
X99502324Y-139808972D01*
X99502324Y-139808972D02*
X99549943Y-139761353D01*
X99549943Y-139761353D02*
X99597562Y-139666115D01*
X99597562Y-139666115D02*
X99597562Y-139475639D01*
X99597562Y-139475639D02*
X99549943Y-139380401D01*
X99549943Y-139380401D02*
X99502324Y-139332782D01*
X99502324Y-139332782D02*
X99407086Y-139285163D01*
X99407086Y-139285163D02*
X99359467Y-139285163D01*
X99359467Y-139285163D02*
X99264229Y-139332782D01*
X99264229Y-139332782D02*
X99216610Y-139380401D01*
X99216610Y-139380401D02*
X99168991Y-139475639D01*
X99168991Y-139475639D02*
X99168991Y-139666115D01*
X99168991Y-139666115D02*
X99121372Y-139761353D01*
X99121372Y-139761353D02*
X99073753Y-139808972D01*
X99073753Y-139808972D02*
X98978515Y-139856591D01*
X98978515Y-139856591D02*
X98788039Y-139856591D01*
X98788039Y-139856591D02*
X98692801Y-139808972D01*
X98692801Y-139808972D02*
X98645182Y-139761353D01*
X98645182Y-139761353D02*
X98597562Y-139666115D01*
X98597562Y-139666115D02*
X98597562Y-139475639D01*
X98597562Y-139475639D02*
X98645182Y-139380401D01*
X98645182Y-139380401D02*
X98692801Y-139332782D01*
X98692801Y-139332782D02*
X98788039Y-139285163D01*
X98788039Y-139285163D02*
X98978515Y-139285163D01*
X98978515Y-139285163D02*
X99073753Y-139332782D01*
X99073753Y-139332782D02*
X99121372Y-139380401D01*
X99121372Y-139380401D02*
X99168991Y-139475639D01*
X78563277Y-140713734D02*
X78563277Y-140237544D01*
X78277562Y-140808972D02*
X79277562Y-140475639D01*
X79277562Y-140475639D02*
X78277562Y-140142306D01*
X79277562Y-139904210D02*
X79277562Y-139285163D01*
X79277562Y-139285163D02*
X78896610Y-139618496D01*
X78896610Y-139618496D02*
X78896610Y-139475639D01*
X78896610Y-139475639D02*
X78848991Y-139380401D01*
X78848991Y-139380401D02*
X78801372Y-139332782D01*
X78801372Y-139332782D02*
X78706134Y-139285163D01*
X78706134Y-139285163D02*
X78468039Y-139285163D01*
X78468039Y-139285163D02*
X78372801Y-139332782D01*
X78372801Y-139332782D02*
X78325182Y-139380401D01*
X78325182Y-139380401D02*
X78277562Y-139475639D01*
X78277562Y-139475639D02*
X78277562Y-139761353D01*
X78277562Y-139761353D02*
X78325182Y-139856591D01*
X78325182Y-139856591D02*
X78372801Y-139904210D01*
X96343277Y-140713734D02*
X96343277Y-140237544D01*
X96057562Y-140808972D02*
X97057562Y-140475639D01*
X97057562Y-140475639D02*
X96057562Y-140142306D01*
X96057562Y-139761353D02*
X96057562Y-139570877D01*
X96057562Y-139570877D02*
X96105182Y-139475639D01*
X96105182Y-139475639D02*
X96152801Y-139428020D01*
X96152801Y-139428020D02*
X96295658Y-139332782D01*
X96295658Y-139332782D02*
X96486134Y-139285163D01*
X96486134Y-139285163D02*
X96867086Y-139285163D01*
X96867086Y-139285163D02*
X96962324Y-139332782D01*
X96962324Y-139332782D02*
X97009943Y-139380401D01*
X97009943Y-139380401D02*
X97057562Y-139475639D01*
X97057562Y-139475639D02*
X97057562Y-139666115D01*
X97057562Y-139666115D02*
X97009943Y-139761353D01*
X97009943Y-139761353D02*
X96962324Y-139808972D01*
X96962324Y-139808972D02*
X96867086Y-139856591D01*
X96867086Y-139856591D02*
X96628991Y-139856591D01*
X96628991Y-139856591D02*
X96533753Y-139808972D01*
X96533753Y-139808972D02*
X96486134Y-139761353D01*
X96486134Y-139761353D02*
X96438515Y-139666115D01*
X96438515Y-139666115D02*
X96438515Y-139475639D01*
X96438515Y-139475639D02*
X96486134Y-139380401D01*
X96486134Y-139380401D02*
X96533753Y-139332782D01*
X96533753Y-139332782D02*
X96628991Y-139285163D01*
X85931105Y-140713734D02*
X85931105Y-140237544D01*
X85645390Y-140808972D02*
X86645390Y-140475639D01*
X86645390Y-140475639D02*
X85645390Y-140142306D01*
X85645390Y-139285163D02*
X85645390Y-139856591D01*
X85645390Y-139570877D02*
X86645390Y-139570877D01*
X86645390Y-139570877D02*
X86502533Y-139666115D01*
X86502533Y-139666115D02*
X86407295Y-139761353D01*
X86407295Y-139761353D02*
X86359676Y-139856591D01*
X86645390Y-138951829D02*
X86645390Y-138332782D01*
X86645390Y-138332782D02*
X86264438Y-138666115D01*
X86264438Y-138666115D02*
X86264438Y-138523258D01*
X86264438Y-138523258D02*
X86216819Y-138428020D01*
X86216819Y-138428020D02*
X86169200Y-138380401D01*
X86169200Y-138380401D02*
X86073962Y-138332782D01*
X86073962Y-138332782D02*
X85835867Y-138332782D01*
X85835867Y-138332782D02*
X85740629Y-138380401D01*
X85740629Y-138380401D02*
X85693010Y-138428020D01*
X85693010Y-138428020D02*
X85645390Y-138523258D01*
X85645390Y-138523258D02*
X85645390Y-138808972D01*
X85645390Y-138808972D02*
X85693010Y-138904210D01*
X85693010Y-138904210D02*
X85740629Y-138951829D01*
X58283133Y-140666115D02*
X58283133Y-139904211D01*
X57902180Y-140285163D02*
X58664085Y-140285163D01*
X57902180Y-139380401D02*
X57902180Y-139189925D01*
X57902180Y-139189925D02*
X57949800Y-139094687D01*
X57949800Y-139094687D02*
X57997419Y-139047068D01*
X57997419Y-139047068D02*
X58140276Y-138951830D01*
X58140276Y-138951830D02*
X58330752Y-138904211D01*
X58330752Y-138904211D02*
X58711704Y-138904211D01*
X58711704Y-138904211D02*
X58806942Y-138951830D01*
X58806942Y-138951830D02*
X58854561Y-138999449D01*
X58854561Y-138999449D02*
X58902180Y-139094687D01*
X58902180Y-139094687D02*
X58902180Y-139285163D01*
X58902180Y-139285163D02*
X58854561Y-139380401D01*
X58854561Y-139380401D02*
X58806942Y-139428020D01*
X58806942Y-139428020D02*
X58711704Y-139475639D01*
X58711704Y-139475639D02*
X58473609Y-139475639D01*
X58473609Y-139475639D02*
X58378371Y-139428020D01*
X58378371Y-139428020D02*
X58330752Y-139380401D01*
X58330752Y-139380401D02*
X58283133Y-139285163D01*
X58283133Y-139285163D02*
X58283133Y-139094687D01*
X58283133Y-139094687D02*
X58330752Y-138999449D01*
X58330752Y-138999449D02*
X58378371Y-138951830D01*
X58378371Y-138951830D02*
X58473609Y-138904211D01*
X58902180Y-138618496D02*
X57902180Y-138285163D01*
X57902180Y-138285163D02*
X58902180Y-137951830D01*
X103816907Y-140713734D02*
X103816907Y-140237544D01*
X103531192Y-140808972D02*
X104531192Y-140475639D01*
X104531192Y-140475639D02*
X103531192Y-140142306D01*
X104531192Y-139380401D02*
X104531192Y-139570877D01*
X104531192Y-139570877D02*
X104483573Y-139666115D01*
X104483573Y-139666115D02*
X104435954Y-139713734D01*
X104435954Y-139713734D02*
X104293097Y-139808972D01*
X104293097Y-139808972D02*
X104102621Y-139856591D01*
X104102621Y-139856591D02*
X103721669Y-139856591D01*
X103721669Y-139856591D02*
X103626431Y-139808972D01*
X103626431Y-139808972D02*
X103578812Y-139761353D01*
X103578812Y-139761353D02*
X103531192Y-139666115D01*
X103531192Y-139666115D02*
X103531192Y-139475639D01*
X103531192Y-139475639D02*
X103578812Y-139380401D01*
X103578812Y-139380401D02*
X103626431Y-139332782D01*
X103626431Y-139332782D02*
X103721669Y-139285163D01*
X103721669Y-139285163D02*
X103959764Y-139285163D01*
X103959764Y-139285163D02*
X104055002Y-139332782D01*
X104055002Y-139332782D02*
X104102621Y-139380401D01*
X104102621Y-139380401D02*
X104150240Y-139475639D01*
X104150240Y-139475639D02*
X104150240Y-139666115D01*
X104150240Y-139666115D02*
X104102621Y-139761353D01*
X104102621Y-139761353D02*
X104055002Y-139808972D01*
X104055002Y-139808972D02*
X103959764Y-139856591D01*
D11*
%TO.C,CO2*%
X115131099Y-57840000D02*
G75*
G02*
X114369099Y-57840000I-381000J0D01*
G01*
X114369099Y-57840000D02*
G75*
G02*
X115131099Y-57840000I381000J0D01*
G01*
%TD*%
M02*
