%TF.GenerationSoftware,KiCad,Pcbnew,9.0.3*%
%TF.CreationDate,2025-08-11T16:40:00+01:00*%
%TF.ProjectId,MyZON-X,4d795a4f-4e2d-4582-9e6b-696361645f70,1.0*%
%TF.SameCoordinates,Original*%
%TF.FileFunction,Legend,Top*%
%TF.FilePolarity,Positive*%
%FSLAX46Y46*%
G04 Gerber Fmt 4.6, Leading zero omitted, Abs format (unit mm)*
G04 Created by KiCad (PCBNEW 9.0.3) date 2025-08-11 16:40:00*
%MOMM*%
%LPD*%
G01*
G04 APERTURE LIST*
%ADD10C,0.300000*%
%ADD11C,0.120000*%
%ADD12C,0.150000*%
%ADD13C,0.100000*%
%ADD14C,0.152400*%
%ADD15C,0.508000*%
G04 APERTURE END LIST*
D10*
X55593082Y-127330912D02*
X55593082Y-128402341D01*
X55593082Y-128402341D02*
X55521653Y-128616626D01*
X55521653Y-128616626D02*
X55378796Y-128759484D01*
X55378796Y-128759484D02*
X55164510Y-128830912D01*
X55164510Y-128830912D02*
X55021653Y-128830912D01*
X56593082Y-127330912D02*
X56878796Y-127330912D01*
X56878796Y-127330912D02*
X57021653Y-127402341D01*
X57021653Y-127402341D02*
X57164510Y-127545198D01*
X57164510Y-127545198D02*
X57235939Y-127830912D01*
X57235939Y-127830912D02*
X57235939Y-128330912D01*
X57235939Y-128330912D02*
X57164510Y-128616626D01*
X57164510Y-128616626D02*
X57021653Y-128759484D01*
X57021653Y-128759484D02*
X56878796Y-128830912D01*
X56878796Y-128830912D02*
X56593082Y-128830912D01*
X56593082Y-128830912D02*
X56450225Y-128759484D01*
X56450225Y-128759484D02*
X56307367Y-128616626D01*
X56307367Y-128616626D02*
X56235939Y-128330912D01*
X56235939Y-128330912D02*
X56235939Y-127830912D01*
X56235939Y-127830912D02*
X56307367Y-127545198D01*
X56307367Y-127545198D02*
X56450225Y-127402341D01*
X56450225Y-127402341D02*
X56593082Y-127330912D01*
X57878796Y-128830912D02*
X57878796Y-127330912D01*
X57878796Y-127330912D02*
X58735939Y-128830912D01*
X58735939Y-128830912D02*
X58735939Y-127330912D01*
X59307368Y-127330912D02*
X60307368Y-127330912D01*
X60307368Y-127330912D02*
X59307368Y-128830912D01*
X59307368Y-128830912D02*
X60307368Y-128830912D01*
X61164511Y-127330912D02*
X61450225Y-127330912D01*
X61450225Y-127330912D02*
X61593082Y-127402341D01*
X61593082Y-127402341D02*
X61735939Y-127545198D01*
X61735939Y-127545198D02*
X61807368Y-127830912D01*
X61807368Y-127830912D02*
X61807368Y-128330912D01*
X61807368Y-128330912D02*
X61735939Y-128616626D01*
X61735939Y-128616626D02*
X61593082Y-128759484D01*
X61593082Y-128759484D02*
X61450225Y-128830912D01*
X61450225Y-128830912D02*
X61164511Y-128830912D01*
X61164511Y-128830912D02*
X61021654Y-128759484D01*
X61021654Y-128759484D02*
X60878796Y-128616626D01*
X60878796Y-128616626D02*
X60807368Y-128330912D01*
X60807368Y-128330912D02*
X60807368Y-127830912D01*
X60807368Y-127830912D02*
X60878796Y-127545198D01*
X60878796Y-127545198D02*
X61021654Y-127402341D01*
X61021654Y-127402341D02*
X61164511Y-127330912D01*
X62450225Y-128830912D02*
X62450225Y-127330912D01*
X62450225Y-127330912D02*
X63307368Y-128830912D01*
X63307368Y-128830912D02*
X63307368Y-127330912D01*
X64021654Y-128259484D02*
X65164512Y-128259484D01*
X65735940Y-127330912D02*
X66735940Y-128830912D01*
X66735940Y-127330912D02*
X65735940Y-128830912D01*
X67307368Y-128259484D02*
X68450226Y-128259484D01*
X69378797Y-127973769D02*
X69235940Y-127902341D01*
X69235940Y-127902341D02*
X69164511Y-127830912D01*
X69164511Y-127830912D02*
X69093083Y-127688055D01*
X69093083Y-127688055D02*
X69093083Y-127616626D01*
X69093083Y-127616626D02*
X69164511Y-127473769D01*
X69164511Y-127473769D02*
X69235940Y-127402341D01*
X69235940Y-127402341D02*
X69378797Y-127330912D01*
X69378797Y-127330912D02*
X69664511Y-127330912D01*
X69664511Y-127330912D02*
X69807369Y-127402341D01*
X69807369Y-127402341D02*
X69878797Y-127473769D01*
X69878797Y-127473769D02*
X69950226Y-127616626D01*
X69950226Y-127616626D02*
X69950226Y-127688055D01*
X69950226Y-127688055D02*
X69878797Y-127830912D01*
X69878797Y-127830912D02*
X69807369Y-127902341D01*
X69807369Y-127902341D02*
X69664511Y-127973769D01*
X69664511Y-127973769D02*
X69378797Y-127973769D01*
X69378797Y-127973769D02*
X69235940Y-128045198D01*
X69235940Y-128045198D02*
X69164511Y-128116626D01*
X69164511Y-128116626D02*
X69093083Y-128259484D01*
X69093083Y-128259484D02*
X69093083Y-128545198D01*
X69093083Y-128545198D02*
X69164511Y-128688055D01*
X69164511Y-128688055D02*
X69235940Y-128759484D01*
X69235940Y-128759484D02*
X69378797Y-128830912D01*
X69378797Y-128830912D02*
X69664511Y-128830912D01*
X69664511Y-128830912D02*
X69807369Y-128759484D01*
X69807369Y-128759484D02*
X69878797Y-128688055D01*
X69878797Y-128688055D02*
X69950226Y-128545198D01*
X69950226Y-128545198D02*
X69950226Y-128259484D01*
X69950226Y-128259484D02*
X69878797Y-128116626D01*
X69878797Y-128116626D02*
X69807369Y-128045198D01*
X69807369Y-128045198D02*
X69664511Y-127973769D01*
X71378797Y-128830912D02*
X70521654Y-128830912D01*
X70950225Y-128830912D02*
X70950225Y-127330912D01*
X70950225Y-127330912D02*
X70807368Y-127545198D01*
X70807368Y-127545198D02*
X70664511Y-127688055D01*
X70664511Y-127688055D02*
X70521654Y-127759484D01*
X74021653Y-128830912D02*
X73521653Y-128116626D01*
X73164510Y-128830912D02*
X73164510Y-127330912D01*
X73164510Y-127330912D02*
X73735939Y-127330912D01*
X73735939Y-127330912D02*
X73878796Y-127402341D01*
X73878796Y-127402341D02*
X73950225Y-127473769D01*
X73950225Y-127473769D02*
X74021653Y-127616626D01*
X74021653Y-127616626D02*
X74021653Y-127830912D01*
X74021653Y-127830912D02*
X73950225Y-127973769D01*
X73950225Y-127973769D02*
X73878796Y-128045198D01*
X73878796Y-128045198D02*
X73735939Y-128116626D01*
X73735939Y-128116626D02*
X73164510Y-128116626D01*
X75235939Y-128759484D02*
X75093082Y-128830912D01*
X75093082Y-128830912D02*
X74807368Y-128830912D01*
X74807368Y-128830912D02*
X74664510Y-128759484D01*
X74664510Y-128759484D02*
X74593082Y-128616626D01*
X74593082Y-128616626D02*
X74593082Y-128045198D01*
X74593082Y-128045198D02*
X74664510Y-127902341D01*
X74664510Y-127902341D02*
X74807368Y-127830912D01*
X74807368Y-127830912D02*
X75093082Y-127830912D01*
X75093082Y-127830912D02*
X75235939Y-127902341D01*
X75235939Y-127902341D02*
X75307368Y-128045198D01*
X75307368Y-128045198D02*
X75307368Y-128188055D01*
X75307368Y-128188055D02*
X74593082Y-128330912D01*
X75807367Y-127830912D02*
X76164510Y-128830912D01*
X76164510Y-128830912D02*
X76521653Y-127830912D01*
X77093081Y-128688055D02*
X77164510Y-128759484D01*
X77164510Y-128759484D02*
X77093081Y-128830912D01*
X77093081Y-128830912D02*
X77021653Y-128759484D01*
X77021653Y-128759484D02*
X77093081Y-128688055D01*
X77093081Y-128688055D02*
X77093081Y-128830912D01*
X77093081Y-127902341D02*
X77164510Y-127973769D01*
X77164510Y-127973769D02*
X77093081Y-128045198D01*
X77093081Y-128045198D02*
X77021653Y-127973769D01*
X77021653Y-127973769D02*
X77093081Y-127902341D01*
X77093081Y-127902341D02*
X77093081Y-128045198D01*
X79735939Y-128830912D02*
X78878796Y-128830912D01*
X79307367Y-128830912D02*
X79307367Y-127330912D01*
X79307367Y-127330912D02*
X79164510Y-127545198D01*
X79164510Y-127545198D02*
X79021653Y-127688055D01*
X79021653Y-127688055D02*
X78878796Y-127759484D01*
X80378795Y-128688055D02*
X80450224Y-128759484D01*
X80450224Y-128759484D02*
X80378795Y-128830912D01*
X80378795Y-128830912D02*
X80307367Y-128759484D01*
X80307367Y-128759484D02*
X80378795Y-128688055D01*
X80378795Y-128688055D02*
X80378795Y-128830912D01*
X81378796Y-127330912D02*
X81521653Y-127330912D01*
X81521653Y-127330912D02*
X81664510Y-127402341D01*
X81664510Y-127402341D02*
X81735939Y-127473769D01*
X81735939Y-127473769D02*
X81807367Y-127616626D01*
X81807367Y-127616626D02*
X81878796Y-127902341D01*
X81878796Y-127902341D02*
X81878796Y-128259484D01*
X81878796Y-128259484D02*
X81807367Y-128545198D01*
X81807367Y-128545198D02*
X81735939Y-128688055D01*
X81735939Y-128688055D02*
X81664510Y-128759484D01*
X81664510Y-128759484D02*
X81521653Y-128830912D01*
X81521653Y-128830912D02*
X81378796Y-128830912D01*
X81378796Y-128830912D02*
X81235939Y-128759484D01*
X81235939Y-128759484D02*
X81164510Y-128688055D01*
X81164510Y-128688055D02*
X81093081Y-128545198D01*
X81093081Y-128545198D02*
X81021653Y-128259484D01*
X81021653Y-128259484D02*
X81021653Y-127902341D01*
X81021653Y-127902341D02*
X81093081Y-127616626D01*
X81093081Y-127616626D02*
X81164510Y-127473769D01*
X81164510Y-127473769D02*
X81235939Y-127402341D01*
X81235939Y-127402341D02*
X81378796Y-127330912D01*
X55093082Y-129888685D02*
X55164510Y-129817257D01*
X55164510Y-129817257D02*
X55307368Y-129745828D01*
X55307368Y-129745828D02*
X55664510Y-129745828D01*
X55664510Y-129745828D02*
X55807368Y-129817257D01*
X55807368Y-129817257D02*
X55878796Y-129888685D01*
X55878796Y-129888685D02*
X55950225Y-130031542D01*
X55950225Y-130031542D02*
X55950225Y-130174400D01*
X55950225Y-130174400D02*
X55878796Y-130388685D01*
X55878796Y-130388685D02*
X55021653Y-131245828D01*
X55021653Y-131245828D02*
X55950225Y-131245828D01*
X56878796Y-129745828D02*
X57021653Y-129745828D01*
X57021653Y-129745828D02*
X57164510Y-129817257D01*
X57164510Y-129817257D02*
X57235939Y-129888685D01*
X57235939Y-129888685D02*
X57307367Y-130031542D01*
X57307367Y-130031542D02*
X57378796Y-130317257D01*
X57378796Y-130317257D02*
X57378796Y-130674400D01*
X57378796Y-130674400D02*
X57307367Y-130960114D01*
X57307367Y-130960114D02*
X57235939Y-131102971D01*
X57235939Y-131102971D02*
X57164510Y-131174400D01*
X57164510Y-131174400D02*
X57021653Y-131245828D01*
X57021653Y-131245828D02*
X56878796Y-131245828D01*
X56878796Y-131245828D02*
X56735939Y-131174400D01*
X56735939Y-131174400D02*
X56664510Y-131102971D01*
X56664510Y-131102971D02*
X56593081Y-130960114D01*
X56593081Y-130960114D02*
X56521653Y-130674400D01*
X56521653Y-130674400D02*
X56521653Y-130317257D01*
X56521653Y-130317257D02*
X56593081Y-130031542D01*
X56593081Y-130031542D02*
X56664510Y-129888685D01*
X56664510Y-129888685D02*
X56735939Y-129817257D01*
X56735939Y-129817257D02*
X56878796Y-129745828D01*
X57950224Y-129888685D02*
X58021652Y-129817257D01*
X58021652Y-129817257D02*
X58164510Y-129745828D01*
X58164510Y-129745828D02*
X58521652Y-129745828D01*
X58521652Y-129745828D02*
X58664510Y-129817257D01*
X58664510Y-129817257D02*
X58735938Y-129888685D01*
X58735938Y-129888685D02*
X58807367Y-130031542D01*
X58807367Y-130031542D02*
X58807367Y-130174400D01*
X58807367Y-130174400D02*
X58735938Y-130388685D01*
X58735938Y-130388685D02*
X57878795Y-131245828D01*
X57878795Y-131245828D02*
X58807367Y-131245828D01*
X60164509Y-129745828D02*
X59450223Y-129745828D01*
X59450223Y-129745828D02*
X59378795Y-130460114D01*
X59378795Y-130460114D02*
X59450223Y-130388685D01*
X59450223Y-130388685D02*
X59593081Y-130317257D01*
X59593081Y-130317257D02*
X59950223Y-130317257D01*
X59950223Y-130317257D02*
X60093081Y-130388685D01*
X60093081Y-130388685D02*
X60164509Y-130460114D01*
X60164509Y-130460114D02*
X60235938Y-130602971D01*
X60235938Y-130602971D02*
X60235938Y-130960114D01*
X60235938Y-130960114D02*
X60164509Y-131102971D01*
X60164509Y-131102971D02*
X60093081Y-131174400D01*
X60093081Y-131174400D02*
X59950223Y-131245828D01*
X59950223Y-131245828D02*
X59593081Y-131245828D01*
X59593081Y-131245828D02*
X59450223Y-131174400D01*
X59450223Y-131174400D02*
X59378795Y-131102971D01*
X62021651Y-130674400D02*
X63164509Y-130674400D01*
X65450223Y-129745828D02*
X65450223Y-130817257D01*
X65450223Y-130817257D02*
X65378794Y-131031542D01*
X65378794Y-131031542D02*
X65235937Y-131174400D01*
X65235937Y-131174400D02*
X65021651Y-131245828D01*
X65021651Y-131245828D02*
X64878794Y-131245828D01*
X66164508Y-131102971D02*
X66235937Y-131174400D01*
X66235937Y-131174400D02*
X66164508Y-131245828D01*
X66164508Y-131245828D02*
X66093080Y-131174400D01*
X66093080Y-131174400D02*
X66164508Y-131102971D01*
X66164508Y-131102971D02*
X66164508Y-131245828D01*
X67664509Y-129817257D02*
X67521652Y-129745828D01*
X67521652Y-129745828D02*
X67307366Y-129745828D01*
X67307366Y-129745828D02*
X67093080Y-129817257D01*
X67093080Y-129817257D02*
X66950223Y-129960114D01*
X66950223Y-129960114D02*
X66878794Y-130102971D01*
X66878794Y-130102971D02*
X66807366Y-130388685D01*
X66807366Y-130388685D02*
X66807366Y-130602971D01*
X66807366Y-130602971D02*
X66878794Y-130888685D01*
X66878794Y-130888685D02*
X66950223Y-131031542D01*
X66950223Y-131031542D02*
X67093080Y-131174400D01*
X67093080Y-131174400D02*
X67307366Y-131245828D01*
X67307366Y-131245828D02*
X67450223Y-131245828D01*
X67450223Y-131245828D02*
X67664509Y-131174400D01*
X67664509Y-131174400D02*
X67735937Y-131102971D01*
X67735937Y-131102971D02*
X67735937Y-130602971D01*
X67735937Y-130602971D02*
X67450223Y-130602971D01*
X68378794Y-131245828D02*
X68378794Y-130245828D01*
X68378794Y-130531542D02*
X68450223Y-130388685D01*
X68450223Y-130388685D02*
X68521652Y-130317257D01*
X68521652Y-130317257D02*
X68664509Y-130245828D01*
X68664509Y-130245828D02*
X68807366Y-130245828D01*
X69950223Y-131245828D02*
X69950223Y-130460114D01*
X69950223Y-130460114D02*
X69878794Y-130317257D01*
X69878794Y-130317257D02*
X69735937Y-130245828D01*
X69735937Y-130245828D02*
X69450223Y-130245828D01*
X69450223Y-130245828D02*
X69307365Y-130317257D01*
X69950223Y-131174400D02*
X69807365Y-131245828D01*
X69807365Y-131245828D02*
X69450223Y-131245828D01*
X69450223Y-131245828D02*
X69307365Y-131174400D01*
X69307365Y-131174400D02*
X69235937Y-131031542D01*
X69235937Y-131031542D02*
X69235937Y-130888685D01*
X69235937Y-130888685D02*
X69307365Y-130745828D01*
X69307365Y-130745828D02*
X69450223Y-130674400D01*
X69450223Y-130674400D02*
X69807365Y-130674400D01*
X69807365Y-130674400D02*
X69950223Y-130602971D01*
X70450223Y-130245828D02*
X71021651Y-130245828D01*
X70664508Y-129745828D02*
X70664508Y-131031542D01*
X70664508Y-131031542D02*
X70735937Y-131174400D01*
X70735937Y-131174400D02*
X70878794Y-131245828D01*
X70878794Y-131245828D02*
X71021651Y-131245828D01*
X71307366Y-130245828D02*
X71878794Y-130245828D01*
X71521651Y-129745828D02*
X71521651Y-131031542D01*
X71521651Y-131031542D02*
X71593080Y-131174400D01*
X71593080Y-131174400D02*
X71735937Y-131245828D01*
X71735937Y-131245828D02*
X71878794Y-131245828D01*
X72593080Y-131245828D02*
X72450223Y-131174400D01*
X72450223Y-131174400D02*
X72378794Y-131102971D01*
X72378794Y-131102971D02*
X72307366Y-130960114D01*
X72307366Y-130960114D02*
X72307366Y-130531542D01*
X72307366Y-130531542D02*
X72378794Y-130388685D01*
X72378794Y-130388685D02*
X72450223Y-130317257D01*
X72450223Y-130317257D02*
X72593080Y-130245828D01*
X72593080Y-130245828D02*
X72807366Y-130245828D01*
X72807366Y-130245828D02*
X72950223Y-130317257D01*
X72950223Y-130317257D02*
X73021652Y-130388685D01*
X73021652Y-130388685D02*
X73093080Y-130531542D01*
X73093080Y-130531542D02*
X73093080Y-130960114D01*
X73093080Y-130960114D02*
X73021652Y-131102971D01*
X73021652Y-131102971D02*
X72950223Y-131174400D01*
X72950223Y-131174400D02*
X72807366Y-131245828D01*
X72807366Y-131245828D02*
X72593080Y-131245828D01*
X73735937Y-130245828D02*
X73735937Y-131245828D01*
X73735937Y-130388685D02*
X73807366Y-130317257D01*
X73807366Y-130317257D02*
X73950223Y-130245828D01*
X73950223Y-130245828D02*
X74164509Y-130245828D01*
X74164509Y-130245828D02*
X74307366Y-130317257D01*
X74307366Y-130317257D02*
X74378795Y-130460114D01*
X74378795Y-130460114D02*
X74378795Y-131245828D01*
D11*
X106276327Y-123492283D02*
X106657280Y-123492283D01*
X106200137Y-123720855D02*
X106466804Y-122920855D01*
X106466804Y-122920855D02*
X106733470Y-123720855D01*
X107381089Y-122920855D02*
X107000137Y-122920855D01*
X107000137Y-122920855D02*
X106962041Y-123301807D01*
X106962041Y-123301807D02*
X107000137Y-123263712D01*
X107000137Y-123263712D02*
X107076327Y-123225617D01*
X107076327Y-123225617D02*
X107266803Y-123225617D01*
X107266803Y-123225617D02*
X107342994Y-123263712D01*
X107342994Y-123263712D02*
X107381089Y-123301807D01*
X107381089Y-123301807D02*
X107419184Y-123377998D01*
X107419184Y-123377998D02*
X107419184Y-123568474D01*
X107419184Y-123568474D02*
X107381089Y-123644664D01*
X107381089Y-123644664D02*
X107342994Y-123682760D01*
X107342994Y-123682760D02*
X107266803Y-123720855D01*
X107266803Y-123720855D02*
X107076327Y-123720855D01*
X107076327Y-123720855D02*
X107000137Y-123682760D01*
X107000137Y-123682760D02*
X106962041Y-123644664D01*
X108816327Y-123492283D02*
X109197280Y-123492283D01*
X108740137Y-123720855D02*
X109006804Y-122920855D01*
X109006804Y-122920855D02*
X109273470Y-123720855D01*
X109882994Y-123187521D02*
X109882994Y-123720855D01*
X109692518Y-122882760D02*
X109502041Y-123454188D01*
X109502041Y-123454188D02*
X109997280Y-123454188D01*
X103736327Y-123492283D02*
X104117280Y-123492283D01*
X103660137Y-123720855D02*
X103926804Y-122920855D01*
X103926804Y-122920855D02*
X104193470Y-123720855D01*
X104802994Y-122920855D02*
X104650613Y-122920855D01*
X104650613Y-122920855D02*
X104574422Y-122958950D01*
X104574422Y-122958950D02*
X104536327Y-122997045D01*
X104536327Y-122997045D02*
X104460137Y-123111331D01*
X104460137Y-123111331D02*
X104422041Y-123263712D01*
X104422041Y-123263712D02*
X104422041Y-123568474D01*
X104422041Y-123568474D02*
X104460137Y-123644664D01*
X104460137Y-123644664D02*
X104498232Y-123682760D01*
X104498232Y-123682760D02*
X104574422Y-123720855D01*
X104574422Y-123720855D02*
X104726803Y-123720855D01*
X104726803Y-123720855D02*
X104802994Y-123682760D01*
X104802994Y-123682760D02*
X104841089Y-123644664D01*
X104841089Y-123644664D02*
X104879184Y-123568474D01*
X104879184Y-123568474D02*
X104879184Y-123377998D01*
X104879184Y-123377998D02*
X104841089Y-123301807D01*
X104841089Y-123301807D02*
X104802994Y-123263712D01*
X104802994Y-123263712D02*
X104726803Y-123225617D01*
X104726803Y-123225617D02*
X104574422Y-123225617D01*
X104574422Y-123225617D02*
X104498232Y-123263712D01*
X104498232Y-123263712D02*
X104460137Y-123301807D01*
X104460137Y-123301807D02*
X104422041Y-123377998D01*
D12*
X60773333Y-98149580D02*
X60725714Y-98197200D01*
X60725714Y-98197200D02*
X60582857Y-98244819D01*
X60582857Y-98244819D02*
X60487619Y-98244819D01*
X60487619Y-98244819D02*
X60344762Y-98197200D01*
X60344762Y-98197200D02*
X60249524Y-98101961D01*
X60249524Y-98101961D02*
X60201905Y-98006723D01*
X60201905Y-98006723D02*
X60154286Y-97816247D01*
X60154286Y-97816247D02*
X60154286Y-97673390D01*
X60154286Y-97673390D02*
X60201905Y-97482914D01*
X60201905Y-97482914D02*
X60249524Y-97387676D01*
X60249524Y-97387676D02*
X60344762Y-97292438D01*
X60344762Y-97292438D02*
X60487619Y-97244819D01*
X60487619Y-97244819D02*
X60582857Y-97244819D01*
X60582857Y-97244819D02*
X60725714Y-97292438D01*
X60725714Y-97292438D02*
X60773333Y-97340057D01*
X61678095Y-97244819D02*
X61201905Y-97244819D01*
X61201905Y-97244819D02*
X61154286Y-97721009D01*
X61154286Y-97721009D02*
X61201905Y-97673390D01*
X61201905Y-97673390D02*
X61297143Y-97625771D01*
X61297143Y-97625771D02*
X61535238Y-97625771D01*
X61535238Y-97625771D02*
X61630476Y-97673390D01*
X61630476Y-97673390D02*
X61678095Y-97721009D01*
X61678095Y-97721009D02*
X61725714Y-97816247D01*
X61725714Y-97816247D02*
X61725714Y-98054342D01*
X61725714Y-98054342D02*
X61678095Y-98149580D01*
X61678095Y-98149580D02*
X61630476Y-98197200D01*
X61630476Y-98197200D02*
X61535238Y-98244819D01*
X61535238Y-98244819D02*
X61297143Y-98244819D01*
X61297143Y-98244819D02*
X61201905Y-98197200D01*
X61201905Y-98197200D02*
X61154286Y-98149580D01*
X59535237Y-102054819D02*
X58963809Y-102054819D01*
X59249523Y-102054819D02*
X59249523Y-101054819D01*
X59249523Y-101054819D02*
X59154285Y-101197676D01*
X59154285Y-101197676D02*
X59059047Y-101292914D01*
X59059047Y-101292914D02*
X58963809Y-101340533D01*
X60154285Y-101054819D02*
X60249523Y-101054819D01*
X60249523Y-101054819D02*
X60344761Y-101102438D01*
X60344761Y-101102438D02*
X60392380Y-101150057D01*
X60392380Y-101150057D02*
X60439999Y-101245295D01*
X60439999Y-101245295D02*
X60487618Y-101435771D01*
X60487618Y-101435771D02*
X60487618Y-101673866D01*
X60487618Y-101673866D02*
X60439999Y-101864342D01*
X60439999Y-101864342D02*
X60392380Y-101959580D01*
X60392380Y-101959580D02*
X60344761Y-102007200D01*
X60344761Y-102007200D02*
X60249523Y-102054819D01*
X60249523Y-102054819D02*
X60154285Y-102054819D01*
X60154285Y-102054819D02*
X60059047Y-102007200D01*
X60059047Y-102007200D02*
X60011428Y-101959580D01*
X60011428Y-101959580D02*
X59963809Y-101864342D01*
X59963809Y-101864342D02*
X59916190Y-101673866D01*
X59916190Y-101673866D02*
X59916190Y-101435771D01*
X59916190Y-101435771D02*
X59963809Y-101245295D01*
X59963809Y-101245295D02*
X60011428Y-101150057D01*
X60011428Y-101150057D02*
X60059047Y-101102438D01*
X60059047Y-101102438D02*
X60154285Y-101054819D01*
X61106666Y-101054819D02*
X61201904Y-101054819D01*
X61201904Y-101054819D02*
X61297142Y-101102438D01*
X61297142Y-101102438D02*
X61344761Y-101150057D01*
X61344761Y-101150057D02*
X61392380Y-101245295D01*
X61392380Y-101245295D02*
X61439999Y-101435771D01*
X61439999Y-101435771D02*
X61439999Y-101673866D01*
X61439999Y-101673866D02*
X61392380Y-101864342D01*
X61392380Y-101864342D02*
X61344761Y-101959580D01*
X61344761Y-101959580D02*
X61297142Y-102007200D01*
X61297142Y-102007200D02*
X61201904Y-102054819D01*
X61201904Y-102054819D02*
X61106666Y-102054819D01*
X61106666Y-102054819D02*
X61011428Y-102007200D01*
X61011428Y-102007200D02*
X60963809Y-101959580D01*
X60963809Y-101959580D02*
X60916190Y-101864342D01*
X60916190Y-101864342D02*
X60868571Y-101673866D01*
X60868571Y-101673866D02*
X60868571Y-101435771D01*
X60868571Y-101435771D02*
X60916190Y-101245295D01*
X60916190Y-101245295D02*
X60963809Y-101150057D01*
X60963809Y-101150057D02*
X61011428Y-101102438D01*
X61011428Y-101102438D02*
X61106666Y-101054819D01*
X61868571Y-101388152D02*
X61868571Y-102054819D01*
X61868571Y-101483390D02*
X61916190Y-101435771D01*
X61916190Y-101435771D02*
X62011428Y-101388152D01*
X62011428Y-101388152D02*
X62154285Y-101388152D01*
X62154285Y-101388152D02*
X62249523Y-101435771D01*
X62249523Y-101435771D02*
X62297142Y-101531009D01*
X62297142Y-101531009D02*
X62297142Y-102054819D01*
X62630476Y-101388152D02*
X63011428Y-101388152D01*
X62773333Y-102054819D02*
X62773333Y-101197676D01*
X62773333Y-101197676D02*
X62820952Y-101102438D01*
X62820952Y-101102438D02*
X62916190Y-101054819D01*
X62916190Y-101054819D02*
X63011428Y-101054819D01*
X95874819Y-67476666D02*
X95398628Y-67809999D01*
X95874819Y-68048094D02*
X94874819Y-68048094D01*
X94874819Y-68048094D02*
X94874819Y-67667142D01*
X94874819Y-67667142D02*
X94922438Y-67571904D01*
X94922438Y-67571904D02*
X94970057Y-67524285D01*
X94970057Y-67524285D02*
X95065295Y-67476666D01*
X95065295Y-67476666D02*
X95208152Y-67476666D01*
X95208152Y-67476666D02*
X95303390Y-67524285D01*
X95303390Y-67524285D02*
X95351009Y-67571904D01*
X95351009Y-67571904D02*
X95398628Y-67667142D01*
X95398628Y-67667142D02*
X95398628Y-68048094D01*
X95208152Y-66619523D02*
X95874819Y-66619523D01*
X94827200Y-66857618D02*
X95541485Y-67095713D01*
X95541485Y-67095713D02*
X95541485Y-66476666D01*
X97244819Y-69095713D02*
X97244819Y-68476666D01*
X97244819Y-68476666D02*
X97625771Y-68809999D01*
X97625771Y-68809999D02*
X97625771Y-68667142D01*
X97625771Y-68667142D02*
X97673390Y-68571904D01*
X97673390Y-68571904D02*
X97721009Y-68524285D01*
X97721009Y-68524285D02*
X97816247Y-68476666D01*
X97816247Y-68476666D02*
X98054342Y-68476666D01*
X98054342Y-68476666D02*
X98149580Y-68524285D01*
X98149580Y-68524285D02*
X98197200Y-68571904D01*
X98197200Y-68571904D02*
X98244819Y-68667142D01*
X98244819Y-68667142D02*
X98244819Y-68952856D01*
X98244819Y-68952856D02*
X98197200Y-69048094D01*
X98197200Y-69048094D02*
X98149580Y-69095713D01*
X98244819Y-68000475D02*
X98244819Y-67809999D01*
X98244819Y-67809999D02*
X98197200Y-67714761D01*
X98197200Y-67714761D02*
X98149580Y-67667142D01*
X98149580Y-67667142D02*
X98006723Y-67571904D01*
X98006723Y-67571904D02*
X97816247Y-67524285D01*
X97816247Y-67524285D02*
X97435295Y-67524285D01*
X97435295Y-67524285D02*
X97340057Y-67571904D01*
X97340057Y-67571904D02*
X97292438Y-67619523D01*
X97292438Y-67619523D02*
X97244819Y-67714761D01*
X97244819Y-67714761D02*
X97244819Y-67905237D01*
X97244819Y-67905237D02*
X97292438Y-68000475D01*
X97292438Y-68000475D02*
X97340057Y-68048094D01*
X97340057Y-68048094D02*
X97435295Y-68095713D01*
X97435295Y-68095713D02*
X97673390Y-68095713D01*
X97673390Y-68095713D02*
X97768628Y-68048094D01*
X97768628Y-68048094D02*
X97816247Y-68000475D01*
X97816247Y-68000475D02*
X97863866Y-67905237D01*
X97863866Y-67905237D02*
X97863866Y-67714761D01*
X97863866Y-67714761D02*
X97816247Y-67619523D01*
X97816247Y-67619523D02*
X97768628Y-67571904D01*
X97768628Y-67571904D02*
X97673390Y-67524285D01*
X97244819Y-66905237D02*
X97244819Y-66809999D01*
X97244819Y-66809999D02*
X97292438Y-66714761D01*
X97292438Y-66714761D02*
X97340057Y-66667142D01*
X97340057Y-66667142D02*
X97435295Y-66619523D01*
X97435295Y-66619523D02*
X97625771Y-66571904D01*
X97625771Y-66571904D02*
X97863866Y-66571904D01*
X97863866Y-66571904D02*
X98054342Y-66619523D01*
X98054342Y-66619523D02*
X98149580Y-66667142D01*
X98149580Y-66667142D02*
X98197200Y-66714761D01*
X98197200Y-66714761D02*
X98244819Y-66809999D01*
X98244819Y-66809999D02*
X98244819Y-66905237D01*
X98244819Y-66905237D02*
X98197200Y-67000475D01*
X98197200Y-67000475D02*
X98149580Y-67048094D01*
X98149580Y-67048094D02*
X98054342Y-67095713D01*
X98054342Y-67095713D02*
X97863866Y-67143332D01*
X97863866Y-67143332D02*
X97625771Y-67143332D01*
X97625771Y-67143332D02*
X97435295Y-67095713D01*
X97435295Y-67095713D02*
X97340057Y-67048094D01*
X97340057Y-67048094D02*
X97292438Y-67000475D01*
X97292438Y-67000475D02*
X97244819Y-66905237D01*
X98244819Y-65571904D02*
X97768628Y-65905237D01*
X98244819Y-66143332D02*
X97244819Y-66143332D01*
X97244819Y-66143332D02*
X97244819Y-65762380D01*
X97244819Y-65762380D02*
X97292438Y-65667142D01*
X97292438Y-65667142D02*
X97340057Y-65619523D01*
X97340057Y-65619523D02*
X97435295Y-65571904D01*
X97435295Y-65571904D02*
X97578152Y-65571904D01*
X97578152Y-65571904D02*
X97673390Y-65619523D01*
X97673390Y-65619523D02*
X97721009Y-65667142D01*
X97721009Y-65667142D02*
X97768628Y-65762380D01*
X97768628Y-65762380D02*
X97768628Y-66143332D01*
X109724819Y-84581904D02*
X110534342Y-84581904D01*
X110534342Y-84581904D02*
X110629580Y-84534285D01*
X110629580Y-84534285D02*
X110677200Y-84486666D01*
X110677200Y-84486666D02*
X110724819Y-84391428D01*
X110724819Y-84391428D02*
X110724819Y-84200952D01*
X110724819Y-84200952D02*
X110677200Y-84105714D01*
X110677200Y-84105714D02*
X110629580Y-84058095D01*
X110629580Y-84058095D02*
X110534342Y-84010476D01*
X110534342Y-84010476D02*
X109724819Y-84010476D01*
X110724819Y-83010476D02*
X110724819Y-83581904D01*
X110724819Y-83296190D02*
X109724819Y-83296190D01*
X109724819Y-83296190D02*
X109867676Y-83391428D01*
X109867676Y-83391428D02*
X109962914Y-83486666D01*
X109962914Y-83486666D02*
X110010533Y-83581904D01*
X79529286Y-83984104D02*
X80005476Y-83984104D01*
X79434048Y-84269819D02*
X79767381Y-83269819D01*
X79767381Y-83269819D02*
X80100714Y-84269819D01*
X80624524Y-83793628D02*
X80624524Y-84269819D01*
X80291191Y-83269819D02*
X80624524Y-83793628D01*
X80624524Y-83793628D02*
X80957857Y-83269819D01*
X81291191Y-83888866D02*
X82053096Y-83888866D01*
X82434048Y-83269819D02*
X83053095Y-83269819D01*
X83053095Y-83269819D02*
X82719762Y-83650771D01*
X82719762Y-83650771D02*
X82862619Y-83650771D01*
X82862619Y-83650771D02*
X82957857Y-83698390D01*
X82957857Y-83698390D02*
X83005476Y-83746009D01*
X83005476Y-83746009D02*
X83053095Y-83841247D01*
X83053095Y-83841247D02*
X83053095Y-84079342D01*
X83053095Y-84079342D02*
X83005476Y-84174580D01*
X83005476Y-84174580D02*
X82957857Y-84222200D01*
X82957857Y-84222200D02*
X82862619Y-84269819D01*
X82862619Y-84269819D02*
X82576905Y-84269819D01*
X82576905Y-84269819D02*
X82481667Y-84222200D01*
X82481667Y-84222200D02*
X82434048Y-84174580D01*
X83481667Y-83888866D02*
X84243572Y-83888866D01*
X84862619Y-83698390D02*
X84767381Y-83650771D01*
X84767381Y-83650771D02*
X84719762Y-83603152D01*
X84719762Y-83603152D02*
X84672143Y-83507914D01*
X84672143Y-83507914D02*
X84672143Y-83460295D01*
X84672143Y-83460295D02*
X84719762Y-83365057D01*
X84719762Y-83365057D02*
X84767381Y-83317438D01*
X84767381Y-83317438D02*
X84862619Y-83269819D01*
X84862619Y-83269819D02*
X85053095Y-83269819D01*
X85053095Y-83269819D02*
X85148333Y-83317438D01*
X85148333Y-83317438D02*
X85195952Y-83365057D01*
X85195952Y-83365057D02*
X85243571Y-83460295D01*
X85243571Y-83460295D02*
X85243571Y-83507914D01*
X85243571Y-83507914D02*
X85195952Y-83603152D01*
X85195952Y-83603152D02*
X85148333Y-83650771D01*
X85148333Y-83650771D02*
X85053095Y-83698390D01*
X85053095Y-83698390D02*
X84862619Y-83698390D01*
X84862619Y-83698390D02*
X84767381Y-83746009D01*
X84767381Y-83746009D02*
X84719762Y-83793628D01*
X84719762Y-83793628D02*
X84672143Y-83888866D01*
X84672143Y-83888866D02*
X84672143Y-84079342D01*
X84672143Y-84079342D02*
X84719762Y-84174580D01*
X84719762Y-84174580D02*
X84767381Y-84222200D01*
X84767381Y-84222200D02*
X84862619Y-84269819D01*
X84862619Y-84269819D02*
X85053095Y-84269819D01*
X85053095Y-84269819D02*
X85148333Y-84222200D01*
X85148333Y-84222200D02*
X85195952Y-84174580D01*
X85195952Y-84174580D02*
X85243571Y-84079342D01*
X85243571Y-84079342D02*
X85243571Y-83888866D01*
X85243571Y-83888866D02*
X85195952Y-83793628D01*
X85195952Y-83793628D02*
X85148333Y-83746009D01*
X85148333Y-83746009D02*
X85053095Y-83698390D01*
X85719762Y-84269819D02*
X85910238Y-84269819D01*
X85910238Y-84269819D02*
X86005476Y-84222200D01*
X86005476Y-84222200D02*
X86053095Y-84174580D01*
X86053095Y-84174580D02*
X86148333Y-84031723D01*
X86148333Y-84031723D02*
X86195952Y-83841247D01*
X86195952Y-83841247D02*
X86195952Y-83460295D01*
X86195952Y-83460295D02*
X86148333Y-83365057D01*
X86148333Y-83365057D02*
X86100714Y-83317438D01*
X86100714Y-83317438D02*
X86005476Y-83269819D01*
X86005476Y-83269819D02*
X85815000Y-83269819D01*
X85815000Y-83269819D02*
X85719762Y-83317438D01*
X85719762Y-83317438D02*
X85672143Y-83365057D01*
X85672143Y-83365057D02*
X85624524Y-83460295D01*
X85624524Y-83460295D02*
X85624524Y-83698390D01*
X85624524Y-83698390D02*
X85672143Y-83793628D01*
X85672143Y-83793628D02*
X85719762Y-83841247D01*
X85719762Y-83841247D02*
X85815000Y-83888866D01*
X85815000Y-83888866D02*
X86005476Y-83888866D01*
X86005476Y-83888866D02*
X86100714Y-83841247D01*
X86100714Y-83841247D02*
X86148333Y-83793628D01*
X86148333Y-83793628D02*
X86195952Y-83698390D01*
X87148333Y-84269819D02*
X86576905Y-84269819D01*
X86862619Y-84269819D02*
X86862619Y-83269819D01*
X86862619Y-83269819D02*
X86767381Y-83412676D01*
X86767381Y-83412676D02*
X86672143Y-83507914D01*
X86672143Y-83507914D02*
X86576905Y-83555533D01*
X87767381Y-83269819D02*
X87862619Y-83269819D01*
X87862619Y-83269819D02*
X87957857Y-83317438D01*
X87957857Y-83317438D02*
X88005476Y-83365057D01*
X88005476Y-83365057D02*
X88053095Y-83460295D01*
X88053095Y-83460295D02*
X88100714Y-83650771D01*
X88100714Y-83650771D02*
X88100714Y-83888866D01*
X88100714Y-83888866D02*
X88053095Y-84079342D01*
X88053095Y-84079342D02*
X88005476Y-84174580D01*
X88005476Y-84174580D02*
X87957857Y-84222200D01*
X87957857Y-84222200D02*
X87862619Y-84269819D01*
X87862619Y-84269819D02*
X87767381Y-84269819D01*
X87767381Y-84269819D02*
X87672143Y-84222200D01*
X87672143Y-84222200D02*
X87624524Y-84174580D01*
X87624524Y-84174580D02*
X87576905Y-84079342D01*
X87576905Y-84079342D02*
X87529286Y-83888866D01*
X87529286Y-83888866D02*
X87529286Y-83650771D01*
X87529286Y-83650771D02*
X87576905Y-83460295D01*
X87576905Y-83460295D02*
X87624524Y-83365057D01*
X87624524Y-83365057D02*
X87672143Y-83317438D01*
X87672143Y-83317438D02*
X87767381Y-83269819D01*
X60314819Y-67952857D02*
X59838628Y-68286190D01*
X60314819Y-68524285D02*
X59314819Y-68524285D01*
X59314819Y-68524285D02*
X59314819Y-68143333D01*
X59314819Y-68143333D02*
X59362438Y-68048095D01*
X59362438Y-68048095D02*
X59410057Y-68000476D01*
X59410057Y-68000476D02*
X59505295Y-67952857D01*
X59505295Y-67952857D02*
X59648152Y-67952857D01*
X59648152Y-67952857D02*
X59743390Y-68000476D01*
X59743390Y-68000476D02*
X59791009Y-68048095D01*
X59791009Y-68048095D02*
X59838628Y-68143333D01*
X59838628Y-68143333D02*
X59838628Y-68524285D01*
X60314819Y-67000476D02*
X60314819Y-67571904D01*
X60314819Y-67286190D02*
X59314819Y-67286190D01*
X59314819Y-67286190D02*
X59457676Y-67381428D01*
X59457676Y-67381428D02*
X59552914Y-67476666D01*
X59552914Y-67476666D02*
X59600533Y-67571904D01*
X60314819Y-66048095D02*
X60314819Y-66619523D01*
X60314819Y-66333809D02*
X59314819Y-66333809D01*
X59314819Y-66333809D02*
X59457676Y-66429047D01*
X59457676Y-66429047D02*
X59552914Y-66524285D01*
X59552914Y-66524285D02*
X59600533Y-66619523D01*
X62684819Y-68476666D02*
X62684819Y-69048094D01*
X62684819Y-68762380D02*
X61684819Y-68762380D01*
X61684819Y-68762380D02*
X61827676Y-68857618D01*
X61827676Y-68857618D02*
X61922914Y-68952856D01*
X61922914Y-68952856D02*
X61970533Y-69048094D01*
X61684819Y-67857618D02*
X61684819Y-67762380D01*
X61684819Y-67762380D02*
X61732438Y-67667142D01*
X61732438Y-67667142D02*
X61780057Y-67619523D01*
X61780057Y-67619523D02*
X61875295Y-67571904D01*
X61875295Y-67571904D02*
X62065771Y-67524285D01*
X62065771Y-67524285D02*
X62303866Y-67524285D01*
X62303866Y-67524285D02*
X62494342Y-67571904D01*
X62494342Y-67571904D02*
X62589580Y-67619523D01*
X62589580Y-67619523D02*
X62637200Y-67667142D01*
X62637200Y-67667142D02*
X62684819Y-67762380D01*
X62684819Y-67762380D02*
X62684819Y-67857618D01*
X62684819Y-67857618D02*
X62637200Y-67952856D01*
X62637200Y-67952856D02*
X62589580Y-68000475D01*
X62589580Y-68000475D02*
X62494342Y-68048094D01*
X62494342Y-68048094D02*
X62303866Y-68095713D01*
X62303866Y-68095713D02*
X62065771Y-68095713D01*
X62065771Y-68095713D02*
X61875295Y-68048094D01*
X61875295Y-68048094D02*
X61780057Y-68000475D01*
X61780057Y-68000475D02*
X61732438Y-67952856D01*
X61732438Y-67952856D02*
X61684819Y-67857618D01*
X61684819Y-66905237D02*
X61684819Y-66809999D01*
X61684819Y-66809999D02*
X61732438Y-66714761D01*
X61732438Y-66714761D02*
X61780057Y-66667142D01*
X61780057Y-66667142D02*
X61875295Y-66619523D01*
X61875295Y-66619523D02*
X62065771Y-66571904D01*
X62065771Y-66571904D02*
X62303866Y-66571904D01*
X62303866Y-66571904D02*
X62494342Y-66619523D01*
X62494342Y-66619523D02*
X62589580Y-66667142D01*
X62589580Y-66667142D02*
X62637200Y-66714761D01*
X62637200Y-66714761D02*
X62684819Y-66809999D01*
X62684819Y-66809999D02*
X62684819Y-66905237D01*
X62684819Y-66905237D02*
X62637200Y-67000475D01*
X62637200Y-67000475D02*
X62589580Y-67048094D01*
X62589580Y-67048094D02*
X62494342Y-67095713D01*
X62494342Y-67095713D02*
X62303866Y-67143332D01*
X62303866Y-67143332D02*
X62065771Y-67143332D01*
X62065771Y-67143332D02*
X61875295Y-67095713D01*
X61875295Y-67095713D02*
X61780057Y-67048094D01*
X61780057Y-67048094D02*
X61732438Y-67000475D01*
X61732438Y-67000475D02*
X61684819Y-66905237D01*
X62684819Y-65571904D02*
X62208628Y-65905237D01*
X62684819Y-66143332D02*
X61684819Y-66143332D01*
X61684819Y-66143332D02*
X61684819Y-65762380D01*
X61684819Y-65762380D02*
X61732438Y-65667142D01*
X61732438Y-65667142D02*
X61780057Y-65619523D01*
X61780057Y-65619523D02*
X61875295Y-65571904D01*
X61875295Y-65571904D02*
X62018152Y-65571904D01*
X62018152Y-65571904D02*
X62113390Y-65619523D01*
X62113390Y-65619523D02*
X62161009Y-65667142D01*
X62161009Y-65667142D02*
X62208628Y-65762380D01*
X62208628Y-65762380D02*
X62208628Y-66143332D01*
X55703333Y-61954580D02*
X55655714Y-62002200D01*
X55655714Y-62002200D02*
X55512857Y-62049819D01*
X55512857Y-62049819D02*
X55417619Y-62049819D01*
X55417619Y-62049819D02*
X55274762Y-62002200D01*
X55274762Y-62002200D02*
X55179524Y-61906961D01*
X55179524Y-61906961D02*
X55131905Y-61811723D01*
X55131905Y-61811723D02*
X55084286Y-61621247D01*
X55084286Y-61621247D02*
X55084286Y-61478390D01*
X55084286Y-61478390D02*
X55131905Y-61287914D01*
X55131905Y-61287914D02*
X55179524Y-61192676D01*
X55179524Y-61192676D02*
X55274762Y-61097438D01*
X55274762Y-61097438D02*
X55417619Y-61049819D01*
X55417619Y-61049819D02*
X55512857Y-61049819D01*
X55512857Y-61049819D02*
X55655714Y-61097438D01*
X55655714Y-61097438D02*
X55703333Y-61145057D01*
X56036667Y-61049819D02*
X56655714Y-61049819D01*
X56655714Y-61049819D02*
X56322381Y-61430771D01*
X56322381Y-61430771D02*
X56465238Y-61430771D01*
X56465238Y-61430771D02*
X56560476Y-61478390D01*
X56560476Y-61478390D02*
X56608095Y-61526009D01*
X56608095Y-61526009D02*
X56655714Y-61621247D01*
X56655714Y-61621247D02*
X56655714Y-61859342D01*
X56655714Y-61859342D02*
X56608095Y-61954580D01*
X56608095Y-61954580D02*
X56560476Y-62002200D01*
X56560476Y-62002200D02*
X56465238Y-62049819D01*
X56465238Y-62049819D02*
X56179524Y-62049819D01*
X56179524Y-62049819D02*
X56084286Y-62002200D01*
X56084286Y-62002200D02*
X56036667Y-61954580D01*
X54465237Y-65859819D02*
X53893809Y-65859819D01*
X54179523Y-65859819D02*
X54179523Y-64859819D01*
X54179523Y-64859819D02*
X54084285Y-65002676D01*
X54084285Y-65002676D02*
X53989047Y-65097914D01*
X53989047Y-65097914D02*
X53893809Y-65145533D01*
X55084285Y-64859819D02*
X55179523Y-64859819D01*
X55179523Y-64859819D02*
X55274761Y-64907438D01*
X55274761Y-64907438D02*
X55322380Y-64955057D01*
X55322380Y-64955057D02*
X55369999Y-65050295D01*
X55369999Y-65050295D02*
X55417618Y-65240771D01*
X55417618Y-65240771D02*
X55417618Y-65478866D01*
X55417618Y-65478866D02*
X55369999Y-65669342D01*
X55369999Y-65669342D02*
X55322380Y-65764580D01*
X55322380Y-65764580D02*
X55274761Y-65812200D01*
X55274761Y-65812200D02*
X55179523Y-65859819D01*
X55179523Y-65859819D02*
X55084285Y-65859819D01*
X55084285Y-65859819D02*
X54989047Y-65812200D01*
X54989047Y-65812200D02*
X54941428Y-65764580D01*
X54941428Y-65764580D02*
X54893809Y-65669342D01*
X54893809Y-65669342D02*
X54846190Y-65478866D01*
X54846190Y-65478866D02*
X54846190Y-65240771D01*
X54846190Y-65240771D02*
X54893809Y-65050295D01*
X54893809Y-65050295D02*
X54941428Y-64955057D01*
X54941428Y-64955057D02*
X54989047Y-64907438D01*
X54989047Y-64907438D02*
X55084285Y-64859819D01*
X56036666Y-64859819D02*
X56131904Y-64859819D01*
X56131904Y-64859819D02*
X56227142Y-64907438D01*
X56227142Y-64907438D02*
X56274761Y-64955057D01*
X56274761Y-64955057D02*
X56322380Y-65050295D01*
X56322380Y-65050295D02*
X56369999Y-65240771D01*
X56369999Y-65240771D02*
X56369999Y-65478866D01*
X56369999Y-65478866D02*
X56322380Y-65669342D01*
X56322380Y-65669342D02*
X56274761Y-65764580D01*
X56274761Y-65764580D02*
X56227142Y-65812200D01*
X56227142Y-65812200D02*
X56131904Y-65859819D01*
X56131904Y-65859819D02*
X56036666Y-65859819D01*
X56036666Y-65859819D02*
X55941428Y-65812200D01*
X55941428Y-65812200D02*
X55893809Y-65764580D01*
X55893809Y-65764580D02*
X55846190Y-65669342D01*
X55846190Y-65669342D02*
X55798571Y-65478866D01*
X55798571Y-65478866D02*
X55798571Y-65240771D01*
X55798571Y-65240771D02*
X55846190Y-65050295D01*
X55846190Y-65050295D02*
X55893809Y-64955057D01*
X55893809Y-64955057D02*
X55941428Y-64907438D01*
X55941428Y-64907438D02*
X56036666Y-64859819D01*
X56798571Y-65193152D02*
X56798571Y-65859819D01*
X56798571Y-65288390D02*
X56846190Y-65240771D01*
X56846190Y-65240771D02*
X56941428Y-65193152D01*
X56941428Y-65193152D02*
X57084285Y-65193152D01*
X57084285Y-65193152D02*
X57179523Y-65240771D01*
X57179523Y-65240771D02*
X57227142Y-65336009D01*
X57227142Y-65336009D02*
X57227142Y-65859819D01*
X57560476Y-65193152D02*
X57941428Y-65193152D01*
X57703333Y-65859819D02*
X57703333Y-65002676D01*
X57703333Y-65002676D02*
X57750952Y-64907438D01*
X57750952Y-64907438D02*
X57846190Y-64859819D01*
X57846190Y-64859819D02*
X57941428Y-64859819D01*
X85539819Y-129706666D02*
X85063628Y-130039999D01*
X85539819Y-130278094D02*
X84539819Y-130278094D01*
X84539819Y-130278094D02*
X84539819Y-129897142D01*
X84539819Y-129897142D02*
X84587438Y-129801904D01*
X84587438Y-129801904D02*
X84635057Y-129754285D01*
X84635057Y-129754285D02*
X84730295Y-129706666D01*
X84730295Y-129706666D02*
X84873152Y-129706666D01*
X84873152Y-129706666D02*
X84968390Y-129754285D01*
X84968390Y-129754285D02*
X85016009Y-129801904D01*
X85016009Y-129801904D02*
X85063628Y-129897142D01*
X85063628Y-129897142D02*
X85063628Y-130278094D01*
X84539819Y-129373332D02*
X84539819Y-128754285D01*
X84539819Y-128754285D02*
X84920771Y-129087618D01*
X84920771Y-129087618D02*
X84920771Y-128944761D01*
X84920771Y-128944761D02*
X84968390Y-128849523D01*
X84968390Y-128849523D02*
X85016009Y-128801904D01*
X85016009Y-128801904D02*
X85111247Y-128754285D01*
X85111247Y-128754285D02*
X85349342Y-128754285D01*
X85349342Y-128754285D02*
X85444580Y-128801904D01*
X85444580Y-128801904D02*
X85492200Y-128849523D01*
X85492200Y-128849523D02*
X85539819Y-128944761D01*
X85539819Y-128944761D02*
X85539819Y-129230475D01*
X85539819Y-129230475D02*
X85492200Y-129325713D01*
X85492200Y-129325713D02*
X85444580Y-129373332D01*
X87343152Y-130325714D02*
X88009819Y-130325714D01*
X86962200Y-130563809D02*
X87676485Y-130801904D01*
X87676485Y-130801904D02*
X87676485Y-130182857D01*
X87009819Y-129897142D02*
X87009819Y-129230476D01*
X87009819Y-129230476D02*
X88009819Y-129659047D01*
X88009819Y-128849523D02*
X87009819Y-128849523D01*
X88009819Y-128278095D02*
X87438390Y-128706666D01*
X87009819Y-128278095D02*
X87581247Y-128849523D01*
X76013333Y-98149580D02*
X75965714Y-98197200D01*
X75965714Y-98197200D02*
X75822857Y-98244819D01*
X75822857Y-98244819D02*
X75727619Y-98244819D01*
X75727619Y-98244819D02*
X75584762Y-98197200D01*
X75584762Y-98197200D02*
X75489524Y-98101961D01*
X75489524Y-98101961D02*
X75441905Y-98006723D01*
X75441905Y-98006723D02*
X75394286Y-97816247D01*
X75394286Y-97816247D02*
X75394286Y-97673390D01*
X75394286Y-97673390D02*
X75441905Y-97482914D01*
X75441905Y-97482914D02*
X75489524Y-97387676D01*
X75489524Y-97387676D02*
X75584762Y-97292438D01*
X75584762Y-97292438D02*
X75727619Y-97244819D01*
X75727619Y-97244819D02*
X75822857Y-97244819D01*
X75822857Y-97244819D02*
X75965714Y-97292438D01*
X75965714Y-97292438D02*
X76013333Y-97340057D01*
X76870476Y-97244819D02*
X76680000Y-97244819D01*
X76680000Y-97244819D02*
X76584762Y-97292438D01*
X76584762Y-97292438D02*
X76537143Y-97340057D01*
X76537143Y-97340057D02*
X76441905Y-97482914D01*
X76441905Y-97482914D02*
X76394286Y-97673390D01*
X76394286Y-97673390D02*
X76394286Y-98054342D01*
X76394286Y-98054342D02*
X76441905Y-98149580D01*
X76441905Y-98149580D02*
X76489524Y-98197200D01*
X76489524Y-98197200D02*
X76584762Y-98244819D01*
X76584762Y-98244819D02*
X76775238Y-98244819D01*
X76775238Y-98244819D02*
X76870476Y-98197200D01*
X76870476Y-98197200D02*
X76918095Y-98149580D01*
X76918095Y-98149580D02*
X76965714Y-98054342D01*
X76965714Y-98054342D02*
X76965714Y-97816247D01*
X76965714Y-97816247D02*
X76918095Y-97721009D01*
X76918095Y-97721009D02*
X76870476Y-97673390D01*
X76870476Y-97673390D02*
X76775238Y-97625771D01*
X76775238Y-97625771D02*
X76584762Y-97625771D01*
X76584762Y-97625771D02*
X76489524Y-97673390D01*
X76489524Y-97673390D02*
X76441905Y-97721009D01*
X76441905Y-97721009D02*
X76394286Y-97816247D01*
X74775237Y-102054819D02*
X74203809Y-102054819D01*
X74489523Y-102054819D02*
X74489523Y-101054819D01*
X74489523Y-101054819D02*
X74394285Y-101197676D01*
X74394285Y-101197676D02*
X74299047Y-101292914D01*
X74299047Y-101292914D02*
X74203809Y-101340533D01*
X75394285Y-101054819D02*
X75489523Y-101054819D01*
X75489523Y-101054819D02*
X75584761Y-101102438D01*
X75584761Y-101102438D02*
X75632380Y-101150057D01*
X75632380Y-101150057D02*
X75679999Y-101245295D01*
X75679999Y-101245295D02*
X75727618Y-101435771D01*
X75727618Y-101435771D02*
X75727618Y-101673866D01*
X75727618Y-101673866D02*
X75679999Y-101864342D01*
X75679999Y-101864342D02*
X75632380Y-101959580D01*
X75632380Y-101959580D02*
X75584761Y-102007200D01*
X75584761Y-102007200D02*
X75489523Y-102054819D01*
X75489523Y-102054819D02*
X75394285Y-102054819D01*
X75394285Y-102054819D02*
X75299047Y-102007200D01*
X75299047Y-102007200D02*
X75251428Y-101959580D01*
X75251428Y-101959580D02*
X75203809Y-101864342D01*
X75203809Y-101864342D02*
X75156190Y-101673866D01*
X75156190Y-101673866D02*
X75156190Y-101435771D01*
X75156190Y-101435771D02*
X75203809Y-101245295D01*
X75203809Y-101245295D02*
X75251428Y-101150057D01*
X75251428Y-101150057D02*
X75299047Y-101102438D01*
X75299047Y-101102438D02*
X75394285Y-101054819D01*
X76346666Y-101054819D02*
X76441904Y-101054819D01*
X76441904Y-101054819D02*
X76537142Y-101102438D01*
X76537142Y-101102438D02*
X76584761Y-101150057D01*
X76584761Y-101150057D02*
X76632380Y-101245295D01*
X76632380Y-101245295D02*
X76679999Y-101435771D01*
X76679999Y-101435771D02*
X76679999Y-101673866D01*
X76679999Y-101673866D02*
X76632380Y-101864342D01*
X76632380Y-101864342D02*
X76584761Y-101959580D01*
X76584761Y-101959580D02*
X76537142Y-102007200D01*
X76537142Y-102007200D02*
X76441904Y-102054819D01*
X76441904Y-102054819D02*
X76346666Y-102054819D01*
X76346666Y-102054819D02*
X76251428Y-102007200D01*
X76251428Y-102007200D02*
X76203809Y-101959580D01*
X76203809Y-101959580D02*
X76156190Y-101864342D01*
X76156190Y-101864342D02*
X76108571Y-101673866D01*
X76108571Y-101673866D02*
X76108571Y-101435771D01*
X76108571Y-101435771D02*
X76156190Y-101245295D01*
X76156190Y-101245295D02*
X76203809Y-101150057D01*
X76203809Y-101150057D02*
X76251428Y-101102438D01*
X76251428Y-101102438D02*
X76346666Y-101054819D01*
X77108571Y-101388152D02*
X77108571Y-102054819D01*
X77108571Y-101483390D02*
X77156190Y-101435771D01*
X77156190Y-101435771D02*
X77251428Y-101388152D01*
X77251428Y-101388152D02*
X77394285Y-101388152D01*
X77394285Y-101388152D02*
X77489523Y-101435771D01*
X77489523Y-101435771D02*
X77537142Y-101531009D01*
X77537142Y-101531009D02*
X77537142Y-102054819D01*
X77870476Y-101388152D02*
X78251428Y-101388152D01*
X78013333Y-102054819D02*
X78013333Y-101197676D01*
X78013333Y-101197676D02*
X78060952Y-101102438D01*
X78060952Y-101102438D02*
X78156190Y-101054819D01*
X78156190Y-101054819D02*
X78251428Y-101054819D01*
X84399505Y-136249580D02*
X84351886Y-136297200D01*
X84351886Y-136297200D02*
X84209029Y-136344819D01*
X84209029Y-136344819D02*
X84113791Y-136344819D01*
X84113791Y-136344819D02*
X83970934Y-136297200D01*
X83970934Y-136297200D02*
X83875696Y-136201961D01*
X83875696Y-136201961D02*
X83828077Y-136106723D01*
X83828077Y-136106723D02*
X83780458Y-135916247D01*
X83780458Y-135916247D02*
X83780458Y-135773390D01*
X83780458Y-135773390D02*
X83828077Y-135582914D01*
X83828077Y-135582914D02*
X83875696Y-135487676D01*
X83875696Y-135487676D02*
X83970934Y-135392438D01*
X83970934Y-135392438D02*
X84113791Y-135344819D01*
X84113791Y-135344819D02*
X84209029Y-135344819D01*
X84209029Y-135344819D02*
X84351886Y-135392438D01*
X84351886Y-135392438D02*
X84399505Y-135440057D01*
X85018553Y-135344819D02*
X85209029Y-135344819D01*
X85209029Y-135344819D02*
X85304267Y-135392438D01*
X85304267Y-135392438D02*
X85399505Y-135487676D01*
X85399505Y-135487676D02*
X85447124Y-135678152D01*
X85447124Y-135678152D02*
X85447124Y-136011485D01*
X85447124Y-136011485D02*
X85399505Y-136201961D01*
X85399505Y-136201961D02*
X85304267Y-136297200D01*
X85304267Y-136297200D02*
X85209029Y-136344819D01*
X85209029Y-136344819D02*
X85018553Y-136344819D01*
X85018553Y-136344819D02*
X84923315Y-136297200D01*
X84923315Y-136297200D02*
X84828077Y-136201961D01*
X84828077Y-136201961D02*
X84780458Y-136011485D01*
X84780458Y-136011485D02*
X84780458Y-135678152D01*
X84780458Y-135678152D02*
X84828077Y-135487676D01*
X84828077Y-135487676D02*
X84923315Y-135392438D01*
X84923315Y-135392438D02*
X85018553Y-135344819D01*
X86399505Y-136344819D02*
X85828077Y-136344819D01*
X86113791Y-136344819D02*
X86113791Y-135344819D01*
X86113791Y-135344819D02*
X86018553Y-135487676D01*
X86018553Y-135487676D02*
X85923315Y-135582914D01*
X85923315Y-135582914D02*
X85828077Y-135630533D01*
D13*
X58928745Y-140094687D02*
X58452554Y-140428020D01*
X58928745Y-140666115D02*
X57928745Y-140666115D01*
X57928745Y-140666115D02*
X57928745Y-140285163D01*
X57928745Y-140285163D02*
X57976364Y-140189925D01*
X57976364Y-140189925D02*
X58023983Y-140142306D01*
X58023983Y-140142306D02*
X58119221Y-140094687D01*
X58119221Y-140094687D02*
X58262078Y-140094687D01*
X58262078Y-140094687D02*
X58357316Y-140142306D01*
X58357316Y-140142306D02*
X58404935Y-140189925D01*
X58404935Y-140189925D02*
X58452554Y-140285163D01*
X58452554Y-140285163D02*
X58452554Y-140666115D01*
X58643030Y-139713734D02*
X58643030Y-139237544D01*
X58928745Y-139808972D02*
X57928745Y-139475639D01*
X57928745Y-139475639D02*
X58928745Y-139142306D01*
X58928745Y-138808972D02*
X57928745Y-138808972D01*
X57928745Y-138808972D02*
X58643030Y-138475639D01*
X58643030Y-138475639D02*
X57928745Y-138142306D01*
X57928745Y-138142306D02*
X58928745Y-138142306D01*
X58833506Y-137094687D02*
X58881126Y-137142306D01*
X58881126Y-137142306D02*
X58928745Y-137285163D01*
X58928745Y-137285163D02*
X58928745Y-137380401D01*
X58928745Y-137380401D02*
X58881126Y-137523258D01*
X58881126Y-137523258D02*
X58785887Y-137618496D01*
X58785887Y-137618496D02*
X58690649Y-137666115D01*
X58690649Y-137666115D02*
X58500173Y-137713734D01*
X58500173Y-137713734D02*
X58357316Y-137713734D01*
X58357316Y-137713734D02*
X58166840Y-137666115D01*
X58166840Y-137666115D02*
X58071602Y-137618496D01*
X58071602Y-137618496D02*
X57976364Y-137523258D01*
X57976364Y-137523258D02*
X57928745Y-137380401D01*
X57928745Y-137380401D02*
X57928745Y-137285163D01*
X57928745Y-137285163D02*
X57976364Y-137142306D01*
X57976364Y-137142306D02*
X58023983Y-137094687D01*
X58881126Y-136713734D02*
X58928745Y-136570877D01*
X58928745Y-136570877D02*
X58928745Y-136332782D01*
X58928745Y-136332782D02*
X58881126Y-136237544D01*
X58881126Y-136237544D02*
X58833506Y-136189925D01*
X58833506Y-136189925D02*
X58738268Y-136142306D01*
X58738268Y-136142306D02*
X58643030Y-136142306D01*
X58643030Y-136142306D02*
X58547792Y-136189925D01*
X58547792Y-136189925D02*
X58500173Y-136237544D01*
X58500173Y-136237544D02*
X58452554Y-136332782D01*
X58452554Y-136332782D02*
X58404935Y-136523258D01*
X58404935Y-136523258D02*
X58357316Y-136618496D01*
X58357316Y-136618496D02*
X58309697Y-136666115D01*
X58309697Y-136666115D02*
X58214459Y-136713734D01*
X58214459Y-136713734D02*
X58119221Y-136713734D01*
X58119221Y-136713734D02*
X58023983Y-136666115D01*
X58023983Y-136666115D02*
X57976364Y-136618496D01*
X57976364Y-136618496D02*
X57928745Y-136523258D01*
X57928745Y-136523258D02*
X57928745Y-136285163D01*
X57928745Y-136285163D02*
X57976364Y-136142306D01*
X57651126Y-140804211D02*
X57651126Y-136051830D01*
X79192401Y-140666115D02*
X78192401Y-140666115D01*
X78192401Y-140666115D02*
X78192401Y-140428020D01*
X78192401Y-140428020D02*
X78240020Y-140285163D01*
X78240020Y-140285163D02*
X78335258Y-140189925D01*
X78335258Y-140189925D02*
X78430496Y-140142306D01*
X78430496Y-140142306D02*
X78620972Y-140094687D01*
X78620972Y-140094687D02*
X78763829Y-140094687D01*
X78763829Y-140094687D02*
X78954305Y-140142306D01*
X78954305Y-140142306D02*
X79049543Y-140189925D01*
X79049543Y-140189925D02*
X79144782Y-140285163D01*
X79144782Y-140285163D02*
X79192401Y-140428020D01*
X79192401Y-140428020D02*
X79192401Y-140666115D01*
X78525734Y-139237544D02*
X79192401Y-139237544D01*
X78144782Y-139475639D02*
X78859067Y-139713734D01*
X78859067Y-139713734D02*
X78859067Y-139094687D01*
X104068591Y-140332782D02*
X104116210Y-140189925D01*
X104116210Y-140189925D02*
X104163829Y-140142306D01*
X104163829Y-140142306D02*
X104259067Y-140094687D01*
X104259067Y-140094687D02*
X104401924Y-140094687D01*
X104401924Y-140094687D02*
X104497162Y-140142306D01*
X104497162Y-140142306D02*
X104544782Y-140189925D01*
X104544782Y-140189925D02*
X104592401Y-140285163D01*
X104592401Y-140285163D02*
X104592401Y-140666115D01*
X104592401Y-140666115D02*
X103592401Y-140666115D01*
X103592401Y-140666115D02*
X103592401Y-140332782D01*
X103592401Y-140332782D02*
X103640020Y-140237544D01*
X103640020Y-140237544D02*
X103687639Y-140189925D01*
X103687639Y-140189925D02*
X103782877Y-140142306D01*
X103782877Y-140142306D02*
X103878115Y-140142306D01*
X103878115Y-140142306D02*
X103973353Y-140189925D01*
X103973353Y-140189925D02*
X104020972Y-140237544D01*
X104020972Y-140237544D02*
X104068591Y-140332782D01*
X104068591Y-140332782D02*
X104068591Y-140666115D01*
X103592401Y-139666115D02*
X104401924Y-139666115D01*
X104401924Y-139666115D02*
X104497162Y-139618496D01*
X104497162Y-139618496D02*
X104544782Y-139570877D01*
X104544782Y-139570877D02*
X104592401Y-139475639D01*
X104592401Y-139475639D02*
X104592401Y-139285163D01*
X104592401Y-139285163D02*
X104544782Y-139189925D01*
X104544782Y-139189925D02*
X104497162Y-139142306D01*
X104497162Y-139142306D02*
X104401924Y-139094687D01*
X104401924Y-139094687D02*
X103592401Y-139094687D01*
X104544782Y-138666115D02*
X104592401Y-138523258D01*
X104592401Y-138523258D02*
X104592401Y-138285163D01*
X104592401Y-138285163D02*
X104544782Y-138189925D01*
X104544782Y-138189925D02*
X104497162Y-138142306D01*
X104497162Y-138142306D02*
X104401924Y-138094687D01*
X104401924Y-138094687D02*
X104306686Y-138094687D01*
X104306686Y-138094687D02*
X104211448Y-138142306D01*
X104211448Y-138142306D02*
X104163829Y-138189925D01*
X104163829Y-138189925D02*
X104116210Y-138285163D01*
X104116210Y-138285163D02*
X104068591Y-138475639D01*
X104068591Y-138475639D02*
X104020972Y-138570877D01*
X104020972Y-138570877D02*
X103973353Y-138618496D01*
X103973353Y-138618496D02*
X103878115Y-138666115D01*
X103878115Y-138666115D02*
X103782877Y-138666115D01*
X103782877Y-138666115D02*
X103687639Y-138618496D01*
X103687639Y-138618496D02*
X103640020Y-138570877D01*
X103640020Y-138570877D02*
X103592401Y-138475639D01*
X103592401Y-138475639D02*
X103592401Y-138237544D01*
X103592401Y-138237544D02*
X103640020Y-138094687D01*
X104592401Y-137094687D02*
X104116210Y-137428020D01*
X104592401Y-137666115D02*
X103592401Y-137666115D01*
X103592401Y-137666115D02*
X103592401Y-137285163D01*
X103592401Y-137285163D02*
X103640020Y-137189925D01*
X103640020Y-137189925D02*
X103687639Y-137142306D01*
X103687639Y-137142306D02*
X103782877Y-137094687D01*
X103782877Y-137094687D02*
X103925734Y-137094687D01*
X103925734Y-137094687D02*
X104020972Y-137142306D01*
X104020972Y-137142306D02*
X104068591Y-137189925D01*
X104068591Y-137189925D02*
X104116210Y-137285163D01*
X104116210Y-137285163D02*
X104116210Y-137666115D01*
X104687639Y-135999449D02*
X104640020Y-136094687D01*
X104640020Y-136094687D02*
X104544782Y-136189925D01*
X104544782Y-136189925D02*
X104401924Y-136332782D01*
X104401924Y-136332782D02*
X104354305Y-136428020D01*
X104354305Y-136428020D02*
X104354305Y-136523258D01*
X104592401Y-136475639D02*
X104544782Y-136570877D01*
X104544782Y-136570877D02*
X104449543Y-136666115D01*
X104449543Y-136666115D02*
X104259067Y-136713734D01*
X104259067Y-136713734D02*
X103925734Y-136713734D01*
X103925734Y-136713734D02*
X103735258Y-136666115D01*
X103735258Y-136666115D02*
X103640020Y-136570877D01*
X103640020Y-136570877D02*
X103592401Y-136475639D01*
X103592401Y-136475639D02*
X103592401Y-136285163D01*
X103592401Y-136285163D02*
X103640020Y-136189925D01*
X103640020Y-136189925D02*
X103735258Y-136094687D01*
X103735258Y-136094687D02*
X103925734Y-136047068D01*
X103925734Y-136047068D02*
X104259067Y-136047068D01*
X104259067Y-136047068D02*
X104449543Y-136094687D01*
X104449543Y-136094687D02*
X104544782Y-136189925D01*
X104544782Y-136189925D02*
X104592401Y-136285163D01*
X104592401Y-136285163D02*
X104592401Y-136475639D01*
X103314782Y-140804211D02*
X103314782Y-135956592D01*
X91917019Y-140666115D02*
X90917019Y-140666115D01*
X90917019Y-139999449D02*
X90917019Y-139808973D01*
X90917019Y-139808973D02*
X90964638Y-139713735D01*
X90964638Y-139713735D02*
X91059876Y-139618497D01*
X91059876Y-139618497D02*
X91250352Y-139570878D01*
X91250352Y-139570878D02*
X91583685Y-139570878D01*
X91583685Y-139570878D02*
X91774161Y-139618497D01*
X91774161Y-139618497D02*
X91869400Y-139713735D01*
X91869400Y-139713735D02*
X91917019Y-139808973D01*
X91917019Y-139808973D02*
X91917019Y-139999449D01*
X91917019Y-139999449D02*
X91869400Y-140094687D01*
X91869400Y-140094687D02*
X91774161Y-140189925D01*
X91774161Y-140189925D02*
X91583685Y-140237544D01*
X91583685Y-140237544D02*
X91250352Y-140237544D01*
X91250352Y-140237544D02*
X91059876Y-140189925D01*
X91059876Y-140189925D02*
X90964638Y-140094687D01*
X90964638Y-140094687D02*
X90917019Y-139999449D01*
X91917019Y-138570878D02*
X91440828Y-138904211D01*
X91917019Y-139142306D02*
X90917019Y-139142306D01*
X90917019Y-139142306D02*
X90917019Y-138761354D01*
X90917019Y-138761354D02*
X90964638Y-138666116D01*
X90964638Y-138666116D02*
X91012257Y-138618497D01*
X91012257Y-138618497D02*
X91107495Y-138570878D01*
X91107495Y-138570878D02*
X91250352Y-138570878D01*
X91250352Y-138570878D02*
X91345590Y-138618497D01*
X91345590Y-138618497D02*
X91393209Y-138666116D01*
X91393209Y-138666116D02*
X91440828Y-138761354D01*
X91440828Y-138761354D02*
X91440828Y-139142306D01*
X92012257Y-137475640D02*
X91964638Y-137570878D01*
X91964638Y-137570878D02*
X91869400Y-137666116D01*
X91869400Y-137666116D02*
X91726542Y-137808973D01*
X91726542Y-137808973D02*
X91678923Y-137904211D01*
X91678923Y-137904211D02*
X91678923Y-137999449D01*
X91917019Y-137951830D02*
X91869400Y-138047068D01*
X91869400Y-138047068D02*
X91774161Y-138142306D01*
X91774161Y-138142306D02*
X91583685Y-138189925D01*
X91583685Y-138189925D02*
X91250352Y-138189925D01*
X91250352Y-138189925D02*
X91059876Y-138142306D01*
X91059876Y-138142306D02*
X90964638Y-138047068D01*
X90964638Y-138047068D02*
X90917019Y-137951830D01*
X90917019Y-137951830D02*
X90917019Y-137761354D01*
X90917019Y-137761354D02*
X90964638Y-137666116D01*
X90964638Y-137666116D02*
X91059876Y-137570878D01*
X91059876Y-137570878D02*
X91250352Y-137523259D01*
X91250352Y-137523259D02*
X91583685Y-137523259D01*
X91583685Y-137523259D02*
X91774161Y-137570878D01*
X91774161Y-137570878D02*
X91869400Y-137666116D01*
X91869400Y-137666116D02*
X91917019Y-137761354D01*
X91917019Y-137761354D02*
X91917019Y-137951830D01*
X90639400Y-140804211D02*
X90639400Y-137432783D01*
X107132401Y-140094687D02*
X106656210Y-140428020D01*
X107132401Y-140666115D02*
X106132401Y-140666115D01*
X106132401Y-140666115D02*
X106132401Y-140285163D01*
X106132401Y-140285163D02*
X106180020Y-140189925D01*
X106180020Y-140189925D02*
X106227639Y-140142306D01*
X106227639Y-140142306D02*
X106322877Y-140094687D01*
X106322877Y-140094687D02*
X106465734Y-140094687D01*
X106465734Y-140094687D02*
X106560972Y-140142306D01*
X106560972Y-140142306D02*
X106608591Y-140189925D01*
X106608591Y-140189925D02*
X106656210Y-140285163D01*
X106656210Y-140285163D02*
X106656210Y-140666115D01*
X106608591Y-139666115D02*
X106608591Y-139332782D01*
X107132401Y-139189925D02*
X107132401Y-139666115D01*
X107132401Y-139666115D02*
X106132401Y-139666115D01*
X106132401Y-139666115D02*
X106132401Y-139189925D01*
X107084782Y-138808972D02*
X107132401Y-138666115D01*
X107132401Y-138666115D02*
X107132401Y-138428020D01*
X107132401Y-138428020D02*
X107084782Y-138332782D01*
X107084782Y-138332782D02*
X107037162Y-138285163D01*
X107037162Y-138285163D02*
X106941924Y-138237544D01*
X106941924Y-138237544D02*
X106846686Y-138237544D01*
X106846686Y-138237544D02*
X106751448Y-138285163D01*
X106751448Y-138285163D02*
X106703829Y-138332782D01*
X106703829Y-138332782D02*
X106656210Y-138428020D01*
X106656210Y-138428020D02*
X106608591Y-138618496D01*
X106608591Y-138618496D02*
X106560972Y-138713734D01*
X106560972Y-138713734D02*
X106513353Y-138761353D01*
X106513353Y-138761353D02*
X106418115Y-138808972D01*
X106418115Y-138808972D02*
X106322877Y-138808972D01*
X106322877Y-138808972D02*
X106227639Y-138761353D01*
X106227639Y-138761353D02*
X106180020Y-138713734D01*
X106180020Y-138713734D02*
X106132401Y-138618496D01*
X106132401Y-138618496D02*
X106132401Y-138380401D01*
X106132401Y-138380401D02*
X106180020Y-138237544D01*
X106608591Y-137808972D02*
X106608591Y-137475639D01*
X107132401Y-137332782D02*
X107132401Y-137808972D01*
X107132401Y-137808972D02*
X106132401Y-137808972D01*
X106132401Y-137808972D02*
X106132401Y-137332782D01*
X106132401Y-137047067D02*
X106132401Y-136475639D01*
X107132401Y-136761353D02*
X106132401Y-136761353D01*
X105854782Y-140804211D02*
X105854782Y-136480401D01*
X76652401Y-140666115D02*
X75652401Y-140666115D01*
X75652401Y-140666115D02*
X75652401Y-140428020D01*
X75652401Y-140428020D02*
X75700020Y-140285163D01*
X75700020Y-140285163D02*
X75795258Y-140189925D01*
X75795258Y-140189925D02*
X75890496Y-140142306D01*
X75890496Y-140142306D02*
X76080972Y-140094687D01*
X76080972Y-140094687D02*
X76223829Y-140094687D01*
X76223829Y-140094687D02*
X76414305Y-140142306D01*
X76414305Y-140142306D02*
X76509543Y-140189925D01*
X76509543Y-140189925D02*
X76604782Y-140285163D01*
X76604782Y-140285163D02*
X76652401Y-140428020D01*
X76652401Y-140428020D02*
X76652401Y-140666115D01*
X75652401Y-139761353D02*
X75652401Y-139142306D01*
X75652401Y-139142306D02*
X76033353Y-139475639D01*
X76033353Y-139475639D02*
X76033353Y-139332782D01*
X76033353Y-139332782D02*
X76080972Y-139237544D01*
X76080972Y-139237544D02*
X76128591Y-139189925D01*
X76128591Y-139189925D02*
X76223829Y-139142306D01*
X76223829Y-139142306D02*
X76461924Y-139142306D01*
X76461924Y-139142306D02*
X76557162Y-139189925D01*
X76557162Y-139189925D02*
X76604782Y-139237544D01*
X76604782Y-139237544D02*
X76652401Y-139332782D01*
X76652401Y-139332782D02*
X76652401Y-139618496D01*
X76652401Y-139618496D02*
X76604782Y-139713734D01*
X76604782Y-139713734D02*
X76557162Y-139761353D01*
X56332401Y-140666115D02*
X55332401Y-140666115D01*
X55332401Y-140666115D02*
X55332401Y-140428020D01*
X55332401Y-140428020D02*
X55380020Y-140285163D01*
X55380020Y-140285163D02*
X55475258Y-140189925D01*
X55475258Y-140189925D02*
X55570496Y-140142306D01*
X55570496Y-140142306D02*
X55760972Y-140094687D01*
X55760972Y-140094687D02*
X55903829Y-140094687D01*
X55903829Y-140094687D02*
X56094305Y-140142306D01*
X56094305Y-140142306D02*
X56189543Y-140189925D01*
X56189543Y-140189925D02*
X56284782Y-140285163D01*
X56284782Y-140285163D02*
X56332401Y-140428020D01*
X56332401Y-140428020D02*
X56332401Y-140666115D01*
X55332401Y-139761353D02*
X55332401Y-139094687D01*
X55332401Y-139094687D02*
X56332401Y-139523258D01*
X94432401Y-140094687D02*
X93956210Y-140428020D01*
X94432401Y-140666115D02*
X93432401Y-140666115D01*
X93432401Y-140666115D02*
X93432401Y-140285163D01*
X93432401Y-140285163D02*
X93480020Y-140189925D01*
X93480020Y-140189925D02*
X93527639Y-140142306D01*
X93527639Y-140142306D02*
X93622877Y-140094687D01*
X93622877Y-140094687D02*
X93765734Y-140094687D01*
X93765734Y-140094687D02*
X93860972Y-140142306D01*
X93860972Y-140142306D02*
X93908591Y-140189925D01*
X93908591Y-140189925D02*
X93956210Y-140285163D01*
X93956210Y-140285163D02*
X93956210Y-140666115D01*
X94432401Y-139666115D02*
X93432401Y-139666115D01*
X93432401Y-139666115D02*
X93432401Y-139428020D01*
X93432401Y-139428020D02*
X93480020Y-139285163D01*
X93480020Y-139285163D02*
X93575258Y-139189925D01*
X93575258Y-139189925D02*
X93670496Y-139142306D01*
X93670496Y-139142306D02*
X93860972Y-139094687D01*
X93860972Y-139094687D02*
X94003829Y-139094687D01*
X94003829Y-139094687D02*
X94194305Y-139142306D01*
X94194305Y-139142306D02*
X94289543Y-139189925D01*
X94289543Y-139189925D02*
X94384782Y-139285163D01*
X94384782Y-139285163D02*
X94432401Y-139428020D01*
X94432401Y-139428020D02*
X94432401Y-139666115D01*
X93154782Y-140804211D02*
X93154782Y-139004211D01*
X89417019Y-140666115D02*
X88417019Y-140666115D01*
X88417019Y-140666115D02*
X89131304Y-140332782D01*
X89131304Y-140332782D02*
X88417019Y-139999449D01*
X88417019Y-139999449D02*
X89417019Y-139999449D01*
X89417019Y-138951830D02*
X88940828Y-139285163D01*
X89417019Y-139523258D02*
X88417019Y-139523258D01*
X88417019Y-139523258D02*
X88417019Y-139142306D01*
X88417019Y-139142306D02*
X88464638Y-139047068D01*
X88464638Y-139047068D02*
X88512257Y-138999449D01*
X88512257Y-138999449D02*
X88607495Y-138951830D01*
X88607495Y-138951830D02*
X88750352Y-138951830D01*
X88750352Y-138951830D02*
X88845590Y-138999449D01*
X88845590Y-138999449D02*
X88893209Y-139047068D01*
X88893209Y-139047068D02*
X88940828Y-139142306D01*
X88940828Y-139142306D02*
X88940828Y-139523258D01*
X88893209Y-138523258D02*
X88893209Y-138189925D01*
X89417019Y-138047068D02*
X89417019Y-138523258D01*
X89417019Y-138523258D02*
X88417019Y-138523258D01*
X88417019Y-138523258D02*
X88417019Y-138047068D01*
X89512257Y-136951830D02*
X89464638Y-137047068D01*
X89464638Y-137047068D02*
X89369400Y-137142306D01*
X89369400Y-137142306D02*
X89226542Y-137285163D01*
X89226542Y-137285163D02*
X89178923Y-137380401D01*
X89178923Y-137380401D02*
X89178923Y-137475639D01*
X89417019Y-137428020D02*
X89369400Y-137523258D01*
X89369400Y-137523258D02*
X89274161Y-137618496D01*
X89274161Y-137618496D02*
X89083685Y-137666115D01*
X89083685Y-137666115D02*
X88750352Y-137666115D01*
X88750352Y-137666115D02*
X88559876Y-137618496D01*
X88559876Y-137618496D02*
X88464638Y-137523258D01*
X88464638Y-137523258D02*
X88417019Y-137428020D01*
X88417019Y-137428020D02*
X88417019Y-137237544D01*
X88417019Y-137237544D02*
X88464638Y-137142306D01*
X88464638Y-137142306D02*
X88559876Y-137047068D01*
X88559876Y-137047068D02*
X88750352Y-136999449D01*
X88750352Y-136999449D02*
X89083685Y-136999449D01*
X89083685Y-136999449D02*
X89274161Y-137047068D01*
X89274161Y-137047068D02*
X89369400Y-137142306D01*
X89369400Y-137142306D02*
X89417019Y-137237544D01*
X89417019Y-137237544D02*
X89417019Y-137428020D01*
X88139400Y-140804211D02*
X88139400Y-136908973D01*
X112217019Y-140094687D02*
X111740828Y-140428020D01*
X112217019Y-140666115D02*
X111217019Y-140666115D01*
X111217019Y-140666115D02*
X111217019Y-140285163D01*
X111217019Y-140285163D02*
X111264638Y-140189925D01*
X111264638Y-140189925D02*
X111312257Y-140142306D01*
X111312257Y-140142306D02*
X111407495Y-140094687D01*
X111407495Y-140094687D02*
X111550352Y-140094687D01*
X111550352Y-140094687D02*
X111645590Y-140142306D01*
X111645590Y-140142306D02*
X111693209Y-140189925D01*
X111693209Y-140189925D02*
X111740828Y-140285163D01*
X111740828Y-140285163D02*
X111740828Y-140666115D01*
X111693209Y-139332782D02*
X111693209Y-139666115D01*
X112217019Y-139666115D02*
X111217019Y-139666115D01*
X111217019Y-139666115D02*
X111217019Y-139189925D01*
X112169400Y-138856591D02*
X112217019Y-138713734D01*
X112217019Y-138713734D02*
X112217019Y-138475639D01*
X112217019Y-138475639D02*
X112169400Y-138380401D01*
X112169400Y-138380401D02*
X112121780Y-138332782D01*
X112121780Y-138332782D02*
X112026542Y-138285163D01*
X112026542Y-138285163D02*
X111931304Y-138285163D01*
X111931304Y-138285163D02*
X111836066Y-138332782D01*
X111836066Y-138332782D02*
X111788447Y-138380401D01*
X111788447Y-138380401D02*
X111740828Y-138475639D01*
X111740828Y-138475639D02*
X111693209Y-138666115D01*
X111693209Y-138666115D02*
X111645590Y-138761353D01*
X111645590Y-138761353D02*
X111597971Y-138808972D01*
X111597971Y-138808972D02*
X111502733Y-138856591D01*
X111502733Y-138856591D02*
X111407495Y-138856591D01*
X111407495Y-138856591D02*
X111312257Y-138808972D01*
X111312257Y-138808972D02*
X111264638Y-138761353D01*
X111264638Y-138761353D02*
X111217019Y-138666115D01*
X111217019Y-138666115D02*
X111217019Y-138428020D01*
X111217019Y-138428020D02*
X111264638Y-138285163D01*
X112217019Y-137856591D02*
X111217019Y-137856591D01*
X111693209Y-137856591D02*
X111693209Y-137285163D01*
X112217019Y-137285163D02*
X111217019Y-137285163D01*
X110939400Y-140804211D02*
X110939400Y-137147068D01*
X95972401Y-140761353D02*
X96972401Y-140523258D01*
X96972401Y-140523258D02*
X96258115Y-140332782D01*
X96258115Y-140332782D02*
X96972401Y-140142306D01*
X96972401Y-140142306D02*
X95972401Y-139904211D01*
X96972401Y-138951830D02*
X96496210Y-139285163D01*
X96972401Y-139523258D02*
X95972401Y-139523258D01*
X95972401Y-139523258D02*
X95972401Y-139142306D01*
X95972401Y-139142306D02*
X96020020Y-139047068D01*
X96020020Y-139047068D02*
X96067639Y-138999449D01*
X96067639Y-138999449D02*
X96162877Y-138951830D01*
X96162877Y-138951830D02*
X96305734Y-138951830D01*
X96305734Y-138951830D02*
X96400972Y-138999449D01*
X96400972Y-138999449D02*
X96448591Y-139047068D01*
X96448591Y-139047068D02*
X96496210Y-139142306D01*
X96496210Y-139142306D02*
X96496210Y-139523258D01*
X95694782Y-140804211D02*
X95694782Y-138861354D01*
X81732401Y-140666115D02*
X80732401Y-140666115D01*
X81732401Y-140189925D02*
X80732401Y-140189925D01*
X80732401Y-140189925D02*
X81732401Y-139618497D01*
X81732401Y-139618497D02*
X80732401Y-139618497D01*
X80732401Y-139285163D02*
X80732401Y-138713735D01*
X81732401Y-138999449D02*
X80732401Y-138999449D01*
X80454782Y-140804211D02*
X80454782Y-138718497D01*
X101052401Y-140761353D02*
X102052401Y-140523258D01*
X102052401Y-140523258D02*
X101338115Y-140332782D01*
X101338115Y-140332782D02*
X102052401Y-140142306D01*
X102052401Y-140142306D02*
X101052401Y-139904211D01*
X101766686Y-139570877D02*
X101766686Y-139094687D01*
X102052401Y-139666115D02*
X101052401Y-139332782D01*
X101052401Y-139332782D02*
X102052401Y-138999449D01*
X102052401Y-138666115D02*
X101052401Y-138666115D01*
X101052401Y-138332782D02*
X101052401Y-137761354D01*
X102052401Y-138047068D02*
X101052401Y-138047068D01*
X100774782Y-140804211D02*
X100774782Y-137766116D01*
X74112401Y-140666115D02*
X73112401Y-140666115D01*
X73112401Y-140666115D02*
X73112401Y-140428020D01*
X73112401Y-140428020D02*
X73160020Y-140285163D01*
X73160020Y-140285163D02*
X73255258Y-140189925D01*
X73255258Y-140189925D02*
X73350496Y-140142306D01*
X73350496Y-140142306D02*
X73540972Y-140094687D01*
X73540972Y-140094687D02*
X73683829Y-140094687D01*
X73683829Y-140094687D02*
X73874305Y-140142306D01*
X73874305Y-140142306D02*
X73969543Y-140189925D01*
X73969543Y-140189925D02*
X74064782Y-140285163D01*
X74064782Y-140285163D02*
X74112401Y-140428020D01*
X74112401Y-140428020D02*
X74112401Y-140666115D01*
X73112401Y-139189925D02*
X73112401Y-139666115D01*
X73112401Y-139666115D02*
X73588591Y-139713734D01*
X73588591Y-139713734D02*
X73540972Y-139666115D01*
X73540972Y-139666115D02*
X73493353Y-139570877D01*
X73493353Y-139570877D02*
X73493353Y-139332782D01*
X73493353Y-139332782D02*
X73540972Y-139237544D01*
X73540972Y-139237544D02*
X73588591Y-139189925D01*
X73588591Y-139189925D02*
X73683829Y-139142306D01*
X73683829Y-139142306D02*
X73921924Y-139142306D01*
X73921924Y-139142306D02*
X74017162Y-139189925D01*
X74017162Y-139189925D02*
X74064782Y-139237544D01*
X74064782Y-139237544D02*
X74112401Y-139332782D01*
X74112401Y-139332782D02*
X74112401Y-139570877D01*
X74112401Y-139570877D02*
X74064782Y-139666115D01*
X74064782Y-139666115D02*
X74017162Y-139713734D01*
X86728745Y-140666115D02*
X85728745Y-140666115D01*
X86204935Y-140666115D02*
X86204935Y-140094687D01*
X86728745Y-140094687D02*
X85728745Y-140094687D01*
X86443030Y-139666115D02*
X86443030Y-139189925D01*
X86728745Y-139761353D02*
X85728745Y-139428020D01*
X85728745Y-139428020D02*
X86728745Y-139094687D01*
X86728745Y-138285163D02*
X86728745Y-138761353D01*
X86728745Y-138761353D02*
X85728745Y-138761353D01*
X85728745Y-138094686D02*
X85728745Y-137523258D01*
X86728745Y-137808972D02*
X85728745Y-137808972D01*
X85451126Y-140804211D02*
X85451126Y-137528020D01*
X63952401Y-140666115D02*
X62952401Y-140666115D01*
X62952401Y-140666115D02*
X62952401Y-140428020D01*
X62952401Y-140428020D02*
X63000020Y-140285163D01*
X63000020Y-140285163D02*
X63095258Y-140189925D01*
X63095258Y-140189925D02*
X63190496Y-140142306D01*
X63190496Y-140142306D02*
X63380972Y-140094687D01*
X63380972Y-140094687D02*
X63523829Y-140094687D01*
X63523829Y-140094687D02*
X63714305Y-140142306D01*
X63714305Y-140142306D02*
X63809543Y-140189925D01*
X63809543Y-140189925D02*
X63904782Y-140285163D01*
X63904782Y-140285163D02*
X63952401Y-140428020D01*
X63952401Y-140428020D02*
X63952401Y-140666115D01*
X62952401Y-139475639D02*
X62952401Y-139380401D01*
X62952401Y-139380401D02*
X63000020Y-139285163D01*
X63000020Y-139285163D02*
X63047639Y-139237544D01*
X63047639Y-139237544D02*
X63142877Y-139189925D01*
X63142877Y-139189925D02*
X63333353Y-139142306D01*
X63333353Y-139142306D02*
X63571448Y-139142306D01*
X63571448Y-139142306D02*
X63761924Y-139189925D01*
X63761924Y-139189925D02*
X63857162Y-139237544D01*
X63857162Y-139237544D02*
X63904782Y-139285163D01*
X63904782Y-139285163D02*
X63952401Y-139380401D01*
X63952401Y-139380401D02*
X63952401Y-139475639D01*
X63952401Y-139475639D02*
X63904782Y-139570877D01*
X63904782Y-139570877D02*
X63857162Y-139618496D01*
X63857162Y-139618496D02*
X63761924Y-139666115D01*
X63761924Y-139666115D02*
X63571448Y-139713734D01*
X63571448Y-139713734D02*
X63333353Y-139713734D01*
X63333353Y-139713734D02*
X63142877Y-139666115D01*
X63142877Y-139666115D02*
X63047639Y-139618496D01*
X63047639Y-139618496D02*
X63000020Y-139570877D01*
X63000020Y-139570877D02*
X62952401Y-139475639D01*
X66492401Y-140666115D02*
X65492401Y-140666115D01*
X65492401Y-140666115D02*
X65492401Y-140428020D01*
X65492401Y-140428020D02*
X65540020Y-140285163D01*
X65540020Y-140285163D02*
X65635258Y-140189925D01*
X65635258Y-140189925D02*
X65730496Y-140142306D01*
X65730496Y-140142306D02*
X65920972Y-140094687D01*
X65920972Y-140094687D02*
X66063829Y-140094687D01*
X66063829Y-140094687D02*
X66254305Y-140142306D01*
X66254305Y-140142306D02*
X66349543Y-140189925D01*
X66349543Y-140189925D02*
X66444782Y-140285163D01*
X66444782Y-140285163D02*
X66492401Y-140428020D01*
X66492401Y-140428020D02*
X66492401Y-140666115D01*
X66492401Y-139142306D02*
X66492401Y-139713734D01*
X66492401Y-139428020D02*
X65492401Y-139428020D01*
X65492401Y-139428020D02*
X65635258Y-139523258D01*
X65635258Y-139523258D02*
X65730496Y-139618496D01*
X65730496Y-139618496D02*
X65778115Y-139713734D01*
X84478745Y-140666115D02*
X83478745Y-140666115D01*
X83478745Y-140666115D02*
X84478745Y-140094687D01*
X84478745Y-140094687D02*
X83478745Y-140094687D01*
X84478745Y-139618496D02*
X83478745Y-139618496D01*
X83478745Y-139618496D02*
X84193030Y-139285163D01*
X84193030Y-139285163D02*
X83478745Y-138951830D01*
X83478745Y-138951830D02*
X84478745Y-138951830D01*
X84478745Y-138475639D02*
X83478745Y-138475639D01*
X83201126Y-140804211D02*
X83201126Y-138337545D01*
X98988591Y-140332782D02*
X99036210Y-140189925D01*
X99036210Y-140189925D02*
X99083829Y-140142306D01*
X99083829Y-140142306D02*
X99179067Y-140094687D01*
X99179067Y-140094687D02*
X99321924Y-140094687D01*
X99321924Y-140094687D02*
X99417162Y-140142306D01*
X99417162Y-140142306D02*
X99464782Y-140189925D01*
X99464782Y-140189925D02*
X99512401Y-140285163D01*
X99512401Y-140285163D02*
X99512401Y-140666115D01*
X99512401Y-140666115D02*
X98512401Y-140666115D01*
X98512401Y-140666115D02*
X98512401Y-140332782D01*
X98512401Y-140332782D02*
X98560020Y-140237544D01*
X98560020Y-140237544D02*
X98607639Y-140189925D01*
X98607639Y-140189925D02*
X98702877Y-140142306D01*
X98702877Y-140142306D02*
X98798115Y-140142306D01*
X98798115Y-140142306D02*
X98893353Y-140189925D01*
X98893353Y-140189925D02*
X98940972Y-140237544D01*
X98940972Y-140237544D02*
X98988591Y-140332782D01*
X98988591Y-140332782D02*
X98988591Y-140666115D01*
X98512401Y-139666115D02*
X99321924Y-139666115D01*
X99321924Y-139666115D02*
X99417162Y-139618496D01*
X99417162Y-139618496D02*
X99464782Y-139570877D01*
X99464782Y-139570877D02*
X99512401Y-139475639D01*
X99512401Y-139475639D02*
X99512401Y-139285163D01*
X99512401Y-139285163D02*
X99464782Y-139189925D01*
X99464782Y-139189925D02*
X99417162Y-139142306D01*
X99417162Y-139142306D02*
X99321924Y-139094687D01*
X99321924Y-139094687D02*
X98512401Y-139094687D01*
X99464782Y-138666115D02*
X99512401Y-138523258D01*
X99512401Y-138523258D02*
X99512401Y-138285163D01*
X99512401Y-138285163D02*
X99464782Y-138189925D01*
X99464782Y-138189925D02*
X99417162Y-138142306D01*
X99417162Y-138142306D02*
X99321924Y-138094687D01*
X99321924Y-138094687D02*
X99226686Y-138094687D01*
X99226686Y-138094687D02*
X99131448Y-138142306D01*
X99131448Y-138142306D02*
X99083829Y-138189925D01*
X99083829Y-138189925D02*
X99036210Y-138285163D01*
X99036210Y-138285163D02*
X98988591Y-138475639D01*
X98988591Y-138475639D02*
X98940972Y-138570877D01*
X98940972Y-138570877D02*
X98893353Y-138618496D01*
X98893353Y-138618496D02*
X98798115Y-138666115D01*
X98798115Y-138666115D02*
X98702877Y-138666115D01*
X98702877Y-138666115D02*
X98607639Y-138618496D01*
X98607639Y-138618496D02*
X98560020Y-138570877D01*
X98560020Y-138570877D02*
X98512401Y-138475639D01*
X98512401Y-138475639D02*
X98512401Y-138237544D01*
X98512401Y-138237544D02*
X98560020Y-138094687D01*
X99226686Y-137713734D02*
X99226686Y-137237544D01*
X99512401Y-137808972D02*
X98512401Y-137475639D01*
X98512401Y-137475639D02*
X99512401Y-137142306D01*
X99417162Y-136237544D02*
X99464782Y-136285163D01*
X99464782Y-136285163D02*
X99512401Y-136428020D01*
X99512401Y-136428020D02*
X99512401Y-136523258D01*
X99512401Y-136523258D02*
X99464782Y-136666115D01*
X99464782Y-136666115D02*
X99369543Y-136761353D01*
X99369543Y-136761353D02*
X99274305Y-136808972D01*
X99274305Y-136808972D02*
X99083829Y-136856591D01*
X99083829Y-136856591D02*
X98940972Y-136856591D01*
X98940972Y-136856591D02*
X98750496Y-136808972D01*
X98750496Y-136808972D02*
X98655258Y-136761353D01*
X98655258Y-136761353D02*
X98560020Y-136666115D01*
X98560020Y-136666115D02*
X98512401Y-136523258D01*
X98512401Y-136523258D02*
X98512401Y-136428020D01*
X98512401Y-136428020D02*
X98560020Y-136285163D01*
X98560020Y-136285163D02*
X98607639Y-136237544D01*
X98234782Y-140804211D02*
X98234782Y-136147068D01*
X69032401Y-140666115D02*
X68032401Y-140666115D01*
X68032401Y-140666115D02*
X68032401Y-140428020D01*
X68032401Y-140428020D02*
X68080020Y-140285163D01*
X68080020Y-140285163D02*
X68175258Y-140189925D01*
X68175258Y-140189925D02*
X68270496Y-140142306D01*
X68270496Y-140142306D02*
X68460972Y-140094687D01*
X68460972Y-140094687D02*
X68603829Y-140094687D01*
X68603829Y-140094687D02*
X68794305Y-140142306D01*
X68794305Y-140142306D02*
X68889543Y-140189925D01*
X68889543Y-140189925D02*
X68984782Y-140285163D01*
X68984782Y-140285163D02*
X69032401Y-140428020D01*
X69032401Y-140428020D02*
X69032401Y-140666115D01*
X68127639Y-139713734D02*
X68080020Y-139666115D01*
X68080020Y-139666115D02*
X68032401Y-139570877D01*
X68032401Y-139570877D02*
X68032401Y-139332782D01*
X68032401Y-139332782D02*
X68080020Y-139237544D01*
X68080020Y-139237544D02*
X68127639Y-139189925D01*
X68127639Y-139189925D02*
X68222877Y-139142306D01*
X68222877Y-139142306D02*
X68318115Y-139142306D01*
X68318115Y-139142306D02*
X68460972Y-139189925D01*
X68460972Y-139189925D02*
X69032401Y-139761353D01*
X69032401Y-139761353D02*
X69032401Y-139142306D01*
X109672401Y-140666115D02*
X108672401Y-140666115D01*
X108672401Y-140666115D02*
X109386686Y-140332782D01*
X109386686Y-140332782D02*
X108672401Y-139999449D01*
X108672401Y-139999449D02*
X109672401Y-139999449D01*
X109672401Y-138999449D02*
X109672401Y-139570877D01*
X109672401Y-139285163D02*
X108672401Y-139285163D01*
X108672401Y-139285163D02*
X108815258Y-139380401D01*
X108815258Y-139380401D02*
X108910496Y-139475639D01*
X108910496Y-139475639D02*
X108958115Y-139570877D01*
X108394782Y-140804211D02*
X108394782Y-138908973D01*
X71444497Y-140666115D02*
X70444497Y-140666115D01*
X70444497Y-140666115D02*
X70444497Y-140428020D01*
X70444497Y-140428020D02*
X70492116Y-140285163D01*
X70492116Y-140285163D02*
X70587354Y-140189925D01*
X70587354Y-140189925D02*
X70682592Y-140142306D01*
X70682592Y-140142306D02*
X70873068Y-140094687D01*
X70873068Y-140094687D02*
X71015925Y-140094687D01*
X71015925Y-140094687D02*
X71206401Y-140142306D01*
X71206401Y-140142306D02*
X71301639Y-140189925D01*
X71301639Y-140189925D02*
X71396878Y-140285163D01*
X71396878Y-140285163D02*
X71444497Y-140428020D01*
X71444497Y-140428020D02*
X71444497Y-140666115D01*
X70444497Y-139237544D02*
X70444497Y-139428020D01*
X70444497Y-139428020D02*
X70492116Y-139523258D01*
X70492116Y-139523258D02*
X70539735Y-139570877D01*
X70539735Y-139570877D02*
X70682592Y-139666115D01*
X70682592Y-139666115D02*
X70873068Y-139713734D01*
X70873068Y-139713734D02*
X71254020Y-139713734D01*
X71254020Y-139713734D02*
X71349258Y-139666115D01*
X71349258Y-139666115D02*
X71396878Y-139618496D01*
X71396878Y-139618496D02*
X71444497Y-139523258D01*
X71444497Y-139523258D02*
X71444497Y-139332782D01*
X71444497Y-139332782D02*
X71396878Y-139237544D01*
X71396878Y-139237544D02*
X71349258Y-139189925D01*
X71349258Y-139189925D02*
X71254020Y-139142306D01*
X71254020Y-139142306D02*
X71015925Y-139142306D01*
X71015925Y-139142306D02*
X70920687Y-139189925D01*
X70920687Y-139189925D02*
X70873068Y-139237544D01*
X70873068Y-139237544D02*
X70825449Y-139332782D01*
X70825449Y-139332782D02*
X70825449Y-139523258D01*
X70825449Y-139523258D02*
X70873068Y-139618496D01*
X70873068Y-139618496D02*
X70920687Y-139666115D01*
X70920687Y-139666115D02*
X71015925Y-139713734D01*
D12*
X95699819Y-129706666D02*
X95223628Y-130039999D01*
X95699819Y-130278094D02*
X94699819Y-130278094D01*
X94699819Y-130278094D02*
X94699819Y-129897142D01*
X94699819Y-129897142D02*
X94747438Y-129801904D01*
X94747438Y-129801904D02*
X94795057Y-129754285D01*
X94795057Y-129754285D02*
X94890295Y-129706666D01*
X94890295Y-129706666D02*
X95033152Y-129706666D01*
X95033152Y-129706666D02*
X95128390Y-129754285D01*
X95128390Y-129754285D02*
X95176009Y-129801904D01*
X95176009Y-129801904D02*
X95223628Y-129897142D01*
X95223628Y-129897142D02*
X95223628Y-130278094D01*
X95699819Y-128754285D02*
X95699819Y-129325713D01*
X95699819Y-129039999D02*
X94699819Y-129039999D01*
X94699819Y-129039999D02*
X94842676Y-129135237D01*
X94842676Y-129135237D02*
X94937914Y-129230475D01*
X94937914Y-129230475D02*
X94985533Y-129325713D01*
X97573152Y-130325714D02*
X98239819Y-130325714D01*
X97192200Y-130563809D02*
X97906485Y-130801904D01*
X97906485Y-130801904D02*
X97906485Y-130182857D01*
X97239819Y-129897142D02*
X97239819Y-129230476D01*
X97239819Y-129230476D02*
X98239819Y-129659047D01*
X98239819Y-128849523D02*
X97239819Y-128849523D01*
X98239819Y-128278095D02*
X97668390Y-128706666D01*
X97239819Y-128278095D02*
X97811247Y-128849523D01*
X100744700Y-130830832D02*
X100792319Y-130687975D01*
X100792319Y-130687975D02*
X100792319Y-130449880D01*
X100792319Y-130449880D02*
X100744700Y-130354642D01*
X100744700Y-130354642D02*
X100697080Y-130307023D01*
X100697080Y-130307023D02*
X100601842Y-130259404D01*
X100601842Y-130259404D02*
X100506604Y-130259404D01*
X100506604Y-130259404D02*
X100411366Y-130307023D01*
X100411366Y-130307023D02*
X100363747Y-130354642D01*
X100363747Y-130354642D02*
X100316128Y-130449880D01*
X100316128Y-130449880D02*
X100268509Y-130640356D01*
X100268509Y-130640356D02*
X100220890Y-130735594D01*
X100220890Y-130735594D02*
X100173271Y-130783213D01*
X100173271Y-130783213D02*
X100078033Y-130830832D01*
X100078033Y-130830832D02*
X99982795Y-130830832D01*
X99982795Y-130830832D02*
X99887557Y-130783213D01*
X99887557Y-130783213D02*
X99839938Y-130735594D01*
X99839938Y-130735594D02*
X99792319Y-130640356D01*
X99792319Y-130640356D02*
X99792319Y-130402261D01*
X99792319Y-130402261D02*
X99839938Y-130259404D01*
X99792319Y-129926070D02*
X100792319Y-129687975D01*
X100792319Y-129687975D02*
X100078033Y-129497499D01*
X100078033Y-129497499D02*
X100792319Y-129307023D01*
X100792319Y-129307023D02*
X99792319Y-129068928D01*
X100792319Y-128164166D02*
X100792319Y-128735594D01*
X100792319Y-128449880D02*
X99792319Y-128449880D01*
X99792319Y-128449880D02*
X99935176Y-128545118D01*
X99935176Y-128545118D02*
X100030414Y-128640356D01*
X100030414Y-128640356D02*
X100078033Y-128735594D01*
D11*
X111340951Y-123553855D02*
X111264761Y-123515760D01*
X111264761Y-123515760D02*
X111226666Y-123477664D01*
X111226666Y-123477664D02*
X111188570Y-123401474D01*
X111188570Y-123401474D02*
X111188570Y-123172902D01*
X111188570Y-123172902D02*
X111226666Y-123096712D01*
X111226666Y-123096712D02*
X111264761Y-123058617D01*
X111264761Y-123058617D02*
X111340951Y-123020521D01*
X111340951Y-123020521D02*
X111455237Y-123020521D01*
X111455237Y-123020521D02*
X111531428Y-123058617D01*
X111531428Y-123058617D02*
X111569523Y-123096712D01*
X111569523Y-123096712D02*
X111607618Y-123172902D01*
X111607618Y-123172902D02*
X111607618Y-123401474D01*
X111607618Y-123401474D02*
X111569523Y-123477664D01*
X111569523Y-123477664D02*
X111531428Y-123515760D01*
X111531428Y-123515760D02*
X111455237Y-123553855D01*
X111455237Y-123553855D02*
X111340951Y-123553855D01*
X111950476Y-123020521D02*
X111950476Y-123553855D01*
X111950476Y-123096712D02*
X111988571Y-123058617D01*
X111988571Y-123058617D02*
X112064761Y-123020521D01*
X112064761Y-123020521D02*
X112179047Y-123020521D01*
X112179047Y-123020521D02*
X112255238Y-123058617D01*
X112255238Y-123058617D02*
X112293333Y-123134807D01*
X112293333Y-123134807D02*
X112293333Y-123553855D01*
D12*
X75389819Y-67476666D02*
X74913628Y-67809999D01*
X75389819Y-68048094D02*
X74389819Y-68048094D01*
X74389819Y-68048094D02*
X74389819Y-67667142D01*
X74389819Y-67667142D02*
X74437438Y-67571904D01*
X74437438Y-67571904D02*
X74485057Y-67524285D01*
X74485057Y-67524285D02*
X74580295Y-67476666D01*
X74580295Y-67476666D02*
X74723152Y-67476666D01*
X74723152Y-67476666D02*
X74818390Y-67524285D01*
X74818390Y-67524285D02*
X74866009Y-67571904D01*
X74866009Y-67571904D02*
X74913628Y-67667142D01*
X74913628Y-67667142D02*
X74913628Y-68048094D01*
X74818390Y-66905237D02*
X74770771Y-67000475D01*
X74770771Y-67000475D02*
X74723152Y-67048094D01*
X74723152Y-67048094D02*
X74627914Y-67095713D01*
X74627914Y-67095713D02*
X74580295Y-67095713D01*
X74580295Y-67095713D02*
X74485057Y-67048094D01*
X74485057Y-67048094D02*
X74437438Y-67000475D01*
X74437438Y-67000475D02*
X74389819Y-66905237D01*
X74389819Y-66905237D02*
X74389819Y-66714761D01*
X74389819Y-66714761D02*
X74437438Y-66619523D01*
X74437438Y-66619523D02*
X74485057Y-66571904D01*
X74485057Y-66571904D02*
X74580295Y-66524285D01*
X74580295Y-66524285D02*
X74627914Y-66524285D01*
X74627914Y-66524285D02*
X74723152Y-66571904D01*
X74723152Y-66571904D02*
X74770771Y-66619523D01*
X74770771Y-66619523D02*
X74818390Y-66714761D01*
X74818390Y-66714761D02*
X74818390Y-66905237D01*
X74818390Y-66905237D02*
X74866009Y-67000475D01*
X74866009Y-67000475D02*
X74913628Y-67048094D01*
X74913628Y-67048094D02*
X75008866Y-67095713D01*
X75008866Y-67095713D02*
X75199342Y-67095713D01*
X75199342Y-67095713D02*
X75294580Y-67048094D01*
X75294580Y-67048094D02*
X75342200Y-67000475D01*
X75342200Y-67000475D02*
X75389819Y-66905237D01*
X75389819Y-66905237D02*
X75389819Y-66714761D01*
X75389819Y-66714761D02*
X75342200Y-66619523D01*
X75342200Y-66619523D02*
X75294580Y-66571904D01*
X75294580Y-66571904D02*
X75199342Y-66524285D01*
X75199342Y-66524285D02*
X75008866Y-66524285D01*
X75008866Y-66524285D02*
X74913628Y-66571904D01*
X74913628Y-66571904D02*
X74866009Y-66619523D01*
X74866009Y-66619523D02*
X74818390Y-66714761D01*
X76924819Y-69095713D02*
X76924819Y-68476666D01*
X76924819Y-68476666D02*
X77305771Y-68809999D01*
X77305771Y-68809999D02*
X77305771Y-68667142D01*
X77305771Y-68667142D02*
X77353390Y-68571904D01*
X77353390Y-68571904D02*
X77401009Y-68524285D01*
X77401009Y-68524285D02*
X77496247Y-68476666D01*
X77496247Y-68476666D02*
X77734342Y-68476666D01*
X77734342Y-68476666D02*
X77829580Y-68524285D01*
X77829580Y-68524285D02*
X77877200Y-68571904D01*
X77877200Y-68571904D02*
X77924819Y-68667142D01*
X77924819Y-68667142D02*
X77924819Y-68952856D01*
X77924819Y-68952856D02*
X77877200Y-69048094D01*
X77877200Y-69048094D02*
X77829580Y-69095713D01*
X77924819Y-68000475D02*
X77924819Y-67809999D01*
X77924819Y-67809999D02*
X77877200Y-67714761D01*
X77877200Y-67714761D02*
X77829580Y-67667142D01*
X77829580Y-67667142D02*
X77686723Y-67571904D01*
X77686723Y-67571904D02*
X77496247Y-67524285D01*
X77496247Y-67524285D02*
X77115295Y-67524285D01*
X77115295Y-67524285D02*
X77020057Y-67571904D01*
X77020057Y-67571904D02*
X76972438Y-67619523D01*
X76972438Y-67619523D02*
X76924819Y-67714761D01*
X76924819Y-67714761D02*
X76924819Y-67905237D01*
X76924819Y-67905237D02*
X76972438Y-68000475D01*
X76972438Y-68000475D02*
X77020057Y-68048094D01*
X77020057Y-68048094D02*
X77115295Y-68095713D01*
X77115295Y-68095713D02*
X77353390Y-68095713D01*
X77353390Y-68095713D02*
X77448628Y-68048094D01*
X77448628Y-68048094D02*
X77496247Y-68000475D01*
X77496247Y-68000475D02*
X77543866Y-67905237D01*
X77543866Y-67905237D02*
X77543866Y-67714761D01*
X77543866Y-67714761D02*
X77496247Y-67619523D01*
X77496247Y-67619523D02*
X77448628Y-67571904D01*
X77448628Y-67571904D02*
X77353390Y-67524285D01*
X76924819Y-66905237D02*
X76924819Y-66809999D01*
X76924819Y-66809999D02*
X76972438Y-66714761D01*
X76972438Y-66714761D02*
X77020057Y-66667142D01*
X77020057Y-66667142D02*
X77115295Y-66619523D01*
X77115295Y-66619523D02*
X77305771Y-66571904D01*
X77305771Y-66571904D02*
X77543866Y-66571904D01*
X77543866Y-66571904D02*
X77734342Y-66619523D01*
X77734342Y-66619523D02*
X77829580Y-66667142D01*
X77829580Y-66667142D02*
X77877200Y-66714761D01*
X77877200Y-66714761D02*
X77924819Y-66809999D01*
X77924819Y-66809999D02*
X77924819Y-66905237D01*
X77924819Y-66905237D02*
X77877200Y-67000475D01*
X77877200Y-67000475D02*
X77829580Y-67048094D01*
X77829580Y-67048094D02*
X77734342Y-67095713D01*
X77734342Y-67095713D02*
X77543866Y-67143332D01*
X77543866Y-67143332D02*
X77305771Y-67143332D01*
X77305771Y-67143332D02*
X77115295Y-67095713D01*
X77115295Y-67095713D02*
X77020057Y-67048094D01*
X77020057Y-67048094D02*
X76972438Y-67000475D01*
X76972438Y-67000475D02*
X76924819Y-66905237D01*
X77924819Y-65571904D02*
X77448628Y-65905237D01*
X77924819Y-66143332D02*
X76924819Y-66143332D01*
X76924819Y-66143332D02*
X76924819Y-65762380D01*
X76924819Y-65762380D02*
X76972438Y-65667142D01*
X76972438Y-65667142D02*
X77020057Y-65619523D01*
X77020057Y-65619523D02*
X77115295Y-65571904D01*
X77115295Y-65571904D02*
X77258152Y-65571904D01*
X77258152Y-65571904D02*
X77353390Y-65619523D01*
X77353390Y-65619523D02*
X77401009Y-65667142D01*
X77401009Y-65667142D02*
X77448628Y-65762380D01*
X77448628Y-65762380D02*
X77448628Y-66143332D01*
X90619819Y-129706666D02*
X90143628Y-130039999D01*
X90619819Y-130278094D02*
X89619819Y-130278094D01*
X89619819Y-130278094D02*
X89619819Y-129897142D01*
X89619819Y-129897142D02*
X89667438Y-129801904D01*
X89667438Y-129801904D02*
X89715057Y-129754285D01*
X89715057Y-129754285D02*
X89810295Y-129706666D01*
X89810295Y-129706666D02*
X89953152Y-129706666D01*
X89953152Y-129706666D02*
X90048390Y-129754285D01*
X90048390Y-129754285D02*
X90096009Y-129801904D01*
X90096009Y-129801904D02*
X90143628Y-129897142D01*
X90143628Y-129897142D02*
X90143628Y-130278094D01*
X89715057Y-129325713D02*
X89667438Y-129278094D01*
X89667438Y-129278094D02*
X89619819Y-129182856D01*
X89619819Y-129182856D02*
X89619819Y-128944761D01*
X89619819Y-128944761D02*
X89667438Y-128849523D01*
X89667438Y-128849523D02*
X89715057Y-128801904D01*
X89715057Y-128801904D02*
X89810295Y-128754285D01*
X89810295Y-128754285D02*
X89905533Y-128754285D01*
X89905533Y-128754285D02*
X90048390Y-128801904D01*
X90048390Y-128801904D02*
X90619819Y-129373332D01*
X90619819Y-129373332D02*
X90619819Y-128754285D01*
X92493152Y-130325714D02*
X93159819Y-130325714D01*
X92112200Y-130563809D02*
X92826485Y-130801904D01*
X92826485Y-130801904D02*
X92826485Y-130182857D01*
X92159819Y-129897142D02*
X92159819Y-129230476D01*
X92159819Y-129230476D02*
X93159819Y-129659047D01*
X93159819Y-128849523D02*
X92159819Y-128849523D01*
X93159819Y-128278095D02*
X92588390Y-128706666D01*
X92159819Y-128278095D02*
X92731247Y-128849523D01*
X84179580Y-55300476D02*
X84227200Y-55348095D01*
X84227200Y-55348095D02*
X84274819Y-55490952D01*
X84274819Y-55490952D02*
X84274819Y-55586190D01*
X84274819Y-55586190D02*
X84227200Y-55729047D01*
X84227200Y-55729047D02*
X84131961Y-55824285D01*
X84131961Y-55824285D02*
X84036723Y-55871904D01*
X84036723Y-55871904D02*
X83846247Y-55919523D01*
X83846247Y-55919523D02*
X83703390Y-55919523D01*
X83703390Y-55919523D02*
X83512914Y-55871904D01*
X83512914Y-55871904D02*
X83417676Y-55824285D01*
X83417676Y-55824285D02*
X83322438Y-55729047D01*
X83322438Y-55729047D02*
X83274819Y-55586190D01*
X83274819Y-55586190D02*
X83274819Y-55490952D01*
X83274819Y-55490952D02*
X83322438Y-55348095D01*
X83322438Y-55348095D02*
X83370057Y-55300476D01*
X83274819Y-54681428D02*
X83274819Y-54490952D01*
X83274819Y-54490952D02*
X83322438Y-54395714D01*
X83322438Y-54395714D02*
X83417676Y-54300476D01*
X83417676Y-54300476D02*
X83608152Y-54252857D01*
X83608152Y-54252857D02*
X83941485Y-54252857D01*
X83941485Y-54252857D02*
X84131961Y-54300476D01*
X84131961Y-54300476D02*
X84227200Y-54395714D01*
X84227200Y-54395714D02*
X84274819Y-54490952D01*
X84274819Y-54490952D02*
X84274819Y-54681428D01*
X84274819Y-54681428D02*
X84227200Y-54776666D01*
X84227200Y-54776666D02*
X84131961Y-54871904D01*
X84131961Y-54871904D02*
X83941485Y-54919523D01*
X83941485Y-54919523D02*
X83608152Y-54919523D01*
X83608152Y-54919523D02*
X83417676Y-54871904D01*
X83417676Y-54871904D02*
X83322438Y-54776666D01*
X83322438Y-54776666D02*
X83274819Y-54681428D01*
X83274819Y-53919523D02*
X83274819Y-53300476D01*
X83274819Y-53300476D02*
X83655771Y-53633809D01*
X83655771Y-53633809D02*
X83655771Y-53490952D01*
X83655771Y-53490952D02*
X83703390Y-53395714D01*
X83703390Y-53395714D02*
X83751009Y-53348095D01*
X83751009Y-53348095D02*
X83846247Y-53300476D01*
X83846247Y-53300476D02*
X84084342Y-53300476D01*
X84084342Y-53300476D02*
X84179580Y-53348095D01*
X84179580Y-53348095D02*
X84227200Y-53395714D01*
X84227200Y-53395714D02*
X84274819Y-53490952D01*
X84274819Y-53490952D02*
X84274819Y-53776666D01*
X84274819Y-53776666D02*
X84227200Y-53871904D01*
X84227200Y-53871904D02*
X84179580Y-53919523D01*
X87228333Y-52524819D02*
X86752143Y-52524819D01*
X86752143Y-52524819D02*
X86752143Y-51524819D01*
X87561667Y-52524819D02*
X87561667Y-51524819D01*
X88037857Y-52524819D02*
X88037857Y-51524819D01*
X88037857Y-51524819D02*
X88609285Y-52524819D01*
X88609285Y-52524819D02*
X88609285Y-51524819D01*
X89085476Y-52001009D02*
X89418809Y-52001009D01*
X89561666Y-52524819D02*
X89085476Y-52524819D01*
X89085476Y-52524819D02*
X89085476Y-51524819D01*
X89085476Y-51524819D02*
X89561666Y-51524819D01*
X89990238Y-52524819D02*
X89990238Y-51524819D01*
X90466428Y-52524819D02*
X90466428Y-51524819D01*
X90466428Y-51524819D02*
X91037856Y-52524819D01*
X91037856Y-52524819D02*
X91037856Y-51524819D01*
X55698333Y-69574580D02*
X55650714Y-69622200D01*
X55650714Y-69622200D02*
X55507857Y-69669819D01*
X55507857Y-69669819D02*
X55412619Y-69669819D01*
X55412619Y-69669819D02*
X55269762Y-69622200D01*
X55269762Y-69622200D02*
X55174524Y-69526961D01*
X55174524Y-69526961D02*
X55126905Y-69431723D01*
X55126905Y-69431723D02*
X55079286Y-69241247D01*
X55079286Y-69241247D02*
X55079286Y-69098390D01*
X55079286Y-69098390D02*
X55126905Y-68907914D01*
X55126905Y-68907914D02*
X55174524Y-68812676D01*
X55174524Y-68812676D02*
X55269762Y-68717438D01*
X55269762Y-68717438D02*
X55412619Y-68669819D01*
X55412619Y-68669819D02*
X55507857Y-68669819D01*
X55507857Y-68669819D02*
X55650714Y-68717438D01*
X55650714Y-68717438D02*
X55698333Y-68765057D01*
X56555476Y-69003152D02*
X56555476Y-69669819D01*
X56317381Y-68622200D02*
X56079286Y-69336485D01*
X56079286Y-69336485D02*
X56698333Y-69336485D01*
X54405237Y-73624819D02*
X53833809Y-73624819D01*
X54119523Y-73624819D02*
X54119523Y-72624819D01*
X54119523Y-72624819D02*
X54024285Y-72767676D01*
X54024285Y-72767676D02*
X53929047Y-72862914D01*
X53929047Y-72862914D02*
X53833809Y-72910533D01*
X55024285Y-72624819D02*
X55119523Y-72624819D01*
X55119523Y-72624819D02*
X55214761Y-72672438D01*
X55214761Y-72672438D02*
X55262380Y-72720057D01*
X55262380Y-72720057D02*
X55309999Y-72815295D01*
X55309999Y-72815295D02*
X55357618Y-73005771D01*
X55357618Y-73005771D02*
X55357618Y-73243866D01*
X55357618Y-73243866D02*
X55309999Y-73434342D01*
X55309999Y-73434342D02*
X55262380Y-73529580D01*
X55262380Y-73529580D02*
X55214761Y-73577200D01*
X55214761Y-73577200D02*
X55119523Y-73624819D01*
X55119523Y-73624819D02*
X55024285Y-73624819D01*
X55024285Y-73624819D02*
X54929047Y-73577200D01*
X54929047Y-73577200D02*
X54881428Y-73529580D01*
X54881428Y-73529580D02*
X54833809Y-73434342D01*
X54833809Y-73434342D02*
X54786190Y-73243866D01*
X54786190Y-73243866D02*
X54786190Y-73005771D01*
X54786190Y-73005771D02*
X54833809Y-72815295D01*
X54833809Y-72815295D02*
X54881428Y-72720057D01*
X54881428Y-72720057D02*
X54929047Y-72672438D01*
X54929047Y-72672438D02*
X55024285Y-72624819D01*
X55976666Y-72624819D02*
X56071904Y-72624819D01*
X56071904Y-72624819D02*
X56167142Y-72672438D01*
X56167142Y-72672438D02*
X56214761Y-72720057D01*
X56214761Y-72720057D02*
X56262380Y-72815295D01*
X56262380Y-72815295D02*
X56309999Y-73005771D01*
X56309999Y-73005771D02*
X56309999Y-73243866D01*
X56309999Y-73243866D02*
X56262380Y-73434342D01*
X56262380Y-73434342D02*
X56214761Y-73529580D01*
X56214761Y-73529580D02*
X56167142Y-73577200D01*
X56167142Y-73577200D02*
X56071904Y-73624819D01*
X56071904Y-73624819D02*
X55976666Y-73624819D01*
X55976666Y-73624819D02*
X55881428Y-73577200D01*
X55881428Y-73577200D02*
X55833809Y-73529580D01*
X55833809Y-73529580D02*
X55786190Y-73434342D01*
X55786190Y-73434342D02*
X55738571Y-73243866D01*
X55738571Y-73243866D02*
X55738571Y-73005771D01*
X55738571Y-73005771D02*
X55786190Y-72815295D01*
X55786190Y-72815295D02*
X55833809Y-72720057D01*
X55833809Y-72720057D02*
X55881428Y-72672438D01*
X55881428Y-72672438D02*
X55976666Y-72624819D01*
X56738571Y-72958152D02*
X56738571Y-73624819D01*
X56738571Y-73053390D02*
X56786190Y-73005771D01*
X56786190Y-73005771D02*
X56881428Y-72958152D01*
X56881428Y-72958152D02*
X57024285Y-72958152D01*
X57024285Y-72958152D02*
X57119523Y-73005771D01*
X57119523Y-73005771D02*
X57167142Y-73101009D01*
X57167142Y-73101009D02*
X57167142Y-73624819D01*
X57500476Y-72958152D02*
X57881428Y-72958152D01*
X57643333Y-73624819D02*
X57643333Y-72767676D01*
X57643333Y-72767676D02*
X57690952Y-72672438D01*
X57690952Y-72672438D02*
X57786190Y-72624819D01*
X57786190Y-72624819D02*
X57881428Y-72624819D01*
X64868333Y-50584580D02*
X64820714Y-50632200D01*
X64820714Y-50632200D02*
X64677857Y-50679819D01*
X64677857Y-50679819D02*
X64582619Y-50679819D01*
X64582619Y-50679819D02*
X64439762Y-50632200D01*
X64439762Y-50632200D02*
X64344524Y-50536961D01*
X64344524Y-50536961D02*
X64296905Y-50441723D01*
X64296905Y-50441723D02*
X64249286Y-50251247D01*
X64249286Y-50251247D02*
X64249286Y-50108390D01*
X64249286Y-50108390D02*
X64296905Y-49917914D01*
X64296905Y-49917914D02*
X64344524Y-49822676D01*
X64344524Y-49822676D02*
X64439762Y-49727438D01*
X64439762Y-49727438D02*
X64582619Y-49679819D01*
X64582619Y-49679819D02*
X64677857Y-49679819D01*
X64677857Y-49679819D02*
X64820714Y-49727438D01*
X64820714Y-49727438D02*
X64868333Y-49775057D01*
X65249286Y-49775057D02*
X65296905Y-49727438D01*
X65296905Y-49727438D02*
X65392143Y-49679819D01*
X65392143Y-49679819D02*
X65630238Y-49679819D01*
X65630238Y-49679819D02*
X65725476Y-49727438D01*
X65725476Y-49727438D02*
X65773095Y-49775057D01*
X65773095Y-49775057D02*
X65820714Y-49870295D01*
X65820714Y-49870295D02*
X65820714Y-49965533D01*
X65820714Y-49965533D02*
X65773095Y-50108390D01*
X65773095Y-50108390D02*
X65201667Y-50679819D01*
X65201667Y-50679819D02*
X65820714Y-50679819D01*
X64106428Y-58179819D02*
X63535000Y-58179819D01*
X63820714Y-58179819D02*
X63820714Y-57179819D01*
X63820714Y-57179819D02*
X63725476Y-57322676D01*
X63725476Y-57322676D02*
X63630238Y-57417914D01*
X63630238Y-57417914D02*
X63535000Y-57465533D01*
X64725476Y-57179819D02*
X64820714Y-57179819D01*
X64820714Y-57179819D02*
X64915952Y-57227438D01*
X64915952Y-57227438D02*
X64963571Y-57275057D01*
X64963571Y-57275057D02*
X65011190Y-57370295D01*
X65011190Y-57370295D02*
X65058809Y-57560771D01*
X65058809Y-57560771D02*
X65058809Y-57798866D01*
X65058809Y-57798866D02*
X65011190Y-57989342D01*
X65011190Y-57989342D02*
X64963571Y-58084580D01*
X64963571Y-58084580D02*
X64915952Y-58132200D01*
X64915952Y-58132200D02*
X64820714Y-58179819D01*
X64820714Y-58179819D02*
X64725476Y-58179819D01*
X64725476Y-58179819D02*
X64630238Y-58132200D01*
X64630238Y-58132200D02*
X64582619Y-58084580D01*
X64582619Y-58084580D02*
X64535000Y-57989342D01*
X64535000Y-57989342D02*
X64487381Y-57798866D01*
X64487381Y-57798866D02*
X64487381Y-57560771D01*
X64487381Y-57560771D02*
X64535000Y-57370295D01*
X64535000Y-57370295D02*
X64582619Y-57275057D01*
X64582619Y-57275057D02*
X64630238Y-57227438D01*
X64630238Y-57227438D02*
X64725476Y-57179819D01*
X65915952Y-57513152D02*
X65915952Y-58179819D01*
X65487381Y-57513152D02*
X65487381Y-58036961D01*
X65487381Y-58036961D02*
X65535000Y-58132200D01*
X65535000Y-58132200D02*
X65630238Y-58179819D01*
X65630238Y-58179819D02*
X65773095Y-58179819D01*
X65773095Y-58179819D02*
X65868333Y-58132200D01*
X65868333Y-58132200D02*
X65915952Y-58084580D01*
X66249286Y-57513152D02*
X66630238Y-57513152D01*
X66392143Y-58179819D02*
X66392143Y-57322676D01*
X66392143Y-57322676D02*
X66439762Y-57227438D01*
X66439762Y-57227438D02*
X66535000Y-57179819D01*
X66535000Y-57179819D02*
X66630238Y-57179819D01*
X80469819Y-67476666D02*
X79993628Y-67809999D01*
X80469819Y-68048094D02*
X79469819Y-68048094D01*
X79469819Y-68048094D02*
X79469819Y-67667142D01*
X79469819Y-67667142D02*
X79517438Y-67571904D01*
X79517438Y-67571904D02*
X79565057Y-67524285D01*
X79565057Y-67524285D02*
X79660295Y-67476666D01*
X79660295Y-67476666D02*
X79803152Y-67476666D01*
X79803152Y-67476666D02*
X79898390Y-67524285D01*
X79898390Y-67524285D02*
X79946009Y-67571904D01*
X79946009Y-67571904D02*
X79993628Y-67667142D01*
X79993628Y-67667142D02*
X79993628Y-68048094D01*
X79469819Y-67143332D02*
X79469819Y-66476666D01*
X79469819Y-66476666D02*
X80469819Y-66905237D01*
X82433390Y-68857618D02*
X82385771Y-68952856D01*
X82385771Y-68952856D02*
X82338152Y-69000475D01*
X82338152Y-69000475D02*
X82242914Y-69048094D01*
X82242914Y-69048094D02*
X82195295Y-69048094D01*
X82195295Y-69048094D02*
X82100057Y-69000475D01*
X82100057Y-69000475D02*
X82052438Y-68952856D01*
X82052438Y-68952856D02*
X82004819Y-68857618D01*
X82004819Y-68857618D02*
X82004819Y-68667142D01*
X82004819Y-68667142D02*
X82052438Y-68571904D01*
X82052438Y-68571904D02*
X82100057Y-68524285D01*
X82100057Y-68524285D02*
X82195295Y-68476666D01*
X82195295Y-68476666D02*
X82242914Y-68476666D01*
X82242914Y-68476666D02*
X82338152Y-68524285D01*
X82338152Y-68524285D02*
X82385771Y-68571904D01*
X82385771Y-68571904D02*
X82433390Y-68667142D01*
X82433390Y-68667142D02*
X82433390Y-68857618D01*
X82433390Y-68857618D02*
X82481009Y-68952856D01*
X82481009Y-68952856D02*
X82528628Y-69000475D01*
X82528628Y-69000475D02*
X82623866Y-69048094D01*
X82623866Y-69048094D02*
X82814342Y-69048094D01*
X82814342Y-69048094D02*
X82909580Y-69000475D01*
X82909580Y-69000475D02*
X82957200Y-68952856D01*
X82957200Y-68952856D02*
X83004819Y-68857618D01*
X83004819Y-68857618D02*
X83004819Y-68667142D01*
X83004819Y-68667142D02*
X82957200Y-68571904D01*
X82957200Y-68571904D02*
X82909580Y-68524285D01*
X82909580Y-68524285D02*
X82814342Y-68476666D01*
X82814342Y-68476666D02*
X82623866Y-68476666D01*
X82623866Y-68476666D02*
X82528628Y-68524285D01*
X82528628Y-68524285D02*
X82481009Y-68571904D01*
X82481009Y-68571904D02*
X82433390Y-68667142D01*
X82100057Y-68095713D02*
X82052438Y-68048094D01*
X82052438Y-68048094D02*
X82004819Y-67952856D01*
X82004819Y-67952856D02*
X82004819Y-67714761D01*
X82004819Y-67714761D02*
X82052438Y-67619523D01*
X82052438Y-67619523D02*
X82100057Y-67571904D01*
X82100057Y-67571904D02*
X82195295Y-67524285D01*
X82195295Y-67524285D02*
X82290533Y-67524285D01*
X82290533Y-67524285D02*
X82433390Y-67571904D01*
X82433390Y-67571904D02*
X83004819Y-68143332D01*
X83004819Y-68143332D02*
X83004819Y-67524285D01*
X82004819Y-66905237D02*
X82004819Y-66809999D01*
X82004819Y-66809999D02*
X82052438Y-66714761D01*
X82052438Y-66714761D02*
X82100057Y-66667142D01*
X82100057Y-66667142D02*
X82195295Y-66619523D01*
X82195295Y-66619523D02*
X82385771Y-66571904D01*
X82385771Y-66571904D02*
X82623866Y-66571904D01*
X82623866Y-66571904D02*
X82814342Y-66619523D01*
X82814342Y-66619523D02*
X82909580Y-66667142D01*
X82909580Y-66667142D02*
X82957200Y-66714761D01*
X82957200Y-66714761D02*
X83004819Y-66809999D01*
X83004819Y-66809999D02*
X83004819Y-66905237D01*
X83004819Y-66905237D02*
X82957200Y-67000475D01*
X82957200Y-67000475D02*
X82909580Y-67048094D01*
X82909580Y-67048094D02*
X82814342Y-67095713D01*
X82814342Y-67095713D02*
X82623866Y-67143332D01*
X82623866Y-67143332D02*
X82385771Y-67143332D01*
X82385771Y-67143332D02*
X82195295Y-67095713D01*
X82195295Y-67095713D02*
X82100057Y-67048094D01*
X82100057Y-67048094D02*
X82052438Y-67000475D01*
X82052438Y-67000475D02*
X82004819Y-66905237D01*
X83004819Y-65571904D02*
X82528628Y-65905237D01*
X83004819Y-66143332D02*
X82004819Y-66143332D01*
X82004819Y-66143332D02*
X82004819Y-65762380D01*
X82004819Y-65762380D02*
X82052438Y-65667142D01*
X82052438Y-65667142D02*
X82100057Y-65619523D01*
X82100057Y-65619523D02*
X82195295Y-65571904D01*
X82195295Y-65571904D02*
X82338152Y-65571904D01*
X82338152Y-65571904D02*
X82433390Y-65619523D01*
X82433390Y-65619523D02*
X82481009Y-65667142D01*
X82481009Y-65667142D02*
X82528628Y-65762380D01*
X82528628Y-65762380D02*
X82528628Y-66143332D01*
X90794819Y-67476666D02*
X90318628Y-67809999D01*
X90794819Y-68048094D02*
X89794819Y-68048094D01*
X89794819Y-68048094D02*
X89794819Y-67667142D01*
X89794819Y-67667142D02*
X89842438Y-67571904D01*
X89842438Y-67571904D02*
X89890057Y-67524285D01*
X89890057Y-67524285D02*
X89985295Y-67476666D01*
X89985295Y-67476666D02*
X90128152Y-67476666D01*
X90128152Y-67476666D02*
X90223390Y-67524285D01*
X90223390Y-67524285D02*
X90271009Y-67571904D01*
X90271009Y-67571904D02*
X90318628Y-67667142D01*
X90318628Y-67667142D02*
X90318628Y-68048094D01*
X89794819Y-66571904D02*
X89794819Y-67048094D01*
X89794819Y-67048094D02*
X90271009Y-67095713D01*
X90271009Y-67095713D02*
X90223390Y-67048094D01*
X90223390Y-67048094D02*
X90175771Y-66952856D01*
X90175771Y-66952856D02*
X90175771Y-66714761D01*
X90175771Y-66714761D02*
X90223390Y-66619523D01*
X90223390Y-66619523D02*
X90271009Y-66571904D01*
X90271009Y-66571904D02*
X90366247Y-66524285D01*
X90366247Y-66524285D02*
X90604342Y-66524285D01*
X90604342Y-66524285D02*
X90699580Y-66571904D01*
X90699580Y-66571904D02*
X90747200Y-66619523D01*
X90747200Y-66619523D02*
X90794819Y-66714761D01*
X90794819Y-66714761D02*
X90794819Y-66952856D01*
X90794819Y-66952856D02*
X90747200Y-67048094D01*
X90747200Y-67048094D02*
X90699580Y-67095713D01*
X92164819Y-69095713D02*
X92164819Y-68476666D01*
X92164819Y-68476666D02*
X92545771Y-68809999D01*
X92545771Y-68809999D02*
X92545771Y-68667142D01*
X92545771Y-68667142D02*
X92593390Y-68571904D01*
X92593390Y-68571904D02*
X92641009Y-68524285D01*
X92641009Y-68524285D02*
X92736247Y-68476666D01*
X92736247Y-68476666D02*
X92974342Y-68476666D01*
X92974342Y-68476666D02*
X93069580Y-68524285D01*
X93069580Y-68524285D02*
X93117200Y-68571904D01*
X93117200Y-68571904D02*
X93164819Y-68667142D01*
X93164819Y-68667142D02*
X93164819Y-68952856D01*
X93164819Y-68952856D02*
X93117200Y-69048094D01*
X93117200Y-69048094D02*
X93069580Y-69095713D01*
X93164819Y-68000475D02*
X93164819Y-67809999D01*
X93164819Y-67809999D02*
X93117200Y-67714761D01*
X93117200Y-67714761D02*
X93069580Y-67667142D01*
X93069580Y-67667142D02*
X92926723Y-67571904D01*
X92926723Y-67571904D02*
X92736247Y-67524285D01*
X92736247Y-67524285D02*
X92355295Y-67524285D01*
X92355295Y-67524285D02*
X92260057Y-67571904D01*
X92260057Y-67571904D02*
X92212438Y-67619523D01*
X92212438Y-67619523D02*
X92164819Y-67714761D01*
X92164819Y-67714761D02*
X92164819Y-67905237D01*
X92164819Y-67905237D02*
X92212438Y-68000475D01*
X92212438Y-68000475D02*
X92260057Y-68048094D01*
X92260057Y-68048094D02*
X92355295Y-68095713D01*
X92355295Y-68095713D02*
X92593390Y-68095713D01*
X92593390Y-68095713D02*
X92688628Y-68048094D01*
X92688628Y-68048094D02*
X92736247Y-68000475D01*
X92736247Y-68000475D02*
X92783866Y-67905237D01*
X92783866Y-67905237D02*
X92783866Y-67714761D01*
X92783866Y-67714761D02*
X92736247Y-67619523D01*
X92736247Y-67619523D02*
X92688628Y-67571904D01*
X92688628Y-67571904D02*
X92593390Y-67524285D01*
X92164819Y-66905237D02*
X92164819Y-66809999D01*
X92164819Y-66809999D02*
X92212438Y-66714761D01*
X92212438Y-66714761D02*
X92260057Y-66667142D01*
X92260057Y-66667142D02*
X92355295Y-66619523D01*
X92355295Y-66619523D02*
X92545771Y-66571904D01*
X92545771Y-66571904D02*
X92783866Y-66571904D01*
X92783866Y-66571904D02*
X92974342Y-66619523D01*
X92974342Y-66619523D02*
X93069580Y-66667142D01*
X93069580Y-66667142D02*
X93117200Y-66714761D01*
X93117200Y-66714761D02*
X93164819Y-66809999D01*
X93164819Y-66809999D02*
X93164819Y-66905237D01*
X93164819Y-66905237D02*
X93117200Y-67000475D01*
X93117200Y-67000475D02*
X93069580Y-67048094D01*
X93069580Y-67048094D02*
X92974342Y-67095713D01*
X92974342Y-67095713D02*
X92783866Y-67143332D01*
X92783866Y-67143332D02*
X92545771Y-67143332D01*
X92545771Y-67143332D02*
X92355295Y-67095713D01*
X92355295Y-67095713D02*
X92260057Y-67048094D01*
X92260057Y-67048094D02*
X92212438Y-67000475D01*
X92212438Y-67000475D02*
X92164819Y-66905237D01*
X93164819Y-65571904D02*
X92688628Y-65905237D01*
X93164819Y-66143332D02*
X92164819Y-66143332D01*
X92164819Y-66143332D02*
X92164819Y-65762380D01*
X92164819Y-65762380D02*
X92212438Y-65667142D01*
X92212438Y-65667142D02*
X92260057Y-65619523D01*
X92260057Y-65619523D02*
X92355295Y-65571904D01*
X92355295Y-65571904D02*
X92498152Y-65571904D01*
X92498152Y-65571904D02*
X92593390Y-65619523D01*
X92593390Y-65619523D02*
X92641009Y-65667142D01*
X92641009Y-65667142D02*
X92688628Y-65762380D01*
X92688628Y-65762380D02*
X92688628Y-66143332D01*
X98534623Y-54469580D02*
X98487004Y-54517200D01*
X98487004Y-54517200D02*
X98344147Y-54564819D01*
X98344147Y-54564819D02*
X98248909Y-54564819D01*
X98248909Y-54564819D02*
X98106052Y-54517200D01*
X98106052Y-54517200D02*
X98010814Y-54421961D01*
X98010814Y-54421961D02*
X97963195Y-54326723D01*
X97963195Y-54326723D02*
X97915576Y-54136247D01*
X97915576Y-54136247D02*
X97915576Y-53993390D01*
X97915576Y-53993390D02*
X97963195Y-53802914D01*
X97963195Y-53802914D02*
X98010814Y-53707676D01*
X98010814Y-53707676D02*
X98106052Y-53612438D01*
X98106052Y-53612438D02*
X98248909Y-53564819D01*
X98248909Y-53564819D02*
X98344147Y-53564819D01*
X98344147Y-53564819D02*
X98487004Y-53612438D01*
X98487004Y-53612438D02*
X98534623Y-53660057D01*
X99153671Y-53564819D02*
X99344147Y-53564819D01*
X99344147Y-53564819D02*
X99439385Y-53612438D01*
X99439385Y-53612438D02*
X99534623Y-53707676D01*
X99534623Y-53707676D02*
X99582242Y-53898152D01*
X99582242Y-53898152D02*
X99582242Y-54231485D01*
X99582242Y-54231485D02*
X99534623Y-54421961D01*
X99534623Y-54421961D02*
X99439385Y-54517200D01*
X99439385Y-54517200D02*
X99344147Y-54564819D01*
X99344147Y-54564819D02*
X99153671Y-54564819D01*
X99153671Y-54564819D02*
X99058433Y-54517200D01*
X99058433Y-54517200D02*
X98963195Y-54421961D01*
X98963195Y-54421961D02*
X98915576Y-54231485D01*
X98915576Y-54231485D02*
X98915576Y-53898152D01*
X98915576Y-53898152D02*
X98963195Y-53707676D01*
X98963195Y-53707676D02*
X99058433Y-53612438D01*
X99058433Y-53612438D02*
X99153671Y-53564819D01*
X99963195Y-53660057D02*
X100010814Y-53612438D01*
X100010814Y-53612438D02*
X100106052Y-53564819D01*
X100106052Y-53564819D02*
X100344147Y-53564819D01*
X100344147Y-53564819D02*
X100439385Y-53612438D01*
X100439385Y-53612438D02*
X100487004Y-53660057D01*
X100487004Y-53660057D02*
X100534623Y-53755295D01*
X100534623Y-53755295D02*
X100534623Y-53850533D01*
X100534623Y-53850533D02*
X100487004Y-53993390D01*
X100487004Y-53993390D02*
X99915576Y-54564819D01*
X99915576Y-54564819D02*
X100534623Y-54564819D01*
X104511766Y-62184819D02*
X104035576Y-62184819D01*
X104035576Y-62184819D02*
X104035576Y-61184819D01*
X104845100Y-62184819D02*
X104845100Y-61184819D01*
X105321290Y-62184819D02*
X105321290Y-61184819D01*
X105321290Y-61184819D02*
X105892718Y-62184819D01*
X105892718Y-62184819D02*
X105892718Y-61184819D01*
X106368909Y-61661009D02*
X106702242Y-61661009D01*
X106845099Y-62184819D02*
X106368909Y-62184819D01*
X106368909Y-62184819D02*
X106368909Y-61184819D01*
X106368909Y-61184819D02*
X106845099Y-61184819D01*
X107464147Y-61184819D02*
X107654623Y-61184819D01*
X107654623Y-61184819D02*
X107749861Y-61232438D01*
X107749861Y-61232438D02*
X107845099Y-61327676D01*
X107845099Y-61327676D02*
X107892718Y-61518152D01*
X107892718Y-61518152D02*
X107892718Y-61851485D01*
X107892718Y-61851485D02*
X107845099Y-62041961D01*
X107845099Y-62041961D02*
X107749861Y-62137200D01*
X107749861Y-62137200D02*
X107654623Y-62184819D01*
X107654623Y-62184819D02*
X107464147Y-62184819D01*
X107464147Y-62184819D02*
X107368909Y-62137200D01*
X107368909Y-62137200D02*
X107273671Y-62041961D01*
X107273671Y-62041961D02*
X107226052Y-61851485D01*
X107226052Y-61851485D02*
X107226052Y-61518152D01*
X107226052Y-61518152D02*
X107273671Y-61327676D01*
X107273671Y-61327676D02*
X107368909Y-61232438D01*
X107368909Y-61232438D02*
X107464147Y-61184819D01*
X108321290Y-61184819D02*
X108321290Y-61994342D01*
X108321290Y-61994342D02*
X108368909Y-62089580D01*
X108368909Y-62089580D02*
X108416528Y-62137200D01*
X108416528Y-62137200D02*
X108511766Y-62184819D01*
X108511766Y-62184819D02*
X108702242Y-62184819D01*
X108702242Y-62184819D02*
X108797480Y-62137200D01*
X108797480Y-62137200D02*
X108845099Y-62089580D01*
X108845099Y-62089580D02*
X108892718Y-61994342D01*
X108892718Y-61994342D02*
X108892718Y-61184819D01*
X109226052Y-61184819D02*
X109797480Y-61184819D01*
X109511766Y-62184819D02*
X109511766Y-61184819D01*
X90673095Y-121374819D02*
X90673095Y-122184342D01*
X90673095Y-122184342D02*
X90720714Y-122279580D01*
X90720714Y-122279580D02*
X90768333Y-122327200D01*
X90768333Y-122327200D02*
X90863571Y-122374819D01*
X90863571Y-122374819D02*
X91054047Y-122374819D01*
X91054047Y-122374819D02*
X91149285Y-122327200D01*
X91149285Y-122327200D02*
X91196904Y-122279580D01*
X91196904Y-122279580D02*
X91244523Y-122184342D01*
X91244523Y-122184342D02*
X91244523Y-121374819D01*
X92149285Y-121708152D02*
X92149285Y-122374819D01*
X91911190Y-121327200D02*
X91673095Y-122041485D01*
X91673095Y-122041485D02*
X92292142Y-122041485D01*
X90889819Y-114926666D02*
X90889819Y-114260000D01*
X90889819Y-114260000D02*
X91889819Y-114688571D01*
X91223152Y-113450476D02*
X91889819Y-113450476D01*
X90842200Y-113688571D02*
X91556485Y-113926666D01*
X91556485Y-113926666D02*
X91556485Y-113307619D01*
X91889819Y-112926666D02*
X90889819Y-112926666D01*
X91366009Y-112926666D02*
X91366009Y-112355238D01*
X91889819Y-112355238D02*
X90889819Y-112355238D01*
X91794580Y-111307619D02*
X91842200Y-111355238D01*
X91842200Y-111355238D02*
X91889819Y-111498095D01*
X91889819Y-111498095D02*
X91889819Y-111593333D01*
X91889819Y-111593333D02*
X91842200Y-111736190D01*
X91842200Y-111736190D02*
X91746961Y-111831428D01*
X91746961Y-111831428D02*
X91651723Y-111879047D01*
X91651723Y-111879047D02*
X91461247Y-111926666D01*
X91461247Y-111926666D02*
X91318390Y-111926666D01*
X91318390Y-111926666D02*
X91127914Y-111879047D01*
X91127914Y-111879047D02*
X91032676Y-111831428D01*
X91032676Y-111831428D02*
X90937438Y-111736190D01*
X90937438Y-111736190D02*
X90889819Y-111593333D01*
X90889819Y-111593333D02*
X90889819Y-111498095D01*
X90889819Y-111498095D02*
X90937438Y-111355238D01*
X90937438Y-111355238D02*
X90985057Y-111307619D01*
X90889819Y-111021904D02*
X90889819Y-110450476D01*
X91889819Y-110736190D02*
X90889819Y-110736190D01*
X91889819Y-109593333D02*
X91889819Y-110164761D01*
X91889819Y-109879047D02*
X90889819Y-109879047D01*
X90889819Y-109879047D02*
X91032676Y-109974285D01*
X91032676Y-109974285D02*
X91127914Y-110069523D01*
X91127914Y-110069523D02*
X91175533Y-110164761D01*
X91889819Y-108640952D02*
X91889819Y-109212380D01*
X91889819Y-108926666D02*
X90889819Y-108926666D01*
X90889819Y-108926666D02*
X91032676Y-109021904D01*
X91032676Y-109021904D02*
X91127914Y-109117142D01*
X91127914Y-109117142D02*
X91175533Y-109212380D01*
X105913095Y-121374819D02*
X105913095Y-122184342D01*
X105913095Y-122184342D02*
X105960714Y-122279580D01*
X105960714Y-122279580D02*
X106008333Y-122327200D01*
X106008333Y-122327200D02*
X106103571Y-122374819D01*
X106103571Y-122374819D02*
X106294047Y-122374819D01*
X106294047Y-122374819D02*
X106389285Y-122327200D01*
X106389285Y-122327200D02*
X106436904Y-122279580D01*
X106436904Y-122279580D02*
X106484523Y-122184342D01*
X106484523Y-122184342D02*
X106484523Y-121374819D01*
X107436904Y-121374819D02*
X106960714Y-121374819D01*
X106960714Y-121374819D02*
X106913095Y-121851009D01*
X106913095Y-121851009D02*
X106960714Y-121803390D01*
X106960714Y-121803390D02*
X107055952Y-121755771D01*
X107055952Y-121755771D02*
X107294047Y-121755771D01*
X107294047Y-121755771D02*
X107389285Y-121803390D01*
X107389285Y-121803390D02*
X107436904Y-121851009D01*
X107436904Y-121851009D02*
X107484523Y-121946247D01*
X107484523Y-121946247D02*
X107484523Y-122184342D01*
X107484523Y-122184342D02*
X107436904Y-122279580D01*
X107436904Y-122279580D02*
X107389285Y-122327200D01*
X107389285Y-122327200D02*
X107294047Y-122374819D01*
X107294047Y-122374819D02*
X107055952Y-122374819D01*
X107055952Y-122374819D02*
X106960714Y-122327200D01*
X106960714Y-122327200D02*
X106913095Y-122279580D01*
X106129819Y-116196666D02*
X106129819Y-115530000D01*
X106129819Y-115530000D02*
X107129819Y-115958571D01*
X106463152Y-114720476D02*
X107129819Y-114720476D01*
X106082200Y-114958571D02*
X106796485Y-115196666D01*
X106796485Y-115196666D02*
X106796485Y-114577619D01*
X107129819Y-114196666D02*
X106129819Y-114196666D01*
X106606009Y-114196666D02*
X106606009Y-113625238D01*
X107129819Y-113625238D02*
X106129819Y-113625238D01*
X107034580Y-112577619D02*
X107082200Y-112625238D01*
X107082200Y-112625238D02*
X107129819Y-112768095D01*
X107129819Y-112768095D02*
X107129819Y-112863333D01*
X107129819Y-112863333D02*
X107082200Y-113006190D01*
X107082200Y-113006190D02*
X106986961Y-113101428D01*
X106986961Y-113101428D02*
X106891723Y-113149047D01*
X106891723Y-113149047D02*
X106701247Y-113196666D01*
X106701247Y-113196666D02*
X106558390Y-113196666D01*
X106558390Y-113196666D02*
X106367914Y-113149047D01*
X106367914Y-113149047D02*
X106272676Y-113101428D01*
X106272676Y-113101428D02*
X106177438Y-113006190D01*
X106177438Y-113006190D02*
X106129819Y-112863333D01*
X106129819Y-112863333D02*
X106129819Y-112768095D01*
X106129819Y-112768095D02*
X106177438Y-112625238D01*
X106177438Y-112625238D02*
X106225057Y-112577619D01*
X106129819Y-112291904D02*
X106129819Y-111720476D01*
X107129819Y-112006190D02*
X106129819Y-112006190D01*
X106129819Y-111196666D02*
X106129819Y-111101428D01*
X106129819Y-111101428D02*
X106177438Y-111006190D01*
X106177438Y-111006190D02*
X106225057Y-110958571D01*
X106225057Y-110958571D02*
X106320295Y-110910952D01*
X106320295Y-110910952D02*
X106510771Y-110863333D01*
X106510771Y-110863333D02*
X106748866Y-110863333D01*
X106748866Y-110863333D02*
X106939342Y-110910952D01*
X106939342Y-110910952D02*
X107034580Y-110958571D01*
X107034580Y-110958571D02*
X107082200Y-111006190D01*
X107082200Y-111006190D02*
X107129819Y-111101428D01*
X107129819Y-111101428D02*
X107129819Y-111196666D01*
X107129819Y-111196666D02*
X107082200Y-111291904D01*
X107082200Y-111291904D02*
X107034580Y-111339523D01*
X107034580Y-111339523D02*
X106939342Y-111387142D01*
X106939342Y-111387142D02*
X106748866Y-111434761D01*
X106748866Y-111434761D02*
X106510771Y-111434761D01*
X106510771Y-111434761D02*
X106320295Y-111387142D01*
X106320295Y-111387142D02*
X106225057Y-111339523D01*
X106225057Y-111339523D02*
X106177438Y-111291904D01*
X106177438Y-111291904D02*
X106129819Y-111196666D01*
X106225057Y-110482380D02*
X106177438Y-110434761D01*
X106177438Y-110434761D02*
X106129819Y-110339523D01*
X106129819Y-110339523D02*
X106129819Y-110101428D01*
X106129819Y-110101428D02*
X106177438Y-110006190D01*
X106177438Y-110006190D02*
X106225057Y-109958571D01*
X106225057Y-109958571D02*
X106320295Y-109910952D01*
X106320295Y-109910952D02*
X106415533Y-109910952D01*
X106415533Y-109910952D02*
X106558390Y-109958571D01*
X106558390Y-109958571D02*
X107129819Y-110529999D01*
X107129819Y-110529999D02*
X107129819Y-109910952D01*
X71948333Y-50584580D02*
X71900714Y-50632200D01*
X71900714Y-50632200D02*
X71757857Y-50679819D01*
X71757857Y-50679819D02*
X71662619Y-50679819D01*
X71662619Y-50679819D02*
X71519762Y-50632200D01*
X71519762Y-50632200D02*
X71424524Y-50536961D01*
X71424524Y-50536961D02*
X71376905Y-50441723D01*
X71376905Y-50441723D02*
X71329286Y-50251247D01*
X71329286Y-50251247D02*
X71329286Y-50108390D01*
X71329286Y-50108390D02*
X71376905Y-49917914D01*
X71376905Y-49917914D02*
X71424524Y-49822676D01*
X71424524Y-49822676D02*
X71519762Y-49727438D01*
X71519762Y-49727438D02*
X71662619Y-49679819D01*
X71662619Y-49679819D02*
X71757857Y-49679819D01*
X71757857Y-49679819D02*
X71900714Y-49727438D01*
X71900714Y-49727438D02*
X71948333Y-49775057D01*
X72900714Y-50679819D02*
X72329286Y-50679819D01*
X72615000Y-50679819D02*
X72615000Y-49679819D01*
X72615000Y-49679819D02*
X72519762Y-49822676D01*
X72519762Y-49822676D02*
X72424524Y-49917914D01*
X72424524Y-49917914D02*
X72329286Y-49965533D01*
X71186428Y-58179819D02*
X70615000Y-58179819D01*
X70900714Y-58179819D02*
X70900714Y-57179819D01*
X70900714Y-57179819D02*
X70805476Y-57322676D01*
X70805476Y-57322676D02*
X70710238Y-57417914D01*
X70710238Y-57417914D02*
X70615000Y-57465533D01*
X71805476Y-57179819D02*
X71900714Y-57179819D01*
X71900714Y-57179819D02*
X71995952Y-57227438D01*
X71995952Y-57227438D02*
X72043571Y-57275057D01*
X72043571Y-57275057D02*
X72091190Y-57370295D01*
X72091190Y-57370295D02*
X72138809Y-57560771D01*
X72138809Y-57560771D02*
X72138809Y-57798866D01*
X72138809Y-57798866D02*
X72091190Y-57989342D01*
X72091190Y-57989342D02*
X72043571Y-58084580D01*
X72043571Y-58084580D02*
X71995952Y-58132200D01*
X71995952Y-58132200D02*
X71900714Y-58179819D01*
X71900714Y-58179819D02*
X71805476Y-58179819D01*
X71805476Y-58179819D02*
X71710238Y-58132200D01*
X71710238Y-58132200D02*
X71662619Y-58084580D01*
X71662619Y-58084580D02*
X71615000Y-57989342D01*
X71615000Y-57989342D02*
X71567381Y-57798866D01*
X71567381Y-57798866D02*
X71567381Y-57560771D01*
X71567381Y-57560771D02*
X71615000Y-57370295D01*
X71615000Y-57370295D02*
X71662619Y-57275057D01*
X71662619Y-57275057D02*
X71710238Y-57227438D01*
X71710238Y-57227438D02*
X71805476Y-57179819D01*
X72995952Y-57513152D02*
X72995952Y-58179819D01*
X72567381Y-57513152D02*
X72567381Y-58036961D01*
X72567381Y-58036961D02*
X72615000Y-58132200D01*
X72615000Y-58132200D02*
X72710238Y-58179819D01*
X72710238Y-58179819D02*
X72853095Y-58179819D01*
X72853095Y-58179819D02*
X72948333Y-58132200D01*
X72948333Y-58132200D02*
X72995952Y-58084580D01*
X73329286Y-57513152D02*
X73710238Y-57513152D01*
X73472143Y-58179819D02*
X73472143Y-57322676D01*
X73472143Y-57322676D02*
X73519762Y-57227438D01*
X73519762Y-57227438D02*
X73615000Y-57179819D01*
X73615000Y-57179819D02*
X73710238Y-57179819D01*
X85544819Y-67476666D02*
X85068628Y-67809999D01*
X85544819Y-68048094D02*
X84544819Y-68048094D01*
X84544819Y-68048094D02*
X84544819Y-67667142D01*
X84544819Y-67667142D02*
X84592438Y-67571904D01*
X84592438Y-67571904D02*
X84640057Y-67524285D01*
X84640057Y-67524285D02*
X84735295Y-67476666D01*
X84735295Y-67476666D02*
X84878152Y-67476666D01*
X84878152Y-67476666D02*
X84973390Y-67524285D01*
X84973390Y-67524285D02*
X85021009Y-67571904D01*
X85021009Y-67571904D02*
X85068628Y-67667142D01*
X85068628Y-67667142D02*
X85068628Y-68048094D01*
X84544819Y-66619523D02*
X84544819Y-66809999D01*
X84544819Y-66809999D02*
X84592438Y-66905237D01*
X84592438Y-66905237D02*
X84640057Y-66952856D01*
X84640057Y-66952856D02*
X84782914Y-67048094D01*
X84782914Y-67048094D02*
X84973390Y-67095713D01*
X84973390Y-67095713D02*
X85354342Y-67095713D01*
X85354342Y-67095713D02*
X85449580Y-67048094D01*
X85449580Y-67048094D02*
X85497200Y-67000475D01*
X85497200Y-67000475D02*
X85544819Y-66905237D01*
X85544819Y-66905237D02*
X85544819Y-66714761D01*
X85544819Y-66714761D02*
X85497200Y-66619523D01*
X85497200Y-66619523D02*
X85449580Y-66571904D01*
X85449580Y-66571904D02*
X85354342Y-66524285D01*
X85354342Y-66524285D02*
X85116247Y-66524285D01*
X85116247Y-66524285D02*
X85021009Y-66571904D01*
X85021009Y-66571904D02*
X84973390Y-66619523D01*
X84973390Y-66619523D02*
X84925771Y-66714761D01*
X84925771Y-66714761D02*
X84925771Y-66905237D01*
X84925771Y-66905237D02*
X84973390Y-67000475D01*
X84973390Y-67000475D02*
X85021009Y-67048094D01*
X85021009Y-67048094D02*
X85116247Y-67095713D01*
X87513390Y-68857618D02*
X87465771Y-68952856D01*
X87465771Y-68952856D02*
X87418152Y-69000475D01*
X87418152Y-69000475D02*
X87322914Y-69048094D01*
X87322914Y-69048094D02*
X87275295Y-69048094D01*
X87275295Y-69048094D02*
X87180057Y-69000475D01*
X87180057Y-69000475D02*
X87132438Y-68952856D01*
X87132438Y-68952856D02*
X87084819Y-68857618D01*
X87084819Y-68857618D02*
X87084819Y-68667142D01*
X87084819Y-68667142D02*
X87132438Y-68571904D01*
X87132438Y-68571904D02*
X87180057Y-68524285D01*
X87180057Y-68524285D02*
X87275295Y-68476666D01*
X87275295Y-68476666D02*
X87322914Y-68476666D01*
X87322914Y-68476666D02*
X87418152Y-68524285D01*
X87418152Y-68524285D02*
X87465771Y-68571904D01*
X87465771Y-68571904D02*
X87513390Y-68667142D01*
X87513390Y-68667142D02*
X87513390Y-68857618D01*
X87513390Y-68857618D02*
X87561009Y-68952856D01*
X87561009Y-68952856D02*
X87608628Y-69000475D01*
X87608628Y-69000475D02*
X87703866Y-69048094D01*
X87703866Y-69048094D02*
X87894342Y-69048094D01*
X87894342Y-69048094D02*
X87989580Y-69000475D01*
X87989580Y-69000475D02*
X88037200Y-68952856D01*
X88037200Y-68952856D02*
X88084819Y-68857618D01*
X88084819Y-68857618D02*
X88084819Y-68667142D01*
X88084819Y-68667142D02*
X88037200Y-68571904D01*
X88037200Y-68571904D02*
X87989580Y-68524285D01*
X87989580Y-68524285D02*
X87894342Y-68476666D01*
X87894342Y-68476666D02*
X87703866Y-68476666D01*
X87703866Y-68476666D02*
X87608628Y-68524285D01*
X87608628Y-68524285D02*
X87561009Y-68571904D01*
X87561009Y-68571904D02*
X87513390Y-68667142D01*
X87180057Y-68095713D02*
X87132438Y-68048094D01*
X87132438Y-68048094D02*
X87084819Y-67952856D01*
X87084819Y-67952856D02*
X87084819Y-67714761D01*
X87084819Y-67714761D02*
X87132438Y-67619523D01*
X87132438Y-67619523D02*
X87180057Y-67571904D01*
X87180057Y-67571904D02*
X87275295Y-67524285D01*
X87275295Y-67524285D02*
X87370533Y-67524285D01*
X87370533Y-67524285D02*
X87513390Y-67571904D01*
X87513390Y-67571904D02*
X88084819Y-68143332D01*
X88084819Y-68143332D02*
X88084819Y-67524285D01*
X87084819Y-66905237D02*
X87084819Y-66809999D01*
X87084819Y-66809999D02*
X87132438Y-66714761D01*
X87132438Y-66714761D02*
X87180057Y-66667142D01*
X87180057Y-66667142D02*
X87275295Y-66619523D01*
X87275295Y-66619523D02*
X87465771Y-66571904D01*
X87465771Y-66571904D02*
X87703866Y-66571904D01*
X87703866Y-66571904D02*
X87894342Y-66619523D01*
X87894342Y-66619523D02*
X87989580Y-66667142D01*
X87989580Y-66667142D02*
X88037200Y-66714761D01*
X88037200Y-66714761D02*
X88084819Y-66809999D01*
X88084819Y-66809999D02*
X88084819Y-66905237D01*
X88084819Y-66905237D02*
X88037200Y-67000475D01*
X88037200Y-67000475D02*
X87989580Y-67048094D01*
X87989580Y-67048094D02*
X87894342Y-67095713D01*
X87894342Y-67095713D02*
X87703866Y-67143332D01*
X87703866Y-67143332D02*
X87465771Y-67143332D01*
X87465771Y-67143332D02*
X87275295Y-67095713D01*
X87275295Y-67095713D02*
X87180057Y-67048094D01*
X87180057Y-67048094D02*
X87132438Y-67000475D01*
X87132438Y-67000475D02*
X87084819Y-66905237D01*
X88084819Y-65571904D02*
X87608628Y-65905237D01*
X88084819Y-66143332D02*
X87084819Y-66143332D01*
X87084819Y-66143332D02*
X87084819Y-65762380D01*
X87084819Y-65762380D02*
X87132438Y-65667142D01*
X87132438Y-65667142D02*
X87180057Y-65619523D01*
X87180057Y-65619523D02*
X87275295Y-65571904D01*
X87275295Y-65571904D02*
X87418152Y-65571904D01*
X87418152Y-65571904D02*
X87513390Y-65619523D01*
X87513390Y-65619523D02*
X87561009Y-65667142D01*
X87561009Y-65667142D02*
X87608628Y-65762380D01*
X87608628Y-65762380D02*
X87608628Y-66143332D01*
X111593333Y-87354580D02*
X111545714Y-87402200D01*
X111545714Y-87402200D02*
X111402857Y-87449819D01*
X111402857Y-87449819D02*
X111307619Y-87449819D01*
X111307619Y-87449819D02*
X111164762Y-87402200D01*
X111164762Y-87402200D02*
X111069524Y-87306961D01*
X111069524Y-87306961D02*
X111021905Y-87211723D01*
X111021905Y-87211723D02*
X110974286Y-87021247D01*
X110974286Y-87021247D02*
X110974286Y-86878390D01*
X110974286Y-86878390D02*
X111021905Y-86687914D01*
X111021905Y-86687914D02*
X111069524Y-86592676D01*
X111069524Y-86592676D02*
X111164762Y-86497438D01*
X111164762Y-86497438D02*
X111307619Y-86449819D01*
X111307619Y-86449819D02*
X111402857Y-86449819D01*
X111402857Y-86449819D02*
X111545714Y-86497438D01*
X111545714Y-86497438D02*
X111593333Y-86545057D01*
X112069524Y-87449819D02*
X112260000Y-87449819D01*
X112260000Y-87449819D02*
X112355238Y-87402200D01*
X112355238Y-87402200D02*
X112402857Y-87354580D01*
X112402857Y-87354580D02*
X112498095Y-87211723D01*
X112498095Y-87211723D02*
X112545714Y-87021247D01*
X112545714Y-87021247D02*
X112545714Y-86640295D01*
X112545714Y-86640295D02*
X112498095Y-86545057D01*
X112498095Y-86545057D02*
X112450476Y-86497438D01*
X112450476Y-86497438D02*
X112355238Y-86449819D01*
X112355238Y-86449819D02*
X112164762Y-86449819D01*
X112164762Y-86449819D02*
X112069524Y-86497438D01*
X112069524Y-86497438D02*
X112021905Y-86545057D01*
X112021905Y-86545057D02*
X111974286Y-86640295D01*
X111974286Y-86640295D02*
X111974286Y-86878390D01*
X111974286Y-86878390D02*
X112021905Y-86973628D01*
X112021905Y-86973628D02*
X112069524Y-87021247D01*
X112069524Y-87021247D02*
X112164762Y-87068866D01*
X112164762Y-87068866D02*
X112355238Y-87068866D01*
X112355238Y-87068866D02*
X112450476Y-87021247D01*
X112450476Y-87021247D02*
X112498095Y-86973628D01*
X112498095Y-86973628D02*
X112545714Y-86878390D01*
X114119819Y-91574762D02*
X114119819Y-92146190D01*
X114119819Y-91860476D02*
X113119819Y-91860476D01*
X113119819Y-91860476D02*
X113262676Y-91955714D01*
X113262676Y-91955714D02*
X113357914Y-92050952D01*
X113357914Y-92050952D02*
X113405533Y-92146190D01*
X113119819Y-90955714D02*
X113119819Y-90860476D01*
X113119819Y-90860476D02*
X113167438Y-90765238D01*
X113167438Y-90765238D02*
X113215057Y-90717619D01*
X113215057Y-90717619D02*
X113310295Y-90670000D01*
X113310295Y-90670000D02*
X113500771Y-90622381D01*
X113500771Y-90622381D02*
X113738866Y-90622381D01*
X113738866Y-90622381D02*
X113929342Y-90670000D01*
X113929342Y-90670000D02*
X114024580Y-90717619D01*
X114024580Y-90717619D02*
X114072200Y-90765238D01*
X114072200Y-90765238D02*
X114119819Y-90860476D01*
X114119819Y-90860476D02*
X114119819Y-90955714D01*
X114119819Y-90955714D02*
X114072200Y-91050952D01*
X114072200Y-91050952D02*
X114024580Y-91098571D01*
X114024580Y-91098571D02*
X113929342Y-91146190D01*
X113929342Y-91146190D02*
X113738866Y-91193809D01*
X113738866Y-91193809D02*
X113500771Y-91193809D01*
X113500771Y-91193809D02*
X113310295Y-91146190D01*
X113310295Y-91146190D02*
X113215057Y-91098571D01*
X113215057Y-91098571D02*
X113167438Y-91050952D01*
X113167438Y-91050952D02*
X113119819Y-90955714D01*
X113119819Y-90003333D02*
X113119819Y-89908095D01*
X113119819Y-89908095D02*
X113167438Y-89812857D01*
X113167438Y-89812857D02*
X113215057Y-89765238D01*
X113215057Y-89765238D02*
X113310295Y-89717619D01*
X113310295Y-89717619D02*
X113500771Y-89670000D01*
X113500771Y-89670000D02*
X113738866Y-89670000D01*
X113738866Y-89670000D02*
X113929342Y-89717619D01*
X113929342Y-89717619D02*
X114024580Y-89765238D01*
X114024580Y-89765238D02*
X114072200Y-89812857D01*
X114072200Y-89812857D02*
X114119819Y-89908095D01*
X114119819Y-89908095D02*
X114119819Y-90003333D01*
X114119819Y-90003333D02*
X114072200Y-90098571D01*
X114072200Y-90098571D02*
X114024580Y-90146190D01*
X114024580Y-90146190D02*
X113929342Y-90193809D01*
X113929342Y-90193809D02*
X113738866Y-90241428D01*
X113738866Y-90241428D02*
X113500771Y-90241428D01*
X113500771Y-90241428D02*
X113310295Y-90193809D01*
X113310295Y-90193809D02*
X113215057Y-90146190D01*
X113215057Y-90146190D02*
X113167438Y-90098571D01*
X113167438Y-90098571D02*
X113119819Y-90003333D01*
X113453152Y-89241428D02*
X114119819Y-89241428D01*
X113548390Y-89241428D02*
X113500771Y-89193809D01*
X113500771Y-89193809D02*
X113453152Y-89098571D01*
X113453152Y-89098571D02*
X113453152Y-88955714D01*
X113453152Y-88955714D02*
X113500771Y-88860476D01*
X113500771Y-88860476D02*
X113596009Y-88812857D01*
X113596009Y-88812857D02*
X114119819Y-88812857D01*
X113453152Y-88479523D02*
X113453152Y-88098571D01*
X114119819Y-88336666D02*
X113262676Y-88336666D01*
X113262676Y-88336666D02*
X113167438Y-88289047D01*
X113167438Y-88289047D02*
X113119819Y-88193809D01*
X113119819Y-88193809D02*
X113119819Y-88098571D01*
X75433095Y-121374819D02*
X75433095Y-122184342D01*
X75433095Y-122184342D02*
X75480714Y-122279580D01*
X75480714Y-122279580D02*
X75528333Y-122327200D01*
X75528333Y-122327200D02*
X75623571Y-122374819D01*
X75623571Y-122374819D02*
X75814047Y-122374819D01*
X75814047Y-122374819D02*
X75909285Y-122327200D01*
X75909285Y-122327200D02*
X75956904Y-122279580D01*
X75956904Y-122279580D02*
X76004523Y-122184342D01*
X76004523Y-122184342D02*
X76004523Y-121374819D01*
X76385476Y-121374819D02*
X77004523Y-121374819D01*
X77004523Y-121374819D02*
X76671190Y-121755771D01*
X76671190Y-121755771D02*
X76814047Y-121755771D01*
X76814047Y-121755771D02*
X76909285Y-121803390D01*
X76909285Y-121803390D02*
X76956904Y-121851009D01*
X76956904Y-121851009D02*
X77004523Y-121946247D01*
X77004523Y-121946247D02*
X77004523Y-122184342D01*
X77004523Y-122184342D02*
X76956904Y-122279580D01*
X76956904Y-122279580D02*
X76909285Y-122327200D01*
X76909285Y-122327200D02*
X76814047Y-122374819D01*
X76814047Y-122374819D02*
X76528333Y-122374819D01*
X76528333Y-122374819D02*
X76433095Y-122327200D01*
X76433095Y-122327200D02*
X76385476Y-122279580D01*
X75649819Y-114926666D02*
X75649819Y-114260000D01*
X75649819Y-114260000D02*
X76649819Y-114688571D01*
X75983152Y-113450476D02*
X76649819Y-113450476D01*
X75602200Y-113688571D02*
X76316485Y-113926666D01*
X76316485Y-113926666D02*
X76316485Y-113307619D01*
X76649819Y-112926666D02*
X75649819Y-112926666D01*
X76126009Y-112926666D02*
X76126009Y-112355238D01*
X76649819Y-112355238D02*
X75649819Y-112355238D01*
X76554580Y-111307619D02*
X76602200Y-111355238D01*
X76602200Y-111355238D02*
X76649819Y-111498095D01*
X76649819Y-111498095D02*
X76649819Y-111593333D01*
X76649819Y-111593333D02*
X76602200Y-111736190D01*
X76602200Y-111736190D02*
X76506961Y-111831428D01*
X76506961Y-111831428D02*
X76411723Y-111879047D01*
X76411723Y-111879047D02*
X76221247Y-111926666D01*
X76221247Y-111926666D02*
X76078390Y-111926666D01*
X76078390Y-111926666D02*
X75887914Y-111879047D01*
X75887914Y-111879047D02*
X75792676Y-111831428D01*
X75792676Y-111831428D02*
X75697438Y-111736190D01*
X75697438Y-111736190D02*
X75649819Y-111593333D01*
X75649819Y-111593333D02*
X75649819Y-111498095D01*
X75649819Y-111498095D02*
X75697438Y-111355238D01*
X75697438Y-111355238D02*
X75745057Y-111307619D01*
X75649819Y-111021904D02*
X75649819Y-110450476D01*
X76649819Y-110736190D02*
X75649819Y-110736190D01*
X75649819Y-109926666D02*
X75649819Y-109831428D01*
X75649819Y-109831428D02*
X75697438Y-109736190D01*
X75697438Y-109736190D02*
X75745057Y-109688571D01*
X75745057Y-109688571D02*
X75840295Y-109640952D01*
X75840295Y-109640952D02*
X76030771Y-109593333D01*
X76030771Y-109593333D02*
X76268866Y-109593333D01*
X76268866Y-109593333D02*
X76459342Y-109640952D01*
X76459342Y-109640952D02*
X76554580Y-109688571D01*
X76554580Y-109688571D02*
X76602200Y-109736190D01*
X76602200Y-109736190D02*
X76649819Y-109831428D01*
X76649819Y-109831428D02*
X76649819Y-109926666D01*
X76649819Y-109926666D02*
X76602200Y-110021904D01*
X76602200Y-110021904D02*
X76554580Y-110069523D01*
X76554580Y-110069523D02*
X76459342Y-110117142D01*
X76459342Y-110117142D02*
X76268866Y-110164761D01*
X76268866Y-110164761D02*
X76030771Y-110164761D01*
X76030771Y-110164761D02*
X75840295Y-110117142D01*
X75840295Y-110117142D02*
X75745057Y-110069523D01*
X75745057Y-110069523D02*
X75697438Y-110021904D01*
X75697438Y-110021904D02*
X75649819Y-109926666D01*
X76078390Y-109021904D02*
X76030771Y-109117142D01*
X76030771Y-109117142D02*
X75983152Y-109164761D01*
X75983152Y-109164761D02*
X75887914Y-109212380D01*
X75887914Y-109212380D02*
X75840295Y-109212380D01*
X75840295Y-109212380D02*
X75745057Y-109164761D01*
X75745057Y-109164761D02*
X75697438Y-109117142D01*
X75697438Y-109117142D02*
X75649819Y-109021904D01*
X75649819Y-109021904D02*
X75649819Y-108831428D01*
X75649819Y-108831428D02*
X75697438Y-108736190D01*
X75697438Y-108736190D02*
X75745057Y-108688571D01*
X75745057Y-108688571D02*
X75840295Y-108640952D01*
X75840295Y-108640952D02*
X75887914Y-108640952D01*
X75887914Y-108640952D02*
X75983152Y-108688571D01*
X75983152Y-108688571D02*
X76030771Y-108736190D01*
X76030771Y-108736190D02*
X76078390Y-108831428D01*
X76078390Y-108831428D02*
X76078390Y-109021904D01*
X76078390Y-109021904D02*
X76126009Y-109117142D01*
X76126009Y-109117142D02*
X76173628Y-109164761D01*
X76173628Y-109164761D02*
X76268866Y-109212380D01*
X76268866Y-109212380D02*
X76459342Y-109212380D01*
X76459342Y-109212380D02*
X76554580Y-109164761D01*
X76554580Y-109164761D02*
X76602200Y-109117142D01*
X76602200Y-109117142D02*
X76649819Y-109021904D01*
X76649819Y-109021904D02*
X76649819Y-108831428D01*
X76649819Y-108831428D02*
X76602200Y-108736190D01*
X76602200Y-108736190D02*
X76554580Y-108688571D01*
X76554580Y-108688571D02*
X76459342Y-108640952D01*
X76459342Y-108640952D02*
X76268866Y-108640952D01*
X76268866Y-108640952D02*
X76173628Y-108688571D01*
X76173628Y-108688571D02*
X76126009Y-108736190D01*
X76126009Y-108736190D02*
X76078390Y-108831428D01*
X60193095Y-121374819D02*
X60193095Y-122184342D01*
X60193095Y-122184342D02*
X60240714Y-122279580D01*
X60240714Y-122279580D02*
X60288333Y-122327200D01*
X60288333Y-122327200D02*
X60383571Y-122374819D01*
X60383571Y-122374819D02*
X60574047Y-122374819D01*
X60574047Y-122374819D02*
X60669285Y-122327200D01*
X60669285Y-122327200D02*
X60716904Y-122279580D01*
X60716904Y-122279580D02*
X60764523Y-122184342D01*
X60764523Y-122184342D02*
X60764523Y-121374819D01*
X61193095Y-121470057D02*
X61240714Y-121422438D01*
X61240714Y-121422438D02*
X61335952Y-121374819D01*
X61335952Y-121374819D02*
X61574047Y-121374819D01*
X61574047Y-121374819D02*
X61669285Y-121422438D01*
X61669285Y-121422438D02*
X61716904Y-121470057D01*
X61716904Y-121470057D02*
X61764523Y-121565295D01*
X61764523Y-121565295D02*
X61764523Y-121660533D01*
X61764523Y-121660533D02*
X61716904Y-121803390D01*
X61716904Y-121803390D02*
X61145476Y-122374819D01*
X61145476Y-122374819D02*
X61764523Y-122374819D01*
X60409819Y-114926666D02*
X60409819Y-114260000D01*
X60409819Y-114260000D02*
X61409819Y-114688571D01*
X60743152Y-113450476D02*
X61409819Y-113450476D01*
X60362200Y-113688571D02*
X61076485Y-113926666D01*
X61076485Y-113926666D02*
X61076485Y-113307619D01*
X61409819Y-112926666D02*
X60409819Y-112926666D01*
X60886009Y-112926666D02*
X60886009Y-112355238D01*
X61409819Y-112355238D02*
X60409819Y-112355238D01*
X61314580Y-111307619D02*
X61362200Y-111355238D01*
X61362200Y-111355238D02*
X61409819Y-111498095D01*
X61409819Y-111498095D02*
X61409819Y-111593333D01*
X61409819Y-111593333D02*
X61362200Y-111736190D01*
X61362200Y-111736190D02*
X61266961Y-111831428D01*
X61266961Y-111831428D02*
X61171723Y-111879047D01*
X61171723Y-111879047D02*
X60981247Y-111926666D01*
X60981247Y-111926666D02*
X60838390Y-111926666D01*
X60838390Y-111926666D02*
X60647914Y-111879047D01*
X60647914Y-111879047D02*
X60552676Y-111831428D01*
X60552676Y-111831428D02*
X60457438Y-111736190D01*
X60457438Y-111736190D02*
X60409819Y-111593333D01*
X60409819Y-111593333D02*
X60409819Y-111498095D01*
X60409819Y-111498095D02*
X60457438Y-111355238D01*
X60457438Y-111355238D02*
X60505057Y-111307619D01*
X60409819Y-111021904D02*
X60409819Y-110450476D01*
X61409819Y-110736190D02*
X60409819Y-110736190D01*
X60409819Y-110212380D02*
X60409819Y-109545714D01*
X60409819Y-109545714D02*
X61409819Y-109974285D01*
X60743152Y-108736190D02*
X61409819Y-108736190D01*
X60362200Y-108974285D02*
X61076485Y-109212380D01*
X61076485Y-109212380D02*
X61076485Y-108593333D01*
X65229819Y-67952857D02*
X64753628Y-68286190D01*
X65229819Y-68524285D02*
X64229819Y-68524285D01*
X64229819Y-68524285D02*
X64229819Y-68143333D01*
X64229819Y-68143333D02*
X64277438Y-68048095D01*
X64277438Y-68048095D02*
X64325057Y-68000476D01*
X64325057Y-68000476D02*
X64420295Y-67952857D01*
X64420295Y-67952857D02*
X64563152Y-67952857D01*
X64563152Y-67952857D02*
X64658390Y-68000476D01*
X64658390Y-68000476D02*
X64706009Y-68048095D01*
X64706009Y-68048095D02*
X64753628Y-68143333D01*
X64753628Y-68143333D02*
X64753628Y-68524285D01*
X65229819Y-67000476D02*
X65229819Y-67571904D01*
X65229819Y-67286190D02*
X64229819Y-67286190D01*
X64229819Y-67286190D02*
X64372676Y-67381428D01*
X64372676Y-67381428D02*
X64467914Y-67476666D01*
X64467914Y-67476666D02*
X64515533Y-67571904D01*
X64229819Y-66381428D02*
X64229819Y-66286190D01*
X64229819Y-66286190D02*
X64277438Y-66190952D01*
X64277438Y-66190952D02*
X64325057Y-66143333D01*
X64325057Y-66143333D02*
X64420295Y-66095714D01*
X64420295Y-66095714D02*
X64610771Y-66048095D01*
X64610771Y-66048095D02*
X64848866Y-66048095D01*
X64848866Y-66048095D02*
X65039342Y-66095714D01*
X65039342Y-66095714D02*
X65134580Y-66143333D01*
X65134580Y-66143333D02*
X65182200Y-66190952D01*
X65182200Y-66190952D02*
X65229819Y-66286190D01*
X65229819Y-66286190D02*
X65229819Y-66381428D01*
X65229819Y-66381428D02*
X65182200Y-66476666D01*
X65182200Y-66476666D02*
X65134580Y-66524285D01*
X65134580Y-66524285D02*
X65039342Y-66571904D01*
X65039342Y-66571904D02*
X64848866Y-66619523D01*
X64848866Y-66619523D02*
X64610771Y-66619523D01*
X64610771Y-66619523D02*
X64420295Y-66571904D01*
X64420295Y-66571904D02*
X64325057Y-66524285D01*
X64325057Y-66524285D02*
X64277438Y-66476666D01*
X64277438Y-66476666D02*
X64229819Y-66381428D01*
X67764819Y-68476666D02*
X67764819Y-69048094D01*
X67764819Y-68762380D02*
X66764819Y-68762380D01*
X66764819Y-68762380D02*
X66907676Y-68857618D01*
X66907676Y-68857618D02*
X67002914Y-68952856D01*
X67002914Y-68952856D02*
X67050533Y-69048094D01*
X66764819Y-67857618D02*
X66764819Y-67762380D01*
X66764819Y-67762380D02*
X66812438Y-67667142D01*
X66812438Y-67667142D02*
X66860057Y-67619523D01*
X66860057Y-67619523D02*
X66955295Y-67571904D01*
X66955295Y-67571904D02*
X67145771Y-67524285D01*
X67145771Y-67524285D02*
X67383866Y-67524285D01*
X67383866Y-67524285D02*
X67574342Y-67571904D01*
X67574342Y-67571904D02*
X67669580Y-67619523D01*
X67669580Y-67619523D02*
X67717200Y-67667142D01*
X67717200Y-67667142D02*
X67764819Y-67762380D01*
X67764819Y-67762380D02*
X67764819Y-67857618D01*
X67764819Y-67857618D02*
X67717200Y-67952856D01*
X67717200Y-67952856D02*
X67669580Y-68000475D01*
X67669580Y-68000475D02*
X67574342Y-68048094D01*
X67574342Y-68048094D02*
X67383866Y-68095713D01*
X67383866Y-68095713D02*
X67145771Y-68095713D01*
X67145771Y-68095713D02*
X66955295Y-68048094D01*
X66955295Y-68048094D02*
X66860057Y-68000475D01*
X66860057Y-68000475D02*
X66812438Y-67952856D01*
X66812438Y-67952856D02*
X66764819Y-67857618D01*
X66764819Y-66905237D02*
X66764819Y-66809999D01*
X66764819Y-66809999D02*
X66812438Y-66714761D01*
X66812438Y-66714761D02*
X66860057Y-66667142D01*
X66860057Y-66667142D02*
X66955295Y-66619523D01*
X66955295Y-66619523D02*
X67145771Y-66571904D01*
X67145771Y-66571904D02*
X67383866Y-66571904D01*
X67383866Y-66571904D02*
X67574342Y-66619523D01*
X67574342Y-66619523D02*
X67669580Y-66667142D01*
X67669580Y-66667142D02*
X67717200Y-66714761D01*
X67717200Y-66714761D02*
X67764819Y-66809999D01*
X67764819Y-66809999D02*
X67764819Y-66905237D01*
X67764819Y-66905237D02*
X67717200Y-67000475D01*
X67717200Y-67000475D02*
X67669580Y-67048094D01*
X67669580Y-67048094D02*
X67574342Y-67095713D01*
X67574342Y-67095713D02*
X67383866Y-67143332D01*
X67383866Y-67143332D02*
X67145771Y-67143332D01*
X67145771Y-67143332D02*
X66955295Y-67095713D01*
X66955295Y-67095713D02*
X66860057Y-67048094D01*
X66860057Y-67048094D02*
X66812438Y-67000475D01*
X66812438Y-67000475D02*
X66764819Y-66905237D01*
X67764819Y-65571904D02*
X67288628Y-65905237D01*
X67764819Y-66143332D02*
X66764819Y-66143332D01*
X66764819Y-66143332D02*
X66764819Y-65762380D01*
X66764819Y-65762380D02*
X66812438Y-65667142D01*
X66812438Y-65667142D02*
X66860057Y-65619523D01*
X66860057Y-65619523D02*
X66955295Y-65571904D01*
X66955295Y-65571904D02*
X67098152Y-65571904D01*
X67098152Y-65571904D02*
X67193390Y-65619523D01*
X67193390Y-65619523D02*
X67241009Y-65667142D01*
X67241009Y-65667142D02*
X67288628Y-65762380D01*
X67288628Y-65762380D02*
X67288628Y-66143332D01*
X91253333Y-98149580D02*
X91205714Y-98197200D01*
X91205714Y-98197200D02*
X91062857Y-98244819D01*
X91062857Y-98244819D02*
X90967619Y-98244819D01*
X90967619Y-98244819D02*
X90824762Y-98197200D01*
X90824762Y-98197200D02*
X90729524Y-98101961D01*
X90729524Y-98101961D02*
X90681905Y-98006723D01*
X90681905Y-98006723D02*
X90634286Y-97816247D01*
X90634286Y-97816247D02*
X90634286Y-97673390D01*
X90634286Y-97673390D02*
X90681905Y-97482914D01*
X90681905Y-97482914D02*
X90729524Y-97387676D01*
X90729524Y-97387676D02*
X90824762Y-97292438D01*
X90824762Y-97292438D02*
X90967619Y-97244819D01*
X90967619Y-97244819D02*
X91062857Y-97244819D01*
X91062857Y-97244819D02*
X91205714Y-97292438D01*
X91205714Y-97292438D02*
X91253333Y-97340057D01*
X91586667Y-97244819D02*
X92253333Y-97244819D01*
X92253333Y-97244819D02*
X91824762Y-98244819D01*
X90015237Y-102054819D02*
X89443809Y-102054819D01*
X89729523Y-102054819D02*
X89729523Y-101054819D01*
X89729523Y-101054819D02*
X89634285Y-101197676D01*
X89634285Y-101197676D02*
X89539047Y-101292914D01*
X89539047Y-101292914D02*
X89443809Y-101340533D01*
X90634285Y-101054819D02*
X90729523Y-101054819D01*
X90729523Y-101054819D02*
X90824761Y-101102438D01*
X90824761Y-101102438D02*
X90872380Y-101150057D01*
X90872380Y-101150057D02*
X90919999Y-101245295D01*
X90919999Y-101245295D02*
X90967618Y-101435771D01*
X90967618Y-101435771D02*
X90967618Y-101673866D01*
X90967618Y-101673866D02*
X90919999Y-101864342D01*
X90919999Y-101864342D02*
X90872380Y-101959580D01*
X90872380Y-101959580D02*
X90824761Y-102007200D01*
X90824761Y-102007200D02*
X90729523Y-102054819D01*
X90729523Y-102054819D02*
X90634285Y-102054819D01*
X90634285Y-102054819D02*
X90539047Y-102007200D01*
X90539047Y-102007200D02*
X90491428Y-101959580D01*
X90491428Y-101959580D02*
X90443809Y-101864342D01*
X90443809Y-101864342D02*
X90396190Y-101673866D01*
X90396190Y-101673866D02*
X90396190Y-101435771D01*
X90396190Y-101435771D02*
X90443809Y-101245295D01*
X90443809Y-101245295D02*
X90491428Y-101150057D01*
X90491428Y-101150057D02*
X90539047Y-101102438D01*
X90539047Y-101102438D02*
X90634285Y-101054819D01*
X91586666Y-101054819D02*
X91681904Y-101054819D01*
X91681904Y-101054819D02*
X91777142Y-101102438D01*
X91777142Y-101102438D02*
X91824761Y-101150057D01*
X91824761Y-101150057D02*
X91872380Y-101245295D01*
X91872380Y-101245295D02*
X91919999Y-101435771D01*
X91919999Y-101435771D02*
X91919999Y-101673866D01*
X91919999Y-101673866D02*
X91872380Y-101864342D01*
X91872380Y-101864342D02*
X91824761Y-101959580D01*
X91824761Y-101959580D02*
X91777142Y-102007200D01*
X91777142Y-102007200D02*
X91681904Y-102054819D01*
X91681904Y-102054819D02*
X91586666Y-102054819D01*
X91586666Y-102054819D02*
X91491428Y-102007200D01*
X91491428Y-102007200D02*
X91443809Y-101959580D01*
X91443809Y-101959580D02*
X91396190Y-101864342D01*
X91396190Y-101864342D02*
X91348571Y-101673866D01*
X91348571Y-101673866D02*
X91348571Y-101435771D01*
X91348571Y-101435771D02*
X91396190Y-101245295D01*
X91396190Y-101245295D02*
X91443809Y-101150057D01*
X91443809Y-101150057D02*
X91491428Y-101102438D01*
X91491428Y-101102438D02*
X91586666Y-101054819D01*
X92348571Y-101388152D02*
X92348571Y-102054819D01*
X92348571Y-101483390D02*
X92396190Y-101435771D01*
X92396190Y-101435771D02*
X92491428Y-101388152D01*
X92491428Y-101388152D02*
X92634285Y-101388152D01*
X92634285Y-101388152D02*
X92729523Y-101435771D01*
X92729523Y-101435771D02*
X92777142Y-101531009D01*
X92777142Y-101531009D02*
X92777142Y-102054819D01*
X93110476Y-101388152D02*
X93491428Y-101388152D01*
X93253333Y-102054819D02*
X93253333Y-101197676D01*
X93253333Y-101197676D02*
X93300952Y-101102438D01*
X93300952Y-101102438D02*
X93396190Y-101054819D01*
X93396190Y-101054819D02*
X93491428Y-101054819D01*
X106528333Y-98149580D02*
X106480714Y-98197200D01*
X106480714Y-98197200D02*
X106337857Y-98244819D01*
X106337857Y-98244819D02*
X106242619Y-98244819D01*
X106242619Y-98244819D02*
X106099762Y-98197200D01*
X106099762Y-98197200D02*
X106004524Y-98101961D01*
X106004524Y-98101961D02*
X105956905Y-98006723D01*
X105956905Y-98006723D02*
X105909286Y-97816247D01*
X105909286Y-97816247D02*
X105909286Y-97673390D01*
X105909286Y-97673390D02*
X105956905Y-97482914D01*
X105956905Y-97482914D02*
X106004524Y-97387676D01*
X106004524Y-97387676D02*
X106099762Y-97292438D01*
X106099762Y-97292438D02*
X106242619Y-97244819D01*
X106242619Y-97244819D02*
X106337857Y-97244819D01*
X106337857Y-97244819D02*
X106480714Y-97292438D01*
X106480714Y-97292438D02*
X106528333Y-97340057D01*
X107099762Y-97673390D02*
X107004524Y-97625771D01*
X107004524Y-97625771D02*
X106956905Y-97578152D01*
X106956905Y-97578152D02*
X106909286Y-97482914D01*
X106909286Y-97482914D02*
X106909286Y-97435295D01*
X106909286Y-97435295D02*
X106956905Y-97340057D01*
X106956905Y-97340057D02*
X107004524Y-97292438D01*
X107004524Y-97292438D02*
X107099762Y-97244819D01*
X107099762Y-97244819D02*
X107290238Y-97244819D01*
X107290238Y-97244819D02*
X107385476Y-97292438D01*
X107385476Y-97292438D02*
X107433095Y-97340057D01*
X107433095Y-97340057D02*
X107480714Y-97435295D01*
X107480714Y-97435295D02*
X107480714Y-97482914D01*
X107480714Y-97482914D02*
X107433095Y-97578152D01*
X107433095Y-97578152D02*
X107385476Y-97625771D01*
X107385476Y-97625771D02*
X107290238Y-97673390D01*
X107290238Y-97673390D02*
X107099762Y-97673390D01*
X107099762Y-97673390D02*
X107004524Y-97721009D01*
X107004524Y-97721009D02*
X106956905Y-97768628D01*
X106956905Y-97768628D02*
X106909286Y-97863866D01*
X106909286Y-97863866D02*
X106909286Y-98054342D01*
X106909286Y-98054342D02*
X106956905Y-98149580D01*
X106956905Y-98149580D02*
X107004524Y-98197200D01*
X107004524Y-98197200D02*
X107099762Y-98244819D01*
X107099762Y-98244819D02*
X107290238Y-98244819D01*
X107290238Y-98244819D02*
X107385476Y-98197200D01*
X107385476Y-98197200D02*
X107433095Y-98149580D01*
X107433095Y-98149580D02*
X107480714Y-98054342D01*
X107480714Y-98054342D02*
X107480714Y-97863866D01*
X107480714Y-97863866D02*
X107433095Y-97768628D01*
X107433095Y-97768628D02*
X107385476Y-97721009D01*
X107385476Y-97721009D02*
X107290238Y-97673390D01*
X105275237Y-102054819D02*
X104703809Y-102054819D01*
X104989523Y-102054819D02*
X104989523Y-101054819D01*
X104989523Y-101054819D02*
X104894285Y-101197676D01*
X104894285Y-101197676D02*
X104799047Y-101292914D01*
X104799047Y-101292914D02*
X104703809Y-101340533D01*
X105894285Y-101054819D02*
X105989523Y-101054819D01*
X105989523Y-101054819D02*
X106084761Y-101102438D01*
X106084761Y-101102438D02*
X106132380Y-101150057D01*
X106132380Y-101150057D02*
X106179999Y-101245295D01*
X106179999Y-101245295D02*
X106227618Y-101435771D01*
X106227618Y-101435771D02*
X106227618Y-101673866D01*
X106227618Y-101673866D02*
X106179999Y-101864342D01*
X106179999Y-101864342D02*
X106132380Y-101959580D01*
X106132380Y-101959580D02*
X106084761Y-102007200D01*
X106084761Y-102007200D02*
X105989523Y-102054819D01*
X105989523Y-102054819D02*
X105894285Y-102054819D01*
X105894285Y-102054819D02*
X105799047Y-102007200D01*
X105799047Y-102007200D02*
X105751428Y-101959580D01*
X105751428Y-101959580D02*
X105703809Y-101864342D01*
X105703809Y-101864342D02*
X105656190Y-101673866D01*
X105656190Y-101673866D02*
X105656190Y-101435771D01*
X105656190Y-101435771D02*
X105703809Y-101245295D01*
X105703809Y-101245295D02*
X105751428Y-101150057D01*
X105751428Y-101150057D02*
X105799047Y-101102438D01*
X105799047Y-101102438D02*
X105894285Y-101054819D01*
X106846666Y-101054819D02*
X106941904Y-101054819D01*
X106941904Y-101054819D02*
X107037142Y-101102438D01*
X107037142Y-101102438D02*
X107084761Y-101150057D01*
X107084761Y-101150057D02*
X107132380Y-101245295D01*
X107132380Y-101245295D02*
X107179999Y-101435771D01*
X107179999Y-101435771D02*
X107179999Y-101673866D01*
X107179999Y-101673866D02*
X107132380Y-101864342D01*
X107132380Y-101864342D02*
X107084761Y-101959580D01*
X107084761Y-101959580D02*
X107037142Y-102007200D01*
X107037142Y-102007200D02*
X106941904Y-102054819D01*
X106941904Y-102054819D02*
X106846666Y-102054819D01*
X106846666Y-102054819D02*
X106751428Y-102007200D01*
X106751428Y-102007200D02*
X106703809Y-101959580D01*
X106703809Y-101959580D02*
X106656190Y-101864342D01*
X106656190Y-101864342D02*
X106608571Y-101673866D01*
X106608571Y-101673866D02*
X106608571Y-101435771D01*
X106608571Y-101435771D02*
X106656190Y-101245295D01*
X106656190Y-101245295D02*
X106703809Y-101150057D01*
X106703809Y-101150057D02*
X106751428Y-101102438D01*
X106751428Y-101102438D02*
X106846666Y-101054819D01*
X107608571Y-101388152D02*
X107608571Y-102054819D01*
X107608571Y-101483390D02*
X107656190Y-101435771D01*
X107656190Y-101435771D02*
X107751428Y-101388152D01*
X107751428Y-101388152D02*
X107894285Y-101388152D01*
X107894285Y-101388152D02*
X107989523Y-101435771D01*
X107989523Y-101435771D02*
X108037142Y-101531009D01*
X108037142Y-101531009D02*
X108037142Y-102054819D01*
X108370476Y-101388152D02*
X108751428Y-101388152D01*
X108513333Y-102054819D02*
X108513333Y-101197676D01*
X108513333Y-101197676D02*
X108560952Y-101102438D01*
X108560952Y-101102438D02*
X108656190Y-101054819D01*
X108656190Y-101054819D02*
X108751428Y-101054819D01*
X70309819Y-67476666D02*
X69833628Y-67809999D01*
X70309819Y-68048094D02*
X69309819Y-68048094D01*
X69309819Y-68048094D02*
X69309819Y-67667142D01*
X69309819Y-67667142D02*
X69357438Y-67571904D01*
X69357438Y-67571904D02*
X69405057Y-67524285D01*
X69405057Y-67524285D02*
X69500295Y-67476666D01*
X69500295Y-67476666D02*
X69643152Y-67476666D01*
X69643152Y-67476666D02*
X69738390Y-67524285D01*
X69738390Y-67524285D02*
X69786009Y-67571904D01*
X69786009Y-67571904D02*
X69833628Y-67667142D01*
X69833628Y-67667142D02*
X69833628Y-68048094D01*
X70309819Y-67000475D02*
X70309819Y-66809999D01*
X70309819Y-66809999D02*
X70262200Y-66714761D01*
X70262200Y-66714761D02*
X70214580Y-66667142D01*
X70214580Y-66667142D02*
X70071723Y-66571904D01*
X70071723Y-66571904D02*
X69881247Y-66524285D01*
X69881247Y-66524285D02*
X69500295Y-66524285D01*
X69500295Y-66524285D02*
X69405057Y-66571904D01*
X69405057Y-66571904D02*
X69357438Y-66619523D01*
X69357438Y-66619523D02*
X69309819Y-66714761D01*
X69309819Y-66714761D02*
X69309819Y-66905237D01*
X69309819Y-66905237D02*
X69357438Y-67000475D01*
X69357438Y-67000475D02*
X69405057Y-67048094D01*
X69405057Y-67048094D02*
X69500295Y-67095713D01*
X69500295Y-67095713D02*
X69738390Y-67095713D01*
X69738390Y-67095713D02*
X69833628Y-67048094D01*
X69833628Y-67048094D02*
X69881247Y-67000475D01*
X69881247Y-67000475D02*
X69928866Y-66905237D01*
X69928866Y-66905237D02*
X69928866Y-66714761D01*
X69928866Y-66714761D02*
X69881247Y-66619523D01*
X69881247Y-66619523D02*
X69833628Y-66571904D01*
X69833628Y-66571904D02*
X69738390Y-66524285D01*
X71844819Y-69095713D02*
X71844819Y-68476666D01*
X71844819Y-68476666D02*
X72225771Y-68809999D01*
X72225771Y-68809999D02*
X72225771Y-68667142D01*
X72225771Y-68667142D02*
X72273390Y-68571904D01*
X72273390Y-68571904D02*
X72321009Y-68524285D01*
X72321009Y-68524285D02*
X72416247Y-68476666D01*
X72416247Y-68476666D02*
X72654342Y-68476666D01*
X72654342Y-68476666D02*
X72749580Y-68524285D01*
X72749580Y-68524285D02*
X72797200Y-68571904D01*
X72797200Y-68571904D02*
X72844819Y-68667142D01*
X72844819Y-68667142D02*
X72844819Y-68952856D01*
X72844819Y-68952856D02*
X72797200Y-69048094D01*
X72797200Y-69048094D02*
X72749580Y-69095713D01*
X72844819Y-68000475D02*
X72844819Y-67809999D01*
X72844819Y-67809999D02*
X72797200Y-67714761D01*
X72797200Y-67714761D02*
X72749580Y-67667142D01*
X72749580Y-67667142D02*
X72606723Y-67571904D01*
X72606723Y-67571904D02*
X72416247Y-67524285D01*
X72416247Y-67524285D02*
X72035295Y-67524285D01*
X72035295Y-67524285D02*
X71940057Y-67571904D01*
X71940057Y-67571904D02*
X71892438Y-67619523D01*
X71892438Y-67619523D02*
X71844819Y-67714761D01*
X71844819Y-67714761D02*
X71844819Y-67905237D01*
X71844819Y-67905237D02*
X71892438Y-68000475D01*
X71892438Y-68000475D02*
X71940057Y-68048094D01*
X71940057Y-68048094D02*
X72035295Y-68095713D01*
X72035295Y-68095713D02*
X72273390Y-68095713D01*
X72273390Y-68095713D02*
X72368628Y-68048094D01*
X72368628Y-68048094D02*
X72416247Y-68000475D01*
X72416247Y-68000475D02*
X72463866Y-67905237D01*
X72463866Y-67905237D02*
X72463866Y-67714761D01*
X72463866Y-67714761D02*
X72416247Y-67619523D01*
X72416247Y-67619523D02*
X72368628Y-67571904D01*
X72368628Y-67571904D02*
X72273390Y-67524285D01*
X71844819Y-66905237D02*
X71844819Y-66809999D01*
X71844819Y-66809999D02*
X71892438Y-66714761D01*
X71892438Y-66714761D02*
X71940057Y-66667142D01*
X71940057Y-66667142D02*
X72035295Y-66619523D01*
X72035295Y-66619523D02*
X72225771Y-66571904D01*
X72225771Y-66571904D02*
X72463866Y-66571904D01*
X72463866Y-66571904D02*
X72654342Y-66619523D01*
X72654342Y-66619523D02*
X72749580Y-66667142D01*
X72749580Y-66667142D02*
X72797200Y-66714761D01*
X72797200Y-66714761D02*
X72844819Y-66809999D01*
X72844819Y-66809999D02*
X72844819Y-66905237D01*
X72844819Y-66905237D02*
X72797200Y-67000475D01*
X72797200Y-67000475D02*
X72749580Y-67048094D01*
X72749580Y-67048094D02*
X72654342Y-67095713D01*
X72654342Y-67095713D02*
X72463866Y-67143332D01*
X72463866Y-67143332D02*
X72225771Y-67143332D01*
X72225771Y-67143332D02*
X72035295Y-67095713D01*
X72035295Y-67095713D02*
X71940057Y-67048094D01*
X71940057Y-67048094D02*
X71892438Y-67000475D01*
X71892438Y-67000475D02*
X71844819Y-66905237D01*
X72844819Y-65571904D02*
X72368628Y-65905237D01*
X72844819Y-66143332D02*
X71844819Y-66143332D01*
X71844819Y-66143332D02*
X71844819Y-65762380D01*
X71844819Y-65762380D02*
X71892438Y-65667142D01*
X71892438Y-65667142D02*
X71940057Y-65619523D01*
X71940057Y-65619523D02*
X72035295Y-65571904D01*
X72035295Y-65571904D02*
X72178152Y-65571904D01*
X72178152Y-65571904D02*
X72273390Y-65619523D01*
X72273390Y-65619523D02*
X72321009Y-65667142D01*
X72321009Y-65667142D02*
X72368628Y-65762380D01*
X72368628Y-65762380D02*
X72368628Y-66143332D01*
D11*
%TO.C,C5*%
X60195000Y-98775000D02*
X61725000Y-98775000D01*
X61725000Y-100615000D02*
X60195000Y-100615000D01*
%TO.C,R4*%
X96420000Y-64040000D02*
X96750000Y-64040000D01*
X96420000Y-70580000D02*
X96420000Y-64040000D01*
X96750000Y-70580000D02*
X96420000Y-70580000D01*
X98830000Y-70580000D02*
X99160000Y-70580000D01*
X99160000Y-64040000D02*
X98830000Y-64040000D01*
X99160000Y-70580000D02*
X99160000Y-64040000D01*
%TO.C,U1*%
X58350000Y-77760000D02*
X58350000Y-89880000D01*
X58350000Y-89880000D02*
X109270000Y-89880000D01*
X109270000Y-77760000D02*
X58350000Y-77760000D01*
X109270000Y-82820000D02*
X109270000Y-77760000D01*
X109270000Y-89880000D02*
X109270000Y-84820000D01*
X109270000Y-84820000D02*
G75*
G02*
X109270000Y-82820000I0J1000000D01*
G01*
%TO.C,R11*%
X60860000Y-64040000D02*
X61190000Y-64040000D01*
X60860000Y-70580000D02*
X60860000Y-64040000D01*
X61190000Y-70580000D02*
X60860000Y-70580000D01*
X63270000Y-70580000D02*
X63600000Y-70580000D01*
X63600000Y-64040000D02*
X63270000Y-64040000D01*
X63600000Y-70580000D02*
X63600000Y-64040000D01*
%TO.C,C3*%
X55120000Y-62580000D02*
X56650000Y-62580000D01*
X56650000Y-64420000D02*
X55120000Y-64420000D01*
%TO.C,R3*%
X86185000Y-126270000D02*
X86185000Y-132810000D01*
X86185000Y-132810000D02*
X86515000Y-132810000D01*
X86515000Y-126270000D02*
X86185000Y-126270000D01*
X88595000Y-126270000D02*
X88925000Y-126270000D01*
X88925000Y-126270000D02*
X88925000Y-132810000D01*
X88925000Y-132810000D02*
X88595000Y-132810000D01*
%TO.C,C6*%
X75435000Y-98775000D02*
X76965000Y-98775000D01*
X76965000Y-100615000D02*
X75435000Y-100615000D01*
%TO.C,R1*%
X96415000Y-126270000D02*
X96415000Y-132810000D01*
X96415000Y-132810000D02*
X96745000Y-132810000D01*
X96745000Y-126270000D02*
X96415000Y-126270000D01*
X98825000Y-126270000D02*
X99155000Y-126270000D01*
X99155000Y-126270000D02*
X99155000Y-132810000D01*
X99155000Y-132810000D02*
X98825000Y-132810000D01*
%TO.C,SW1*%
X101720000Y-124590000D02*
X101720000Y-134490000D01*
X104775000Y-128863333D02*
X103505000Y-128863333D01*
X107315000Y-128863333D02*
X106045000Y-128863333D01*
X109855000Y-128863333D02*
X108585000Y-128863333D01*
X111640000Y-124590000D02*
X101720000Y-124590000D01*
X111640000Y-124590000D02*
X111640000Y-134490000D01*
X111640000Y-134490000D02*
X101720000Y-134490000D01*
X111880000Y-124350000D02*
X110497000Y-124350000D01*
X111880000Y-124350000D02*
X111880000Y-125733000D01*
X104775000Y-127510000D02*
X103505000Y-127510000D01*
X103505000Y-128863333D01*
X104775000Y-128863333D01*
X104775000Y-127510000D01*
G36*
X104775000Y-127510000D02*
G01*
X103505000Y-127510000D01*
X103505000Y-128863333D01*
X104775000Y-128863333D01*
X104775000Y-127510000D01*
G37*
X104775000Y-127510000D02*
X103505000Y-127510000D01*
X103505000Y-131570000D01*
X104775000Y-131570000D01*
X104775000Y-127510000D01*
X107315000Y-127510000D02*
X106045000Y-127510000D01*
X106045000Y-128863333D01*
X107315000Y-128863333D01*
X107315000Y-127510000D01*
G36*
X107315000Y-127510000D02*
G01*
X106045000Y-127510000D01*
X106045000Y-128863333D01*
X107315000Y-128863333D01*
X107315000Y-127510000D01*
G37*
X107315000Y-127510000D02*
X106045000Y-127510000D01*
X106045000Y-131570000D01*
X107315000Y-131570000D01*
X107315000Y-127510000D01*
X109855000Y-127510000D02*
X108585000Y-127510000D01*
X108585000Y-128863333D01*
X109855000Y-128863333D01*
X109855000Y-127510000D01*
G36*
X109855000Y-127510000D02*
G01*
X108585000Y-127510000D01*
X108585000Y-128863333D01*
X109855000Y-128863333D01*
X109855000Y-127510000D01*
G37*
X109855000Y-127510000D02*
X108585000Y-127510000D01*
X108585000Y-131570000D01*
X109855000Y-131570000D01*
X109855000Y-127510000D01*
%TO.C,R8*%
X76100000Y-64040000D02*
X76100000Y-70580000D01*
X76100000Y-70580000D02*
X76430000Y-70580000D01*
X76430000Y-64040000D02*
X76100000Y-64040000D01*
X78510000Y-64040000D02*
X78840000Y-64040000D01*
X78840000Y-64040000D02*
X78840000Y-70580000D01*
X78840000Y-70580000D02*
X78510000Y-70580000D01*
%TO.C,R2*%
X91335000Y-126270000D02*
X91335000Y-132810000D01*
X91335000Y-132810000D02*
X91665000Y-132810000D01*
X91665000Y-126270000D02*
X91335000Y-126270000D01*
X93745000Y-126270000D02*
X94075000Y-126270000D01*
X94075000Y-126270000D02*
X94075000Y-132810000D01*
X94075000Y-132810000D02*
X93745000Y-132810000D01*
%TO.C,CO3*%
X84975000Y-55990000D02*
X84975000Y-54610000D01*
X86355000Y-55990000D02*
X84975000Y-55990000D01*
X87625000Y-53230000D02*
X92815000Y-53230000D01*
X87625000Y-55990000D02*
X87625000Y-53230000D01*
X87625000Y-55990000D02*
X92815000Y-55990000D01*
X92815000Y-55990000D02*
X92815000Y-53230000D01*
%TO.C,C4*%
X55100000Y-70200000D02*
X56630000Y-70200000D01*
X56630000Y-72040000D02*
X55100000Y-72040000D01*
%TO.C,C2*%
X62230225Y-52500000D02*
X62730225Y-52500000D01*
X62480225Y-52250000D02*
X62480225Y-52750000D01*
X65035000Y-51395000D02*
X65035000Y-52935000D01*
X65035000Y-55015000D02*
X65035000Y-56555000D01*
X65075000Y-51395000D02*
X65075000Y-52935000D01*
X65075000Y-55015000D02*
X65075000Y-56555000D01*
X65115000Y-51396000D02*
X65115000Y-52935000D01*
X65115000Y-55015000D02*
X65115000Y-56554000D01*
X65155000Y-51398000D02*
X65155000Y-52935000D01*
X65155000Y-55015000D02*
X65155000Y-56552000D01*
X65195000Y-51400000D02*
X65195000Y-52935000D01*
X65195000Y-55015000D02*
X65195000Y-56550000D01*
X65235000Y-51403000D02*
X65235000Y-52935000D01*
X65235000Y-55015000D02*
X65235000Y-56547000D01*
X65275000Y-51406000D02*
X65275000Y-52935000D01*
X65275000Y-55015000D02*
X65275000Y-56544000D01*
X65315000Y-51410000D02*
X65315000Y-52935000D01*
X65315000Y-55015000D02*
X65315000Y-56540000D01*
X65355000Y-51415000D02*
X65355000Y-52935000D01*
X65355000Y-55015000D02*
X65355000Y-56535000D01*
X65395000Y-51420000D02*
X65395000Y-52935000D01*
X65395000Y-55015000D02*
X65395000Y-56530000D01*
X65435000Y-51426000D02*
X65435000Y-52935000D01*
X65435000Y-55015000D02*
X65435000Y-56524000D01*
X65475000Y-51432000D02*
X65475000Y-52935000D01*
X65475000Y-55015000D02*
X65475000Y-56518000D01*
X65515000Y-51439000D02*
X65515000Y-52935000D01*
X65515000Y-55015000D02*
X65515000Y-56511000D01*
X65555000Y-51447000D02*
X65555000Y-52935000D01*
X65555000Y-55015000D02*
X65555000Y-56503000D01*
X65595000Y-51456000D02*
X65595000Y-52935000D01*
X65595000Y-55015000D02*
X65595000Y-56494000D01*
X65635000Y-51465000D02*
X65635000Y-52935000D01*
X65635000Y-55015000D02*
X65635000Y-56485000D01*
X65675000Y-51474000D02*
X65675000Y-52935000D01*
X65675000Y-55015000D02*
X65675000Y-56476000D01*
X65715000Y-51485000D02*
X65715000Y-52935000D01*
X65715000Y-55015000D02*
X65715000Y-56465000D01*
X65755000Y-51496000D02*
X65755000Y-52935000D01*
X65755000Y-55015000D02*
X65755000Y-56454000D01*
X65795000Y-51508000D02*
X65795000Y-52935000D01*
X65795000Y-55015000D02*
X65795000Y-56442000D01*
X65835000Y-51520000D02*
X65835000Y-52935000D01*
X65835000Y-55015000D02*
X65835000Y-56430000D01*
X65875000Y-51533000D02*
X65875000Y-52935000D01*
X65875000Y-55015000D02*
X65875000Y-56417000D01*
X65915000Y-51547000D02*
X65915000Y-52935000D01*
X65915000Y-55015000D02*
X65915000Y-56403000D01*
X65955000Y-51562000D02*
X65955000Y-52935000D01*
X65955000Y-55015000D02*
X65955000Y-56388000D01*
X65995000Y-51577000D02*
X65995000Y-52935000D01*
X65995000Y-55015000D02*
X65995000Y-56373000D01*
X66035000Y-51593000D02*
X66035000Y-52935000D01*
X66035000Y-55015000D02*
X66035000Y-56357000D01*
X66075000Y-51610000D02*
X66075000Y-52935000D01*
X66075000Y-55015000D02*
X66075000Y-56340000D01*
X66115000Y-51628000D02*
X66115000Y-52935000D01*
X66115000Y-55015000D02*
X66115000Y-56322000D01*
X66155000Y-51646000D02*
X66155000Y-52935000D01*
X66155000Y-55015000D02*
X66155000Y-56304000D01*
X66195000Y-51666000D02*
X66195000Y-52935000D01*
X66195000Y-55015000D02*
X66195000Y-56284000D01*
X66235000Y-51686000D02*
X66235000Y-52935000D01*
X66235000Y-55015000D02*
X66235000Y-56264000D01*
X66275000Y-51707000D02*
X66275000Y-52935000D01*
X66275000Y-55015000D02*
X66275000Y-56243000D01*
X66315000Y-51729000D02*
X66315000Y-52935000D01*
X66315000Y-55015000D02*
X66315000Y-56221000D01*
X66355000Y-51752000D02*
X66355000Y-52935000D01*
X66355000Y-55015000D02*
X66355000Y-56198000D01*
X66395000Y-51776000D02*
X66395000Y-52935000D01*
X66395000Y-55015000D02*
X66395000Y-56174000D01*
X66435000Y-51800000D02*
X66435000Y-52935000D01*
X66435000Y-55015000D02*
X66435000Y-56150000D01*
X66475000Y-51826000D02*
X66475000Y-52935000D01*
X66475000Y-55015000D02*
X66475000Y-56124000D01*
X66515000Y-51853000D02*
X66515000Y-52935000D01*
X66515000Y-55015000D02*
X66515000Y-56097000D01*
X66555000Y-51881000D02*
X66555000Y-52935000D01*
X66555000Y-55015000D02*
X66555000Y-56069000D01*
X66595000Y-51910000D02*
X66595000Y-52935000D01*
X66595000Y-55015000D02*
X66595000Y-56040000D01*
X66635000Y-51940000D02*
X66635000Y-52935000D01*
X66635000Y-55015000D02*
X66635000Y-56010000D01*
X66675000Y-51972000D02*
X66675000Y-52935000D01*
X66675000Y-55015000D02*
X66675000Y-55978000D01*
X66715000Y-52005000D02*
X66715000Y-52935000D01*
X66715000Y-55015000D02*
X66715000Y-55945000D01*
X66755000Y-52039000D02*
X66755000Y-52935000D01*
X66755000Y-55015000D02*
X66755000Y-55911000D01*
X66795000Y-52074000D02*
X66795000Y-52935000D01*
X66795000Y-55015000D02*
X66795000Y-55876000D01*
X66835000Y-52111000D02*
X66835000Y-52935000D01*
X66835000Y-55015000D02*
X66835000Y-55839000D01*
X66875000Y-52150000D02*
X66875000Y-52935000D01*
X66875000Y-55015000D02*
X66875000Y-55800000D01*
X66915000Y-52190000D02*
X66915000Y-52935000D01*
X66915000Y-55015000D02*
X66915000Y-55760000D01*
X66955000Y-52232000D02*
X66955000Y-52935000D01*
X66955000Y-55015000D02*
X66955000Y-55718000D01*
X66995000Y-52276000D02*
X66995000Y-52935000D01*
X66995000Y-55015000D02*
X66995000Y-55674000D01*
X67035000Y-52323000D02*
X67035000Y-52935000D01*
X67035000Y-55015000D02*
X67035000Y-55627000D01*
X67075000Y-52371000D02*
X67075000Y-55579000D01*
X67115000Y-52422000D02*
X67115000Y-55528000D01*
X67155000Y-52476000D02*
X67155000Y-55474000D01*
X67195000Y-52532000D02*
X67195000Y-55418000D01*
X67235000Y-52592000D02*
X67235000Y-55358000D01*
X67275000Y-52656000D02*
X67275000Y-55294000D01*
X67315000Y-52724000D02*
X67315000Y-55226000D01*
X67355000Y-52798000D02*
X67355000Y-55152000D01*
X67395000Y-52877000D02*
X67395000Y-55073000D01*
X67435000Y-52964000D02*
X67435000Y-54986000D01*
X67475000Y-53061000D02*
X67475000Y-54889000D01*
X67515000Y-53170000D02*
X67515000Y-54780000D01*
X67555000Y-53298000D02*
X67555000Y-54652000D01*
X67595000Y-53458000D02*
X67595000Y-54492000D01*
X67635000Y-53692000D02*
X67635000Y-54258000D01*
X67655000Y-53975000D02*
G75*
G02*
X62415000Y-53975000I-2620000J0D01*
G01*
X62415000Y-53975000D02*
G75*
G02*
X67655000Y-53975000I2620000J0D01*
G01*
%TO.C,R7*%
X81180000Y-64040000D02*
X81180000Y-70580000D01*
X81180000Y-70580000D02*
X81510000Y-70580000D01*
X81510000Y-64040000D02*
X81180000Y-64040000D01*
X83590000Y-64040000D02*
X83920000Y-64040000D01*
X83920000Y-64040000D02*
X83920000Y-70580000D01*
X83920000Y-70580000D02*
X83590000Y-70580000D01*
%TO.C,R5*%
X91340000Y-64040000D02*
X91670000Y-64040000D01*
X91340000Y-70580000D02*
X91340000Y-64040000D01*
X91670000Y-70580000D02*
X91340000Y-70580000D01*
X93750000Y-70580000D02*
X94080000Y-70580000D01*
X94080000Y-64040000D02*
X93750000Y-64040000D01*
X94080000Y-70580000D02*
X94080000Y-64040000D01*
D14*
%TO.C,CO2*%
X100718102Y-46213000D02*
X100718102Y-57402218D01*
X100718102Y-58277782D02*
X100718102Y-60467000D01*
X100718102Y-60467000D02*
X112972098Y-60467000D01*
X112972098Y-46213000D02*
X100718102Y-46213000D01*
X112972098Y-57402218D02*
X112972098Y-46213000D01*
X112972098Y-60467000D02*
X112972098Y-58277782D01*
D15*
X115131099Y-57840000D02*
G75*
G02*
X114369099Y-57840000I-381000J0D01*
G01*
X114369099Y-57840000D02*
G75*
G02*
X115131099Y-57840000I381000J0D01*
G01*
D11*
%TO.C,U4*%
X88205000Y-102810000D02*
X88205000Y-120710000D01*
X88205000Y-120710000D02*
X94675000Y-120710000D01*
X90440000Y-102810000D02*
X88205000Y-102810000D01*
X94675000Y-102810000D02*
X92440000Y-102810000D01*
X94675000Y-120710000D02*
X94675000Y-102810000D01*
X92440000Y-102810000D02*
G75*
G02*
X90440000Y-102810000I-1000000J0D01*
G01*
%TO.C,U5*%
X103445000Y-102810000D02*
X103445000Y-120710000D01*
X103445000Y-120710000D02*
X109915000Y-120710000D01*
X105680000Y-102810000D02*
X103445000Y-102810000D01*
X109915000Y-102810000D02*
X107680000Y-102810000D01*
X109915000Y-120710000D02*
X109915000Y-102810000D01*
X107680000Y-102810000D02*
G75*
G02*
X105680000Y-102810000I-1000000J0D01*
G01*
%TO.C,C1*%
X69310225Y-52500000D02*
X69810225Y-52500000D01*
X69560225Y-52250000D02*
X69560225Y-52750000D01*
X72115000Y-51395000D02*
X72115000Y-52935000D01*
X72115000Y-55015000D02*
X72115000Y-56555000D01*
X72155000Y-51395000D02*
X72155000Y-52935000D01*
X72155000Y-55015000D02*
X72155000Y-56555000D01*
X72195000Y-51396000D02*
X72195000Y-52935000D01*
X72195000Y-55015000D02*
X72195000Y-56554000D01*
X72235000Y-51398000D02*
X72235000Y-52935000D01*
X72235000Y-55015000D02*
X72235000Y-56552000D01*
X72275000Y-51400000D02*
X72275000Y-52935000D01*
X72275000Y-55015000D02*
X72275000Y-56550000D01*
X72315000Y-51403000D02*
X72315000Y-52935000D01*
X72315000Y-55015000D02*
X72315000Y-56547000D01*
X72355000Y-51406000D02*
X72355000Y-52935000D01*
X72355000Y-55015000D02*
X72355000Y-56544000D01*
X72395000Y-51410000D02*
X72395000Y-52935000D01*
X72395000Y-55015000D02*
X72395000Y-56540000D01*
X72435000Y-51415000D02*
X72435000Y-52935000D01*
X72435000Y-55015000D02*
X72435000Y-56535000D01*
X72475000Y-51420000D02*
X72475000Y-52935000D01*
X72475000Y-55015000D02*
X72475000Y-56530000D01*
X72515000Y-51426000D02*
X72515000Y-52935000D01*
X72515000Y-55015000D02*
X72515000Y-56524000D01*
X72555000Y-51432000D02*
X72555000Y-52935000D01*
X72555000Y-55015000D02*
X72555000Y-56518000D01*
X72595000Y-51439000D02*
X72595000Y-52935000D01*
X72595000Y-55015000D02*
X72595000Y-56511000D01*
X72635000Y-51447000D02*
X72635000Y-52935000D01*
X72635000Y-55015000D02*
X72635000Y-56503000D01*
X72675000Y-51456000D02*
X72675000Y-52935000D01*
X72675000Y-55015000D02*
X72675000Y-56494000D01*
X72715000Y-51465000D02*
X72715000Y-52935000D01*
X72715000Y-55015000D02*
X72715000Y-56485000D01*
X72755000Y-51474000D02*
X72755000Y-52935000D01*
X72755000Y-55015000D02*
X72755000Y-56476000D01*
X72795000Y-51485000D02*
X72795000Y-52935000D01*
X72795000Y-55015000D02*
X72795000Y-56465000D01*
X72835000Y-51496000D02*
X72835000Y-52935000D01*
X72835000Y-55015000D02*
X72835000Y-56454000D01*
X72875000Y-51508000D02*
X72875000Y-52935000D01*
X72875000Y-55015000D02*
X72875000Y-56442000D01*
X72915000Y-51520000D02*
X72915000Y-52935000D01*
X72915000Y-55015000D02*
X72915000Y-56430000D01*
X72955000Y-51533000D02*
X72955000Y-52935000D01*
X72955000Y-55015000D02*
X72955000Y-56417000D01*
X72995000Y-51547000D02*
X72995000Y-52935000D01*
X72995000Y-55015000D02*
X72995000Y-56403000D01*
X73035000Y-51562000D02*
X73035000Y-52935000D01*
X73035000Y-55015000D02*
X73035000Y-56388000D01*
X73075000Y-51577000D02*
X73075000Y-52935000D01*
X73075000Y-55015000D02*
X73075000Y-56373000D01*
X73115000Y-51593000D02*
X73115000Y-52935000D01*
X73115000Y-55015000D02*
X73115000Y-56357000D01*
X73155000Y-51610000D02*
X73155000Y-52935000D01*
X73155000Y-55015000D02*
X73155000Y-56340000D01*
X73195000Y-51628000D02*
X73195000Y-52935000D01*
X73195000Y-55015000D02*
X73195000Y-56322000D01*
X73235000Y-51646000D02*
X73235000Y-52935000D01*
X73235000Y-55015000D02*
X73235000Y-56304000D01*
X73275000Y-51666000D02*
X73275000Y-52935000D01*
X73275000Y-55015000D02*
X73275000Y-56284000D01*
X73315000Y-51686000D02*
X73315000Y-52935000D01*
X73315000Y-55015000D02*
X73315000Y-56264000D01*
X73355000Y-51707000D02*
X73355000Y-52935000D01*
X73355000Y-55015000D02*
X73355000Y-56243000D01*
X73395000Y-51729000D02*
X73395000Y-52935000D01*
X73395000Y-55015000D02*
X73395000Y-56221000D01*
X73435000Y-51752000D02*
X73435000Y-52935000D01*
X73435000Y-55015000D02*
X73435000Y-56198000D01*
X73475000Y-51776000D02*
X73475000Y-52935000D01*
X73475000Y-55015000D02*
X73475000Y-56174000D01*
X73515000Y-51800000D02*
X73515000Y-52935000D01*
X73515000Y-55015000D02*
X73515000Y-56150000D01*
X73555000Y-51826000D02*
X73555000Y-52935000D01*
X73555000Y-55015000D02*
X73555000Y-56124000D01*
X73595000Y-51853000D02*
X73595000Y-52935000D01*
X73595000Y-55015000D02*
X73595000Y-56097000D01*
X73635000Y-51881000D02*
X73635000Y-52935000D01*
X73635000Y-55015000D02*
X73635000Y-56069000D01*
X73675000Y-51910000D02*
X73675000Y-52935000D01*
X73675000Y-55015000D02*
X73675000Y-56040000D01*
X73715000Y-51940000D02*
X73715000Y-52935000D01*
X73715000Y-55015000D02*
X73715000Y-56010000D01*
X73755000Y-51972000D02*
X73755000Y-52935000D01*
X73755000Y-55015000D02*
X73755000Y-55978000D01*
X73795000Y-52005000D02*
X73795000Y-52935000D01*
X73795000Y-55015000D02*
X73795000Y-55945000D01*
X73835000Y-52039000D02*
X73835000Y-52935000D01*
X73835000Y-55015000D02*
X73835000Y-55911000D01*
X73875000Y-52074000D02*
X73875000Y-52935000D01*
X73875000Y-55015000D02*
X73875000Y-55876000D01*
X73915000Y-52111000D02*
X73915000Y-52935000D01*
X73915000Y-55015000D02*
X73915000Y-55839000D01*
X73955000Y-52150000D02*
X73955000Y-52935000D01*
X73955000Y-55015000D02*
X73955000Y-55800000D01*
X73995000Y-52190000D02*
X73995000Y-52935000D01*
X73995000Y-55015000D02*
X73995000Y-55760000D01*
X74035000Y-52232000D02*
X74035000Y-52935000D01*
X74035000Y-55015000D02*
X74035000Y-55718000D01*
X74075000Y-52276000D02*
X74075000Y-52935000D01*
X74075000Y-55015000D02*
X74075000Y-55674000D01*
X74115000Y-52323000D02*
X74115000Y-52935000D01*
X74115000Y-55015000D02*
X74115000Y-55627000D01*
X74155000Y-52371000D02*
X74155000Y-55579000D01*
X74195000Y-52422000D02*
X74195000Y-55528000D01*
X74235000Y-52476000D02*
X74235000Y-55474000D01*
X74275000Y-52532000D02*
X74275000Y-55418000D01*
X74315000Y-52592000D02*
X74315000Y-55358000D01*
X74355000Y-52656000D02*
X74355000Y-55294000D01*
X74395000Y-52724000D02*
X74395000Y-55226000D01*
X74435000Y-52798000D02*
X74435000Y-55152000D01*
X74475000Y-52877000D02*
X74475000Y-55073000D01*
X74515000Y-52964000D02*
X74515000Y-54986000D01*
X74555000Y-53061000D02*
X74555000Y-54889000D01*
X74595000Y-53170000D02*
X74595000Y-54780000D01*
X74635000Y-53298000D02*
X74635000Y-54652000D01*
X74675000Y-53458000D02*
X74675000Y-54492000D01*
X74715000Y-53692000D02*
X74715000Y-54258000D01*
X74735000Y-53975000D02*
G75*
G02*
X69495000Y-53975000I-2620000J0D01*
G01*
X69495000Y-53975000D02*
G75*
G02*
X74735000Y-53975000I2620000J0D01*
G01*
%TO.C,R6*%
X86260000Y-64040000D02*
X86260000Y-70580000D01*
X86260000Y-70580000D02*
X86590000Y-70580000D01*
X86590000Y-64040000D02*
X86260000Y-64040000D01*
X88670000Y-64040000D02*
X89000000Y-64040000D01*
X89000000Y-64040000D02*
X89000000Y-70580000D01*
X89000000Y-70580000D02*
X88670000Y-70580000D01*
%TO.C,C9*%
X110835000Y-90915000D02*
X110835000Y-89385000D01*
X112675000Y-89385000D02*
X112675000Y-90915000D01*
%TO.C,U3*%
X72965000Y-102810000D02*
X72965000Y-120710000D01*
X72965000Y-120710000D02*
X79435000Y-120710000D01*
X75200000Y-102810000D02*
X72965000Y-102810000D01*
X79435000Y-102810000D02*
X77200000Y-102810000D01*
X79435000Y-120710000D02*
X79435000Y-102810000D01*
X77200000Y-102810000D02*
G75*
G02*
X75200000Y-102810000I-1000000J0D01*
G01*
%TO.C,U2*%
X57725000Y-102810000D02*
X57725000Y-120710000D01*
X57725000Y-120710000D02*
X64195000Y-120710000D01*
X59960000Y-102810000D02*
X57725000Y-102810000D01*
X64195000Y-102810000D02*
X61960000Y-102810000D01*
X64195000Y-120710000D02*
X64195000Y-102810000D01*
X61960000Y-102810000D02*
G75*
G02*
X59960000Y-102810000I-1000000J0D01*
G01*
%TO.C,R10*%
X65940000Y-64040000D02*
X65940000Y-70580000D01*
X65940000Y-70580000D02*
X66270000Y-70580000D01*
X66270000Y-64040000D02*
X65940000Y-64040000D01*
X68350000Y-64040000D02*
X68680000Y-64040000D01*
X68680000Y-64040000D02*
X68680000Y-70580000D01*
X68680000Y-70580000D02*
X68350000Y-70580000D01*
%TO.C,C7*%
X90675000Y-98775000D02*
X92205000Y-98775000D01*
X92205000Y-100615000D02*
X90675000Y-100615000D01*
%TO.C,C8*%
X105915000Y-98775000D02*
X107445000Y-98775000D01*
X107445000Y-100615000D02*
X105915000Y-100615000D01*
%TO.C,R9*%
X71020000Y-64040000D02*
X71020000Y-70580000D01*
X71020000Y-70580000D02*
X71350000Y-70580000D01*
X71350000Y-64040000D02*
X71020000Y-64040000D01*
X73430000Y-64040000D02*
X73760000Y-64040000D01*
X73760000Y-64040000D02*
X73760000Y-70580000D01*
X73760000Y-70580000D02*
X73430000Y-70580000D01*
%TD*%
M02*
