%TF.GenerationSoftware,KiCad,Pcbnew,9.0.3*%
%TF.CreationDate,2025-08-12T14:11:43+01:00*%
%TF.ProjectId,MyZON-X,4d795a4f-4e2d-4582-9e6b-696361645f70,1.0*%
%TF.SameCoordinates,Original*%
%TF.FileFunction,Copper,L1,Top*%
%TF.FilePolarity,Positive*%
%FSLAX46Y46*%
G04 Gerber Fmt 4.6, Leading zero omitted, Abs format (unit mm)*
G04 Created by KiCad (PCBNEW 9.0.3) date 2025-08-12 14:11:43*
%MOMM*%
%LPD*%
G01*
G04 APERTURE LIST*
G04 Aperture macros list*
%AMRoundRect*
0 Rectangle with rounded corners*
0 $1 Rounding radius*
0 $2 $3 $4 $5 $6 $7 $8 $9 X,Y pos of 4 corners*
0 Add a 4 corners polygon primitive as box body*
4,1,4,$2,$3,$4,$5,$6,$7,$8,$9,$2,$3,0*
0 Add four circle primitives for the rounded corners*
1,1,$1+$1,$2,$3*
1,1,$1+$1,$4,$5*
1,1,$1+$1,$6,$7*
1,1,$1+$1,$8,$9*
0 Add four rect primitives between the rounded corners*
20,1,$1+$1,$2,$3,$4,$5,0*
20,1,$1+$1,$4,$5,$6,$7,0*
20,1,$1+$1,$6,$7,$8,$9,0*
20,1,$1+$1,$8,$9,$2,$3,0*%
G04 Aperture macros list end*
%TA.AperFunction,ComponentPad*%
%ADD10C,1.600000*%
%TD*%
%TA.AperFunction,ComponentPad*%
%ADD11RoundRect,0.250000X-0.550000X0.950000X-0.550000X-0.950000X0.550000X-0.950000X0.550000X0.950000X0*%
%TD*%
%TA.AperFunction,ComponentPad*%
%ADD12O,1.600000X2.400000*%
%TD*%
%TA.AperFunction,ConnectorPad*%
%ADD13R,1.778000X7.620000*%
%TD*%
%TA.AperFunction,ComponentPad*%
%ADD14RoundRect,0.250000X-0.550000X0.550000X-0.550000X-0.550000X0.550000X-0.550000X0.550000X0.550000X0*%
%TD*%
%TA.AperFunction,ComponentPad*%
%ADD15R,1.700000X1.700000*%
%TD*%
%TA.AperFunction,ComponentPad*%
%ADD16C,1.700000*%
%TD*%
%TA.AperFunction,ComponentPad*%
%ADD17RoundRect,0.250000X-0.550000X-0.550000X0.550000X-0.550000X0.550000X0.550000X-0.550000X0.550000X0*%
%TD*%
%TA.AperFunction,ComponentPad*%
%ADD18C,1.752600*%
%TD*%
%TA.AperFunction,ComponentPad*%
%ADD19RoundRect,0.250000X-0.950000X-0.550000X0.950000X-0.550000X0.950000X0.550000X-0.950000X0.550000X0*%
%TD*%
%TA.AperFunction,ComponentPad*%
%ADD20O,2.400000X1.600000*%
%TD*%
%TA.AperFunction,ViaPad*%
%ADD21C,0.600000*%
%TD*%
%TA.AperFunction,ViaPad*%
%ADD22C,0.800000*%
%TD*%
%TA.AperFunction,Conductor*%
%ADD23C,1.000000*%
%TD*%
%TA.AperFunction,Conductor*%
%ADD24C,0.200000*%
%TD*%
G04 APERTURE END LIST*
D10*
%TO.P,R12,1*%
%TO.N,GND*%
X57150000Y-59055000D03*
%TO.P,R12,2*%
%TO.N,GND_AUDIO*%
X57150000Y-51435000D03*
%TD*%
%TO.P,C5,1*%
%TO.N,VCC*%
X59710000Y-99695000D03*
%TO.P,C5,2*%
%TO.N,GND*%
X62210000Y-99695000D03*
%TD*%
%TO.P,R4,1*%
%TO.N,/OUTA*%
X102235000Y-71120000D03*
%TO.P,R4,2*%
%TO.N,Net-(C1-Pad1)*%
X102235000Y-63500000D03*
%TD*%
D11*
%TO.P,U1,1,GND*%
%TO.N,GND*%
X107940000Y-76200000D03*
D12*
%TO.P,U1,2,NC2*%
%TO.N,unconnected-(U1-NC2-Pad2)*%
X105400000Y-76200000D03*
%TO.P,U1,3,OUTB*%
%TO.N,/OUTB*%
X102860000Y-76200000D03*
%TO.P,U1,4,OUTA*%
%TO.N,/OUTA*%
X100320000Y-76200000D03*
%TO.P,U1,5,NC5*%
%TO.N,unconnected-(U1-NC5-Pad5)*%
X97780000Y-76200000D03*
%TO.P,U1,6,IOB7*%
%TO.N,unconnected-(U1-IOB7-Pad6)*%
X95240000Y-76200000D03*
%TO.P,U1,7,IOB6*%
%TO.N,unconnected-(U1-IOB6-Pad7)*%
X92700000Y-76200000D03*
%TO.P,U1,8,IOB5*%
%TO.N,unconnected-(U1-IOB5-Pad8)*%
X90160000Y-76200000D03*
%TO.P,U1,9,IOB4*%
%TO.N,unconnected-(U1-IOB4-Pad9)*%
X87620000Y-76200000D03*
%TO.P,U1,10,IOB3*%
%TO.N,unconnected-(U1-IOB3-Pad10)*%
X85080000Y-76200000D03*
%TO.P,U1,11,IOB2*%
%TO.N,unconnected-(U1-IOB2-Pad11)*%
X82540000Y-76200000D03*
%TO.P,U1,12,IOB1*%
%TO.N,unconnected-(U1-IOB1-Pad12)*%
X80000000Y-76200000D03*
%TO.P,U1,13,IOB0*%
%TO.N,unconnected-(U1-IOB0-Pad13)*%
X77460000Y-76200000D03*
%TO.P,U1,14,IOA7*%
%TO.N,unconnected-(U1-IOA7-Pad14)*%
X74920000Y-76200000D03*
%TO.P,U1,15,IOA6*%
%TO.N,unconnected-(U1-IOA6-Pad15)*%
X72380000Y-76200000D03*
%TO.P,U1,16,IOA5*%
%TO.N,unconnected-(U1-IOA5-Pad16)*%
X69840000Y-76200000D03*
%TO.P,U1,17,IOA4*%
%TO.N,unconnected-(U1-IOA4-Pad17)*%
X67300000Y-76200000D03*
%TO.P,U1,18,IOA3*%
%TO.N,unconnected-(U1-IOA3-Pad18)*%
X64760000Y-76200000D03*
%TO.P,U1,19,IOA2*%
%TO.N,unconnected-(U1-IOA2-Pad19)*%
X62220000Y-76200000D03*
%TO.P,U1,20,IOA1*%
%TO.N,unconnected-(U1-IOA1-Pad20)*%
X59680000Y-76200000D03*
%TO.P,U1,21,IOA0*%
%TO.N,unconnected-(U1-IOA0-Pad21)*%
X59680000Y-91440000D03*
%TO.P,U1,22,CLOCK*%
%TO.N,/PSGCLK*%
X62220000Y-91440000D03*
%TO.P,U1,23,RESET*%
%TO.N,/~{RESET}*%
X64760000Y-91440000D03*
%TO.P,U1,24,A9*%
%TO.N,VCC*%
X67300000Y-91440000D03*
%TO.P,U1,25,A8*%
X69840000Y-91440000D03*
%TO.P,U1,26,TEST2*%
%TO.N,unconnected-(U1-TEST2-Pad26)*%
X72380000Y-91440000D03*
%TO.P,U1,27,BDIR*%
%TO.N,/BDIR*%
X74920000Y-91440000D03*
%TO.P,U1,28,BC2*%
%TO.N,VCC*%
X77460000Y-91440000D03*
%TO.P,U1,29,BC1*%
%TO.N,/BC1*%
X80000000Y-91440000D03*
%TO.P,U1,30,D7*%
%TO.N,/D7*%
X82540000Y-91440000D03*
%TO.P,U1,31,D6*%
%TO.N,/D6*%
X85080000Y-91440000D03*
%TO.P,U1,32,D5*%
%TO.N,/D5*%
X87620000Y-91440000D03*
%TO.P,U1,33,D4*%
%TO.N,/D4*%
X90160000Y-91440000D03*
%TO.P,U1,34,D3*%
%TO.N,/D3*%
X92700000Y-91440000D03*
%TO.P,U1,35,D2*%
%TO.N,/D2*%
X95240000Y-91440000D03*
%TO.P,U1,36,D1*%
%TO.N,/D1*%
X97780000Y-91440000D03*
%TO.P,U1,37,D0*%
%TO.N,/D0*%
X100320000Y-91440000D03*
%TO.P,U1,38,OUTC*%
%TO.N,/OUTC*%
X102860000Y-91440000D03*
%TO.P,U1,39,TEST1*%
%TO.N,unconnected-(U1-TEST1-Pad39)*%
X105400000Y-91440000D03*
%TO.P,U1,40,VCC*%
%TO.N,VCC*%
X107940000Y-91440000D03*
%TD*%
D10*
%TO.P,R11,1*%
%TO.N,Net-(C2-Pad2)*%
X66675000Y-71120000D03*
%TO.P,R11,2*%
%TO.N,Net-(CO3-Pin_1)*%
X66675000Y-63500000D03*
%TD*%
%TO.P,C3,1*%
%TO.N,Net-(CO3-Pin_2)*%
X59080000Y-63500000D03*
%TO.P,C3,2*%
%TO.N,GND_AUDIO*%
X61580000Y-63500000D03*
%TD*%
%TO.P,R3,1*%
%TO.N,VCC*%
X87555000Y-125730000D03*
%TO.P,R3,2*%
%TO.N,Net-(R3-Pad2)*%
X87555000Y-133350000D03*
%TD*%
%TO.P,C6,1*%
%TO.N,VCC*%
X74950000Y-99695000D03*
%TO.P,C6,2*%
%TO.N,GND*%
X77450000Y-99695000D03*
%TD*%
D13*
%TO.P,CO1,B3,D7*%
%TO.N,/D7*%
X55874982Y-144780000D03*
%TO.P,CO1,B4,~{RAMCS}*%
%TO.N,unconnected-(CO1-~{RAMCS}-PadB4)*%
X58414982Y-144780000D03*
%TO.P,CO1,B6,D0*%
%TO.N,/D0*%
X63494982Y-144780000D03*
%TO.P,CO1,B7,D1*%
%TO.N,/D1*%
X66034982Y-144780000D03*
%TO.P,CO1,B8,D2*%
%TO.N,/D2*%
X68574982Y-144780000D03*
%TO.P,CO1,B9,D6*%
%TO.N,/D6*%
X71114982Y-144780000D03*
%TO.P,CO1,B10,D5*%
%TO.N,/D5*%
X73654982Y-144780000D03*
%TO.P,CO1,B11,D3*%
%TO.N,/D3*%
X76194982Y-144780000D03*
%TO.P,CO1,B12,D4*%
%TO.N,/D4*%
X78724982Y-144780000D03*
%TO.P,CO1,B13,~{INT}*%
%TO.N,unconnected-(CO1-~{INT}-PadB13)*%
X81274982Y-144780000D03*
%TO.P,CO1,B14,~{NMI}*%
%TO.N,unconnected-(CO1-~{NMI}-PadB14)*%
X83814982Y-144780000D03*
%TO.P,CO1,B15,~{HALT}*%
%TO.N,unconnected-(CO1-~{HALT}-PadB15)*%
X86354982Y-144780000D03*
%TO.P,CO1,B16,~{MREQ}*%
%TO.N,unconnected-(CO1-~{MREQ}-PadB16)*%
X88894982Y-144780000D03*
%TO.P,CO1,B17,~{IOREQ}*%
%TO.N,/~{IOREQ}*%
X91434982Y-144780000D03*
%TO.P,CO1,B18,~{RD}*%
%TO.N,/~{RD}*%
X93974982Y-144780000D03*
%TO.P,CO1,B19,~{WR}*%
%TO.N,/~{WR}*%
X96514982Y-144780000D03*
%TO.P,CO1,B20,~{BUSAC}*%
%TO.N,unconnected-(CO1-~{BUSAC}-PadB20)*%
X99054982Y-144780000D03*
%TO.P,CO1,B21,~{WAIT}*%
%TO.N,unconnected-(CO1-~{WAIT}-PadB21)*%
X101594982Y-144780000D03*
%TO.P,CO1,B22,~{BUSRQ}*%
%TO.N,unconnected-(CO1-~{BUSRQ}-PadB22)*%
X104134982Y-144780000D03*
%TO.P,CO1,B23,~{RESET}*%
%TO.N,/~{RESET}*%
X106674982Y-144780000D03*
%TO.P,CO1,B24,~{M1}*%
%TO.N,unconnected-(CO1-~{M1}-PadB24)*%
X109214982Y-144780000D03*
%TO.P,CO1,B25,~{RFSH}*%
%TO.N,unconnected-(CO1-~{RFSH}-PadB25)*%
X111754982Y-144780000D03*
%TD*%
D10*
%TO.P,R1,1*%
%TO.N,VCC*%
X97785000Y-125730000D03*
%TO.P,R1,2*%
%TO.N,Net-(R1-Pad2)*%
X97785000Y-133350000D03*
%TD*%
D14*
%TO.P,SW1,1*%
%TO.N,Net-(R3-Pad2)*%
X109220000Y-125730000D03*
D10*
%TO.P,SW1,2*%
%TO.N,Net-(R2-Pad2)*%
X106680000Y-125730000D03*
%TO.P,SW1,3*%
%TO.N,Net-(R1-Pad2)*%
X104140000Y-125730000D03*
%TO.P,SW1,4*%
%TO.N,/A6*%
X104140000Y-133350000D03*
%TO.P,SW1,5*%
%TO.N,/A5*%
X106680000Y-133350000D03*
%TO.P,SW1,6*%
%TO.N,/A4*%
X109220000Y-133350000D03*
%TD*%
%TO.P,R8,1*%
%TO.N,Net-(C1-Pad1)*%
X81915000Y-63500000D03*
%TO.P,R8,2*%
%TO.N,GND_AUDIO*%
X81915000Y-71120000D03*
%TD*%
%TO.P,R2,1*%
%TO.N,VCC*%
X92705000Y-125730000D03*
%TO.P,R2,2*%
%TO.N,Net-(R2-Pad2)*%
X92705000Y-133350000D03*
%TD*%
D15*
%TO.P,CO3,1,Pin_1*%
%TO.N,Net-(CO3-Pin_1)*%
X86355000Y-54610000D03*
D16*
%TO.P,CO3,2,Pin_2*%
%TO.N,Net-(CO3-Pin_2)*%
X88895000Y-54610000D03*
%TO.P,CO3,3,Pin_3*%
%TO.N,GND_AUDIO*%
X91435000Y-54610000D03*
%TD*%
D10*
%TO.P,C4,1*%
%TO.N,Net-(CO3-Pin_1)*%
X59060000Y-71120000D03*
%TO.P,C4,2*%
%TO.N,GND_AUDIO*%
X61560000Y-71120000D03*
%TD*%
D17*
%TO.P,C2,1*%
%TO.N,Net-(C2-Pad1)*%
X64035000Y-53975000D03*
D10*
%TO.P,C2,2*%
%TO.N,Net-(C2-Pad2)*%
X66035000Y-53975000D03*
%TD*%
%TO.P,R7,1*%
%TO.N,Net-(C1-Pad1)*%
X86995000Y-63500000D03*
%TO.P,R7,2*%
%TO.N,/OUTC*%
X86995000Y-71120000D03*
%TD*%
%TO.P,R5,1*%
%TO.N,/OUTB*%
X97155000Y-71120000D03*
%TO.P,R5,2*%
%TO.N,Net-(C2-Pad1)*%
X97155000Y-63500000D03*
%TD*%
D18*
%TO.P,CO2,1,1*%
%TO.N,unconnected-(CO2-Pad1)*%
X111845100Y-57840000D03*
%TO.P,CO2,2,2*%
%TO.N,Net-(CO3-Pin_2)*%
X109345100Y-57840000D03*
%TO.P,CO2,3,3*%
%TO.N,Net-(CO3-Pin_1)*%
X104345100Y-57840000D03*
%TO.P,CO2,4,4*%
%TO.N,unconnected-(CO2-Pad4)*%
X101845100Y-57840000D03*
%TO.P,CO2,5,5*%
%TO.N,GND_AUDIO*%
X106845100Y-52840000D03*
%TD*%
D19*
%TO.P,U4,1*%
%TO.N,/A3*%
X86360000Y-104140000D03*
D20*
%TO.P,U4,2*%
%TO.N,/A2*%
X86360000Y-106680000D03*
%TO.P,U4,3*%
%TO.N,Net-(U4-Pad12)*%
X86360000Y-109220000D03*
%TO.P,U4,4*%
%TO.N,/A0*%
X86360000Y-111760000D03*
%TO.P,U4,5*%
%TO.N,Net-(U4-Pad5)*%
X86360000Y-114300000D03*
%TO.P,U4,6*%
%TO.N,/VALID*%
X86360000Y-116840000D03*
%TO.P,U4,7,GND*%
%TO.N,GND*%
X86360000Y-119380000D03*
%TO.P,U4,8*%
%TO.N,Net-(U4-Pad5)*%
X96520000Y-119380000D03*
%TO.P,U4,9*%
%TO.N,Net-(R3-Pad2)*%
X96520000Y-116840000D03*
%TO.P,U4,10*%
%TO.N,Net-(R2-Pad2)*%
X96520000Y-114300000D03*
%TO.P,U4,11*%
%TO.N,Net-(R1-Pad2)*%
X96520000Y-111760000D03*
%TO.P,U4,12*%
%TO.N,Net-(U4-Pad12)*%
X96520000Y-109220000D03*
%TO.P,U4,13*%
%TO.N,/A1*%
X96520000Y-106680000D03*
%TO.P,U4,14,VCC*%
%TO.N,VCC*%
X96520000Y-104140000D03*
%TD*%
D19*
%TO.P,U5,1*%
%TO.N,/IOWR*%
X101600000Y-104140000D03*
D20*
%TO.P,U5,2*%
%TO.N,/~{IOREQ}*%
X101600000Y-106680000D03*
%TO.P,U5,3*%
%TO.N,/~{WR}*%
X101600000Y-109220000D03*
%TO.P,U5,4*%
%TO.N,Net-(U5-Pad11)*%
X101600000Y-111760000D03*
%TO.P,U5,5*%
%TO.N,Net-(U3-Pad6)*%
X101600000Y-114300000D03*
%TO.P,U5,6*%
%TO.N,Net-(U3-Pad11)*%
X101600000Y-116840000D03*
%TO.P,U5,7,GND*%
%TO.N,GND*%
X101600000Y-119380000D03*
%TO.P,U5,8*%
%TO.N,/~{IOREQ}*%
X111760000Y-119380000D03*
%TO.P,U5,9*%
%TO.N,/~{RD}*%
X111760000Y-116840000D03*
%TO.P,U5,10*%
%TO.N,/IORD*%
X111760000Y-114300000D03*
%TO.P,U5,11*%
%TO.N,Net-(U5-Pad11)*%
X111760000Y-111760000D03*
%TO.P,U5,12*%
X111760000Y-109220000D03*
%TO.P,U5,13*%
%TO.N,/BC1*%
X111760000Y-106680000D03*
%TO.P,U5,14,VCC*%
%TO.N,VCC*%
X111760000Y-104140000D03*
%TD*%
D17*
%TO.P,C1,1*%
%TO.N,Net-(C1-Pad1)*%
X71115000Y-53975000D03*
D10*
%TO.P,C1,2*%
%TO.N,Net-(C1-Pad2)*%
X73115000Y-53975000D03*
%TD*%
%TO.P,R6,1*%
%TO.N,Net-(C2-Pad1)*%
X92075000Y-63500000D03*
%TO.P,R6,2*%
%TO.N,/OUTC*%
X92075000Y-71120000D03*
%TD*%
%TO.P,C9,1*%
%TO.N,VCC*%
X111755000Y-88900000D03*
%TO.P,C9,2*%
%TO.N,GND*%
X111755000Y-91400000D03*
%TD*%
D19*
%TO.P,U3,1*%
%TO.N,/VALID*%
X71120000Y-104140000D03*
D20*
%TO.P,U3,2*%
%TO.N,/IOWR*%
X71120000Y-106680000D03*
%TO.P,U3,3*%
%TO.N,/BDIR*%
X71120000Y-109220000D03*
%TO.P,U3,4*%
X71120000Y-111760000D03*
%TO.P,U3,5*%
%TO.N,/A7*%
X71120000Y-114300000D03*
%TO.P,U3,6*%
%TO.N,Net-(U3-Pad6)*%
X71120000Y-116840000D03*
%TO.P,U3,7,GND*%
%TO.N,GND*%
X71120000Y-119380000D03*
%TO.P,U3,8*%
%TO.N,unconnected-(U3-Pad8)*%
X81280000Y-119380000D03*
%TO.P,U3,9*%
%TO.N,GND*%
X81280000Y-116840000D03*
%TO.P,U3,10*%
X81280000Y-114300000D03*
%TO.P,U3,11*%
%TO.N,Net-(U3-Pad11)*%
X81280000Y-111760000D03*
%TO.P,U3,12*%
%TO.N,/VALID*%
X81280000Y-109220000D03*
%TO.P,U3,13*%
%TO.N,/IORD*%
X81280000Y-106680000D03*
%TO.P,U3,14,VCC*%
%TO.N,VCC*%
X81280000Y-104140000D03*
%TD*%
D19*
%TO.P,U2,1,~{R}*%
%TO.N,VCC*%
X55880000Y-104140000D03*
D20*
%TO.P,U2,2,D*%
%TO.N,Net-(U2A-D)*%
X55880000Y-106680000D03*
%TO.P,U2,3,C*%
%TO.N,/CLK*%
X55880000Y-109220000D03*
%TO.P,U2,4,~{S}*%
%TO.N,VCC*%
X55880000Y-111760000D03*
%TO.P,U2,5,Q*%
%TO.N,/PSGCLK*%
X55880000Y-114300000D03*
%TO.P,U2,6,~{Q}*%
%TO.N,Net-(U2A-D)*%
X55880000Y-116840000D03*
%TO.P,U2,7,GND*%
%TO.N,GND*%
X55880000Y-119380000D03*
%TO.P,U2,8,~{Q}*%
%TO.N,unconnected-(U2B-~{Q}-Pad8)*%
X66040000Y-119380000D03*
%TO.P,U2,9,Q*%
%TO.N,unconnected-(U2B-Q-Pad9)*%
X66040000Y-116840000D03*
%TO.P,U2,10,~{S}*%
%TO.N,VCC*%
X66040000Y-114300000D03*
%TO.P,U2,11,C*%
X66040000Y-111760000D03*
%TO.P,U2,12,D*%
X66040000Y-109220000D03*
%TO.P,U2,13,~{R}*%
X66040000Y-106680000D03*
%TO.P,U2,14,VCC*%
X66040000Y-104140000D03*
%TD*%
D10*
%TO.P,R10,1*%
%TO.N,Net-(C1-Pad2)*%
X71755000Y-63500000D03*
%TO.P,R10,2*%
%TO.N,Net-(CO3-Pin_2)*%
X71755000Y-71120000D03*
%TD*%
%TO.P,C7,1*%
%TO.N,VCC*%
X90190000Y-99695000D03*
%TO.P,C7,2*%
%TO.N,GND*%
X92690000Y-99695000D03*
%TD*%
%TO.P,C8,1*%
%TO.N,VCC*%
X107930000Y-99695000D03*
%TO.P,C8,2*%
%TO.N,GND*%
X105430000Y-99695000D03*
%TD*%
%TO.P,R9,1*%
%TO.N,Net-(C2-Pad1)*%
X76835000Y-63500000D03*
%TO.P,R9,2*%
%TO.N,GND_AUDIO*%
X76835000Y-71120000D03*
%TD*%
D21*
%TO.N,/VALID*%
X87995500Y-121250400D03*
X79052300Y-118231000D03*
%TO.N,/BC1*%
X79472300Y-95180200D03*
%TO.N,Net-(R1-Pad2)*%
X98217900Y-124333200D03*
%TO.N,/D1*%
X65651300Y-93559200D03*
%TO.N,/D0*%
X64427300Y-94792800D03*
%TO.N,/A0*%
X81730200Y-138707300D03*
%TO.N,/A1*%
X74914500Y-139862900D03*
X79052300Y-114686800D03*
X87442200Y-115616900D03*
X88441600Y-107572400D03*
%TO.N,/A2*%
X82708500Y-138939800D03*
%TO.N,/~{RD}*%
X96033400Y-130492500D03*
%TO.N,/A3*%
X83282700Y-138105000D03*
%TO.N,/A7*%
X70176500Y-140394800D03*
%TO.N,/~{RESET}*%
X103384700Y-124628300D03*
X63653100Y-123841300D03*
%TO.N,Net-(CO3-Pin_1)*%
X66036000Y-68115500D03*
%TO.N,Net-(CO3-Pin_2)*%
X85263300Y-65315300D03*
%TO.N,/D7*%
X53467800Y-99902800D03*
%TO.N,/D2*%
X70900400Y-93204300D03*
%TO.N,/CLK*%
X55547300Y-140047300D03*
D22*
%TO.N,GND*%
X61628800Y-144254800D03*
%TD*%
D23*
%TO.N,GND_AUDIO*%
X61560000Y-63520000D02*
X61560000Y-64095900D01*
X61580000Y-63500000D02*
X61560000Y-63520000D01*
X61560000Y-64095900D02*
X61560000Y-71120000D01*
X61560000Y-55845000D02*
X57150000Y-51435000D01*
X61560000Y-64095900D02*
X61560000Y-55845000D01*
D24*
%TO.N,Net-(U5-Pad11)*%
X113261700Y-111760000D02*
X113261700Y-109220000D01*
X111760000Y-111760000D02*
X113261700Y-111760000D01*
X111760000Y-109220000D02*
X113261700Y-109220000D01*
%TO.N,/VALID*%
X87995500Y-116973800D02*
X87995500Y-121250400D01*
X87861700Y-116840000D02*
X87995500Y-116973800D01*
X79664000Y-109334300D02*
X79778300Y-109220000D01*
X79664000Y-117619300D02*
X79664000Y-109334300D01*
X79052300Y-118231000D02*
X79664000Y-117619300D01*
X81280000Y-109220000D02*
X79778300Y-109220000D01*
X79052300Y-118231000D02*
X79372200Y-117911100D01*
X79372200Y-117911100D02*
X79052300Y-118231000D01*
X86360000Y-116840000D02*
X87861700Y-116840000D01*
%TO.N,/BC1*%
X79472300Y-93469400D02*
X79472300Y-95180200D01*
X80000000Y-92941700D02*
X79472300Y-93469400D01*
X80000000Y-91440000D02*
X80000000Y-92941700D01*
%TO.N,/BDIR*%
X72621700Y-111760000D02*
X72621700Y-109220000D01*
X71120000Y-111760000D02*
X72621700Y-111760000D01*
X71120000Y-109220000D02*
X72521400Y-109220000D01*
X72521400Y-109220000D02*
X72621200Y-109220000D01*
X72621200Y-109220000D02*
X72621700Y-109220000D01*
X72691700Y-95170000D02*
X74920000Y-92941700D01*
X72691700Y-109149500D02*
X72691700Y-95170000D01*
X72621200Y-109220000D02*
X72691700Y-109149500D01*
X74920000Y-91440000D02*
X74920000Y-92941700D01*
%TO.N,/PSGCLK*%
X62220000Y-91440000D02*
X62220000Y-92941700D01*
X55880000Y-114300000D02*
X57381700Y-114300000D01*
X63222200Y-108459500D02*
X57381700Y-114300000D01*
X63222200Y-100581400D02*
X63222200Y-108459500D01*
X63370600Y-100433000D02*
X63222200Y-100581400D01*
X63370600Y-94092300D02*
X63370600Y-100433000D01*
X62220000Y-92941700D02*
X63370600Y-94092300D01*
%TO.N,/OUTC*%
X93970000Y-81048300D02*
X102860000Y-89938300D01*
X93970000Y-73015000D02*
X93970000Y-81048300D01*
X92075000Y-71120000D02*
X93970000Y-73015000D01*
X102860000Y-91440000D02*
X102860000Y-89938300D01*
%TO.N,/OUTA*%
X102235000Y-72783300D02*
X100320000Y-74698300D01*
X102235000Y-71120000D02*
X102235000Y-72783300D01*
X100320000Y-76200000D02*
X100320000Y-74698300D01*
%TO.N,Net-(R2-Pad2)*%
X96520000Y-114300000D02*
X95018300Y-114300000D01*
X95018300Y-131036700D02*
X92705000Y-133350000D01*
X95018300Y-114300000D02*
X95018300Y-131036700D01*
%TO.N,Net-(R1-Pad2)*%
X97785000Y-132085000D02*
X97785000Y-133350000D01*
X104140000Y-125730000D02*
X97785000Y-132085000D01*
X96520000Y-111760000D02*
X98021700Y-111760000D01*
X98217900Y-111956200D02*
X98021700Y-111760000D01*
X98217900Y-124333200D02*
X98217900Y-111956200D01*
%TO.N,/D1*%
X66035000Y-124521300D02*
X66035000Y-144780000D01*
X64427300Y-122913600D02*
X66035000Y-124521300D01*
X64427300Y-101333800D02*
X64427300Y-122913600D01*
X65651300Y-100109800D02*
X64427300Y-101333800D01*
X65651300Y-93559200D02*
X65651300Y-100109800D01*
%TO.N,/~{WR}*%
X101600000Y-109220000D02*
X100098300Y-109220000D01*
X99505100Y-114894300D02*
X99564000Y-114953200D01*
X99505100Y-109813200D02*
X99505100Y-114894300D01*
X100098300Y-109220000D02*
X99505100Y-109813200D01*
X99564000Y-114953200D02*
X99728800Y-115118000D01*
X99564000Y-114953200D02*
X99728800Y-115118000D01*
X99728800Y-126059600D02*
X99728800Y-115118000D01*
X96635100Y-129153300D02*
X99728800Y-126059600D01*
X96635100Y-140548200D02*
X96635100Y-129153300D01*
X96515000Y-140668300D02*
X96635100Y-140548200D01*
X96515000Y-144780000D02*
X96515000Y-140668300D01*
%TO.N,/D0*%
X63495000Y-144780000D02*
X63495000Y-140668300D01*
X64281500Y-139881800D02*
X63495000Y-140668300D01*
X64281500Y-123618500D02*
X64281500Y-139881800D01*
X64025600Y-123362600D02*
X64281500Y-123618500D01*
X64025600Y-100914000D02*
X64025600Y-123362600D01*
X64427300Y-100512300D02*
X64025600Y-100914000D01*
X64427300Y-94792800D02*
X64427300Y-100512300D01*
%TO.N,/D3*%
X89645200Y-89938300D02*
X92700000Y-89938300D01*
X88890000Y-90693500D02*
X89645200Y-89938300D01*
X88890000Y-92182600D02*
X88890000Y-90693500D01*
X88467700Y-92604900D02*
X88890000Y-92182600D01*
X88467700Y-97980300D02*
X88467700Y-92604900D01*
X82884700Y-103563300D02*
X88467700Y-97980300D01*
X82884700Y-131130800D02*
X82884700Y-103563300D01*
X76195000Y-137820500D02*
X82884700Y-131130800D01*
X76195000Y-140668300D02*
X76195000Y-137820500D01*
X76195000Y-144780000D02*
X76195000Y-140668300D01*
X92700000Y-91440000D02*
X92700000Y-89938300D01*
%TO.N,/A0*%
X81730200Y-138821300D02*
X81730200Y-138707300D01*
X82450500Y-139541600D02*
X81730200Y-138821300D01*
X83446600Y-139541600D02*
X82450500Y-139541600D01*
X84778500Y-138209700D02*
X83446600Y-139541600D01*
X84778500Y-111839800D02*
X84778500Y-138209700D01*
X84858300Y-111760000D02*
X84778500Y-111839800D01*
X86360000Y-111760000D02*
X84858300Y-111760000D01*
%TO.N,/A1*%
X88441600Y-114617500D02*
X88441600Y-107572400D01*
X87442200Y-115616900D02*
X88441600Y-114617500D01*
X74914500Y-118824600D02*
X74914500Y-139862900D01*
X79052300Y-114686800D02*
X74914500Y-118824600D01*
X87442200Y-115616900D02*
X87880300Y-115178800D01*
X87880300Y-115178800D02*
X87442200Y-115616900D01*
X79052300Y-114686800D02*
X77968600Y-115770500D01*
X77968600Y-115770500D02*
X79052300Y-114686800D01*
%TO.N,/~{IOREQ}*%
X101600000Y-106680000D02*
X100098300Y-106680000D01*
X100098300Y-107659100D02*
X100098300Y-106680000D01*
X97267400Y-110490000D02*
X100098300Y-107659100D01*
X95826400Y-110490000D02*
X97267400Y-110490000D01*
X91435000Y-114881400D02*
X95826400Y-110490000D01*
X91435000Y-144780000D02*
X91435000Y-114881400D01*
%TO.N,/A2*%
X86360000Y-106680000D02*
X84858300Y-106680000D01*
X83610600Y-138775100D02*
X83432700Y-138953000D01*
X83610600Y-138775100D02*
X83432700Y-138953000D01*
X83419500Y-138939800D02*
X82708500Y-138939800D01*
X83432700Y-138953000D02*
X83419500Y-138939800D01*
X84318400Y-107219900D02*
X84858300Y-106680000D01*
X84318400Y-138067300D02*
X84318400Y-107219900D01*
X83610600Y-138775100D02*
X84318400Y-138067300D01*
%TO.N,/D6*%
X71115000Y-123708200D02*
X71115000Y-144780000D01*
X73254200Y-121569000D02*
X71115000Y-123708200D01*
X73254200Y-107224900D02*
X73254200Y-121569000D01*
X85080000Y-95399100D02*
X73254200Y-107224900D01*
X85080000Y-91440000D02*
X85080000Y-95399100D01*
%TO.N,/~{RD}*%
X93975000Y-135801000D02*
X93975000Y-144780000D01*
X96033400Y-133742600D02*
X93975000Y-135801000D01*
X96033400Y-130492500D02*
X96033400Y-133742600D01*
%TO.N,/A3*%
X83916700Y-137471000D02*
X83282700Y-138105000D01*
X83916700Y-106583300D02*
X83916700Y-137471000D01*
X86360000Y-104140000D02*
X83916700Y-106583300D01*
%TO.N,/D4*%
X90160000Y-96856000D02*
X90160000Y-91440000D01*
X83448900Y-103567100D02*
X90160000Y-96856000D01*
X83448900Y-131717300D02*
X83448900Y-103567100D01*
X78725000Y-136441200D02*
X83448900Y-131717300D01*
X78725000Y-144780000D02*
X78725000Y-136441200D01*
%TO.N,/A7*%
X69554500Y-114363800D02*
X69618300Y-114300000D01*
X69554500Y-139772800D02*
X69554500Y-114363800D01*
X70176500Y-140394800D02*
X69554500Y-139772800D01*
X71120000Y-114300000D02*
X69618300Y-114300000D01*
%TO.N,/~{RESET}*%
X64760000Y-91440000D02*
X64760000Y-92941700D01*
X106675000Y-144780000D02*
X106675000Y-140668300D01*
X104612400Y-124628300D02*
X103384700Y-124628300D01*
X105551600Y-125567500D02*
X104612400Y-124628300D01*
X105551600Y-139544900D02*
X105551600Y-125567500D01*
X106675000Y-140668300D02*
X105551600Y-139544900D01*
X63623900Y-123812100D02*
X63653100Y-123841300D01*
X63623900Y-100747700D02*
X63623900Y-123812100D01*
X63799000Y-100572600D02*
X63623900Y-100747700D01*
X63799000Y-93902700D02*
X63799000Y-100572600D01*
X64760000Y-92941700D02*
X63799000Y-93902700D01*
%TO.N,Net-(CO3-Pin_1)*%
X66036000Y-64139000D02*
X66036000Y-68115500D01*
X66675000Y-63500000D02*
X66036000Y-64139000D01*
%TO.N,/D5*%
X87620000Y-91440000D02*
X87620000Y-92941700D01*
X73655000Y-144780000D02*
X73655000Y-140668300D01*
X73655000Y-140200800D02*
X73655000Y-140668300D01*
X74458400Y-139397400D02*
X73655000Y-140200800D01*
X74458400Y-106671300D02*
X74458400Y-139397400D01*
X87620000Y-93509700D02*
X74458400Y-106671300D01*
X87620000Y-92941700D02*
X87620000Y-93509700D01*
%TO.N,Net-(CO3-Pin_2)*%
X85263300Y-58241700D02*
X85263300Y-65315300D01*
X88895000Y-54610000D02*
X85263300Y-58241700D01*
%TO.N,/D7*%
X55875000Y-144780000D02*
X55875000Y-140668300D01*
X55317500Y-140668300D02*
X55875000Y-140668300D01*
X53467800Y-138818600D02*
X55317500Y-140668300D01*
X53467800Y-99902800D02*
X53467800Y-138818600D01*
%TO.N,/D2*%
X69088900Y-95015800D02*
X70900400Y-93204300D01*
X69088900Y-140154400D02*
X69088900Y-95015800D01*
X68575000Y-140668300D02*
X69088900Y-140154400D01*
X68575000Y-144780000D02*
X68575000Y-140668300D01*
%TO.N,/CLK*%
X54316900Y-138816900D02*
X55547300Y-140047300D01*
X54316900Y-109281400D02*
X54316900Y-138816900D01*
X54378300Y-109220000D02*
X54316900Y-109281400D01*
X55880000Y-109220000D02*
X54378300Y-109220000D01*
D23*
%TO.N,VCC*%
X67991700Y-114300000D02*
X67991700Y-111760000D01*
X66040000Y-114300000D02*
X67991700Y-114300000D01*
X67991700Y-110784200D02*
X67991700Y-109220000D01*
X67015900Y-111760000D02*
X67991700Y-110784200D01*
X66040000Y-111760000D02*
X67015900Y-111760000D01*
X67015900Y-111760000D02*
X67991700Y-111760000D01*
X66040000Y-109220000D02*
X67991700Y-109220000D01*
X107940000Y-99685000D02*
X107940000Y-91440000D01*
X107930000Y-99695000D02*
X107940000Y-99685000D01*
X67991700Y-104140000D02*
X67991700Y-106680000D01*
X66040000Y-104140000D02*
X67991700Y-104140000D01*
X67991700Y-94083400D02*
X67991700Y-104140000D01*
X67300000Y-93391700D02*
X67991700Y-94083400D01*
X67300000Y-91440000D02*
X67300000Y-93391700D01*
X77460000Y-97185000D02*
X74950000Y-99695000D01*
X77460000Y-91440000D02*
X77460000Y-97185000D01*
X90190000Y-123095000D02*
X90190000Y-99695000D01*
X87555000Y-125730000D02*
X90190000Y-123095000D01*
X67991700Y-107655800D02*
X67991700Y-109220000D01*
X67015900Y-106680000D02*
X67991700Y-107655800D01*
X66040000Y-106680000D02*
X67015900Y-106680000D01*
X67015900Y-106680000D02*
X67991700Y-106680000D01*
X66040000Y-109220000D02*
X67991700Y-109220000D01*
%TO.N,GND*%
X81280000Y-116840000D02*
X81280000Y-114300000D01*
X107940000Y-88330200D02*
X111009800Y-91400000D01*
X107940000Y-76200000D02*
X107940000Y-88330200D01*
X111009800Y-91400000D02*
X111755000Y-91400000D01*
X106992900Y-101257900D02*
X105430000Y-99695000D01*
X108576500Y-101257900D02*
X106992900Y-101257900D01*
X111009800Y-98824600D02*
X108576500Y-101257900D01*
X111009800Y-91400000D02*
X111009800Y-98824600D01*
X57150000Y-94635000D02*
X62210000Y-99695000D01*
X57150000Y-59055000D02*
X57150000Y-94635000D01*
X105430000Y-117501700D02*
X103551700Y-119380000D01*
X105430000Y-99695000D02*
X105430000Y-117501700D01*
X101600000Y-119380000D02*
X103551700Y-119380000D01*
X61628800Y-123177100D02*
X61628800Y-144254800D01*
X57831700Y-119380000D02*
X61628800Y-123177100D01*
X55880000Y-119380000D02*
X57831700Y-119380000D01*
D24*
%TO.N,Net-(C2-Pad2)*%
X65434300Y-69879300D02*
X66675000Y-71120000D01*
X65434300Y-54575700D02*
X65434300Y-69879300D01*
X66035000Y-53975000D02*
X65434300Y-54575700D01*
%TO.N,Net-(C1-Pad2)*%
X73115000Y-62140000D02*
X71755000Y-63500000D01*
X73115000Y-53975000D02*
X73115000Y-62140000D01*
%TD*%
M02*
